<?xml version="1.0" encoding="UTF-8" standalone="no"?>
<svg
   xmlns:dc="http://purl.org/dc/elements/1.1/"
   xmlns:cc="http://creativecommons.org/ns#"
   xmlns:rdf="http://www.w3.org/1999/02/22-rdf-syntax-ns#"
   xmlns:svg="http://www.w3.org/2000/svg"
   xmlns="http://www.w3.org/2000/svg"
   id="svg885"
   version="1.1"
   viewBox="0 0 79.374998 111.125"
   height="420"
   width="300">
  <defs
     id="defs879" />
  <metadata
     id="metadata882">
    <rdf:RDF>
      <cc:Work
         rdf:about="">
        <dc:format>image/svg+xml</dc:format>
        <dc:type
           rdf:resource="http://purl.org/dc/dcmitype/StillImage" />
        <dc:title></dc:title>
      </cc:Work>
    </rdf:RDF>
  </metadata>
  <g
     transform="translate(0,-185.87498)"
     id="layer1"
     style="opacity:0.99;fill:#5e9168;fill-opacity:1">
    <rect
       y="185.87776"
       x="0.0034530037"
       height="111.11626"
       width="79.368423"
       id="rect1430"
       style="opacity:1;fill:#5e9168;fill-opacity:1;fill-rule:nonzero;stroke:none;stroke-width:0.26598862;stroke-linecap:round;stroke-linejoin:round;stroke-miterlimit:4;stroke-dasharray:none;stroke-opacity:1;paint-order:normal" />
    <flowRoot
       style="fill:#5e9168;fill-opacity:1;stroke:none;font-family:Arial;font-style:normal;font-weight:bold;font-size:20.20399984px;line-height:1.25;letter-spacing:0px;word-spacing:0px;-inkscape-font-specification:'Arial, Bold';font-stretch:normal;font-variant:normal;text-anchor:start;text-align:start;writing-mode:lr;font-variant-ligatures:normal;font-variant-caps:normal;font-variant-numeric:normal;font-feature-settings:normal"
       id="flowRoot2560"
       xml:space="preserve"><flowRegion
         id="flowRegion2562"
         style="fill:#5e9168;fill-opacity:1"><rect
           y="-33.558495"
           x="-159.6041"
           height="422.24377"
           width="438.40622"
           id="rect2564"
           style="fill:#5e9168;fill-opacity:1" /></flowRegion><flowPara
         id="flowPara2566" /></flowRoot>  </g>
  <text
     xml:space="preserve"
     style="font-style:normal;font-variant:normal;font-weight:bold;font-stretch:normal;font-size:6.3499999px;line-height:1.25;font-family:Arial;-inkscape-font-specification:'Arial, Bold';font-variant-ligatures:normal;font-variant-caps:normal;font-variant-numeric:normal;font-feature-settings:normal;text-align:start;letter-spacing:0px;word-spacing:0px;writing-mode:lr-tb;text-anchor:start;fill:#c9ccc7;fill-opacity:1;stroke:none;stroke-width:0.26458332"
     x="2.7011271"
     y="8.8064241"
     id="text2322"><tspan
       x="2.7011271"
       y="8.8064241"
       id="tspan2320"
       style="fill:#c9ccc7;fill-opacity:1;stroke-width:0.26458332"><tspan
         x="2.7011271"
         y="8.8064241"
         id="tspan2318"
         style="fill:#c9ccc7;fill-opacity:1;stroke-width:0.26458332">24.</tspan></tspan></text>
  <style
     id="style1209"
     type="text/css">
	.st0{fill:#6D6C6B;}
	.st1{fill:#60BAE2;}
	.st2{fill:#F9D0B4;}
	.st3{fill:#F45D64;}
	.st4{fill:#E9E9EA;}
	.st5{fill:#6DCC6D;}
	.st6{fill:#F9D97D;}
	.st7{fill:#231F20;}
</style>
  <flowRoot
     style="fill:black;fill-opacity:1;stroke:none;font-family:Arial;font-style:normal;font-weight:bold;font-size:20.20399984px;line-height:1.25;letter-spacing:0px;word-spacing:0px;-inkscape-font-specification:'Arial, Bold';font-stretch:normal;font-variant:normal;text-anchor:start;text-align:start;writing-mode:lr;font-variant-ligatures:normal;font-variant-caps:normal;font-variant-numeric:normal;font-feature-settings:normal"
     id="flowRoot1045"
     xml:space="preserve"><flowRegion
       id="flowRegion1047"><rect
         y="289.03793"
         x="186.64673"
         height="88.682976"
         width="56.715855"
         id="rect1049" /></flowRegion><flowPara
       id="flowPara1051"></flowPara></flowRoot>  <g
     transform="matrix(0.98453538,0,0,0.78445445,10.298233,13.379527)"
     id="g1887">
    <g
       style="fill:#979598"
       id="g1823">
      <path
         d="m 12,56 h 4 v 4 h -4 z"
         id="path1817" />
      <path
         d="m 44,56 h 4 v 4 h -4 z"
         id="path1819" />
      <path
         d="m 10,50 h 40 v 6 H 10 Z"
         id="path1821" />
    </g>
    <path
       style="fill:#c9c6ca"
       d="m 10,50 h 37 v 6 H 10 Z"
       id="path1825" />
    <path
       style="fill:#804044"
       d="m 12,50 v -4 c 0,-1.105 0.895,-2 2,-2 h 32 c 1.105,0 2,0.895 2,2 v 4 z"
       id="path1827" />
    <path
       style="fill:#bf6065"
       d="M 43,44 H 14 c -1.105,0 -2,0.895 -2,2 v 4 h 33 v -4 c 0,-1.105 -0.895,-2 -2,-2 z"
       id="path1829" />
    <path
       style="fill:#c9c6ca"
       d="M 46,44 H 14 V 34 c 0,-1.105 0.895,-2 2,-2 h 28 c 1.105,0 2,0.895 2,2 z"
       id="path1831" />
    <path
       style="fill:#ff8087"
       d="m 25,38 h -6 c -0.552,0 -1,0.448 -1,1 v 5 h 7 z"
       id="path1833" />
    <path
       style="fill:#ff8087"
       d="m 35,38 h 6 c 0.552,0 1,0.448 1,1 v 5 h -7 z"
       id="path1835" />
    <circle
       style="fill:#fcc062"
       cx="30"
       cy="31"
       r="3"
       id="circle1837" />
    <path
       style="fill:#fcc062"
       d="m 27,34 h 6 l 4,-4 3,3 -5,5 v 6 H 25 v -6 l -5,-5 3,-3 z"
       id="path1839" />
    <path
       style="fill:#979598"
       d="M 0,0 H 60 V 24 H 0 Z"
       id="path1841" />
    <path
       style="fill:#c4deff"
       d="M 4,4 H 28 V 20 H 4 Z"
       id="path1843" />
    <circle
       style="fill:#fbb03b"
       cx="7"
       cy="7"
       r="3"
       id="circle1845" />
    <path
       style="fill:#c4deff"
       d="M 32,4 H 56 V 20 H 32 Z"
       id="path1847" />
    <path
       style="fill:#fbb03b"
       d="m 11,10.586 h 2 v 2.828 h -2 z"
       transform="matrix(0.707,-0.707,0.707,0.707,-4.971,12)"
       id="path1849" />
    <path
       style="fill:#fbb03b"
       d="m 13,7 h 2 v 2 h -2 z"
       id="path1851" />
    <path
       style="fill:#fbb03b"
       d="m 7,13 h 2 v 2 H 7 Z"
       id="path1853" />
    <path
       style="fill:#93a7bf"
       d="m 34.757,11 h 8.485 v 2 h -8.485 z"
       transform="matrix(0.707,-0.707,0.707,0.707,2.938,31.092)"
       id="path1855" />
    <path
       style="fill:#93a7bf"
       d="m 44.757,11 h 8.485 v 2 h -8.485 z"
       transform="matrix(0.707,-0.707,0.707,0.707,5.867,38.163)"
       id="path1857" />
  </g>
  <text
     id="text1905"
     y="80.374313"
     x="9.0034876"
     style="font-style:normal;font-variant:normal;font-weight:bold;font-stretch:normal;font-size:7.05555534px;line-height:1.25;font-family:Arial;-inkscape-font-specification:'Arial, Bold';font-variant-ligatures:normal;font-variant-caps:normal;font-variant-numeric:normal;font-feature-settings:normal;text-align:start;letter-spacing:0px;word-spacing:0px;writing-mode:lr-tb;text-anchor:start;fill:#c0d5ff;fill-opacity:1;stroke:none;stroke-width:0.26458332"
     xml:space="preserve"><tspan
       style="stroke-width:0.26458332"
       id="tspan1899"
       y="80.374313"
       x="9.0034876"><tspan
         style="stroke-width:0.26458332"
         id="tspan1897"
         y="80.374313"
         x="9.0034876">You are 1 cm taller </tspan></tspan><tspan
       style="stroke-width:0.26458332"
       id="tspan1903"
       y="89.193756"
       x="9.0034876"><tspan
         style="stroke-width:0.26458332"
         id="tspan1901"
         y="89.193756"
         x="9.0034876">when you wake up</tspan></tspan></text>
</svg>
