<?xml version="1.0" encoding="UTF-8" standalone="no"?>
<svg
   xmlns:dc="http://purl.org/dc/elements/1.1/"
   xmlns:cc="http://creativecommons.org/ns#"
   xmlns:rdf="http://www.w3.org/1999/02/22-rdf-syntax-ns#"
   xmlns:svg="http://www.w3.org/2000/svg"
   xmlns="http://www.w3.org/2000/svg"
   xmlns:sodipodi="http://sodipodi.sourceforge.net/DTD/sodipodi-0.dtd"
   xmlns:inkscape="http://www.inkscape.org/namespaces/inkscape"
   id="svg885"
   version="1.1"
   viewBox="0 0 79.374998 111.125"
   height="420"
   width="300"
   sodipodi:docname="007.svg"
   inkscape:version="0.92.4 (5da689c313, 2019-01-14)">
  <sodipodi:namedview
     pagecolor="#ffffff"
     bordercolor="#666666"
     borderopacity="1"
     objecttolerance="10"
     gridtolerance="10"
     guidetolerance="10"
     inkscape:pageopacity="0"
     inkscape:pageshadow="2"
     inkscape:window-width="1366"
     inkscape:window-height="745"
     id="namedview1053"
     showgrid="false"
     inkscape:zoom="0.96974646"
     inkscape:cx="94.951847"
     inkscape:cy="228.50388"
     inkscape:window-x="-8"
     inkscape:window-y="-8"
     inkscape:window-maximized="1"
     inkscape:current-layer="svg885" />
  <defs
     id="defs879" />
  <metadata
     id="metadata882">
    <rdf:RDF>
      <cc:Work
         rdf:about="">
        <dc:format>image/svg+xml</dc:format>
        <dc:type
           rdf:resource="http://purl.org/dc/dcmitype/StillImage" />
        <dc:title></dc:title>
      </cc:Work>
    </rdf:RDF>
  </metadata>
  <g
     transform="translate(0,-185.87498)"
     id="layer1"
     style="opacity:0.99;fill:#f10018;fill-opacity:1">
    <rect
       y="185.87776"
       x="0.0034530037"
       height="111.11626"
       width="79.368423"
       id="rect1430"
       style="opacity:1;fill:#f10018;fill-opacity:1;fill-rule:nonzero;stroke:none;stroke-width:0.26598862;stroke-linecap:round;stroke-linejoin:round;stroke-miterlimit:4;stroke-dasharray:none;stroke-opacity:1;paint-order:normal" />
    <flowRoot
       style="fill:#f10018;fill-opacity:1;stroke:none;font-family:Arial;font-style:normal;font-weight:bold;font-size:20.20399984px;line-height:1.25;letter-spacing:0px;word-spacing:0px;-inkscape-font-specification:'Arial, Bold';font-stretch:normal;font-variant:normal;text-anchor:start;text-align:start;writing-mode:lr;font-variant-ligatures:normal;font-variant-caps:normal;font-variant-numeric:normal;font-feature-settings:normal"
       id="flowRoot2560"
       xml:space="preserve"><flowRegion
         id="flowRegion2562"
         style="fill:#f10018;fill-opacity:1"><rect
           y="-33.558495"
           x="-159.6041"
           height="422.24377"
           width="438.40622"
           id="rect2564"
           style="fill:#f10018;fill-opacity:1" /></flowRegion><flowPara
         id="flowPara2566" /></flowRoot>  </g>
  <text
     xml:space="preserve"
     style="font-style:normal;font-variant:normal;font-weight:bold;font-stretch:normal;font-size:6.3499999px;line-height:1.25;font-family:Arial;-inkscape-font-specification:'Arial, Bold';font-variant-ligatures:normal;font-variant-caps:normal;font-variant-numeric:normal;font-feature-settings:normal;text-align:start;letter-spacing:0px;word-spacing:0px;writing-mode:lr-tb;text-anchor:start;fill:#000000;fill-opacity:1;stroke:none;stroke-width:0.26458332"
     x="2.7011271"
     y="8.8064241"
     id="text2322"><tspan
       sodipodi:role="line"
       x="2.7011271"
       y="8.8064241"
       id="tspan2320"
       style="stroke-width:0.26458332"><tspan
         x="2.7011271"
         y="8.8064241"
         id="tspan2318"
         style="stroke-width:0.26458332">7.</tspan></tspan></text>
  <g
     id="g2406"
     transform="matrix(0.01807357,0.00574669,-0.00524012,0.01648037,47.311045,42.719198)">
    <path
       id="path2264"
       d="M 361.931,0 H 150.069 c -14.626,0 -26.483,11.857 -26.483,26.483 v 459.034 c 0,14.626 11.857,26.483 26.483,26.483 h 211.862 c 14.626,0 26.483,-11.857 26.483,-26.483 V 26.483 C 388.414,11.857 376.557,0 361.931,0 Z M 220.69,35.31 c 0,-4.875 3.953,-8.828 8.828,-8.828 h 52.966 c 4.875,0 8.828,3.953 8.828,8.828 v 0 c 0,4.875 -3.953,8.828 -8.828,8.828 h -52.966 c -4.876,0 -8.828,-3.953 -8.828,-8.828 z m -26.483,-8.827 c 4.875,0 8.828,3.953 8.828,8.828 0,4.875 -3.953,8.828 -8.828,8.828 -4.875,0 -8.828,-3.953 -8.828,-8.828 0,-4.875 3.953,-8.828 8.828,-8.828 z M 256,494.345 c -9.751,0 -17.655,-7.905 -17.655,-17.655 0,-9.751 7.904,-17.655 17.655,-17.655 9.751,0 17.655,7.904 17.655,17.655 0,9.75 -7.904,17.655 -17.655,17.655 z M 370.759,335.448 V 441.379 H 141.241 V 335.448 70.621 h 229.517 v 264.827 z"
       style="fill:#707384"
       inkscape:connector-curvature="0" />
    <path
       id="path2266"
       d="m 141.241,335.448 h 70.621 c 0,-4.875 3.953,-8.828 8.828,-8.828 4.875,0 8.828,3.953 8.828,8.828 h 17.655 c 0,-4.875 3.953,-8.828 8.828,-8.828 4.875,0 8.828,3.953 8.828,8.828 h 17.655 c 0,-4.875 3.953,-8.828 8.828,-8.828 4.875,0 8.828,3.953 8.828,8.828 h 70.621 V 70.621 H 141.241 Z M 300.138,114.759 c 0,-4.875 3.953,-8.828 8.828,-8.828 h 35.31 c 4.875,0 8.828,3.953 8.828,8.828 v 35.31 c 0,4.875 -3.953,8.828 -8.828,8.828 h -35.31 c -4.875,0 -8.828,-3.953 -8.828,-8.828 z m 0,70.62 c 0,-4.875 3.953,-8.828 8.828,-8.828 h 35.31 c 4.875,0 8.828,3.953 8.828,8.828 v 35.31 c 0,4.875 -3.953,8.828 -8.828,8.828 h -35.31 c -4.875,0 -8.828,-3.953 -8.828,-8.828 z m 0,70.621 c 0,-4.875 3.953,-8.828 8.828,-8.828 h 35.31 c 4.875,0 8.828,3.953 8.828,8.828 v 35.31 c 0,4.875 -3.953,8.828 -8.828,8.828 h -35.31 c -4.875,0 -8.828,-3.953 -8.828,-8.828 z M 229.517,114.759 c 0,-4.875 3.953,-8.828 8.828,-8.828 h 35.31 c 4.875,0 8.828,3.953 8.828,8.828 v 35.31 c 0,4.875 -3.953,8.828 -8.828,8.828 h -35.31 c -4.875,0 -8.828,-3.953 -8.828,-8.828 z m 0,70.62 c 0,-4.875 3.953,-8.828 8.828,-8.828 h 35.31 c 4.875,0 8.828,3.953 8.828,8.828 v 35.31 c 0,4.875 -3.953,8.828 -8.828,8.828 h -35.31 c -4.875,0 -8.828,-3.953 -8.828,-8.828 z m 0,70.621 c 0,-4.875 3.953,-8.828 8.828,-8.828 h 35.31 c 4.875,0 8.828,3.953 8.828,8.828 v 35.31 c 0,4.875 -3.953,8.828 -8.828,8.828 h -35.31 c -4.875,0 -8.828,-3.953 -8.828,-8.828 z m -70.62,-141.241 c 0,-4.875 3.953,-8.828 8.828,-8.828 h 35.31 c 4.875,0 8.828,3.953 8.828,8.828 v 35.31 c 0,4.875 -3.953,8.828 -8.828,8.828 h -35.31 c -4.875,0 -8.828,-3.953 -8.828,-8.828 z m 0,70.62 c 0,-4.875 3.953,-8.828 8.828,-8.828 h 35.31 c 4.875,0 8.828,3.953 8.828,8.828 v 35.31 c 0,4.875 -3.953,8.828 -8.828,8.828 h -35.31 c -4.875,0 -8.828,-3.953 -8.828,-8.828 z m 0,70.621 c 0,-4.875 3.953,-8.828 8.828,-8.828 h 35.31 c 4.875,0 8.828,3.953 8.828,8.828 v 35.31 c 0,4.875 -3.953,8.828 -8.828,8.828 h -35.31 c -4.875,0 -8.828,-3.953 -8.828,-8.828 z"
       style="fill:#63afdb"
       inkscape:connector-curvature="0" />
    <path
       id="path2268"
       d="m 291.31,344.276 c -4.875,0 -8.828,-3.953 -8.828,-8.828 h -17.655 c 0,4.875 -3.953,8.828 -8.828,8.828 -4.875,0 -8.828,-3.953 -8.828,-8.828 h -17.655 c 0,4.875 -3.953,8.828 -8.828,8.828 -4.875,0 -8.828,-3.953 -8.828,-8.828 H 141.239 V 441.379 H 370.756 V 335.448 h -70.621 c 0.003,4.875 -3.95,8.828 -8.825,8.828 z m -79.448,61.793 c 0,4.875 -3.953,8.828 -8.828,8.828 h -35.31 c -4.875,0 -8.828,-3.953 -8.828,-8.828 v -35.31 c 0,-4.875 3.953,-8.828 8.828,-8.828 h 35.31 c 4.875,0 8.828,3.953 8.828,8.828 z m 70.621,0 c 0,4.875 -3.953,8.828 -8.828,8.828 h -35.31 c -4.875,0 -8.828,-3.953 -8.828,-8.828 v -35.31 c 0,-4.875 3.953,-8.828 8.828,-8.828 h 35.31 c 4.875,0 8.828,3.953 8.828,8.828 z m 26.483,-44.138 h 35.31 c 4.875,0 8.828,3.953 8.828,8.828 v 35.31 c 0,4.875 -3.953,8.828 -8.828,8.828 h -35.31 c -4.875,0 -8.828,-3.953 -8.828,-8.828 v -35.31 c 0,-4.875 3.952,-8.828 8.828,-8.828 z"
       style="fill:#468cbe"
       inkscape:connector-curvature="0" />
    <g
       id="g2276">
      <path
         id="path2270"
         d="m 229.517,44.138 h 52.966 c 4.875,0 8.828,-3.953 8.828,-8.828 v 0 c 0,-4.875 -3.953,-8.828 -8.828,-8.828 h -52.966 c -4.875,0 -8.828,3.953 -8.828,8.828 v 0 c 0.001,4.875 3.953,8.828 8.828,8.828 z"
         style="fill:#464655"
         inkscape:connector-curvature="0" />
      <circle
         id="circle2272"
         r="8.8280001"
         cy="35.310001"
         cx="194.207"
         style="fill:#464655" />
      <circle
         id="circle2274"
         r="17.655001"
         cy="476.69"
         cx="256"
         style="fill:#464655" />
    </g>
    <path
       id="path2278"
       d="m 273.655,361.931 h -35.31 c -4.875,0 -8.828,3.953 -8.828,8.828 v 35.31 c 0,4.875 3.953,8.828 8.828,8.828 h 35.31 c 4.875,0 8.828,-3.953 8.828,-8.828 v -35.31 c 0,-4.875 -3.953,-8.828 -8.828,-8.828 z M 256,406.069 c -9.751,0 -17.655,-7.905 -17.655,-17.655 0,-9.751 7.904,-17.655 17.655,-17.655 9.751,0 17.655,7.904 17.655,17.655 0,9.75 -7.904,17.655 -17.655,17.655 z"
       style="fill:#63afdb"
       inkscape:connector-curvature="0" />
    <path
       id="path2280"
       d="m 300.138,406.069 c 0,4.875 3.953,8.828 8.828,8.828 h 35.31 c 4.875,0 8.828,-3.953 8.828,-8.828 v -35.31 c 0,-4.875 -3.953,-8.828 -8.828,-8.828 h -35.31 c -4.875,0 -8.828,3.953 -8.828,8.828 z"
       style="fill:#ff6469"
       inkscape:connector-curvature="0" />
    <path
       id="path2282"
       d="m 203.034,361.931 h -35.31 c -4.875,0 -8.828,3.953 -8.828,8.828 v 35.31 c 0,4.875 3.953,8.828 8.828,8.828 h 35.31 c 4.875,0 8.828,-3.953 8.828,-8.828 v -35.31 c 0,-4.875 -3.952,-8.828 -8.828,-8.828 z"
       style="fill:#00dccd"
       inkscape:connector-curvature="0" />
    <path
       id="path2284"
       d="m 238.345,300.138 h 35.31 c 4.875,0 8.828,-3.953 8.828,-8.828 V 256 c 0,-4.875 -3.953,-8.828 -8.828,-8.828 h -35.31 c -4.875,0 -8.828,3.953 -8.828,8.828 v 35.31 c 0,4.875 3.953,8.828 8.828,8.828 z"
       style="fill:#ffdc69"
       inkscape:connector-curvature="0" />
    <path
       id="path2286"
       d="m 308.966,300.138 h 35.31 c 4.875,0 8.828,-3.953 8.828,-8.828 V 256 c 0,-4.875 -3.953,-8.828 -8.828,-8.828 h -35.31 c -4.875,0 -8.828,3.953 -8.828,8.828 v 35.31 c 0,4.875 3.952,8.828 8.828,8.828 z m 0,-26.483 c 0,-4.875 3.953,-8.828 8.828,-8.828 h 17.655 c 4.875,0 8.828,3.953 8.828,8.828 v 0 c 0,4.875 -3.953,8.828 -8.828,8.828 h -17.655 c -4.876,0 -8.828,-3.953 -8.828,-8.828 z"
       style="fill:#ffffff"
       inkscape:connector-curvature="0" />
    <path
       id="path2288"
       d="m 167.724,300.138 h 35.31 c 4.875,0 8.828,-3.953 8.828,-8.828 V 256 c 0,-4.875 -3.953,-8.828 -8.828,-8.828 h -35.31 c -4.875,0 -8.828,3.953 -8.828,8.828 v 35.31 c 0.001,4.875 3.953,8.828 8.828,8.828 z m 0,-26.483 c 0,-4.875 3.953,-8.828 8.828,-8.828 h 17.655 c 4.875,0 8.828,3.953 8.828,8.828 v 0 c 0,4.875 -3.953,8.828 -8.828,8.828 h -17.655 c -4.875,0 -8.828,-3.953 -8.828,-8.828 z"
       style="fill:#468cbe"
       inkscape:connector-curvature="0" />
    <path
       id="path2290"
       d="m 238.345,229.517 h 35.31 c 4.875,0 8.828,-3.953 8.828,-8.828 v -35.31 c 0,-4.875 -3.953,-8.828 -8.828,-8.828 h -35.31 c -4.875,0 -8.828,3.953 -8.828,8.828 v 35.31 c 0,4.876 3.953,8.828 8.828,8.828 z m 0,-26.483 c 0,-4.875 3.953,-8.828 8.828,-8.828 h 17.655 c 4.875,0 8.828,3.953 8.828,8.828 v 0 c 0,4.875 -3.953,8.828 -8.828,8.828 h -17.655 c -4.876,0 -8.828,-3.952 -8.828,-8.828 z"
       style="fill:#464655"
       inkscape:connector-curvature="0" />
    <path
       id="path2292"
       d="m 308.966,229.517 h 35.31 c 4.875,0 8.828,-3.953 8.828,-8.828 v -35.31 c 0,-4.875 -3.953,-8.828 -8.828,-8.828 h -35.31 c -4.875,0 -8.828,3.953 -8.828,8.828 v 35.31 c 0,4.876 3.952,8.828 8.828,8.828 z"
       style="fill:#ffa055"
       inkscape:connector-curvature="0" />
    <path
       id="path2294"
       d="m 167.724,229.517 h 35.31 c 4.875,0 8.828,-3.953 8.828,-8.828 v -35.31 c 0,-4.875 -3.953,-8.828 -8.828,-8.828 h -35.31 c -4.875,0 -8.828,3.953 -8.828,8.828 v 35.31 c 0.001,4.876 3.953,8.828 8.828,8.828 z m 17.655,-44.138 c 9.751,0 17.655,7.904 17.655,17.655 0,9.75 -7.904,17.655 -17.655,17.655 -9.751,0 -17.655,-7.905 -17.655,-17.655 0,-9.751 7.904,-17.655 17.655,-17.655 z"
       style="fill:#a0d778"
       inkscape:connector-curvature="0" />
    <path
       id="path2296"
       d="m 238.345,158.897 h 35.31 c 4.875,0 8.828,-3.953 8.828,-8.828 v -35.31 c 0,-4.875 -3.953,-8.828 -8.828,-8.828 h -35.31 c -4.875,0 -8.828,3.953 -8.828,8.828 v 35.31 c 0,4.875 3.953,8.828 8.828,8.828 z"
       style="fill:#ff6469"
       inkscape:connector-curvature="0" />
    <path
       id="path2298"
       d="m 308.966,158.897 h 35.31 c 4.875,0 8.828,-3.953 8.828,-8.828 v -35.31 c 0,-4.875 -3.953,-8.828 -8.828,-8.828 h -35.31 c -4.875,0 -8.828,3.953 -8.828,8.828 v 35.31 c 0,4.875 3.952,8.828 8.828,8.828 z m 17.655,-44.138 c 9.751,0 17.655,7.904 17.655,17.655 0,9.75 -7.904,17.655 -17.655,17.655 -9.751,0 -17.655,-7.905 -17.655,-17.655 0,-9.751 7.904,-17.655 17.655,-17.655 z"
       style="fill:#00dccd"
       inkscape:connector-curvature="0" />
    <g
       id="g2306">
      <path
         id="path2300"
         d="m 167.724,158.897 h 35.31 c 4.875,0 8.828,-3.953 8.828,-8.828 v -35.31 c 0,-4.875 -3.953,-8.828 -8.828,-8.828 h -35.31 c -4.875,0 -8.828,3.953 -8.828,8.828 v 35.31 c 0.001,4.875 3.953,8.828 8.828,8.828 z"
         style="fill:#ffdc69"
         inkscape:connector-curvature="0" />
      <circle
         id="circle2302"
         r="17.655001"
         cy="203.034"
         cx="185.379"
         style="fill:#ffdc69" />
      <circle
         id="circle2304"
         r="17.655001"
         cy="388.414"
         cx="256"
         style="fill:#ffdc69" />
    </g>
    <circle
       id="circle2308"
       r="17.655001"
       cy="132.414"
       cx="326.621"
       style="fill:#ff6469" />
    <path
       id="path2310"
       d="m 247.172,211.862 h 17.655 c 4.875,0 8.828,-3.953 8.828,-8.828 v 0 c 0,-4.875 -3.953,-8.828 -8.828,-8.828 h -17.655 c -4.875,0 -8.828,3.953 -8.828,8.828 v 0 c 0.001,4.876 3.953,8.828 8.828,8.828 z"
       style="fill:#468cbe"
       inkscape:connector-curvature="0" />
    <path
       id="path2312"
       d="m 317.793,282.483 h 17.655 c 4.875,0 8.828,-3.953 8.828,-8.828 v 0 c 0,-4.875 -3.953,-8.828 -8.828,-8.828 h -17.655 c -4.875,0 -8.828,3.953 -8.828,8.828 v 0 c 0.001,4.875 3.953,8.828 8.828,8.828 z"
       style="fill:#ff6469"
       inkscape:connector-curvature="0" />
    <path
       id="path2314"
       d="m 176.552,282.483 h 17.655 c 4.875,0 8.828,-3.953 8.828,-8.828 v 0 c 0,-4.875 -3.953,-8.828 -8.828,-8.828 h -17.655 c -4.875,0 -8.828,3.953 -8.828,8.828 v 0 c 0,4.875 3.953,8.828 8.828,8.828 z"
       style="fill:#ffffff"
       inkscape:connector-curvature="0" />
    <circle
       id="circle2316"
       r="8.8280001"
       cy="335.448"
       cx="220.69"
       style="fill:#464655" />
    <g
       id="g2322">
      <circle
         id="circle2318"
         r="8.8280001"
         cy="335.448"
         cx="256"
         style="fill:#ffffff" />
      <circle
         id="circle2320"
         r="8.8280001"
         cy="335.448"
         cx="291.31"
         style="fill:#ffffff" />
    </g>
    <g
       id="g2324" />
    <g
       id="g2326" />
    <g
       id="g2328" />
    <g
       id="g2330" />
    <g
       id="g2332" />
    <g
       id="g2334" />
    <g
       id="g2336" />
    <g
       id="g2338" />
    <g
       id="g2340" />
    <g
       id="g2342" />
    <g
       id="g2344" />
    <g
       id="g2346" />
    <g
       id="g2348" />
    <g
       id="g2350" />
    <g
       id="g2352" />
  </g>
  <g
     id="g1251"
     transform="matrix(0.29048089,0,0,0.29721235,0.60512179,6.8847577)">
    <g
       inkscape:label="arms &amp; legs"
       id="layer6-3">
      <path
         sodipodi:nodetypes="cc"
         inkscape:connector-curvature="0"
         id="path878"
         d="M 66.768157,139.81035 C 51.893233,146.9178 32.246079,178.46662 40.013915,173.24137"
         style="fill:none;stroke:#000000;stroke-width:4.60422993;stroke-linecap:round;stroke-linejoin:miter;stroke-miterlimit:4;stroke-dasharray:none;stroke-opacity:1" />
      <path
         style="fill:none;stroke:#000000;stroke-width:4.60422993;stroke-linecap:round;stroke-linejoin:miter;stroke-miterlimit:4;stroke-dasharray:none;stroke-opacity:1"
         d="m 139.53994,141.79213 c 9.68927,12.94143 46.27336,20.1737 38.88094,13.73954"
         id="path880"
         inkscape:connector-curvature="0"
         sodipodi:nodetypes="cc" />
      <path
         sodipodi:nodetypes="cc"
         inkscape:connector-curvature="0"
         id="path882"
         d="m 82.131923,185.30806 c 11.483861,17.80912 -11.928366,48.16385 -0.374176,45.46254"
         style="fill:none;stroke:#000000;stroke-width:5.86499977;stroke-linecap:round;stroke-linejoin:miter;stroke-miterlimit:4;stroke-dasharray:none;stroke-opacity:1" />
      <path
         style="fill:none;stroke:#000000;stroke-width:5.86499977;stroke-linecap:round;stroke-linejoin:miter;stroke-miterlimit:4;stroke-dasharray:none;stroke-opacity:1"
         d="m 116.18207,184.93389 c 11.48386,17.80912 -11.92837,48.16385 -0.37418,45.46254"
         id="path884"
         inkscape:connector-curvature="0"
         sodipodi:nodetypes="cc" />
    </g>
    <g
       style="display:inline"
       inkscape:label="body"
       id="layer4-6">
      <rect
         ry="2.5358722"
         y="136.27773"
         x="64.645958"
         height="49.587734"
         width="75.683777"
         id="rect2154"
         style="opacity:1;fill:#fe7b6a;fill-opacity:1;stroke:none;stroke-width:0.07566334;stroke-linecap:round;stroke-linejoin:round;stroke-miterlimit:4;stroke-dasharray:none;stroke-opacity:1;paint-order:normal" />
      <path
         sodipodi:nodetypes="ccccc"
         inkscape:connector-curvature="0"
         id="path2156"
         d="m 64.791873,156.17051 75.391307,-0.72834 5e-5,18.15658 -75.391309,0.11601 z"
         style="fill:#f0624e;fill-opacity:1;stroke:#f0624e;stroke-width:0.32813942;stroke-linecap:butt;stroke-linejoin:miter;stroke-miterlimit:4;stroke-dasharray:none;stroke-opacity:1" />
    </g>
    <g
       id="layer1-2"
       inkscape:label="face">
      <g
         style="fill:#a3e0c0;fill-opacity:1"
         inkscape:label="Layer 1"
         id="layer1-4"
         transform="translate(4.1038546,-103.99778)">
        <rect
           style="opacity:1;fill:#a3e0c0;fill-opacity:1;stroke:none;stroke-width:3.00399995;stroke-linecap:round;stroke-linejoin:round;stroke-miterlimit:4;stroke-dasharray:none;stroke-opacity:1;paint-order:normal"
           id="rect815"
           width="132.66963"
           height="100.1637"
           x="33.261906"
           y="146.18748"
           ry="50.081848"
           rx="49.514881" />
      </g>
      <path
         d="M 79.913584,104.69958 A 10.022608,10.557146 0 0 1 69.891632,115.25672 10.022608,10.557146 0 0 1 59.868368,104.70096 10.022608,10.557146 0 0 1 69.889008,94.142431 10.022608,10.557146 0 0 1 79.913583,104.69681 l -10.022607,0.003 z"
         sodipodi:end="6.2829235"
         sodipodi:start="0"
         sodipodi:ry="10.557146"
         sodipodi:rx="10.022608"
         sodipodi:cy="104.69958"
         sodipodi:cx="69.890976"
         sodipodi:type="arc"
         id="path2023"
         style="fill:#86d0ab;fill-opacity:1;fill-rule:evenodd;stroke-width:0.26458332" />
      <path
         d="m 161.16352,101.75961 a 10.423512,11.358955 0 0 1 -10.42283,11.35896 10.423512,11.358955 0 0 1 -10.4242,-11.35747 10.423512,11.358955 0 0 1 10.42147,-11.360442 10.423512,11.358955 0 0 1 10.42556,11.355982 l -10.42351,0.003 z"
         sodipodi:end="6.2829235"
         sodipodi:start="0"
         sodipodi:ry="11.358955"
         sodipodi:rx="10.423512"
         sodipodi:cy="101.75961"
         sodipodi:cx="150.74001"
         sodipodi:type="arc"
         id="path2025"
         style="fill:#86d0ab;fill-opacity:1;fill-rule:evenodd;stroke-width:0.26458332" />
      <path
         sodipodi:nodetypes="ccccccc"
         inkscape:connector-curvature="0"
         id="path2029"
         d="M 135.46234,139.90161 C 103.83913,141.25495 74.025655,141.06533 71.045524,115.05813 55.376425,115 57.726273,95.128724 69.412294,93.82613 65.298145,53.389322 79.393102,48.961318 88.864323,42.672194 59.562019,39.595249 37.185723,67.453189 37.809284,89.960016 c -1.76528,33.488194 25.446872,52.047174 47.118697,52.046414 23.662139,0.75924 42.395969,0.886 50.534359,-2.10482 z"
         style="fill:#95d8af;fill-opacity:1;stroke:#95d8af;stroke-width:0.26458332px;stroke-linecap:butt;stroke-linejoin:miter;stroke-opacity:1" />
      <path
         sodipodi:nodetypes="ccccc"
         inkscape:connector-curvature="0"
         id="path2031"
         d="M 42.918268,69.134595 29.167873,57.475574 c -4.06867,-3.600109 1.797433,-10.284612 5.762783,-6.888703 l 13.041932,10.732934 c -2.588087,3.245779 -3.523411,5.121467 -5.05432,7.81479 z"
         style="fill:#77c79f;fill-opacity:1;stroke:none;stroke-width:0.114;stroke-linecap:butt;stroke-linejoin:miter;stroke-miterlimit:4;stroke-dasharray:none;stroke-opacity:1" />
      <path
         sodipodi:nodetypes="ccccc"
         inkscape:connector-curvature="0"
         id="path2033"
         d="M 49.850716,58.986426 29.938228,41.293354 C 26.241189,38.140029 32.50453,32.234957 35.8028,34.8462 l 20.059955,18.236876 c -1.122746,1.030173 -4.87864,4.541005 -6.012039,5.90335 z"
         style="fill:#77c79f;fill-opacity:1;stroke:none;stroke-width:0.075;stroke-linecap:butt;stroke-linejoin:miter;stroke-miterlimit:4;stroke-dasharray:none;stroke-opacity:1" />
      <path
         style="fill:#77c79f;fill-opacity:1;stroke:none;stroke-width:0.114;stroke-linecap:butt;stroke-linejoin:miter;stroke-miterlimit:4;stroke-dasharray:none;stroke-opacity:1"
         d="M 58.093776,51.342742 44.461795,39.800021 c -4.06867,-3.600109 1.797433,-10.284612 5.762783,-6.888703 l 15.195652,13.90722 c -1.85391,0.869755 -5.856491,3.288176 -7.326454,4.524204 z"
         id="path2044"
         inkscape:connector-curvature="0"
         sodipodi:nodetypes="ccccc" />
    </g>
    <g
       style="display:inline"
       inkscape:label="eye &amp; brow"
       id="layer2-3">
      <path
         style="fill:#ffffff;fill-opacity:1;fill-rule:evenodd;stroke-width:0.26458332"
         id="path847"
         sodipodi:type="arc"
         sodipodi:cx="95.161148"
         sodipodi:cy="82.887405"
         sodipodi:rx="13.607142"
         sodipodi:ry="12.851191"
         sodipodi:start="0"
         sodipodi:end="6.2829235"
         d="M 108.76829,82.887405 A 13.607142,12.851191 0 0 1 95.162039,95.738596 13.607142,12.851191 0 0 1 81.554006,82.889088 13.607142,12.851191 0 0 1 95.158476,70.036215 13.607142,12.851191 0 0 1 108.76829,82.884041 l -13.607142,0.0034 z" />
      <path
         d="M 133.94442,83.118378 A 13.607142,12.851191 0 0 1 120.33816,95.969568 13.607142,12.851191 0 0 1 106.73013,83.12006 13.607142,12.851191 0 0 1 120.3346,70.267187 13.607142,12.851191 0 0 1 133.94441,83.115013 l -13.60714,0.0034 z"
         sodipodi:end="6.2829235"
         sodipodi:start="0"
         sodipodi:ry="12.851191"
         sodipodi:rx="13.607142"
         sodipodi:cy="83.118378"
         sodipodi:cx="120.33727"
         sodipodi:type="arc"
         id="path2091"
         style="fill:#ffffff;fill-opacity:1;fill-rule:evenodd;stroke-width:0.26458332;paint-order:fill markers stroke" />
      <path
         d="m 106.59161,88.869087 a 6.1208024,5.7743421 0 0 1 -6.1204,5.774342 6.1208024,5.7743421 0 0 1 -6.121202,-5.773586 6.1208024,5.7743421 0 0 1 6.119602,-5.775098 6.1208024,5.7743421 0 0 1 6.122,5.77283 l -6.1208,0.0015 z"
         sodipodi:end="6.2829235"
         sodipodi:start="0"
         sodipodi:ry="5.7743421"
         sodipodi:rx="6.1208024"
         sodipodi:cy="88.869087"
         sodipodi:cx="100.47081"
         sodipodi:type="arc"
         id="path2179"
         style="fill:#000000;fill-opacity:1;fill-rule:evenodd;stroke:none;stroke-width:0.26458332;stroke-opacity:1" />
      <path
         style="fill:#000000;fill-opacity:1;fill-rule:evenodd;stroke-width:0.26458332;paint-order:markers stroke fill"
         id="path2181"
         sodipodi:type="arc"
         sodipodi:cx="125.98262"
         sodipodi:cy="88.31131"
         sodipodi:rx="6.1208024"
         sodipodi:ry="5.7743421"
         sodipodi:start="0"
         sodipodi:end="6.2829235"
         d="m 132.10342,88.31131 a 6.1208024,5.7743421 0 0 1 -6.1204,5.774342 6.1208024,5.7743421 0 0 1 -6.1212,-5.773586 6.1208024,5.7743421 0 0 1 6.1196,-5.775098 6.1208024,5.7743421 0 0 1 6.122,5.77283 l -6.1208,0.0015 z" />
      <path
         sodipodi:nodetypes="cccccccc"
         inkscape:connector-curvature="0"
         id="path2201"
         d="m 81.47596,82.945154 c 1.738848,-17.658284 23.00856,-14.931422 26.27325,-4.965933 7.83267,-13.688767 26.00903,-7.572675 26.1952,5.13579 l 13.16761,-1.258019 -5.85786,-21.035023 -67.631584,4.659656 -1.464463,18.372362 z"
         style="fill:#a3e0c0;fill-opacity:1;stroke:#a3e0c0;stroke-width:0.065;stroke-linecap:butt;stroke-linejoin:miter;stroke-miterlimit:4;stroke-dasharray:none;stroke-opacity:1" />
      <path
         sodipodi:nodetypes="cccccccccc"
         inkscape:connector-curvature="0"
         id="path2213"
         d="m 81.47596,82.945154 c 1.045872,13.684224 19.03344,18.034166 26.17231,5.112708 5.50008,11.980628 25.5048,10.051654 26.29614,-4.942853 l 13.16761,-1.258017 -9.33918,16.744471 -55.829213,5.144777 -6.559526,-11.403483 -3.128389,-0.201829 -0.0976,-8.286943 z"
         style="fill:#a3e0c0;fill-opacity:1;stroke:#a3e0c0;stroke-width:0.065;stroke-linecap:butt;stroke-linejoin:miter;stroke-miterlimit:4;stroke-dasharray:none;stroke-opacity:1" />
    </g>
    <g
       inkscape:label="eyebrow cover"
       id="layer5-9" />
    <g
       style="display:inline"
       inkscape:label="mouth"
       id="layer3-0">
      <path
         inkscape:connector-curvature="0"
         id="path895-1"
         d="m 91.369316,108.83786 c 13.065004,1.17432 23.937894,-1.0793 34.845494,-3.27864"
         style="fill:none;stroke:#64a2d6;stroke-width:8.25;stroke-linecap:round;stroke-linejoin:miter;stroke-miterlimit:4;stroke-dasharray:none;stroke-opacity:1"
         sodipodi:nodetypes="cc" />
      <path
         sodipodi:nodetypes="cc"
         inkscape:connector-curvature="0"
         id="path897"
         d="m 91.369316,108.83786 c 11.615164,0.14245 23.230334,-1.26731 34.845494,-3.27864"
         style="fill:none;stroke:#000000;stroke-width:2.06500006;stroke-linecap:round;stroke-linejoin:miter;stroke-miterlimit:4;stroke-dasharray:none;stroke-opacity:1" />
    </g>
  </g>
  <g
     id="g1377"
     transform="matrix(0.05324882,0,0,0.05444618,50.932939,4.0644158)">
    <g
       id="g1316">
	<rect
   id="rect1304"
   height="455.73099"
   width="455.73099"
   style="fill:#dc472e"
   y="0"
   x="0" />

	<g
   id="g1314">
		<path
   id="path1306"
   d="m 263.259,291.734 c -0.01,-1.7 -0.51,-3.47 -1.14,-5.06 -0.84,-2.09 -2.64,-3.13 -4.9,-3.35 -2.65,-0.26 -4.77,0.81 -6.69,2.51 -0.77,0.67 -1.12,1.67 -1.12,1.67 l 0.04,53.97 v 1.33 c 0,0 0.46,0.62 0.53,0.7 1.56,1.69 3.38,3.03 5.71,3.51 3.84,0.79 6.55,-0.81 7.3,-4.37 0.19,-0.89 0.3,-1.81 0.3,-2.72 0.02,-16.07 0.05,-32.13 -0.03,-48.19 z m 0,0 c -0.01,-1.7 -0.51,-3.47 -1.14,-5.06 -0.84,-2.09 -2.64,-3.13 -4.9,-3.35 -2.65,-0.26 -4.77,0.81 -6.69,2.51 -0.77,0.67 -1.12,1.67 -1.12,1.67 l 0.04,53.97 v 1.33 c 0,0 0.46,0.62 0.53,0.7 1.56,1.69 3.38,3.03 5.71,3.51 3.84,0.79 6.55,-0.81 7.3,-4.37 0.19,-0.89 0.3,-1.81 0.3,-2.72 0.02,-16.07 0.05,-32.13 -0.03,-48.19 z m 60.43,-81.39 c -63.87,-1.37 -127.77,-1.37 -191.65,0 -22.16,0.47 -39.88,18.59 -39.88,40.76 v 99.76 c 0,22.18 17.72,40.3 39.88,40.77 63.88,1.37 127.78,1.37 191.65,0 22.17,-0.47 39.89,-18.59 39.89,-40.77 v -99.76 c 0,-22.169 -17.72,-40.29 -39.89,-40.76 z m -172.89,149.611 h -18.42 v -104.13 h -19.07 v -17.42 h 56.6 v 17.38 h -19.11 z m 65.92,-43.221 v 43.23 h -16.31 v -9.88 c -0.59,0.63 -0.92,0.97 -1.23,1.32 -3.51,3.96 -7.49,7.26 -12.57,9.01 -2.48,0.85 -5.03,1.14 -7.64,0.69 -3.56,-0.59 -5.95,-2.64 -7.39,-5.88 -1.34,-2.99 -1.68,-6.19 -1.69,-9.41 -0.04,-11.9 -0.02,-74.88 -0.02,-75.49 h 16.27 c 0.03,0.55 0.09,45.76 0.1,67.81 0,1.2 0.01,2.43 0.25,3.6 0.6,2.96 2.87,4.23 5.72,3.19 3.28,-1.2 5.78,-3.46 7.88,-6.17 0.31,-0.39 0.31,-1.09 0.31,-1.65 v -66.88 l 16.32,-0.04 c 0,10e-4 0,31.57 0,46.55 z m 62.05,34.59 c -2.18,6.56 -6.98,9.9 -13.88,9.83 -5.61,-0.05 -10.16,-2.28 -13.91,-6.35 -0.42,-0.45 -1.58,-1.68 -1.58,-1.68 v 6.82 h -16.34 v -121.55 h 16.34 c 0,12.94 0,40.01 0,40.01 0,0 0.92,-1.84 1.76,-2.79 2.53,-2.83 5.61,-5.02 9.41,-5.98 6.27,-1.57 13.5,0.37 16.94,7.7 2.03,4.33 2.6,8.95 2.6,13.65 0.03,16.99 0.03,33.98 0.01,50.97 -0.01,3.18 -0.34,6.321 -1.35,9.37 z m 60.35,-3.419 c -2.83,8.29 -8.68,12.89 -17.26,14.15 -5.32,0.78 -10.59,0.67 -15.58,-1.59 -6.83,-3.08 -10.7,-8.65 -12.36,-15.74 -0.77,-3.3 -1.15,-6.76 -1.19,-10.15 -0.13,-13.31 -0.07,-26.63 -0.04,-39.94 0.01,-6.96 1.67,-13.38 6.44,-18.71 5.44,-6.09 12.4,-8.36 20.35,-7.85 2.39,0.15 4.83,0.54 7.1,1.29 7.73,2.54 11.86,8.33 13.48,16.01 0.62,2.96 0.85,6.03 0.9,9.06 0.13,7.1 -0.05,22.75 -0.05,22.75 h -31.29 v 22.43 c 0,4.03 3.26,7.29 7.29,7.29 4.02,0 7.28,-3.26 7.28,-7.29 v -11.53 h 16.81 c 0,-10e-4 0.25,13.61 -1.88,19.82 z m -14.93,-57.22 c 0,-4.02 -3.26,-7.29 -7.28,-7.29 -4.03,0 -7.29,3.27 -7.29,7.29 v 12.59 h 14.57 z m -62.07,-4.01 c -0.84,-2.09 -2.64,-3.13 -4.9,-3.35 -2.65,-0.26 -4.77,0.81 -6.69,2.51 -0.77,0.67 -1.12,1.67 -1.12,1.67 l 0.04,53.97 v 1.33 c 0,0 0.46,0.62 0.53,0.7 1.56,1.69 3.38,3.03 5.71,3.51 3.84,0.79 6.55,-0.81 7.3,-4.37 0.19,-0.89 0.3,-1.81 0.3,-2.72 0.02,-16.07 0.05,-32.13 -0.03,-48.19 -0.01,-1.701 -0.51,-3.471 -1.14,-5.06 z"
   style="fill:#ffffff"
   inkscape:connector-curvature="0" />

		<path
   id="path1308"
   d="m 303.887,94.99 -0.005,90.244 H 287.16 l 0.02,-9.695 c -1.849,1.821 -3.427,3.522 -5.161,5.05 -3.074,2.708 -6.556,4.727 -10.629,5.524 -6.253,1.223 -11.579,-0.754 -13.573,-7.23 -0.664,-2.157 -1.065,-4.482 -1.082,-6.734 V 94.99 h 16.596 v 68.821 c 0,0.912 0.073,1.834 0.233,2.728 0.504,2.836 2.6,4.171 5.331,3.224 3.329,-1.152 5.869,-3.457 8.024,-6.173 0.306,-0.388 0.251,-1.112 0.251,-1.681 V 94.99 Z"
   style="fill:#ffffff"
   inkscape:connector-curvature="0" />

		<path
   id="path1310"
   d="M 165.578,110.672 C 161.948,95.371 154.343,63.07 154.343,63.07 h -19.029 c 0,0 14.62,48.487 21.158,70.111 0.235,0.782 0.343,1.631 0.343,2.45 l -0.007,49.584 h 17.547 l -0.007,-49.584 c 0,-0.819 0.108,-1.668 0.343,-2.45 6.538,-21.624 21.158,-70.111 21.158,-70.111 H 176.82 c 0,0 -7.606,32.301 -11.235,47.602 z"
   style="fill:#ffffff"
   inkscape:connector-curvature="0" />

		<path
   id="path1312"
   d="m 218.752,92.731 v 0 c -13.224,0 -23.944,10.72 -23.944,23.944 v 46.859 c 0,13.224 10.72,23.944 23.944,23.944 v 0 c 13.224,0 23.944,-10.72 23.944,-23.944 v -46.859 c 0.001,-13.224 -10.72,-23.944 -23.944,-23.944 z m 6.91,71.749 c 0,3.81 -3.1,6.909 -6.909,6.909 -3.809,0 -6.909,-3.099 -6.909,-6.909 v -48.752 c 0,-3.81 3.1,-6.909 6.909,-6.909 3.809,0 6.909,3.1 6.909,6.909 z"
   style="fill:#ffffff"
   inkscape:connector-curvature="0" />

	</g>

</g>
    <g
       id="g1318">
</g>
    <g
       id="g1320">
</g>
    <g
       id="g1322">
</g>
    <g
       id="g1324">
</g>
    <g
       id="g1326">
</g>
    <g
       id="g1328">
</g>
    <g
       id="g1330">
</g>
    <g
       id="g1332">
</g>
    <g
       id="g1334">
</g>
    <g
       id="g1336">
</g>
    <g
       id="g1338">
</g>
    <g
       id="g1340">
</g>
    <g
       id="g1342">
</g>
    <g
       id="g1344">
</g>
    <g
       id="g1346">
</g>
  </g>
  <text
     xml:space="preserve"
     style="font-style:normal;font-variant:normal;font-weight:bold;font-stretch:normal;font-size:5.34564161px;line-height:1.25;font-family:Arial;-inkscape-font-specification:'Arial, Bold';font-variant-ligatures:normal;font-variant-caps:normal;font-variant-numeric:normal;font-feature-settings:normal;text-align:start;letter-spacing:0px;word-spacing:0px;writing-mode:lr-tb;text-anchor:start;fill:#ff7b32;fill-opacity:1;stroke:none;stroke-width:0.26458332"
     x="6.8207722"
     y="90.838799"
     id="text1460"><tspan
       sodipodi:role="line"
       x="6.8207722"
       y="90.838799"
       id="tspan1450"
       style="stroke-width:0.26458332"><tspan
         x="6.8207722"
         y="90.838799"
         id="tspan1448"
         style="stroke-width:0.26458332">On every one minute, 100 </tspan></tspan><tspan
       sodipodi:role="line"
       x="6.8207722"
       y="97.520859"
       id="tspan1454"
       style="stroke-width:0.26458332"><tspan
         x="6.8207722"
         y="97.520859"
         id="tspan1452"
         style="stroke-width:0.26458332">hours of video is </tspan></tspan><tspan
       sodipodi:role="line"
       x="6.8207722"
       y="104.20291"
       id="tspan1458"
       style="stroke-width:0.26458332"><tspan
         x="6.8207722"
         y="104.20291"
         id="tspan1456"
         style="stroke-width:0.26458332">uploading in youtube!</tspan></tspan></text>
  <g
     id="g1446"
     transform="matrix(0.04831704,0,0,0.04516127,48.199929,59.355746)">
    <path
       id="path1417"
       d="m 271.27734,144.11328 -61.88671,-38.23437 v 76.46875 l 0.004,76.46875 61.88281,-38.23438 61.89063,-38.23437 z m 0,0"
       inkscape:connector-curvature="0"
       style="fill:#ffffff;fill-rule:evenodd" />
    <path
       id="path1419"
       d="m 209.39063,105.87891 61.88671,38.23437 61.89063,38.23438 -61.89063,38.23437 -61.88281,38.23438 -0.004,-76.46875 z m -195.574224,163.375 c 5.242188,50.12109 25.367188,70.11718 66.09375,76.46875 76.730474,11.96093 275.449224,11.96093 352.183594,0 40.72266,-6.35157 60.84766,-26.34375 66.08984,-76.46875 5.12891,-48.9961 5.12891,-124.81641 0,-173.812504 -5.24218,-50.121094 -25.36718,-70.117187 -66.08984,-76.46875 -76.73437,-11.960937 -275.45312,-11.960937 -352.183594,0 -40.726562,6.351563 -60.851562,26.347656 -66.09375,76.46875 -5.125,48.996094 -5.125,124.816404 0,173.812504 z m 0,0"
       inkscape:connector-curvature="0"
       style="fill:#ff0000;fill-rule:evenodd" />
    <path
       id="path1421"
       d="m 329.84766,343.49219 c -23.49219,0.79687 -48.33594,1.19922 -73.84766,1.19922 -73.74609,0 -138.99609,-3.3086 -174.550781,-8.85157 -37.988281,-5.92187 -53.082031,-23.62109 -57.6875,-67.6289 -5.035157,-48.14844 -5.035157,-123.58203 0,-171.730471 4.605469,-44.007813 19.699219,-61.703125 57.6875,-67.625 6.167969,-0.964844 13.414062,-1.878907 21.542971,-2.722657 5.49609,-0.570312 9.48828,-5.484374 8.91797,-10.980468 C 111.33984,9.660156 106.41797,5.664062 100.92969,6.238281 92.460938,7.117188 84.871094,8.078125 78.367188,9.089844 54.671875,12.785156 38.0625,20.742188 26.101562,34.128906 13.792969,47.894531 6.730469,67.046875 3.867188,94.402344 c -5.15625,49.316406 -5.15625,126.574216 0,175.890626 2.863281,27.35547 9.925781,46.50391 22.234374,60.27344 11.960938,13.38672 28.570313,21.34375 52.265626,25.03515 36.511722,5.69531 102.917972,9.09375 177.632812,9.09375 25.73438,0 50.80859,-0.40625 74.52344,-1.21094 5.51953,-0.1875 9.84375,-4.8125 9.65625,-10.33203 -0.1875,-5.51953 -4.78907,-9.84375 -10.33203,-9.66015 z m 0,0"
       inkscape:connector-curvature="0" />
    <path
       id="path1423"
       d="M 508.13281,94.402344 C 505.26953,67.050781 498.20703,47.898438 485.90234,34.128906 473.9375,20.742188 457.32813,12.785156 433.63281,9.09375 397.11719,3.398438 330.71094,0 256,0 c -25.73437,0 -50.80469,0.410156 -74.51953,1.210938 -5.52344,0.1875 -9.84766,4.8125 -9.66016,10.332031 0.1875,5.523437 4.79297,9.855469 10.33594,9.660156 23.48828,-0.796875 48.33594,-1.199219 73.84766,-1.199219 73.73828,0 138.99218,3.308594 174.55078,8.851563 37.98437,5.925781 53.08203,23.621093 57.68359,67.628906 5.03906,48.148435 5.03906,123.582035 0,171.730465 -4.60156,44.00782 -19.69922,61.70313 -57.68359,67.62891 -6.16797,0.96094 -13.41797,1.875 -21.54688,2.71875 -5.49218,0.57031 -9.48437,5.48438 -8.91406,10.98047 0.53516,5.14453 4.875,8.96875 9.93359,8.96875 0.34766,0 0.69532,-0.0195 1.04688,-0.0547 8.46484,-0.8789 16.05469,-1.83594 22.55859,-2.85156 23.69532,-3.69531 40.30469,-11.64844 52.26953,-25.03516 12.30469,-13.76953 19.36719,-32.92187 22.23047,-60.27344 5.15625,-49.3164 5.15625,-126.57812 0,-175.894526 z m 0,0"
       inkscape:connector-curvature="0" />
    <path
       id="path1425"
       d="M 338.42188,173.83984 214.64844,97.367188 c -3.08594,-1.90625 -6.96094,-1.992188 -10.12891,-0.226563 -3.16406,1.765625 -5.1289,5.109375 -5.1289,8.734375 v 152.94141 c 0,3.625 1.96484,6.96875 5.1289,8.73437 1.51953,0.84375 3.19531,1.26563 4.8711,1.26563 1.82812,0 3.64843,-0.5 5.25781,-1.49219 l 123.77344,-76.46875 c 2.94921,-1.82422 4.74609,-5.04297 4.74609,-8.50781 0,-3.46875 -1.79688,-6.6875 -4.74609,-8.50782 z M 219.39453,240.88281 V 123.8125 l 94.74219,58.53516 z m 0,0"
       inkscape:connector-curvature="0" />
    <path
       id="path1427"
       d="m 141.84375,23.035156 c 0.22266,0 0.44922,-0.0078 0.67578,-0.01953 5.51172,-0.367187 9.67969,-5.132813 9.3125,-10.644531 -0.36719,-5.511719 -5.14062,-9.6875 -10.64453,-9.316406 h -0.008 c -5.51172,0.367187 -9.67578,5.132812 -9.3086,10.644531 0.35157,5.285156 4.75,9.335937 9.97266,9.335937 z m 0,0"
       inkscape:connector-curvature="0" />
    <path
       id="path1429"
       d="m 369.48438,341.68359 c -5.51172,0.36329 -9.6836,5.12891 -9.31641,10.64063 0.35156,5.28516 4.75,9.33594 9.96875,9.33594 0.22656,0 0.44922,-0.008 0.67578,-0.0195 h 0.008 c 5.51172,-0.36719 9.67578,-5.13282 9.3086,-10.64454 -0.36719,-5.51171 -5.125,-9.67578 -10.64453,-9.3125 z m 0,0"
       inkscape:connector-curvature="0" />
  </g>
</svg>
