<?xml version="1.0" encoding="UTF-8" standalone="no"?>
<svg
   xmlns:dc="http://purl.org/dc/elements/1.1/"
   xmlns:cc="http://creativecommons.org/ns#"
   xmlns:rdf="http://www.w3.org/1999/02/22-rdf-syntax-ns#"
   xmlns:svg="http://www.w3.org/2000/svg"
   xmlns="http://www.w3.org/2000/svg"
   xmlns:sodipodi="http://sodipodi.sourceforge.net/DTD/sodipodi-0.dtd"
   xmlns:inkscape="http://www.inkscape.org/namespaces/inkscape"
   id="svg885"
   version="1.1"
   viewBox="0 0 79.374998 111.125"
   height="420"
   width="300"
   sodipodi:docname="002.svg"
   inkscape:version="0.92.4 (5da689c313, 2019-01-14)">
  <sodipodi:namedview
     pagecolor="#ffffff"
     bordercolor="#666666"
     borderopacity="1"
     objecttolerance="10"
     gridtolerance="10"
     guidetolerance="10"
     inkscape:pageopacity="0"
     inkscape:pageshadow="2"
     inkscape:window-width="1366"
     inkscape:window-height="745"
     id="namedview1053"
     showgrid="false"
     inkscape:zoom="1.3714286"
     inkscape:cx="150"
     inkscape:cy="210"
     inkscape:window-x="-8"
     inkscape:window-y="-8"
     inkscape:window-maximized="1"
     inkscape:current-layer="svg885" />
  <defs
     id="defs879" />
  <metadata
     id="metadata882">
    <rdf:RDF>
      <cc:Work
         rdf:about="">
        <dc:format>image/svg+xml</dc:format>
        <dc:type
           rdf:resource="http://purl.org/dc/dcmitype/StillImage" />
        <dc:title />
      </cc:Work>
    </rdf:RDF>
  </metadata>
  <g
     transform="translate(0,-185.87498)"
     id="layer1">
    <rect
       y="185.87776"
       x="0.0034530037"
       height="111.11626"
       width="79.368423"
       id="rect1430"
       style="opacity:1;fill:#4c4cff;fill-opacity:1;fill-rule:nonzero;stroke:none;stroke-width:0.26598862;stroke-linecap:round;stroke-linejoin:round;stroke-miterlimit:4;stroke-dasharray:none;stroke-opacity:1;paint-order:normal" />
    <flowRoot
       style="fill:black;fill-opacity:1;stroke:none;font-family:Arial;font-style:normal;font-weight:bold;font-size:20.20399984px;line-height:1.25;letter-spacing:0px;word-spacing:0px;-inkscape-font-specification:'Arial, Bold';font-stretch:normal;font-variant:normal;text-anchor:start;text-align:start;writing-mode:lr;font-variant-ligatures:normal;font-variant-caps:normal;font-variant-numeric:normal;font-feature-settings:normal"
       id="flowRoot2560"
       xml:space="preserve"><flowRegion
         id="flowRegion2562"><rect
           y="-33.558495"
           x="-159.6041"
           height="422.24377"
           width="438.40622"
           id="rect2564" /></flowRegion><flowPara
         id="flowPara2566" /></flowRoot>  </g>
  <g
     id="layer2">
    <g
       transform="matrix(0.05593561,0,0,0.03832459,23.940115,1.5020795)"
       id="g3260">
      <polygon
         style="fill:#b5c1c6"
         points="339.132,192.824 180.838,275.61 326.594,418.762 452.822,373.126 442.051,242.964 "
         id="polygon3148" />
      <polygon
         style="fill:#f94f79"
         points="327.638,203.137 169.345,278.366 315.1,408.449 441.328,366.979 430.557,248.7 "
         id="polygon3150" />
      <g
         id="g3166">
        <polygon
           style="fill:#f2f2f2"
           points="324.789,266.511 321.499,259.001 341.864,256.665 340.361,264.726 335.475,290.904 "
           id="polygon3152" />
        <polygon
           style="fill:#f2f2f2"
           points="357.568,261.092 354.003,253.691 374.389,250.728 373.079,258.838 368.91,284.635 "
           id="polygon3154" />
        <polygon
           style="fill:#f2f2f2"
           points="398.601,253.361 395.804,245.684 416.056,244.411 414.243,252.377 408.091,279.411 "
           id="polygon3156" />
        <polygon
           style="fill:#f2f2f2"
           points="451.692,243.617 449.001,235.751 470.224,235.979 467.364,243.786 459.289,265.828 "
           id="polygon3158" />
        <polygon
           style="fill:#f2f2f2"
           points="350.959,356.994 353.873,364.858 332.229,364.66 335.287,356.851 343.312,336.355 "
           id="polygon3160" />
        <polygon
           style="fill:#f2f2f2"
           points="382.06,361.198 384.102,369.342 362.564,366.717 366.501,359.302 376.746,340.011 "
           id="polygon3162" />
        <polygon
           style="fill:#f2f2f2"
           points="419.663,364.76 421.228,372.855 400.59,370.255 404.113,362.8 414.883,340.011 "
           id="polygon3164" />
      </g>
      <path
         style="fill:#b5c1c6"
         d="m 341.744,174.691 c 0,0 -38.423,-79.931 -110.113,-110.113 v 110.113"
         id="path3168" />
      <path
         style="fill:#c3d1d8"
         d="m 496.003,237.399 -191.875,33.134 4.838,51.231 c 1.745,18.526 16.29,33.249 34.785,35.224 l 121.041,12.925 -1.411,5.998 -8.965,38.087 -167.988,32.507 c -16.478,3.197 -33.468,-2.069 -45.255,-14.023 L 196.378,387.081 161.844,352.077 84.49,273.668 0,352.035 49.998,223.502 0,101.259 90.749,169.47 H 512 Z"
         id="path3170" />
      <path
         style="fill:#b5c1c6"
         d="m 463.381,375.91 -8.965,38.087 -167.988,32.507 c -16.478,3.197 -33.468,-2.069 -45.255,-14.023 L 196.378,387.08 161.844,352.076 84.49,273.667 0,352.034 49.998,223.501 0,101.259 90.749,169.47 c 0,0 72.328,173.15 180.464,220.17 79.894,34.743 157.226,4.462 192.168,-13.73 z"
         id="path3172" />
      <g
         id="g3178">
        <path
           style="fill:#4d4d4d"
           d="m 387.559,226.126 c -2.613,0 -5.167,-1.306 -6.654,-3.686 l -6.525,-10.449 c -2.293,-3.671 -1.176,-8.505 2.496,-10.798 3.67,-2.291 8.504,-1.176 10.798,2.496 l 6.525,10.449 c 2.293,3.671 1.176,8.505 -2.496,10.798 -1.29,0.804 -2.725,1.19 -4.144,1.19 z"
           id="path3174" />
        <path
           style="fill:#4d4d4d"
           d="m 437.34,226.126 c -1.418,0 -2.853,-0.385 -4.144,-1.191 -3.672,-2.292 -4.789,-7.127 -2.496,-10.798 l 6.525,-10.449 c 2.291,-3.672 7.128,-4.789 10.798,-2.496 3.672,2.292 4.789,7.127 2.496,10.798 l -6.525,10.449 c -1.486,2.38 -4.041,3.687 -6.654,3.687 z"
           id="path3176" />
      </g>
      <g
         id="g3186">
        <path
           style="fill:#b5c1c6"
           d="m 264.947,212.981 c -1.926,6.595 -3.455,12.013 -4.339,17.351 -0.914,5.287 -1.369,10.304 -1.367,15.341 0.017,5.036 0.469,10.05 1.388,15.333 0.885,5.334 2.406,10.751 4.319,17.36 -6.633,-1.966 -11.984,-6.789 -15.722,-12.642 -3.719,-5.896 -5.665,-12.982 -5.656,-20.051 0.009,-7.068 1.954,-14.15 5.677,-20.042 3.738,-5.85 9.082,-10.67 15.7,-12.65 z"
           id="path3180" />
        <path
           style="fill:#b5c1c6"
           d="m 227.333,212.981 c -1.927,6.595 -3.455,12.013 -4.339,17.351 -0.914,5.287 -1.369,10.304 -1.367,15.341 0.017,5.036 0.469,10.05 1.388,15.333 0.885,5.334 2.406,10.751 4.319,17.36 -6.633,-1.966 -11.985,-6.789 -15.722,-12.642 -3.719,-5.896 -5.665,-12.982 -5.656,-20.051 0.009,-7.068 1.954,-14.15 5.677,-20.042 3.738,-5.85 9.081,-10.67 15.7,-12.65 z"
           id="path3182" />
        <path
           style="fill:#b5c1c6"
           d="m 178.748,328.519 -51.72,72.095 c 0,0 96.699,-27.739 120.992,-52.032"
           id="path3184" />
      </g>
      <g
         id="g3188" />
      <g
         id="g3190" />
      <g
         id="g3192" />
      <g
         id="g3194" />
      <g
         id="g3196" />
      <g
         id="g3198" />
      <g
         id="g3200" />
      <g
         id="g3202" />
      <g
         id="g3204" />
      <g
         id="g3206" />
      <g
         id="g3208" />
      <g
         id="g3210" />
      <g
         id="g3212" />
      <g
         id="g3214" />
      <g
         id="g3216" />
    </g>
    <g
       transform="matrix(0.03312926,0,0,0.04093257,52.012618,25.187349)"
       id="g3393">
      <path
         style="fill:#3b5566"
         d="M 77.296875,348.40625 51.941406,384.66016 41.289062,363.35547 H 16.515625 L 0,322.06641 66.066406,338.58203 Z m 0,0"
         id="path3316" />
      <path
         style="fill:#d2d7db"
         d="M 507.81641,371.07813 512,412.90234 487.22656,388.12891 429.41797,355.09766 417.10156,400.25391 c -8.03125,29.45703 -26.44922,55.00781 -51.85156,71.94531 l -18.09375,12.0625 c -26.73047,17.82031 -59.24219,24.79687 -90.93359,19.51562 -32.9961,-5.5 -64.98438,-15.90234 -94.90235,-30.85937 L 140.38672,462.45313 109,500.11328 C 102.72656,507.64453 93.429688,512 83.625,512 H 41.289062 c 16.058594,-10.70312 28.089844,-26.45703 34.191407,-44.76172 l 7.101562,-21.30469 -5.453125,-10.8164 55.578124,-38.48047 9.22266,3.95312 c 30.92578,13.25 65.63672,14.69532 97.55468,4.05469 l -16.51562,-24.77344 -41.29297,-16.51562 -66.0625,-33.03125 -8.25781,-24.77734 h 132.1289 l 41.28907,-41.28907 v -57.80468 l -49.54688,16.51562 H 33.03125 L 16.515625,189.93359 6.804688,155.94922 C 2.289062,140.14844 0,123.79297 0,107.35547 L 90.839844,90.839844 c 60.066406,-10.921875 121.609376,-10.921875 181.675776,0 l 7.79688,-6.5 c 27.66016,-23.050782 58.78125,-41.601563 92.21094,-54.976563 l 12.07031,-4.828125 C 425.11719,8.328125 468.35937,0 512,0 l -53.69531,68.339844 c -24.52735,31.21875 -42.75391,66.906246 -53.66016,105.078126 l 24.77344,66.06641 c 10.28906,0 19.85937,5.2539 25.38281,13.93359 L 481.75,295.76563 c 14.46094,22.72265 23.38672,48.51562 26.06641,75.3125 z m 0,0"
         id="path3318" />
      <path
         style="fill:#fcfcfc"
         d="m 41.289062,247.74219 33.035157,33.03125 33.031251,-33.03125 33.03125,33.03125 33.03125,-33.03125 33.03516,33.03125 33.03125,-33.03125 41.28906,16.51562 v -57.80468 l -49.54688,16.51562 H 33.03125 Z m 0,0"
         id="path3320" />
      <path
         style="fill:#f4f1ed"
         d="m 107.35547,305.54688 -16.515626,-8.25782 -16.515625,-16.51562 33.031251,-33.03125 33.03125,33.03125 33.03125,-33.03125 33.03516,33.03125 33.03125,-33.03125 41.28906,16.51562 -41.28906,41.28907 z m 0,0"
         id="path3322" />
      <path
         style="fill:#536c87"
         d="M 429.41797,355.09766 404.64453,346.83984 396.38672,330.32422 382,392.66797 c -6.70703,29.06641 -23.47656,54.82812 -47.34375,72.72656 -6.33984,4.75391 -13.08203,8.88281 -20.13281,12.34375 C 295.65625,487.00391 277,496.375 256,495.48438 h -33.03125 l 33.25391,8.29687 c 31.6914,5.28125 64.20312,-1.69922 90.93359,-19.51953 L 365.25,472.19922 c 25.40234,-16.93359 43.82031,-42.48828 51.85156,-71.94141 z m 0,0"
         id="path3324" />
      <path
         style="fill:#536c87"
         d="M 16.515625,189.93359 H 222.96875 l 43.23438,-18.52734 c 9.45312,-4.05078 19.97265,-4.89453 29.95312,-2.39844 11.35547,2.83985 21.25,9.8086 27.74219,19.55078 l 22.9414,34.41016 h 49.54688 l 33.03125,16.51563 -24.77344,-66.06641 C 383.23438,141.30469 351.73438,117.24609 315.11719,105.03906 L 272.51562,90.839844 c -60.0664,-10.921875 -121.60937,-10.921875 -181.675776,0 L 0,107.35547 c 0,16.43359 2.289062,32.78906 6.804688,48.59375 z m 0,0"
         id="path3326" />
      <path
         style="fill:#3b5566"
         d="m 272.51563,388.12891 -6.66407,13.32422 c -6.43359,12.87109 -16.40625,23.64062 -28.74609,31.04296 -14.51172,8.70704 -31.51953,12.29688 -48.3125,10.19922 l -14.23438,-1.77734 c -17.23437,-2.15625 -34.21093,-6.00781 -50.6875,-11.5 L 82.582031,512 H 41.289062 c 16.058594,-10.70312 28.089844,-26.45703 34.191407,-44.76172 l 7.101562,-21.30469 -5.453125,-10.8164 55.578124,-38.48047 9.22266,3.95312 c 30.92578,13.25 65.63672,14.69532 97.55469,4.05469 l -16.51563,-24.77344 z m 0,0"
         id="path3328" />
      <path
         style="fill:#5d7993"
         d="m 346.83984,222.96875 h 49.54688 l 33.03125,16.51563 c 10.28906,0 19.85937,5.2539 25.38281,13.93359 L 481.75,295.76563 c 14.46094,22.72265 23.38672,48.51562 26.06641,75.3164 L 512,412.90234 487.22656,388.12891 C 481.83203,355.76953 467.30859,325.625 445.36328,301.24219 419.44531,272.44531 382.51953,256 343.77344,256 h -5.19141 z m 0,0"
         id="path3330" />
      <path
         style="fill:#536c87"
         d="M 322.06641,107.35547 C 338.39063,85.585938 359.19922,67.578125 383.08594,54.550781 L 422.82422,32.875 c 9.88281,-5.390625 20.22266,-9.890625 30.90234,-13.449219 L 512,0 C 468.35937,0 425.11719,8.328125 384.59766,24.535156 l -12.07422,4.828125 c -33.42969,13.375 -64.54688,31.925781 -92.20703,54.976563 l -7.80079,6.5 z m 0,0"
         id="path3332" />
      <path
         style="fill:#c3c7c9"
         d="m 165.16016,355.09766 c -5.35938,16.08203 -15.78907,29.99218 -29.72266,39.64453 l -2.73047,1.89062 -55.578124,38.48438 -27.582031,19.07422 13.542969,-47.31641 2.976562,-10.48828 26.175782,-34.9336 23.371092,-31.1289 z m 0,0"
         id="path3334" />
      <path
         style="fill:#466077"
         d="m 115.61328,330.32422 -23.371092,31.12891 -19.640626,26.21093 c -4.320312,5.76563 -7.542968,12.27735 -9.511718,19.21094 l -13.542969,47.32031 v -66.0664 l 2.398437,-3.46875 25.351563,-36.25391 30.058595,-42.85937 z m 0,0"
         id="path3336" />
      <g
         style="fill:#3b5566"
         id="g3348">
        <path
           d="m 57.8125,165.16016 c -3.03125,0 -5.945312,-1.66797 -7.394531,-4.5625 L 42.160156,144.07813 C 40.121094,140 41.773438,135.03906 45.855469,133 c 4.089843,-2.03125 9.039062,-0.37891 11.078125,3.69141 l 8.257812,16.51953 c 2.042969,4.07812 0.390625,9.03906 -3.691406,11.07812 -1.1875,0.58985 -2.449219,0.8711 -3.6875,0.8711 z m 0,0"
           id="path3338" />
        <path
           d="m 99.105469,165.16016 c -3.03125,0 -5.949219,-1.66797 -7.394531,-4.5625 L 83.453125,144.07813 C 81.410156,140 83.066406,135.03906 87.144531,133 c 4.09375,-2.03125 9.046875,-0.37891 11.082031,3.69141 l 8.257808,16.51953 c 2.03907,4.07812 0.38672,9.03906 -3.69531,11.07812 -1.18359,0.58985 -2.44531,0.8711 -3.683591,0.8711 z m 0,0"
           id="path3340" />
        <path
           d="m 318.58594,164.86719 c -0.42578,-3 0.8164,-6.1211 3.48047,-7.96094 l 15.1914,-10.49609 c 3.75391,-2.59375 8.89844,-1.65625 11.49219,2.09765 2.58594,3.76953 1.64453,8.90235 -2.10156,11.49219 l -15.19141,10.49609 c -3.75391,2.59375 -8.89844,1.65235 -11.49219,-2.10156 -0.75,-1.08984 -1.20703,-2.30078 -1.3789,-3.52734 z m 0,0"
           id="path3342" />
        <path
           d="m 343.35938,189.64063 c -0.42579,-3 0.8164,-6.1211 3.48046,-7.96094 l 15.19532,-10.4961 c 3.75,-2.59375 8.89453,-1.65234 11.48828,2.10157 2.58594,3.76562 1.64453,8.89843 -2.10156,11.48828 l -15.19141,10.49609 c -3.75391,2.59375 -8.89844,1.65235 -11.49219,-2.10156 -0.74609,-1.08984 -1.20312,-2.30078 -1.3789,-3.52734 z m 0,0"
           id="path3344" />
        <path
           d="m 359.875,214.41406 c -0.42578,-3 0.81641,-6.12109 3.48047,-7.96093 l 15.19531,-10.4961 c 3.75391,-2.59375 8.89453,-1.65234 11.48828,2.10156 2.58594,3.76563 1.64453,8.89844 -2.10156,11.48829 l -15.19141,10.49609 c -3.7539,2.59375 -8.89843,1.65234 -11.49218,-2.10156 -0.7461,-1.08985 -1.20313,-2.30078 -1.37891,-3.52735 z m 0,0"
           id="path3346" />
      </g>
      <path
         style="fill:#ffffff"
         d="m 222.96875,132.12891 c 0,13.70703 -11.06641,24.77343 -24.77344,24.77343 -13.71093,0 -24.77734,-11.0664 -24.77734,-24.77343 0,-1.32032 0.082,-2.5586 0.33203,-3.79688 4.21094,-1.90234 8.00781,-4.54297 11.3125,-7.84766 L 186.55078,119 c 5.20313,-5.20313 11.8086,-8.83594 18.91016,-10.48828 10.15625,3.05469 17.50781,12.46875 17.50781,23.61719 z m 0,0"
         id="path3350" />
      <path
         style="fill:#493c35"
         d="m 214.71094,140.38672 c 0,9.12109 -7.39453,16.51562 -16.51563,16.51562 -9.125,0 -16.51953,-7.39453 -16.51953,-16.51562 0,-9.12109 7.39453,-16.51563 16.51953,-16.51563 9.1211,0 16.51563,7.39454 16.51563,16.51563 z m 0,0"
         id="path3352" />
      <path
         style="fill:#ffffff"
         d="m 198.19531,132.12891 c 0,4.5625 -3.69922,8.25781 -8.26172,8.25781 -4.55859,0 -8.25781,-3.69531 -8.25781,-8.25781 0,-4.5625 3.69922,-8.25782 8.25781,-8.25782 4.5625,0 8.26172,3.69532 8.26172,8.25782 z m 0,0"
         id="path3354" />
      <path
         style="fill:#ffffff"
         d="m 206.45313,152.77344 c 0,2.28125 -1.85157,4.1289 -4.12891,4.1289 -2.28125,0 -4.12891,-1.84765 -4.12891,-4.1289 0,-2.28125 1.84766,-4.12891 4.12891,-4.12891 2.27734,0 4.12891,1.84766 4.12891,4.12891 z m 0,0"
         id="path3356" />
      <path
         style="fill:#3b5566"
         d="m 156.90234,140.38672 c -4.55859,0 -8.25781,-3.69531 -8.25781,-8.25781 0,-4.5625 3.69922,-8.25782 8.25781,-8.25782 4.58204,0 9.17969,-1.03906 13.30079,-3 3.43359,-1.54687 6.42187,-3.6289 9.02343,-6.22656 l 1.48438,-1.48437 c 6.28906,-6.28907 14.19922,-10.67579 22.8789,-12.69141 3.59766,-0.902344 7.37891,-1.371094 11.1211,-1.371094 h 16.51562 c 4.5625,0 8.25782,3.691404 8.25782,8.257814 0,4.5625 -3.69922,8.25781 -8.25782,8.25781 h -16.51562 c -2.39453,0 -4.83594,0.30469 -7.25391,0.91016 -5.79687,1.34765 -10.96484,4.21875 -15.07031,8.3164 l -1.48438,1.48047 c -4.01171,4.01953 -8.64062,7.22657 -13.75,9.53516 -6.17578,2.94141 -13.23046,4.53125 -20.25,4.53125 z m 0,0"
         id="path3358" />
      <path
         style="fill:#fa4c52"
         d="m 313.80469,198.19531 c 0,13.67969 -11.08985,24.77344 -24.77344,24.77344 -13.67969,0 -24.77344,-11.09375 -24.77344,-24.77344 0,-13.68359 11.09375,-24.77734 24.77344,-24.77734 13.68359,0 24.77344,11.09375 24.77344,24.77734 z m 0,0"
         id="path3360" />
    </g>
    <g
       transform="matrix(0.05777893,0,0,0.05038756,9.4636745,20.956067)"
       id="g3535">
      <path
         style="fill:#cac0c9"
         d="M 179.96484,89.984375 51.554688,52.820312 C 29.40625,46.410156 7.242188,63.085938 7.414062,86.144531 7.882812,148.63672 26.835938,259.4375 146.85156,310.13281 c 172.1875,72.73438 283.51563,-67.53906 283.51563,-67.53906 0,0 -2.96875,51.95313 48.24219,75.70313 0,0 -13.50782,-37.7461 -6.38282,-90.09375 7.07032,-51.91797 32.35938,-93.22657 32.35938,-93.22657 0,0 -40.03516,1.9961 -66.01172,45.04297 L 397.71094,162.4375 c 0,0 7.54687,-35.16016 -5.8125,-41.09375 C 378.54297,115.40234 359.625,146.125 359.625,146.125 l -74.13281,-25.54297 c 0,0 1.44922,-53.265624 29.45703,-90.14453 7.49219,-9.863281 -0.0899,-23.886719 -12.4375,-22.960938 -39.85938,3 -100.41406,18.511719 -122.54688,82.507813 z m 0,0"
         id="path3485" />
      <path
         style="fill:#bbb0ba"
         d="m 430.36328,242.69922 c -0.10937,2.49609 -1.67969,52.44531 48.2461,75.59766 0,0 -5.37891,-15.05469 -7.5586,-39.32032 -25.57031,-10.76562 -36.47265,-24.41015 -40.6875,-36.27734 z m 0,0"
         id="path3487" />
      <path
         style="fill:#bbb0ba"
         d="m 430.18359,242.18359 c -2.92968,-8.61718 -13.67578,-11.47265 -20.40625,-5.34765 C 370.09375,272.96875 275.44531,337.45313 146.85156,283.13281 38.5625,237.39063 12.554688,142.72266 8.160156,78.75 7.664062,81.125 7.394531,83.589844 7.414062,86.144531 7.882812,148.63672 26.835938,259.4375 146.85156,310.13281 c 170.64453,72.08203 281.51172,-65.03906 283.48828,-67.5039 -0.0547,-0.14844 -0.10546,-0.29688 -0.15625,-0.44532 z m 0,0"
         id="path3489" />
      <path
         style="fill:#ffe9c8"
         d="m 9.546875,120.66406 c 7.386719,63.01563 37.15625,147.16407 137.304685,189.46875 106.1875,44.85547 189.23047,8.69922 237.28907,-25.60937 C 63.933594,262.83984 9.546875,120.66406 9.546875,120.66406 Z m 0,0"
         id="path3491" />
      <path
         style="fill:#ffdca7"
         d="M 146.85156,283.13281 C 67.574219,249.64453 32.398438,189.93359 17.515625,135.23828 c -5.851563,-9.04297 -7.96875,-14.57422 -7.96875,-14.57422 7.386719,63.01563 37.15625,147.16407 137.304685,189.46875 106.1875,44.85547 189.23047,8.69922 237.28907,-25.60937 -13.76172,-0.92969 -27.01954,-2.08985 -39.8125,-3.44531 -48.82032,23.32421 -116.40235,36.30078 -197.47657,2.05468 z m 0,0"
         id="path3493" />
      <path
         style="fill:#cac0c9"
         d="m 178.60938,237.95313 c 14.94531,39.21093 56.90234,134.01953 113.1289,133.89062 35.97656,-0.0781 4.66406,-67.89062 12.49219,-133.24609"
         id="path3495" />
      <path
         style="fill:#bbb0ba"
         d="m 304.48047,292.01563 c 1.10937,27.32421 -0.67188,45.63281 -20.42578,45.67578 -30.82422,0.0703 -62.10938,-26.23828 -86.54688,-56.48438 20.94922,42.02735 53.92188,90.72656 94.23047,90.63672 26.00391,-0.0586 16.85547,-35.50391 12.74219,-79.82812 z m 0,0"
         id="path3497" />
      <path
         d="m 93.804688,133.39063 c 0,10.59765 6.683592,18.89843 15.214842,18.89843 8.53516,0 15.21875,-8.30078 15.21875,-18.89843 0,-10.59766 -6.68359,-18.90235 -15.21875,-18.90235 -8.53125,0 -15.214842,8.30469 -15.214842,18.90235 z m 0,0"
         id="path3499" />
      <path
         d="m 187.66016,204.21484 c 2.92578,2.85157 7.75,2.78907 10.60156,-0.13671 24.59375,-25.24219 18.62109,-55.45313 12.02344,-67.89844 -1.94141,-3.66016 -6.47657,-5.05469 -10.13672,-3.11719 -3.66016,1.94141 -5.05469,6.48047 -3.11328,10.13672 0.14062,0.26562 13.68359,26.60547 -9.51563,50.41406 -2.88672,2.96485 -2.82812,7.71485 0.14063,10.60156 z m 0,0"
         id="path3501" />
      <path
         d="m 223.01563,214.38672 c 1.95312,0 3.90234,-0.75781 5.37109,-2.26563 24.59766,-25.24609 18.62109,-55.45312 12.02344,-67.90234 -1.9375,-3.65625 -6.47657,-5.05078 -10.13672,-3.11328 -3.65625,1.94141 -5.05078,6.47656 -3.11328,10.13672 0.14062,0.26172 13.6875,26.60156 -9.51172,50.41015 -2.89063,2.96875 -2.82813,7.71485 0.13672,10.60547 1.45703,1.42188 3.34765,2.12891 5.23047,2.12891 z m 0,0"
         id="path3503" />
      <path
         d="m 253.14453,222.42969 c 1.95313,0 3.90235,-0.75781 5.3711,-2.26563 24.59375,-25.24609 18.62109,-55.45312 12.02343,-67.90234 -1.92968,-3.64453 -6.43359,-5.02734 -10.08984,-3.11328 -3.65625,1.91406 -5.07031,6.4375 -3.17578,10.10156 0.55859,1.08594 13.47656,26.87109 -9.4961,50.44922 -2.89062,2.96484 -2.82812,7.71094 0.13672,10.60156 1.45703,1.42188 3.34375,2.12891 5.23047,2.12891 z m 0,0"
         id="path3505" />
      <path
         d="m 90.058594,266.63281 c -17.8125,-15.35937 -32.589844,-33.55468 -44.210938,-54.33984 18.582032,9.47656 48.960938,19.84766 95.121094,22.15625 0.12891,0.008 0.25391,0.008 0.37891,0.008 3.96875,0 7.28125,-3.11328 7.48437,-7.12109 0.20703,-4.13672 -2.98047,-7.65625 -7.11328,-7.86328 C 69.007812,215.83613 38.785156,191.11347 33.46875,186.20332 31.929688,182.33222 30.464844,178.39863 29.109375,174.383 19.980469,147.27734 15.230469,117.58203 14.996094,86.121094 14.933594,77.5625 18.816406,69.679688 25.660156,64.5 32.542969,59.285156 41.25,57.671875 49.539062,60.070312 L 177.90625,97.222656 c 3.83203,1.109375 7.86328,-0.980468 9.16797,-4.753906 11.13672,-32.191406 40.29687,-71.757812 115.98437,-77.449219 5.80469,-0.402343 9.44141,6.277344 5.90235,10.941407 -7.28125,9.585937 -13.47656,21.007812 -18.40625,33.945312 -1.47266,3.871094 0.46875,8.203125 4.33594,9.675781 3.87109,1.480469 8.20312,-0.464843 9.67578,-4.332031 4.42187,-11.605469 9.91797,-21.769531 16.33593,-30.21875 5.28125,-6.953125 5.97657,-16.023438 1.82032,-23.667969 C 318.57813,3.746094 310.61719,-0.601562 301.93359,0.0664062 274.96484,2.09375 251.12109,8.566406 231.05859,19.304688 205.03906,33.234375 186.34375,53.933594 175.41016,80.890625 L 53.707031,45.664062 C 40.824219,41.933594 27.300781,44.445312 16.605469,52.546875 5.953125,60.613281 -0.0976562,72.894531 0,86.234375 c 0.25,33.054685 5.261719,64.320315 14.902344,92.933595 13.371094,39.70312 35.363281,72.95312 65.363281,98.82031 3.09375,2.66797 7.90625,2.3125 10.574219,-0.78125 2.703125,-3.13672 2.355468,-7.87109 -0.78125,-10.57422 z m 0,0"
         id="path3507" />
      <path
         d="m 510.94922,131.16797 c -1.41797,-2.39063 -4.03906,-3.81641 -6.82031,-3.66016 -1.72266,0.082 -40.84375,2.50782 -68.49219,43.11328 l -29.53516,-12.70703 c 1.89453,-12.38672 3.5586,-36.83984 -11.20312,-43.39844 -15.17969,-6.75 -31.13672,12.33985 -38.35938,22.64454 l -63.20703,-21.78125 c 0.42969,-4.96875 1.34766,-12.96875 3.28125,-22.421879 0.83203,-4.054687 -1.78125,-8.019531 -5.83984,-8.851562 -4.0586,-0.824219 -8.01953,1.785156 -8.84766,5.84375 -3.54297,17.304691 -3.92187,29.921871 -3.9375,30.449221 -0.0898,3.27343 1.95703,6.22656 5.05078,7.29297 l 74.10938,25.53515 c 3.3164,1.14844 6.98437,-0.16797 8.82422,-3.15625 8.97656,-14.57422 19.875,-23.17578 22.83984,-21.85547 3.91016,1.74219 4.66406,17.91797 1.52344,32.65625 -0.75391,3.50391 1.07812,7.04688 4.36719,8.46094 l 40.84765,17.57813 c 3.44531,1.48047 7.44922,0.1914 9.38281,-3.01563 14.17188,-23.48047 32.58985,-33.67578 45.25782,-38.08594 -8.29688,16.875 -20.73828,46.67579 -25.46485,81.36719 -0.54297,3.9961 2.29688,7.80078 6.28125,8.41797 4.08985,0.63672 8.01953,-2.29297 8.57813,-6.39453 6.7539,-49.62109 31.07031,-89.89453 31.3125,-90.29297 1.44922,-2.36719 1.47265,-5.34766 0.0508,-7.73828 z m 0,0"
         id="path3509" />
      <path
         d="m 477.59375,256.02734 c 0.0547,-4.14062 -3.25781,-7.53906 -7.39844,-7.58984 -0.0351,-0.004 -0.0664,-0.004 -0.0976,-0.004 -4.09766,0 -7.44532,3.29688 -7.4961,7.40235 -0.24609,19.32812 1.91407,35.41406 4.16797,46.74219 -30.42187,-22.91797 -29.05859,-57.91407 -28.97265,-59.57422 0.17968,-3.17578 -1.73438,-6.1875 -4.67969,-7.375 -3.04297,-1.23047 -6.63281,-0.28907 -8.67578,2.27734 -0.42188,0.53125 -41.40625,51.19922 -110.27344,74.24609 -0.004,-0.0547 -0.0117,-0.10937 -0.0195,-0.16797 -2.56641,-22.29687 -5.47656,-47.57421 -2.48828,-72.51171 0.49218,-4.11329 -2.44141,-7.84375 -6.55078,-8.33594 -4.11719,-0.4961 -7.84375,2.4414 -8.33594,6.55078 -3.19922,26.6875 -0.0508,54.03906 2.48047,76.01172 2.48828,21.62109 4.83984,42.03906 -0.7461,48.32031 -0.85937,0.96485 -2.5,2.25391 -6.79297,2.26563 -0.0351,0 -0.0664,0 -0.0976,0 -21.60156,0 -43.70703,-16.44922 -65.70703,-48.88672 -19.32422,-28.5 -33.52344,-62.44141 -40.26953,-80.13672 -1.47266,-3.8711 -5.80469,-5.8086 -9.67579,-4.33594 -3.86718,1.47656 -5.80859,5.80859 -4.33593,9.67578 6.7539,17.71875 20.76172,51.21875 39.94922,80.33203 -20.45704,-3.10937 -41.16797,-9.04687 -61.76954,-17.75 -13.07812,-5.52734 -25.41015,-12.01171 -36.65234,-19.28515 -3.47656,-2.25 -8.11719,-1.25391 -10.36719,2.22656 -2.25,3.47266 -1.2539,8.11719 2.22266,10.36719 11.97265,7.74218 25.08203,14.64062 38.96094,20.5039 26.5039,11.19532 53.24218,18.07813 79.53125,20.4961 21.9414,27.74218 44.80078,41.78906 68.11328,41.78906 h 0.1289 c 7.63282,-0.0195 13.67579,-2.47266 17.96875,-7.29297 8.0625,-9.06641 8.05469,-24.71094 6.1211,-44.60156 53.38281,-17.02735 90.76953,-49.19141 108.57812,-67.19141 0.80469,4.1875 1.99219,8.875 3.7461,13.82031 5.64062,15.91016 18.41406,37.67969 47.22265,51.03907 5.90625,2.74218 12.38672,-3.19922 10.21875,-9.32032 -0.0898,-0.23828 -8.46093,-24.26562 -8.00781,-59.70703 z m 0,0"
         id="path3511" />
    </g>
    <text
       xml:space="preserve"
       style="font-style:normal;font-variant:normal;font-weight:bold;font-stretch:normal;font-size:6.3499999px;line-height:1.25;font-family:Arial;-inkscape-font-specification:'Arial, Bold';font-variant-ligatures:normal;font-variant-caps:normal;font-variant-numeric:normal;font-feature-settings:normal;text-align:start;letter-spacing:0px;word-spacing:0px;writing-mode:lr-tb;text-anchor:start;fill:#8388ff;fill-opacity:1;stroke:none;stroke-width:0.26458332"
       x="49.3913"
       y="67.453491"
       id="text1071"><tspan
         sodipodi:role="line"
         x="49.3913"
         y="67.453491"
         id="tspan1057"
         style="stroke-width:0.26458332"><tspan
           x="49.3913"
           y="67.453491"
           id="tspan1055"
           style="stroke-width:0.26458332">Shark </tspan></tspan><tspan
         sodipodi:role="line"
         x="49.3913"
         y="75.390991"
         id="tspan1061"
         style="stroke-width:0.26458332"><tspan
           x="49.3913"
           y="75.390991"
           id="tspan1059"
           style="stroke-width:0.26458332">Dont </tspan></tspan><tspan
         sodipodi:role="line"
         x="49.3913"
         y="83.328491"
         id="tspan1065"
         style="stroke-width:0.26458332"><tspan
           x="49.3913"
           y="83.328491"
           id="tspan1063"
           style="stroke-width:0.26458332">Have </tspan></tspan><tspan
         sodipodi:role="line"
         x="49.3913"
         y="91.265991"
         id="tspan1069"
         style="stroke-width:0.26458332"><tspan
           x="49.3913"
           y="91.265991"
           id="tspan1067"
           style="stroke-width:0.26458332">Bones!</tspan></tspan></text>
    <g
       transform="matrix(0.21691126,0,0,0.19733534,0.27465757,46.02948)"
       id="g3663">
      <g
         id="layer6">
        <path
           style="fill:none;stroke:#000000;stroke-width:4.60422993;stroke-linecap:round;stroke-linejoin:miter;stroke-miterlimit:4;stroke-dasharray:none;stroke-opacity:1"
           d="M 66.768157,139.81035 C 51.893233,146.9178 32.246079,178.46662 40.013915,173.24137"
           id="path878" />
        <path
           id="path880"
           d="m 139.53994,141.79213 c 9.68927,12.94143 25.35237,46.78746 17.95995,40.3533"
           style="fill:none;stroke:#000000;stroke-width:4.60422993;stroke-linecap:round;stroke-linejoin:miter;stroke-miterlimit:4;stroke-dasharray:none;stroke-opacity:1" />
        <path
           style="fill:none;stroke:#000000;stroke-width:5.86499977;stroke-linecap:round;stroke-linejoin:miter;stroke-miterlimit:4;stroke-dasharray:none;stroke-opacity:1"
           d="m 82.131923,185.30806 c 11.483861,17.80912 -11.928366,48.16385 -0.374176,45.46254"
           id="path882" />
        <path
           id="path884"
           d="m 116.18207,184.93389 c 11.48386,17.80912 -11.92837,48.16385 -0.37418,45.46254"
           style="fill:none;stroke:#000000;stroke-width:5.86499977;stroke-linecap:round;stroke-linejoin:miter;stroke-miterlimit:4;stroke-dasharray:none;stroke-opacity:1" />
      </g>
      <g
         id="layer4"
         style="display:inline">
        <rect
           style="opacity:1;fill:#fe7b6a;fill-opacity:1;stroke:none;stroke-width:0.07566334;stroke-linecap:round;stroke-linejoin:round;stroke-miterlimit:4;stroke-dasharray:none;stroke-opacity:1;paint-order:normal"
           id="rect2154"
           width="75.683777"
           height="49.587734"
           x="64.645958"
           y="136.27773"
           ry="2.5358722" />
        <path
           style="fill:#f0624e;fill-opacity:1;stroke:#f0624e;stroke-width:0.32813942;stroke-linecap:butt;stroke-linejoin:miter;stroke-miterlimit:4;stroke-dasharray:none;stroke-opacity:1"
           d="m 64.791873,156.17051 75.391307,-0.72834 5e-5,18.15658 -75.391309,0.11601 z"
           id="path2156" />
      </g>
      <g
         id="layer1-9">
        <g
           transform="translate(4.1038546,-103.99778)"
           id="layer1-4"
           style="fill:#a3e0c0;fill-opacity:1">
          <rect
             rx="49.514881"
             ry="50.081848"
             y="146.18748"
             x="33.261906"
             height="100.1637"
             width="132.66963"
             id="rect815"
             style="opacity:1;fill:#a3e0c0;fill-opacity:1;stroke:none;stroke-width:3.00399995;stroke-linecap:round;stroke-linejoin:round;stroke-miterlimit:4;stroke-dasharray:none;stroke-opacity:1;paint-order:normal" />
        </g>
        <path
           style="fill:#86d0ab;fill-opacity:1;fill-rule:evenodd;stroke-width:0.26458332"
           id="path2023"
           d="M 79.913584,104.69958 A 10.022608,10.557146 0 0 1 69.891632,115.25672 10.022608,10.557146 0 0 1 59.868368,104.70096 10.022608,10.557146 0 0 1 69.889008,94.142431 10.022608,10.557146 0 0 1 79.913583,104.69681 l -10.022607,0.003 z" />
        <path
           style="fill:#86d0ab;fill-opacity:1;fill-rule:evenodd;stroke-width:0.26458332"
           id="path2025"
           d="m 161.16352,101.75961 a 10.423512,11.358955 0 0 1 -10.42283,11.35896 10.423512,11.358955 0 0 1 -10.4242,-11.35747 10.423512,11.358955 0 0 1 10.42147,-11.360442 10.423512,11.358955 0 0 1 10.42556,11.355982 l -10.42351,0.003 z" />
        <path
           style="fill:#95d8af;fill-opacity:1;stroke:#95d8af;stroke-width:0.26458332px;stroke-linecap:butt;stroke-linejoin:miter;stroke-opacity:1"
           d="M 135.46234,139.90161 C 103.83913,141.25495 74.025655,141.06533 71.045524,115.05813 55.376425,115 57.726273,95.128724 69.412294,93.82613 65.298145,53.389322 79.393102,48.961318 88.864323,42.672194 59.562019,39.595249 37.185723,67.453189 37.809284,89.960016 c -1.76528,33.488194 25.446872,52.047174 47.118697,52.046414 23.662139,0.75924 42.395969,0.886 50.534359,-2.10482 z"
           id="path2029" />
        <path
           style="fill:#77c79f;fill-opacity:1;stroke:none;stroke-width:0.114;stroke-linecap:butt;stroke-linejoin:miter;stroke-miterlimit:4;stroke-dasharray:none;stroke-opacity:1"
           d="M 42.918268,69.134595 29.167873,57.475574 c -4.06867,-3.600109 1.797433,-10.284612 5.762783,-6.888703 l 13.041932,10.732934 c -2.588087,3.245779 -3.523411,5.121467 -5.05432,7.81479 z"
           id="path2031" />
        <path
           style="fill:#77c79f;fill-opacity:1;stroke:none;stroke-width:0.075;stroke-linecap:butt;stroke-linejoin:miter;stroke-miterlimit:4;stroke-dasharray:none;stroke-opacity:1"
           d="M 49.850716,58.986426 29.938228,41.293354 C 26.241189,38.140029 32.50453,32.234957 35.8028,34.8462 l 20.059955,18.236876 c -1.122746,1.030173 -4.87864,4.541005 -6.012039,5.90335 z"
           id="path2033" />
        <path
           id="path2044"
           d="M 58.093776,51.342742 44.461795,39.800021 c -4.06867,-3.600109 1.797433,-10.284612 5.762783,-6.888703 l 15.195652,13.90722 c -1.85391,0.869755 -5.856491,3.288176 -7.326454,4.524204 z"
           style="fill:#77c79f;fill-opacity:1;stroke:none;stroke-width:0.114;stroke-linecap:butt;stroke-linejoin:miter;stroke-miterlimit:4;stroke-dasharray:none;stroke-opacity:1" />
      </g>
      <g
         id="layer2-0"
         style="display:inline">
        <path
           d="M 108.76829,82.887405 A 13.607142,12.851191 0 0 1 95.162039,95.738596 13.607142,12.851191 0 0 1 81.554006,82.889088 13.607142,12.851191 0 0 1 95.158476,70.036215 13.607142,12.851191 0 0 1 108.76829,82.884041 l -13.607142,0.0034 z"
           id="path847"
           style="fill:#ffffff;fill-opacity:1;fill-rule:evenodd;stroke-width:0.26458332" />
        <path
           style="fill:#ffffff;fill-opacity:1;fill-rule:evenodd;stroke-width:0.26458332;paint-order:fill markers stroke"
           id="path2091"
           d="M 133.94442,83.118378 A 13.607142,12.851191 0 0 1 120.33816,95.969568 13.607142,12.851191 0 0 1 106.73013,83.12006 13.607142,12.851191 0 0 1 120.3346,70.267187 13.607142,12.851191 0 0 1 133.94441,83.115013 l -13.60714,0.0034 z" />
        <path
           style="fill:#000000;fill-opacity:1;fill-rule:evenodd;stroke:none;stroke-width:0.26458332;stroke-opacity:1"
           id="path2179"
           d="m 103.8679,76.084587 a 6.1208024,5.7743421 0 0 1 -6.120399,5.774342 6.1208024,5.7743421 0 0 1 -6.121203,-5.773586 6.1208024,5.7743421 0 0 1 6.119601,-5.775098 6.1208024,5.7743421 0 0 1 6.122001,5.77283 l -6.120799,0.0015 z" />
        <path
           d="m 129.20257,76.414474 a 6.1208024,5.7743421 0 0 1 -6.1204,5.774343 6.1208024,5.7743421 0 0 1 -6.1212,-5.773587 6.1208024,5.7743421 0 0 1 6.1196,-5.775097 6.1208024,5.7743421 0 0 1 6.122,5.77283 l -6.1208,0.0015 z"
           id="path2181"
           style="fill:#000000;fill-opacity:1;fill-rule:evenodd;stroke-width:0.26458332;paint-order:markers stroke fill" />
        <path
           style="fill:#a3e0c0;fill-opacity:1;stroke:#a3e0c0;stroke-width:0.065;stroke-linecap:butt;stroke-linejoin:miter;stroke-miterlimit:4;stroke-dasharray:none;stroke-opacity:1"
           d="m 81.47596,82.945154 c 1.738848,-17.658284 23.00856,-14.931422 26.27325,-4.965933 7.83267,-13.688767 26.00903,-7.572675 26.1952,5.13579 l 13.16761,-1.258019 -5.85786,-21.035023 -67.631584,4.659656 -1.464463,18.372362 z"
           id="path2201" />
        <path
           style="fill:#a3e0c0;fill-opacity:1;stroke:#a3e0c0;stroke-width:0.065;stroke-linecap:butt;stroke-linejoin:miter;stroke-miterlimit:4;stroke-dasharray:none;stroke-opacity:1"
           d="m 81.47596,82.945154 c 1.045872,13.684224 19.03344,18.034166 26.17231,5.112708 5.50008,11.980628 25.5048,10.051654 26.29614,-4.942853 l 13.16761,-1.258017 -9.33918,16.744471 -55.829213,5.144777 -6.559526,-11.403483 -3.128389,-0.201829 -0.0976,-8.286943 z"
           id="path2213" />
      </g>
      <g
         id="layer5" />
      <g
         id="layer3"
         style="display:inline">
        <path
           style="fill:none;stroke:#64a2d6;stroke-width:8.25;stroke-linecap:round;stroke-linejoin:miter;stroke-miterlimit:4;stroke-dasharray:none;stroke-opacity:1"
           d="m 91.369316,108.83786 c 34.845494,-3.27864 34.845494,-3.27864 34.845494,-3.27864"
           id="path895" />
        <path
           style="fill:none;stroke:#000000;stroke-width:2.06500006;stroke-linecap:round;stroke-linejoin:miter;stroke-miterlimit:4;stroke-dasharray:none;stroke-opacity:1"
           d="m 91.369316,108.83786 34.845494,-3.27864"
           id="path897" />
      </g>
    </g>
  </g>
</svg>
