<?xml version="1.0" encoding="UTF-8" standalone="no"?>
<svg
   xmlns:dc="http://purl.org/dc/elements/1.1/"
   xmlns:cc="http://creativecommons.org/ns#"
   xmlns:rdf="http://www.w3.org/1999/02/22-rdf-syntax-ns#"
   xmlns:svg="http://www.w3.org/2000/svg"
   xmlns="http://www.w3.org/2000/svg"
   id="svg885"
   version="1.1"
   viewBox="0 0 79.374998 111.125"
   height="420"
   width="300">
  <defs
     id="defs879" />
  <metadata
     id="metadata882">
    <rdf:RDF>
      <cc:Work
         rdf:about="">
        <dc:format>image/svg+xml</dc:format>
        <dc:type
           rdf:resource="http://purl.org/dc/dcmitype/StillImage" />
        <dc:title></dc:title>
      </cc:Work>
    </rdf:RDF>
  </metadata>
  <g
     transform="translate(0,-185.87498)"
     id="layer1"
     style="opacity:0.99;fill:#c58e68;fill-opacity:1">
    <rect
       y="185.87776"
       x="0.0034530037"
       height="111.11626"
       width="79.368423"
       id="rect1430"
       style="opacity:1;fill:#c58e68;fill-opacity:1;fill-rule:nonzero;stroke:none;stroke-width:0.26598862;stroke-linecap:round;stroke-linejoin:round;stroke-miterlimit:4;stroke-dasharray:none;stroke-opacity:1;paint-order:normal" />
    <flowRoot
       style="fill:#c58e68;fill-opacity:1;stroke:none;font-family:Arial;font-style:normal;font-weight:bold;font-size:20.20399984px;line-height:1.25;letter-spacing:0px;word-spacing:0px;-inkscape-font-specification:'Arial, Bold';font-stretch:normal;font-variant:normal;text-anchor:start;text-align:start;writing-mode:lr;font-variant-ligatures:normal;font-variant-caps:normal;font-variant-numeric:normal;font-feature-settings:normal"
       id="flowRoot2560"
       xml:space="preserve"><flowRegion
         id="flowRegion2562"
         style="fill:#c58e68;fill-opacity:1"><rect
           y="-33.558495"
           x="-159.6041"
           height="422.24377"
           width="438.40622"
           id="rect2564"
           style="fill:#c58e68;fill-opacity:1" /></flowRegion><flowPara
         id="flowPara2566" /></flowRoot>  </g>
  <text
     xml:space="preserve"
     style="font-style:normal;font-variant:normal;font-weight:bold;font-stretch:normal;font-size:6.3499999px;line-height:1.25;font-family:Arial;-inkscape-font-specification:'Arial, Bold';font-variant-ligatures:normal;font-variant-caps:normal;font-variant-numeric:normal;font-feature-settings:normal;text-align:start;letter-spacing:0px;word-spacing:0px;writing-mode:lr-tb;text-anchor:start;fill:#c9ccc7;fill-opacity:1;stroke:none;stroke-width:0.26458332"
     x="2.7011271"
     y="8.8064241"
     id="text2322"><tspan
       x="2.7011271"
       y="8.8064241"
       id="tspan2320"
       style="fill:#c9ccc7;fill-opacity:1;stroke-width:0.26458332"><tspan
         x="2.7011271"
         y="8.8064241"
         id="tspan2318"
         style="fill:#c9ccc7;fill-opacity:1;stroke-width:0.26458332">25.</tspan></tspan></text>
  <style
     id="style1209"
     type="text/css">
	.st0{fill:#6D6C6B;}
	.st1{fill:#60BAE2;}
	.st2{fill:#F9D0B4;}
	.st3{fill:#F45D64;}
	.st4{fill:#E9E9EA;}
	.st5{fill:#6DCC6D;}
	.st6{fill:#F9D97D;}
	.st7{fill:#231F20;}
</style>
  <flowRoot
     style="fill:black;fill-opacity:1;stroke:none;font-family:Arial;font-style:normal;font-weight:bold;font-size:20.20399984px;line-height:1.25;letter-spacing:0px;word-spacing:0px;-inkscape-font-specification:'Arial, Bold';font-stretch:normal;font-variant:normal;text-anchor:start;text-align:start;writing-mode:lr;font-variant-ligatures:normal;font-variant-caps:normal;font-variant-numeric:normal;font-feature-settings:normal"
     id="flowRoot1045"
     xml:space="preserve"><flowRegion
       id="flowRegion1047"><rect
         y="289.03793"
         x="186.64673"
         height="88.682976"
         width="56.715855"
         id="rect1049" /></flowRegion><flowPara
       id="flowPara1051"></flowPara></flowRoot>  <g
     transform="matrix(0.06522136,-0.01009459,0.0104869,0.06775605,45.642845,17.619318)"
     id="g3383">
    <g
       id="g3320">
	<g
   id="Guides_For_Artboard_11_">
	</g>

	<g
   id="Artwork_11_">
	</g>

	<g
   id="Layer_2_11_">
		<g
   id="g3317">
			<path
   style="fill:#81b6b2"
   d="m 206.678,132.113 c -46.574,0 -84.327,37.754 -84.327,84.326 0,46.574 37.753,84.328 84.327,84.328 46.574,0 84.327,-37.754 84.327,-84.328 -10e-4,-46.572 -37.754,-84.326 -84.327,-84.326 z m 0,124.222 c -22.102,0 -40.018,-17.916 -40.018,-40.004 0,-8.419 2.707,-16.129 7.169,-22.547 -1.428,-2.854 -2.25,-6.063 -2.25,-9.471 0,-11.724 9.503,-21.228 21.227,-21.228 9.12,0 16.873,5.762 19.877,13.835 19.231,2.907 34.012,19.355 34.012,39.41 0,22.088 -17.916,40.005 -40.017,40.005 z"
   id="path3309" />

			<path
   style="fill:#f7f1e6"
   d="m 227.924,80.744 c -24.28,0 -45.219,2.232 -62.966,7.467 C 84.954,108.781 0,194.448 0,214.994 c 0,20.546 108.52,127.424 195.239,127.424 24.28,0 45.22,-2.232 62.966,-7.484 80.004,-20.57 164.958,-101.506 164.958,-126.783 0,-25.277 -108.519,-127.407 -195.239,-127.407 z m -21.246,220.024 c -46.574,0 -84.327,-37.754 -84.327,-84.328 0,-46.572 37.753,-84.326 84.327,-84.326 46.574,0 84.327,37.754 84.327,84.326 -10e-4,46.574 -37.754,84.328 -84.327,84.328 z"
   id="path3311" />

			<path
   style="fill:#2b3237"
   d="m 212.683,176.92 c 0.858,2.305 1.35,4.789 1.35,7.393 0,11.723 -9.503,21.227 -21.227,21.227 -8.315,0 -15.494,-4.793 -18.977,-11.756 -4.463,6.418 -7.169,14.128 -7.169,22.547 0,22.088 17.916,40.004 40.018,40.004 22.102,0 40.018,-17.916 40.018,-40.004 -0.001,-20.056 -14.782,-36.504 -34.013,-39.411 z"
   id="path3313" />

			<path
   style="fill:#f7f1e6"
   d="m 192.806,205.539 c 11.724,0 21.227,-9.504 21.227,-21.227 0,-2.604 -0.492,-5.088 -1.35,-7.393 -3.005,-8.073 -10.758,-13.835 -19.877,-13.835 -11.724,0 -21.227,9.504 -21.227,21.228 0,3.408 0.823,6.617 2.25,9.471 3.482,6.963 10.661,11.756 18.977,11.756 z"
   id="path3315" />

		</g>

	</g>

</g>
    <g
       id="g3322">
</g>
    <g
       id="g3324">
</g>
    <g
       id="g3326">
</g>
    <g
       id="g3328">
</g>
    <g
       id="g3330">
</g>
    <g
       id="g3332">
</g>
    <g
       id="g3334">
</g>
    <g
       id="g3336">
</g>
    <g
       id="g3338">
</g>
    <g
       id="g3340">
</g>
    <g
       id="g3342">
</g>
    <g
       id="g3344">
</g>
    <g
       id="g3346">
</g>
    <g
       id="g3348">
</g>
    <g
       id="g3350">
</g>
  </g>
  <g
     id="g3433"
     transform="matrix(0.06499846,0.01144235,-0.01188702,0.06752448,11.680387,15.293551)">
    <g
       id="g3401">
	<g
   id="g3385">
	</g>

	<g
   id="g3387">
	</g>

	<g
   id="g3399">
		<g
   id="g3397">
			<path
   id="path3389"
   d="m 206.678,132.113 c -46.574,0 -84.327,37.754 -84.327,84.326 0,46.574 37.753,84.328 84.327,84.328 46.574,0 84.327,-37.754 84.327,-84.328 -10e-4,-46.572 -37.754,-84.326 -84.327,-84.326 z m 0,124.222 c -22.102,0 -40.018,-17.916 -40.018,-40.004 0,-8.419 2.707,-16.129 7.169,-22.547 -1.428,-2.854 -2.25,-6.063 -2.25,-9.471 0,-11.724 9.503,-21.228 21.227,-21.228 9.12,0 16.873,5.762 19.877,13.835 19.231,2.907 34.012,19.355 34.012,39.41 0,22.088 -17.916,40.005 -40.017,40.005 z"
   style="fill:#81b6b2" />

			<path
   id="path3391"
   d="m 227.924,80.744 c -24.28,0 -45.219,2.232 -62.966,7.467 C 84.954,108.781 0,194.448 0,214.994 c 0,20.546 108.52,127.424 195.239,127.424 24.28,0 45.22,-2.232 62.966,-7.484 80.004,-20.57 164.958,-101.506 164.958,-126.783 0,-25.277 -108.519,-127.407 -195.239,-127.407 z m -21.246,220.024 c -46.574,0 -84.327,-37.754 -84.327,-84.328 0,-46.572 37.753,-84.326 84.327,-84.326 46.574,0 84.327,37.754 84.327,84.326 -10e-4,46.574 -37.754,84.328 -84.327,84.328 z"
   style="fill:#f7f1e6" />

			<path
   id="path3393"
   d="m 212.683,176.92 c 0.858,2.305 1.35,4.789 1.35,7.393 0,11.723 -9.503,21.227 -21.227,21.227 -8.315,0 -15.494,-4.793 -18.977,-11.756 -4.463,6.418 -7.169,14.128 -7.169,22.547 0,22.088 17.916,40.004 40.018,40.004 22.102,0 40.018,-17.916 40.018,-40.004 -0.001,-20.056 -14.782,-36.504 -34.013,-39.411 z"
   style="fill:#2b3237" />

			<path
   id="path3395"
   d="m 192.806,205.539 c 11.724,0 21.227,-9.504 21.227,-21.227 0,-2.604 -0.492,-5.088 -1.35,-7.393 -3.005,-8.073 -10.758,-13.835 -19.877,-13.835 -11.724,0 -21.227,9.504 -21.227,21.228 0,3.408 0.823,6.617 2.25,9.471 3.482,6.963 10.661,11.756 18.977,11.756 z"
   style="fill:#f7f1e6" />

		</g>

	</g>

</g>
    <g
       id="g3403">
</g>
    <g
       id="g3405">
</g>
    <g
       id="g3407">
</g>
    <g
       id="g3409">
</g>
    <g
       id="g3411">
</g>
    <g
       id="g3413">
</g>
    <g
       id="g3415">
</g>
    <g
       id="g3417">
</g>
    <g
       id="g3419">
</g>
    <g
       id="g3421">
</g>
    <g
       id="g3423">
</g>
    <g
       id="g3425">
</g>
    <g
       id="g3427">
</g>
    <g
       id="g3429">
</g>
    <g
       id="g3431">
</g>
  </g>
  <text
     id="text3459"
     y="67.733917"
     x="75.650681"
     style="font-style:normal;font-variant:normal;font-weight:bold;font-stretch:normal;font-size:6.3499999px;line-height:1.25;font-family:Arial;-inkscape-font-specification:'Arial, Bold';font-variant-ligatures:normal;font-variant-caps:normal;font-variant-numeric:normal;font-feature-settings:normal;text-align:center;letter-spacing:0px;word-spacing:0px;writing-mode:lr-tb;text-anchor:middle;fill:#ffc9be;fill-opacity:1;stroke:none;stroke-width:0.26458332"
     xml:space="preserve"><tspan
       style="text-align:center;text-anchor:middle;stroke-width:0.26458332"
       id="tspan3445"
       y="67.733917"
       x="41.80624"><tspan
         style="text-align:center;text-anchor:middle;stroke-width:0.26458332"
         id="tspan3443"
         y="67.733917"
         x="40.925671">Your eyes are the most </tspan></tspan><tspan
       style="text-align:center;text-anchor:middle;stroke-width:0.26458332"
       id="tspan3449"
       y="75.671417"
       x="41.80624"><tspan
         style="text-align:center;text-anchor:middle;stroke-width:0.26458332"
         id="tspan3447"
         y="75.671417"
         x="40.925671">active muscle of your </tspan></tspan><tspan
       style="text-align:center;text-anchor:middle;stroke-width:0.26458332"
       id="tspan3453"
       y="83.608917"
       x="41.80624"><tspan
         style="text-align:center;text-anchor:middle;stroke-width:0.26458332"
         id="tspan3451"
         y="83.608917"
         x="40.925671">body, moving about </tspan></tspan><tspan
       style="text-align:center;text-anchor:middle;stroke-width:0.26458332"
       id="tspan3457"
       y="91.546417"
       x="40.925674"><tspan
         style="text-align:center;text-anchor:middle;stroke-width:0.26458332"
         id="tspan3455"
         y="91.546417"
         x="40.925671">100,000 times per day</tspan></tspan></text>
</svg>
