<?xml version="1.0" encoding="UTF-8" standalone="no"?>
<svg
   xmlns:dc="http://purl.org/dc/elements/1.1/"
   xmlns:cc="http://creativecommons.org/ns#"
   xmlns:rdf="http://www.w3.org/1999/02/22-rdf-syntax-ns#"
   xmlns:svg="http://www.w3.org/2000/svg"
   xmlns="http://www.w3.org/2000/svg"
   width="300"
   height="420"
   viewBox="0 0 79.374998 111.125"
   version="1.1"
   id="svg885">
  <defs
     id="defs879" />
  <metadata
     id="metadata882">
    <rdf:RDF>
      <cc:Work
         rdf:about="">
        <dc:format>image/svg+xml</dc:format>
        <dc:type
           rdf:resource="http://purl.org/dc/dcmitype/StillImage" />
        <dc:title></dc:title>
      </cc:Work>
    </rdf:RDF>
  </metadata>
  <g
     style="opacity:0.99;fill:#212f61;fill-opacity:1"
     id="layer1"
     transform="translate(0,-185.87498)">
    <rect
       style="opacity:1;fill:#212f61;fill-opacity:1;fill-rule:nonzero;stroke:none;stroke-width:0.26598862;stroke-linecap:round;stroke-linejoin:round;stroke-miterlimit:4;stroke-dasharray:none;stroke-opacity:1;paint-order:normal"
       id="rect1430"
       width="79.368423"
       height="111.11626"
       x="0.0034530037"
       y="185.87776" />
    <flowRoot
       xml:space="preserve"
       id="flowRoot2560"
       style="fill:#212f61;fill-opacity:1;stroke:none;font-family:Arial;font-style:normal;font-weight:bold;font-size:20.20399984px;line-height:1.25;letter-spacing:0px;word-spacing:0px;-inkscape-font-specification:'Arial, Bold';font-stretch:normal;font-variant:normal;text-anchor:start;text-align:start;writing-mode:lr;font-variant-ligatures:normal;font-variant-caps:normal;font-variant-numeric:normal;font-feature-settings:normal"><flowRegion
         style="fill:#212f61;fill-opacity:1"
         id="flowRegion2562"><rect
           style="fill:#212f61;fill-opacity:1"
           id="rect2564"
           width="438.40622"
           height="422.24377"
           x="-159.6041"
           y="-33.558495" /></flowRegion><flowPara
         id="flowPara2566" /></flowRoot>  </g>
  <text
     id="text2322"
     y="8.8064241"
     x="2.7011271"
     style="font-style:normal;font-variant:normal;font-weight:bold;font-stretch:normal;font-size:6.3499999px;line-height:1.25;font-family:Arial;-inkscape-font-specification:'Arial, Bold';font-variant-ligatures:normal;font-variant-caps:normal;font-variant-numeric:normal;font-feature-settings:normal;text-align:start;letter-spacing:0px;word-spacing:0px;writing-mode:lr-tb;text-anchor:start;fill:#b6b5b5;fill-opacity:1;stroke:none;stroke-width:0.26458332;"
     xml:space="preserve"><tspan
       style="fill:#b6b5b5;fill-opacity:1;stroke-width:0.26458332;"
       id="tspan2320"
       y="8.8064241"
       x="2.7011271"><tspan
         style="fill:#b6b5b5;fill-opacity:1;stroke-width:0.26458332;"
         id="tspan2318"
         y="8.8064241"
         x="2.7011271">20.</tspan></tspan></text>
  <style
     type="text/css"
     id="style1209">
	.st0{fill:#6D6C6B;}
	.st1{fill:#60BAE2;}
	.st2{fill:#F9D0B4;}
	.st3{fill:#F45D64;}
	.st4{fill:#E9E9EA;}
	.st5{fill:#6DCC6D;}
	.st6{fill:#F9D97D;}
	.st7{fill:#231F20;}
</style>
  <text
     transform="scale(1.0102561,0.98984802)"
     id="text1370"
     y="79.57534"
     x="4.2176266"
     style="font-style:normal;font-variant:normal;font-weight:bold;font-stretch:normal;font-size:7.14059782px;line-height:1;font-family:Arial;-inkscape-font-specification:'Arial, Bold';font-variant-ligatures:normal;font-variant-caps:normal;font-variant-numeric:normal;font-feature-settings:normal;text-align:start;letter-spacing:0px;word-spacing:0px;writing-mode:lr-tb;text-anchor:start;fill:#63654d;fill-opacity:1;stroke:none;stroke-width:0.22314368"
     xml:space="preserve"><tspan
       style="text-align:start;text-anchor:start;fill:#63654d;fill-opacity:1;stroke-width:0.22314368"
       id="tspan1368"
       y="79.57534"
       x="4.2176266">We have no sense<tspan
   style="text-align:start;text-anchor:start;fill:#63654d;fill-opacity:1;stroke-width:0.22314368"
   id="tspan1358"
   y="79.57534"
   x="31.704391" /></tspan><tspan
       id="tspan1459"
       style="text-align:start;text-anchor:start;fill:#63654d;fill-opacity:1;stroke-width:0.22314368"
       y="86.715935"
       x="4.2176266">of smell when we're</tspan><tspan
       id="tspan1461"
       style="text-align:start;text-anchor:start;fill:#63654d;fill-opacity:1;stroke-width:0.22314368"
       y="93.856537"
       x="4.2176266">sleeping</tspan></text>
  <g
     transform="matrix(0.11567603,0,0,0.09985453,10.298101,6.914986)"
     id="g1429">
	<path
   style="fill:#a58260"
   d="M 440.211,192.857 H 70.459 c -18.156,0 -32.928,14.771 -32.928,32.928 v 91.492 c 0,4.143 3.357,7.5 7.5,7.5 h 420.607 c 4.143,0 7.5,-3.357 7.5,-7.5 v -91.492 c 0.001,-18.156 -14.771,-32.928 -32.927,-32.928 z"
   id="path1405" />

	<path
   style="fill:#8c6b50"
   d="m 440.211,192.857 h -35.155 c 18.156,0 32.928,14.771 32.928,32.928 v 91.492 c 0,4.143 -3.357,7.5 -7.5,7.5 h 35.156 c 4.143,0 7.5,-3.357 7.5,-7.5 v -91.492 c -10e-4,-18.156 -14.773,-32.928 -32.929,-32.928 z"
   id="path1407" />

	<path
   style="fill:#ffdf65"
   d="m 197.835,259.888 h -78.926 c -18.036,0 -32.709,14.673 -32.709,32.709 v 24.681 c 0,4.143 3.357,7.5 7.5,7.5 h 129.343 c 4.143,0 7.5,-3.357 7.5,-7.5 v -24.681 c 0,-18.036 -14.673,-32.709 -32.708,-32.709 z"
   id="path1409" />

	<path
   style="fill:#ffdf65"
   d="m 391.761,259.888 h -78.926 c -18.035,0 -32.708,14.673 -32.708,32.709 v 24.681 c 0,4.143 3.357,7.5 7.5,7.5 H 416.97 c 4.143,0 7.5,-3.357 7.5,-7.5 v -24.681 c 0,-18.036 -14.673,-32.709 -32.709,-32.709 z"
   id="path1411" />

	<path
   style="fill:#ffcd2c"
   d="m 197.835,259.888 h -33.604 c 18.035,0 32.708,14.673 32.708,32.709 v 24.681 c 0,4.143 -3.357,7.5 -7.5,7.5 h 33.604 c 4.143,0 7.5,-3.357 7.5,-7.5 v -24.681 c 0,-18.036 -14.673,-32.709 -32.708,-32.709 z"
   id="path1413" />

	<path
   style="fill:#ffcd2c"
   d="m 391.761,259.888 h -33.604 c 18.036,0 32.709,14.673 32.709,32.709 v 24.681 c 0,4.143 -3.357,7.5 -7.5,7.5 h 33.604 c 4.143,0 7.5,-3.357 7.5,-7.5 v -24.681 c 0,-18.036 -14.673,-32.709 -32.709,-32.709 z"
   id="path1415" />

	<path
   style="fill:#6e563d"
   d="M 503.17,364.038 H 7.5 c -4.142,0 -7.5,3.357 -7.5,7.5 v 93.191 c 0,4.143 3.358,7.5 7.5,7.5 h 495.67 c 4.142,0 7.5,-3.357 7.5,-7.5 v -93.191 c 0,-4.142 -3.357,-7.5 -7.5,-7.5 z"
   id="path1417" />

	<path
   style="fill:#604b35"
   d="m 503.17,364.038 h -27.001 v 7.5 93.191 c 0,4.143 -3.357,7.5 -7.5,7.5 h 34.501 c 4.142,0 7.5,-3.357 7.5,-7.5 v -93.191 c 0,-4.142 -3.357,-7.5 -7.5,-7.5 z"
   id="path1419" />

	<path
   style="fill:#ffbb64"
   d="M 468.482,309.777 H 42.188 C 18.926,309.777 0,328.703 0,351.966 v 19.572 c 0,4.143 3.358,7.5 7.5,7.5 h 495.67 c 4.142,0 7.5,-3.357 7.5,-7.5 v -19.572 c 0,-23.263 -18.926,-42.189 -42.188,-42.189 z"
   id="path1421" />

	<path
   style="fill:#ffad47"
   d="m 468.482,309.777 h -34.501 c 23.263,0 42.189,18.926 42.189,42.189 v 19.572 7.5 h 27.001 c 4.142,0 7.5,-3.357 7.5,-7.5 v -19.572 c -10e-4,-23.263 -18.927,-42.189 -42.189,-42.189 z"
   id="path1423" />

	<path
   style="fill:#8cc7ec"
   d="m 235.581,168.693 h -40.166 c -2.975,0 -5.667,-1.758 -6.865,-4.48 -1.197,-2.723 -0.673,-5.895 1.336,-8.088 l 28.647,-31.255 h -19.344 c -4.143,0 -7.5,-3.357 -7.5,-7.5 0,-4.143 3.357,-7.5 7.5,-7.5 h 36.392 c 2.975,0 5.667,1.758 6.865,4.479 1.197,2.723 0.673,5.896 -1.336,8.088 l -28.647,31.255 h 23.118 c 4.143,0 7.5,3.357 7.5,7.5 0,4.144 -3.357,7.501 -7.5,7.501 z"
   id="path1425" />

	<path
   style="fill:#8cc7ec"
   d="m 347.267,124.06 h -64.725 c -2.975,0 -5.667,-1.758 -6.865,-4.479 -1.197,-2.723 -0.674,-5.896 1.336,-8.088 l 53.206,-58.052 h -43.888 c -4.143,0 -7.5,-3.357 -7.5,-7.5 0,-4.143 3.357,-7.5 7.5,-7.5 h 60.936 c 2.975,0 5.667,1.758 6.865,4.479 1.197,2.723 0.674,5.896 -1.336,8.088 L 299.59,109.06 h 47.677 c 4.143,0 7.5,3.357 7.5,7.5 0,4.143 -3.358,7.5 -7.5,7.5 z"
   id="path1427" />

</g>
  <g
     transform="matrix(0.03412465,0,0,0.02744394,5.1142882,12.33905)"
     id="g1560">
    <path
       style="fill:#9cdd05"
       d="m 110.454,321.37 c 1.711,-1.567 4.317,-1.714 6.201,-0.36 22.824,16.41 35.684,67.186 23.434,92.476 -1.011,2.088 -3.373,3.199 -5.624,2.636 C 91.568,405.388 77.841,351.241 110.454,321.37 Z"
       id="path1463" />
    <path
       style="fill:#94c609"
       d="m 124.302,328.222 c -2.466,-2.901 -5.036,-5.334 -7.648,-7.212 -1.884,-1.354 -4.49,-1.207 -6.201,0.36 -32.608,29.866 -18.892,84.017 24.01,94.752 2.251,0.563 4.612,-0.548 5.624,-2.636 0.407,-0.841 0.781,-1.732 1.138,-2.648 -29.787,-16.46 -37.923,-55.634 -16.923,-82.616 z"
       id="path1465" />
    <path
       style="fill:#83aa2e"
       d="m 337.625,212.314 c 2.37,-3.44 1.501,-8.149 -1.939,-10.519 -3.44,-2.369 -8.15,-1.501 -10.519,1.939 -19.493,28.304 -43.492,60.076 -72.147,92.853 l -2.542,-30.875 c -0.343,-4.163 -4,-7.261 -8.158,-6.917 -4.163,0.343 -7.26,3.995 -6.917,8.158 l 3.721,45.196 C 172.176,385.546 93.558,449.444 4.053,496.37 c -3.699,1.94 -5.127,6.512 -3.187,10.211 1.352,2.579 3.983,4.054 6.705,4.054 1.183,0 2.385,-0.279 3.505,-0.867 63.84,-33.47 124.784,-76.962 181.511,-129.479 5.891,-2.031 32.15,-10.225 68.671,-8.819 4.156,0.167 7.689,-3.09 7.85,-7.266 0.161,-4.174 -3.092,-7.689 -7.267,-7.849 -18.678,-0.721 -34.824,0.89 -47.384,3.036 45.231,-44.606 86.669,-94.081 123.168,-147.077 z"
       id="path1467" />
    <path
       style="fill:#9cdd05"
       d="m 329.58,413.715 c 30.055,1.827 57.188,-13.413 71.993,-37.343 1.738,-2.81 1.253,-6.495 -1.142,-8.771 -13.04,-12.394 -37.78,-21.675 -66.625,-23.428 -28.845,-1.753 -54.527,4.464 -68.972,15.187 -2.653,1.969 -3.581,5.568 -2.196,8.568 11.8,25.547 36.887,43.96 66.942,45.787 z"
       id="path1469" />
    <path
       style="fill:#94c609"
       d="m 282.808,367.928 c -1.385,-2.999 -0.457,-6.598 2.196,-8.568 11.067,-8.216 28.734,-13.781 49.361,-15.149 -0.187,-0.012 -0.372,-0.027 -0.559,-0.039 -28.845,-1.753 -54.527,4.464 -68.972,15.188 -2.653,1.969 -3.581,5.568 -2.196,8.568 11.799,25.547 36.886,43.96 66.941,45.787 5.063,0.308 10.04,0.12 14.892,-0.501 -27.696,-3.533 -50.562,-21.25 -61.663,-45.286 z"
       id="path1471" />
    <path
       style="fill:#9cdd05"
       d="m 370.677,231.945 c -8.984,-2.411 -17.479,-7.138 -24.516,-14.205 -5.085,-5.106 -8.742,-10.981 -11.143,-17.242 -6.645,0.902 -13.554,0.516 -20.475,-1.491 -9.578,-2.778 -17.805,-7.959 -24.234,-14.68 -12.216,1.01 -22.611,4.593 -28.859,9.642 -1.416,1.145 -1.839,3.149 -0.999,4.772 7.157,13.821 21.478,23.41 38.131,23.745 11.548,0.232 22.109,-4.035 30.031,-11.178 -2.461,10.379 -1.13,21.692 4.621,31.709 8.293,14.445 23.583,22.401 39.142,22.039 1.826,-0.042 3.382,-1.376 3.705,-3.168 1.428,-7.906 -0.423,-18.744 -5.404,-29.943 z"
       id="path1473" />
    <path
       style="fill:#94c609"
       d="m 290.129,213.048 c -0.84,-1.622 -0.417,-3.627 0.999,-4.772 5.414,-4.375 13.943,-7.646 24.07,-9.099 -0.219,-0.06 -0.437,-0.108 -0.655,-0.171 -9.578,-2.778 -17.805,-7.959 -24.234,-14.68 -12.216,1.01 -22.611,4.593 -28.859,9.642 -1.416,1.145 -1.839,3.149 -0.999,4.772 6.874,13.274 20.363,22.621 36.174,23.638 -2.548,-2.807 -4.74,-5.939 -6.496,-9.33 z"
       id="path1475" />
    <path
       style="fill:#f37d79"
       d="m 508.212,99.848 c -2.666,-4.581 -27.324,-44.843 -71.558,-48.206 -4.268,-0.223 -8.58,-0.164 -12.816,0.176 l -1.148,0.092 0.471,1.051 c 7.005,15.648 9.002,31.447 7.106,48.307 l 0.877,0.04 c 11.782,0.538 23.679,3.513 35.362,8.841 l 0.367,0.168 0.355,-0.188 c 10.841,-5.728 22.445,-6.783 35.477,-3.225 4.222,1.154 7.692,-3.305 5.507,-7.056 z"
       id="path1477" />
    <path
       style="fill:#d86666"
       d="m 452.476,54.541 c -4.96,-1.457 -10.233,-2.474 -15.823,-2.899 -4.268,-0.223 -8.58,-0.164 -12.816,0.176 l -1.148,0.092 0.471,1.051 c 7.005,15.648 9.002,31.447 7.106,48.307 l 0.877,0.04 c 9.334,0.426 18.74,2.407 28.055,5.851 1.842,-18.307 -0.414,-35.969 -6.722,-52.618 z"
       id="path1479" />
    <path
       style="fill:#f37d79"
       d="M 418.642,40.96 C 394.452,3.791 347.296,1.505 341.999,1.367 c -4.34,-0.114 -6.582,5.071 -3.543,8.22 9.38,9.721 14.029,20.406 14.212,32.665 l 0.005,0.402 0.324,0.242 c 13.637,10.194 23.714,22.558 29.944,36.731 4.198,10.201 6.37,19.468 7.545,29.411 l 0.996,-0.402 c 8.962,-3.617 18.525,-6.008 28.405,-7.105 3.688,-0.322 7.481,-0.397 11.274,-0.223 l 0.762,0.035 c 2.455,-21.845 -1.752,-41.72 -13.281,-60.383 z"
       id="path1481" />
    <path
       style="fill:#d86666"
       d="M 410.508,102.996 C 412.421,78.881 406.921,56.163 394.095,35.4 384.498,20.654 371.888,10.502 359.078,3.485 350.3,1.71 343.78,1.414 341.999,1.367 c -4.34,-0.114 -6.582,5.071 -3.543,8.22 9.38,9.721 14.029,20.406 14.212,32.665 l 0.005,0.402 0.324,0.242 c 13.637,10.194 23.714,22.558 29.944,36.731 4.114,9.997 6.35,19.307 7.516,29.167 0.339,-0.051 0.676,-0.105 1.016,-0.154 l 0.009,-0.003 c 6.093,-2.459 12.467,-4.337 19.026,-5.641 z"
       id="path1483" />
    <path
       style="fill:#f37d79"
       d="m 343.8,146.676 c 13.018,-17.726 29.06,-30.524 47.682,-38.039 l 0.576,-0.232 C 390.897,98.548 388.568,89.01 384.447,78.997 363.753,31.913 310.13,20.42 304.084,19.266 c -4.853,-0.927 -8.31,4.471 -5.489,8.546 21.533,31.149 7.895,59.383 -14.633,90.009 l 0.071,0.029 c -16.953,26.497 -7.863,61.237 18.513,76.865 3.932,2.33 8.219,4.207 12.806,5.537 6.757,1.959 13.752,2.469 20.787,1.514 l 1.017,-0.138 -0.367,-0.959 c -6.462,-16.852 -3.709,-38.044 7.011,-53.993 z"
       id="path1485" />
    <path
       style="fill:#d86666"
       d="m 313.91,131.702 -0.071,-0.029 C 336.668,100.281 352.436,69.908 331,37.397 c -1.286,-1.948 -1.267,-4.419 0.05,-6.449 0.528,-0.814 1.212,-1.452 1.983,-1.908 -14.308,-6.729 -26.277,-9.266 -28.949,-9.776 -4.853,-0.927 -8.31,4.471 -5.489,8.546 21.533,31.149 7.895,59.383 -14.633,90.009 l 0.071,0.029 c -16.953,26.497 -7.863,61.237 18.513,76.865 3.932,2.33 8.219,4.207 12.806,5.537 0.929,0.269 1.863,0.505 2.801,0.72 -16.438,-18.652 -18.482,-46.921 -4.243,-69.268 z"
       id="path1487" />
    <path
       style="fill:#f37d79"
       d="m 510.726,141.7 c -3.917,-4.747 -39.75,-46.26 -91.009,-41.792 -21.664,2.405 -52.653,12.308 -77.277,45.856 -13.392,19.922 -16.495,52.272 4.132,72.986 3.371,3.385 7.075,6.243 11.008,8.573 26.325,15.597 61.186,6.961 76.309,-20.683 l 0.077,0.062 c 15.307,-34.399 34.961,-59.933 71.9,-56.082 4.936,0.516 8.001,-5.113 4.86,-8.92 z"
       id="path1489" />
    <path
       style="fill:#d86666"
       d="M 370.903,162.627 C 398.807,124.61 446.21,104.876 492.047,123.884 475.975,111.271 450.666,97.21 419.718,99.907 c -21.664,2.405 -52.653,12.308 -77.277,45.856 -13.392,19.922 -16.495,52.272 4.132,72.986 3.371,3.385 7.075,6.243 11.008,8.573 4.885,2.894 10.125,4.964 15.515,6.228 -18.472,-20.748 -15.149,-51.651 -2.193,-70.923 z"
       id="path1491" />
    <g
       id="g1493">
</g>
    <g
       id="g1495">
</g>
    <g
       id="g1497">
</g>
    <g
       id="g1499">
</g>
    <g
       id="g1501">
</g>
    <g
       id="g1503">
</g>
    <g
       id="g1505">
</g>
    <g
       id="g1507">
</g>
    <g
       id="g1509">
</g>
    <g
       id="g1511">
</g>
    <g
       id="g1513">
</g>
    <g
       id="g1515">
</g>
    <g
       id="g1517">
</g>
    <g
       id="g1519">
</g>
    <g
       id="g1521">
</g>
  </g>
</svg>
