<?xml version="1.0" encoding="UTF-8" standalone="no"?>
<svg
   xmlns:dc="http://purl.org/dc/elements/1.1/"
   xmlns:cc="http://creativecommons.org/ns#"
   xmlns:rdf="http://www.w3.org/1999/02/22-rdf-syntax-ns#"
   xmlns:svg="http://www.w3.org/2000/svg"
   xmlns="http://www.w3.org/2000/svg"
   id="svg885"
   version="1.1"
   viewBox="0 0 79.374998 111.125"
   height="420"
   width="300">
  <defs
     id="defs879" />
  <metadata
     id="metadata882">
    <rdf:RDF>
      <cc:Work
         rdf:about="">
        <dc:format>image/svg+xml</dc:format>
        <dc:type
           rdf:resource="http://purl.org/dc/dcmitype/StillImage" />
        <dc:title></dc:title>
      </cc:Work>
    </rdf:RDF>
  </metadata>
  <g
     transform="translate(0,-185.87498)"
     id="layer1"
     style="opacity:0.99;fill:#206095;fill-opacity:1">
    <rect
       y="185.87776"
       x="0.0034530037"
       height="111.11626"
       width="79.368423"
       id="rect1430"
       style="opacity:1;fill:#206095;fill-opacity:1;fill-rule:nonzero;stroke:none;stroke-width:0.26598862;stroke-linecap:round;stroke-linejoin:round;stroke-miterlimit:4;stroke-dasharray:none;stroke-opacity:1;paint-order:normal" />
    <flowRoot
       style="fill:#206095;fill-opacity:1;stroke:none;font-family:Arial;font-style:normal;font-weight:bold;font-size:20.20399984px;line-height:1.25;letter-spacing:0px;word-spacing:0px;-inkscape-font-specification:'Arial, Bold';font-stretch:normal;font-variant:normal;text-anchor:start;text-align:start;writing-mode:lr;font-variant-ligatures:normal;font-variant-caps:normal;font-variant-numeric:normal;font-feature-settings:normal"
       id="flowRoot2560"
       xml:space="preserve"><flowRegion
         id="flowRegion2562"
         style="fill:#206095;fill-opacity:1"><rect
           y="-33.558495"
           x="-159.6041"
           height="422.24377"
           width="438.40622"
           id="rect2564"
           style="fill:#206095;fill-opacity:1" /></flowRegion><flowPara
         id="flowPara2566" /></flowRoot>  </g>
  <text
     xml:space="preserve"
     style="font-style:normal;font-variant:normal;font-weight:bold;font-stretch:normal;font-size:6.3499999px;line-height:1.25;font-family:Arial;-inkscape-font-specification:'Arial, Bold';font-variant-ligatures:normal;font-variant-caps:normal;font-variant-numeric:normal;font-feature-settings:normal;text-align:start;letter-spacing:0px;word-spacing:0px;writing-mode:lr-tb;text-anchor:start;fill:#292626;fill-opacity:1;stroke:none;stroke-width:0.26458332"
     x="2.7011271"
     y="8.8064241"
     id="text2322"><tspan
       x="2.7011271"
       y="8.8064241"
       id="tspan2320"
       style="fill:#292626;fill-opacity:1;stroke-width:0.26458332"><tspan
         x="2.7011271"
         y="8.8064241"
         id="tspan2318"
         style="fill:#292626;fill-opacity:1;stroke-width:0.26458332">21.</tspan></tspan></text>
  <style
     id="style1209"
     type="text/css">
	.st0{fill:#6D6C6B;}
	.st1{fill:#60BAE2;}
	.st2{fill:#F9D0B4;}
	.st3{fill:#F45D64;}
	.st4{fill:#E9E9EA;}
	.st5{fill:#6DCC6D;}
	.st6{fill:#F9D97D;}
	.st7{fill:#231F20;}
</style>
  <g
     transform="matrix(0.12000531,0,0,0.11414667,10.646345,-0.09509402)"
     id="g1041">
    <path
       style="fill:#ffd3be"
       d="m 448.689,211.129 c -4.624,-15.444 1.811,-13.371 0.765,-80.783 1.198,-85.856 -75.623,-74.544 -75.623,-74.544 h -46.425 c -26.495,0 -47.974,-21.479 -47.974,-47.974 0,-4.324 -3.505,-7.829 -7.829,-7.829 h -47.208 c -4.323,0 -7.828,3.505 -7.828,7.828 0,26.495 -21.479,47.974 -47.974,47.974 h -46.425 c 0,0 -76.821,-11.312 -75.623,74.544 -1.025,65.993 5.291,65.666 0.764,80.787 -7.231,24.151 -24.764,94.923 2.463,139.043 0,0 -28.095,31.964 -4.922,54.123 23.173,22.158 51.106,-2.193 50.208,-16.592 -0.745,-11.946 -16.94,-27.836 -16.94,-27.836 11.421,-19.762 11.426,-73.914 10.313,-105.829 -1.085,-31.139 9.885,-52.285 25.625,-83.464 4.485,-8.885 17.798,-6.371 18.743,3.537 20.101,210.763 18.075,185.071 18.075,198.412 v 111.82 c 0,6.436 5.217,11.653 11.653,11.653 h 60.459 c 6.436,0 11.653,-5.217 11.653,-11.653 V 456.78 c 0,-7.218 5.546,-13.45 12.758,-13.768 7.655,-0.337 13.967,5.768 13.967,13.349 v 27.986 c 0,6.436 5.217,11.653 11.653,11.653 h 59.399 c 6.434,0 11.672,-5.215 11.674,-11.649 0.045,-118.244 -0.97,-123.187 2.77,-148.287 l 16.22,-162.248 c 0.988,-9.88 14.261,-12.354 18.738,-3.492 15.906,31.489 26.832,52.749 25.753,83.718 -1.113,31.915 -1.108,86.067 10.313,105.829 0,0 -16.195,15.89 -16.94,27.836 -0.898,14.399 27.035,38.75 50.208,16.592 23.173,-22.158 -4.922,-54.123 -4.922,-54.123 27.225,-44.12 9.69,-114.896 2.459,-139.047 z"
       id="path986" />
    <path
       style="fill:#ffa991"
       d="M 216.274,472.7 V 496 h 6.711 c 6.436,0 11.653,-5.217 11.653,-11.653 v -24.451 c -9.098,-3.678 -18.364,3.349 -18.364,12.804 z"
       id="path988" />
    <path
       style="fill:#ffa991"
       d="m 448.689,211.129 c -4.638,-15.488 1.816,-13.138 0.765,-80.783 1.198,-85.856 -75.623,-74.544 -75.623,-74.544 h -46.425 c -26.495,0 -47.974,-21.479 -47.974,-47.974 0,-4.324 -3.505,-7.829 -7.829,-7.829 H 247.8 c 4.324,0 11.002,8.213 13.268,23.749 0,26.495 21.479,47.974 47.974,47.974 h 46.425 c 0,0 76.821,-11.313 75.623,74.543 1.022,65.819 -5.274,65.726 -0.766,80.779 6.072,20.277 19.416,73.453 7.403,116.103 -3.914,13.894 -3.526,28.716 1.492,42.251 2.985,8.051 4.284,17.578 -0.154,26.449 4.056,-1.355 8.139,-3.777 12.085,-7.55 23.173,-22.158 -4.922,-54.123 -4.922,-54.123 27.23,-44.123 9.691,-114.901 2.461,-139.045 z"
       id="path990" />
    <path
       style="fill:#4ac9ff"
       d="m 150.86,371.115 c 0.003,0.471 0.013,113.231 0.013,113.231 0,6.436 5.217,11.653 11.653,11.653 h 60.459 c 6.436,0 11.653,-5.217 11.653,-11.653 V 456.36 c 0,-7.38 5.982,-13.362 13.362,-13.362 7.38,0 13.362,5.982 13.362,13.362 v 27.986 c 0,6.436 5.217,11.653 11.653,11.653 h 59.399 c 6.434,0 11.672,-5.215 11.674,-11.649 0,0 0.035,-112.586 0.04,-113.236 H 150.86 Z"
       id="path992" />
    <path
       style="fill:#4a9cff"
       d="m 316.611,371.115 c -0.005,0.65 -0.039,54.739 -0.039,54.739 -0.004,10.776 7.452,15.067 7.941,19.542 0.317,2.904 -1.988,8.525 -4.197,13.119 -4.396,9.14 -3.764,16.058 -3.764,25.837 C 316.55,490.786 311.331,496 304.897,496 h 27.518 c 6.434,0 11.672,-5.215 11.674,-11.649 0,0 0.035,-112.585 0.04,-113.236 z"
       id="path994" />
    <path
       style="fill:#d4deff"
       d="m 150.86,371.115 h 193.238 v 33.183 H 150.86 Z"
       id="path996" />
    <path
       style="fill:#abb8ff"
       d="m 316.586,371.115 h 27.512 v 33.183 h -27.512 z"
       id="path998" />
    <circle
       style="fill:#d04d7f"
       cx="248"
       cy="257.49799"
       r="84.211998"
       id="circle1000" />
    <path
       style="fill:#ff5a7f"
       d="m 314.892,257.498 c 0,36.944 -29.949,66.892 -66.892,66.892 -35.203,0 -66.686,-27.093 -66.695,-61.721 -0.001,-5.172 8.699,-5.172 10.168,-15.686 0.825,-5.9 -6.619,-12.359 -4.187,-17.601 10.621,-22.897 33.813,-38.777 60.714,-38.777 36.943,0.001 66.892,29.949 66.892,66.893 z"
       id="path1002" />
    <path
       style="fill:#846069"
       d="m 254.655,173.572 c -0.095,0.779 -0.065,-1.878 -0.065,33.093 0,4.418 3.582,8 8,8 4.418,0 8,-3.582 8,-8 v -30.289 c -5.132,-1.426 -10.458,-2.375 -15.935,-2.804 z"
       id="path1004" />
    <path
       style="fill:#846069"
       d="m 229.636,301.955 c -4.418,0 -8,3.582 -8,8 v 27.521 c 5.096,1.679 10.405,2.88 15.879,3.56 0.173,-1.02 0.121,1.487 0.121,-31.082 0,-4.417 -3.582,-7.999 -8,-7.999 z"
       id="path1006" />
    <ellipse
       style="fill:#ffa991"
       cx="402.21201"
       cy="99.685997"
       rx="5.691"
       ry="9.1049995"
       transform="matrix(0.461,-0.888,0.888,0.461,128.52,410.82)"
       id="ellipse1008" />
    <ellipse
       style="fill:#4a9cff"
       cx="311.89499"
       cy="447.86401"
       rx="5.1339998"
       ry="6.3629999"
       id="ellipse1010" />
    <ellipse
       style="fill:#ff5a7f"
       cx="180.80299"
       cy="246.465"
       rx="5.6469998"
       ry="3.9330001"
       transform="matrix(0.314,-0.949,0.949,0.314,-109.97,340.73)"
       id="ellipse1012" />
    <path
       style="fill:#ff8595"
       d="m 284.266,215.423 c -11.495,-9.655 -32.343,-14.734 -48.785,2.698 -19.194,20.35 17.45,42.556 -19.268,54.045 -10.351,3.239 -11.209,13.579 -10.495,20.571 2.258,22.109 41.443,25.396 71.69,-4.399 22.211,-21.881 24.826,-57.821 6.858,-72.915 z"
       id="path1014" />
    <path
       style="fill:#ff9ea2"
       d="m 212.787,299.101 c -0.714,-6.992 0.143,-17.332 10.495,-20.571 36.719,-11.489 0.074,-33.695 19.268,-54.045 15.012,-15.916 33.692,-13.064 45.577,-5.1 -10.536,-13.062 -34.905,-20.073 -52.647,-1.263 -19.194,20.35 17.45,42.556 -19.268,54.045 -10.351,3.239 -11.209,13.579 -10.495,20.571 0.572,5.604 3.606,10.614 9.654,13.841 -1.409,-2.242 -2.31,-4.801 -2.584,-7.478 z"
       id="path1016" />
  </g>
  <flowRoot
     style="fill:black;fill-opacity:1;stroke:none;font-family:Arial;font-style:normal;font-weight:bold;font-size:20.20399984px;line-height:1.25;letter-spacing:0px;word-spacing:0px;-inkscape-font-specification:'Arial, Bold';font-stretch:normal;font-variant:normal;text-anchor:start;text-align:start;writing-mode:lr;font-variant-ligatures:normal;font-variant-caps:normal;font-variant-numeric:normal;font-feature-settings:normal"
     id="flowRoot1045"
     xml:space="preserve"><flowRegion
       id="flowRegion1047"><rect
         y="289.03793"
         x="186.64673"
         height="88.682976"
         width="56.715855"
         id="rect1049" /></flowRegion><flowPara
       id="flowPara1051"></flowPara></flowRoot>  <text
     transform="scale(0.99563118,1.004388)"
     id="text1073"
     y="81.578255"
     x="75.792747"
     style="font-style:normal;font-variant:normal;font-weight:bold;font-stretch:normal;font-size:7.32882929px;line-height:1;font-family:Arial;-inkscape-font-specification:'Arial, Bold';font-variant-ligatures:normal;font-variant-caps:normal;font-variant-numeric:normal;font-feature-settings:normal;text-align:center;letter-spacing:0px;word-spacing:0px;writing-mode:lr-tb;text-anchor:middle;fill:#000090;fill-opacity:1;stroke:none;stroke-width:0.24984646"
     xml:space="preserve"><tspan
       style="text-align:center;text-anchor:middle;stroke-width:0.24984646"
       id="tspan1063"
       y="81.578255"
       x="40.202477"><tspan
         style="text-align:center;text-anchor:middle;stroke-width:0.24984646"
         id="tspan1061"
         y="81.578255"
         x="39.186172">Your stomach acid is </tspan></tspan><tspan
       style="text-align:center;text-anchor:middle;stroke-width:0.24984646"
       id="tspan1067"
       y="88.907089"
       x="40.202477"><tspan
         style="text-align:center;text-anchor:middle;stroke-width:0.24984646"
         id="tspan1065"
         y="88.907089"
         x="39.186172">strong enough to </tspan></tspan><tspan
       style="text-align:center;text-anchor:middle;stroke-width:0.24984646"
       id="tspan1071"
       y="96.235924"
       x="39.186172"><tspan
         style="text-align:center;text-anchor:middle;stroke-width:0.24984646"
         id="tspan1069"
         y="96.235924"
         x="39.186172">dissolve razor blade</tspan></tspan></text>
</svg>
