<?xml version="1.0" encoding="UTF-8" standalone="no"?>
<svg
   xmlns:dc="http://purl.org/dc/elements/1.1/"
   xmlns:cc="http://creativecommons.org/ns#"
   xmlns:rdf="http://www.w3.org/1999/02/22-rdf-syntax-ns#"
   xmlns:svg="http://www.w3.org/2000/svg"
   xmlns="http://www.w3.org/2000/svg"
   width="300"
   height="420"
   viewBox="0 0 79.374998 111.125"
   version="1.1"
   id="svg885">
  <defs
     id="defs879" />
  <metadata
     id="metadata882">
    <rdf:RDF>
      <cc:Work
         rdf:about="">
        <dc:format>image/svg+xml</dc:format>
        <dc:type
           rdf:resource="http://purl.org/dc/dcmitype/StillImage" />
        <dc:title></dc:title>
      </cc:Work>
    </rdf:RDF>
  </metadata>
  <g
     style="opacity:0.99;fill:#a95e00;fill-opacity:1"
     id="layer1"
     transform="translate(0,-185.87498)">
    <rect
       style="opacity:1;fill:#a95e00;fill-opacity:1;fill-rule:nonzero;stroke:none;stroke-width:0.26598862;stroke-linecap:round;stroke-linejoin:round;stroke-miterlimit:4;stroke-dasharray:none;stroke-opacity:1;paint-order:normal"
       id="rect1430"
       width="79.368423"
       height="111.11626"
       x="0.0034530037"
       y="185.87776" />
    <flowRoot
       xml:space="preserve"
       id="flowRoot2560"
       style="fill:#a95e00;fill-opacity:1;stroke:none;font-family:Arial;font-style:normal;font-weight:bold;font-size:20.20399984px;line-height:1.25;letter-spacing:0px;word-spacing:0px;-inkscape-font-specification:'Arial, Bold';font-stretch:normal;font-variant:normal;text-anchor:start;text-align:start;writing-mode:lr;font-variant-ligatures:normal;font-variant-caps:normal;font-variant-numeric:normal;font-feature-settings:normal"><flowRegion
         style="fill:#a95e00;fill-opacity:1"
         id="flowRegion2562"><rect
           style="fill:#a95e00;fill-opacity:1"
           id="rect2564"
           width="438.40622"
           height="422.24377"
           x="-159.6041"
           y="-33.558495" /></flowRegion><flowPara
         id="flowPara2566" /></flowRoot>  </g>
  <text
     id="text2322"
     y="8.8064241"
     x="2.7011271"
     style="font-style:normal;font-variant:normal;font-weight:bold;font-stretch:normal;font-size:6.3499999px;line-height:1.25;font-family:Arial;-inkscape-font-specification:'Arial, Bold';font-variant-ligatures:normal;font-variant-caps:normal;font-variant-numeric:normal;font-feature-settings:normal;text-align:start;letter-spacing:0px;word-spacing:0px;writing-mode:lr-tb;text-anchor:start;fill:#292626;fill-opacity:1;stroke:none;stroke-width:0.26458332"
     xml:space="preserve"><tspan
       style="fill:#292626;fill-opacity:1;stroke-width:0.26458332"
       id="tspan2320"
       y="8.8064241"
       x="2.7011271"><tspan
         style="fill:#292626;fill-opacity:1;stroke-width:0.26458332"
         id="tspan2318"
         y="8.8064241"
         x="2.7011271">19.</tspan></tspan></text>
  <style
     type="text/css"
     id="style1209">
	.st0{fill:#6D6C6B;}
	.st1{fill:#60BAE2;}
	.st2{fill:#F9D0B4;}
	.st3{fill:#F45D64;}
	.st4{fill:#E9E9EA;}
	.st5{fill:#6DCC6D;}
	.st6{fill:#F9D97D;}
	.st7{fill:#231F20;}
</style>
  <g
     transform="matrix(0.22369727,0,0,0.22338047,11.283416,1.765839)"
     id="Layer_16">
	<path
   style="fill:#6d6c6b"
   class="st0"
   d="m 169.4,87.3 v 0 c 0,-0.9 0,-1.7 0.1,-2.6 0,-0.6 0.1,-1.2 0.1,-1.7 0.1,-0.8 0.1,-1.5 0.2,-2.2 0.1,-0.5 0.1,-0.9 0.2,-1.4 0.1,-0.4 0.2,-0.8 0.3,-1.1 0.8,-2.5 2.3,-4.2 5.3,-4.1 0.3,0 0.6,0.1 0.9,0.1 0.9,0.3 1.6,0.8 2.2,1.5 0.2,0.3 0.4,0.5 0.6,0.8 L 174.8,65.8 170.2,55 c -1.2,-2.7 0.1,-5.9 2.8,-7.1 0.3,-0.1 0.6,-0.2 0.9,-0.3 -7.6,-4.5 -17,-4.4 -24.6,0.2 C 144.9,40.4 137,35.9 128.5,35.9 H 116 c -11.8,0 -23.1,4.8 -31.3,13.2 0.9,1 1.4,2.3 1.5,3.6 0,0 0,0.1 0,0.1 0,0.7 -0.1,1.4 -0.4,2.1 l -9.1,21.6 c 0.7,-1.4 2.1,-2.3 3.6,-2.4 6.4,-0.3 6.1,7.7 6.3,14.6 0,0.5 0,0.9 0,1.4 0,0.6 0.1,1.2 0.2,1.8 v 0 c 0.5,-0.4 1.2,-0.5 1.8,-0.4 7.7,1.6 30.6,4.4 46.1,-15.2 0.8,-1 2.2,-1.2 3.2,-0.4 0.1,0.1 0.1,0.1 0.2,0.2 3.6,3.5 12.9,10.5 30.5,11 0.4,0.1 0.6,0.1 0.8,0.2 z"
   id="path1211" />

	<path
   style="fill:#60bae2"
   class="st1"
   d="m 221.9,228.5 v 0 c 10,-4.1 14.8,-15.6 10.7,-25.7 0,0 0,0 0,0 l -31.5,-78.3 c -0.5,-1.3 -2,-1.9 -3.2,-1.3 l -31.8,13.1 c -1.3,0.5 -1.9,2 -1.4,3.2 l 31.5,78.3 c 4.2,10 15.6,14.8 25.7,10.7 0,0 0,0 0,0 z"
   id="path1213" />

	<path
   style="fill:#60bae2"
   class="st1"
   d="m 34.1,228.5 v 0 c -10,-4.1 -14.8,-15.6 -10.7,-25.7 0,0 0,0 0,0 l 31.5,-78.3 c 0.5,-1.3 2,-1.9 3.2,-1.3 l 31.8,13.1 c 1.3,0.5 1.9,2 1.3,3.2 l -31.5,78.3 c -4.1,10 -15.5,14.8 -25.6,10.7 0,0 0,0 0,0 z"
   id="path1215" />

	<path
   style="fill:#60bae2"
   class="st1"
   d="m 42.1,229.9 v 0 h 0.8 c -0.2,0 -0.5,0 -0.8,0 z"
   id="path1217" />

	<path
   style="fill:#60bae2"
   class="st1"
   d="m 196.2,217.8 -12.8,-31.9 -14.9,-2.7 -9.8,29.4 c -0.8,1.9 -2.9,2.8 -4.8,2 -0.6,-0.2 -1.1,-0.6 -1.5,-1.1 l -12.9,-16.1 v 0 c -0.7,1.4 -2.1,2.3 -3.7,2.3 h -14.3 c -1.4,0 -2.6,-0.7 -3.4,-1.8 l -12.5,15.6 c -1.3,1.6 -3.6,1.8 -5.1,0.6 -0.5,-0.4 -0.9,-0.9 -1.1,-1.5 l -9.8,-29.4 -17.2,3.1 -12.7,31.5 c -2.7,6.6 -8.8,11.2 -15.8,12 l 31.9,-2.7 c 1.7,-0.1 3.2,1.1 3.3,2.8 0,0.1 0,0.2 0,0.3 V 250 c 0,1.9 1.6,3.5 3.5,3.5 0,0 0,0 0,0 h 93 c 1.9,0 3.5,-1.6 3.5,-3.5 v 0 -19.8 c 0,-1.7 1.4,-3.1 3.1,-3.1 0.1,0 0.2,0 0.3,0 l 27.7,2.3 c -6.4,-1.3 -11.5,-5.7 -14,-11.6 z"
   id="path1219" />

	<path
   style="fill:#f9d0b4"
   class="st2"
   d="m 164.7,139.4 c -0.5,-1.3 0.1,-2.7 1.3,-3.2 0,0 0,0 0,0 h 0.1 l -1.2,-3 -1.8,-4.5 c -0.5,-1.3 0.1,-2.7 1.4,-3.2 v 0 c -0.7,-1.9 -1.3,-3.8 -1.6,-5.8 -0.2,-1 -0.3,-2 -0.4,-3 v 0 c 0,-0.5 0,-0.9 0,-1.4 0,-1.4 0.1,-2.7 0.4,-4.1 0.1,-0.4 0.2,-0.9 0.3,-1.3 0.3,-1.3 0.8,-2.6 1.3,-3.9 0.7,-1.6 1.4,-3.4 2.2,-5.3 0.1,-0.4 0.3,-0.8 0.4,-1.2 0.6,-1.6 1.1,-3.1 1.5,-4.6 0.5,-1.6 0.8,-3.3 0.9,-4.9 0,-0.9 0.1,-1.7 0.1,-2.6 0,-0.1 0,-0.1 0,-0.2 -0.2,-0.1 -0.4,-0.1 -0.6,-0.1 -17.7,-0.5 -27,-7.5 -30.5,-11 -0.9,-0.9 -2.3,-0.9 -3.2,0 -0.1,0.1 -0.1,0.1 -0.2,0.2 -15.5,19.5 -38.4,16.8 -46.1,15.2 -0.6,-0.1 -1.3,0 -1.8,0.4 0.7,4.4 3,10.1 4.8,14.2 0.9,1.9 1.4,4 1.7,6.1 0.1,0.4 0.1,0.8 0.1,1.2 0,0.3 0,0.5 0.1,0.8 0,0.8 0,1.7 0,2.5 v 0 c -0.1,1.9 -0.5,3.9 -1,5.8 -0.3,1 -0.6,2 -1,3 v 0 c 1.3,0.5 1.9,2 1.4,3.2 0,0 0,0 0,0 l -3.1,7.4 h 0.1 c 1.2,0.5 1.8,2 1.3,3.2 l -1.8,5.3 c 6.7,15.6 22.1,25.7 39,25.8 v 0 c 16.5,0 31.5,-9.6 38.5,-24.6 z"
   id="path1221" />

	<path
   style="fill:#f45d64"
   class="st3"
   d="m 145.5,129.7 c -0.1,-0.6 -0.6,-1 -1.1,-0.9 -0.1,0 -0.1,0 -0.2,0 -4.9,1.5 -10,2.4 -15.1,2.5 -5.1,-0.1 -10.2,-1 -15.1,-2.5 -0.5,-0.2 -1.1,0.1 -1.3,0.7 0,0.1 0,0.1 0,0.2 -0.3,3.2 -0.5,12 5.7,17.3 6.3,5.1 15.2,5.1 21.5,0 6.1,-5.4 5.9,-14.1 5.6,-17.3 z"
   id="path1223" />

	<path
   style="fill:#e9e9ea"
   class="st4"
   d="m 164.4,125.5 27,-11.1 c 1.3,-0.5 2.7,0.1 3.2,1.3 l 3.1,7.4 -31.6,13 -3.1,-7.4 c -0.4,-1.3 0.2,-2.7 1.4,-3.2 0,0 0,0 0,0 z"
   id="path1225" />

	<path
   style="fill:#e9e9ea"
   class="st4"
   d="m 168.5,183.2 -9.8,29.4 c -0.8,1.9 -2.9,2.8 -4.8,2 -0.6,-0.2 -1.1,-0.6 -1.5,-1.1 l -12.9,-16.1 9.1,-18.8 z"
   id="path1227" />

	<path
   style="fill:#e9e9ea"
   class="st4"
   d="m 99.5,212.6 c 0.8,1.9 2.9,2.8 4.8,2 0.6,-0.2 1.1,-0.6 1.5,-1.1 l 12.5,-15.6 c -0.1,-0.2 -0.2,-0.4 -0.3,-0.6 l -8.4,-18.7 v 0 l -19.9,4.6 v 0 z"
   id="path1229" />

	<path
   style="fill:#e9e9ea"
   class="st4"
   d="m 91.6,125.5 -27,-11.1 c -1.3,-0.5 -2.7,0.1 -3.2,1.3 l -3.1,7.4 31.6,13 3.1,-7.4 c 0.4,-1.3 -0.2,-2.7 -1.4,-3.2 0,0 0,0 0,0 z"
   id="path1231" />

	<path
   style="fill:#e9e9ea"
   class="st4"
   d="m 129.1,139.2 c 5.5,-0.2 11,-1 16.2,-2.6 0.4,-2.3 0.4,-4.6 0.2,-6.9 -0.1,-0.6 -0.6,-1 -1.1,-0.9 -0.1,0 -0.1,0 -0.2,0 -4.9,1.5 -10,2.4 -15.1,2.5 -5.1,-0.1 -10.2,-1 -15.1,-2.5 -0.5,-0.2 -1.1,0.1 -1.3,0.7 0,0.1 0,0.1 0,0.2 -0.2,2.3 -0.2,4.6 0.2,6.9 5.2,1.6 10.7,2.5 16.2,2.6 z"
   id="path1233" />

	<path
   style="fill:#f9d0b4"
   class="st2"
   d="m 164.4,106.1 c 2,-4.6 4.7,-11.5 4.9,-16 0.3,-7.2 -0.5,-16.3 6.3,-16 1.6,0.1 2.9,1 3.6,2.4 l -9,-21.5 c -1.2,-2.8 0.1,-5.9 2.9,-7.1 2.5,-1.1 5.5,-0.1 6.8,2.3 l 12,20.8 c 4,7.7 4.8,16.6 2.2,24.9 l -4.5,14.6 c -0.3,1.6 -0.3,3.1 -0.1,4.7 l -25,10.3 c -1.1,-2.8 -1.8,-5.7 -2,-8.7 v 0 c -0.2,-3.7 0.4,-7.3 1.9,-10.7 z"
   id="path1235" />

	<path
   style="fill:#f9d0b4"
   class="st2"
   d="m 128.5,170.5 v 0 c -6.6,0 -13.1,-1.5 -19,-4.5 v 12.6 l 8.4,18.7 c 0.7,1.5 2.1,2.4 3.7,2.4 h 14.3 c 1.6,0 3,-0.9 3.7,-2.3 l 9.1,-18.8 v -13.3 c -6.2,3.4 -13.2,5.2 -20.2,5.2 z"
   id="path1237" />

	<path
   style="fill:#f9d0b4"
   class="st2"
   d="m 91.6,106.1 c -2,-4.6 -4.7,-11.5 -4.9,-16 -0.3,-7.2 0.5,-16.3 -6.3,-16 -1.6,0.1 -2.9,1 -3.6,2.4 L 85.8,55 C 87,52.2 85.7,49.1 82.9,47.9 80.4,46.8 77.4,47.8 76.1,50.2 L 64.1,71 c -4,7.7 -4.8,16.6 -2.2,24.9 l 4.5,14.6 c 0.3,1.6 0.3,3.1 0.1,4.7 l 25,10.3 c 1.1,-2.8 1.8,-5.7 2,-8.7 v 0 c 0.2,-3.7 -0.4,-7.3 -1.9,-10.7 z"
   id="path1239" />

	<path
   style="fill:#6dcc6d"
   class="st5"
   d="m 37.5,120.5 h -1.8 v -1.8 c 0,-1.4 -1.1,-2.5 -2.5,-2.5 -1.4,0 -2.5,1.1 -2.5,2.5 v 1.8 h -1.8 c -1.4,0 -2.5,1.1 -2.5,2.5 0,1.4 1.1,2.5 2.5,2.5 h 1.8 v 1.8 c 0,1.4 1.1,2.5 2.5,2.5 1.4,0 2.5,-1.1 2.5,-2.5 v -1.8 h 1.8 c 1.4,0 2.5,-1.1 2.5,-2.5 0,-1.4 -1.2,-2.5 -2.5,-2.5 z"
   id="path1241" />

	<path
   style="fill:#f45d64"
   class="st3"
   d="m 210.7,72.5 c 0,-0.2 -0.1,-0.3 -0.1,-0.5 -0.1,-0.1 -0.1,-0.3 -0.2,-0.4 -0.1,-0.1 -0.2,-0.3 -0.3,-0.4 -1,-0.9 -2.5,-0.9 -3.5,0 -0.1,0.1 -0.2,0.2 -0.3,0.4 -0.2,0.3 -0.3,0.6 -0.4,0.9 -0.1,0.3 -0.1,0.7 0,1 0,0.2 0.1,0.3 0.1,0.5 0.1,0.2 0.1,0.3 0.2,0.4 0.1,0.1 0.2,0.3 0.3,0.4 1,1 2.5,1 3.5,0 0,0 0,0 0,0 0.1,-0.1 0.2,-0.2 0.3,-0.4 0.1,-0.1 0.2,-0.3 0.2,-0.4 0.1,-0.1 0.1,-0.3 0.1,-0.5 0.1,-0.3 0.1,-0.6 0.1,-1 z"
   id="path1243" />

	<path
   style="fill:#60bae2"
   class="st1"
   d="m 26.9,145.3 c 0,-0.2 -0.1,-0.3 -0.1,-0.5 -0.1,-0.1 -0.1,-0.3 -0.2,-0.4 -0.1,-0.1 -0.2,-0.3 -0.3,-0.4 -1,-0.9 -2.5,-0.9 -3.5,0 -0.1,0.1 -0.2,0.2 -0.3,0.4 -0.2,0.3 -0.3,0.6 -0.4,0.9 -0.1,0.3 -0.1,0.7 0,1 0,0.2 0.1,0.3 0.1,0.5 0.1,0.2 0.1,0.3 0.2,0.4 0.1,0.1 0.2,0.3 0.3,0.4 1,1 2.5,1 3.5,0 0,0 0,0 0,0 0.1,-0.1 0.2,-0.2 0.3,-0.4 0.1,-0.1 0.2,-0.3 0.2,-0.4 0.1,-0.1 0.1,-0.3 0.1,-0.5 0.1,-0.3 0.1,-0.7 0.1,-1 z"
   id="path1245" />

	<path
   style="fill:#f9d97d"
   class="st6"
   d="m 230.2,86.3 c -4.1,-0.8 -7.2,-4 -8,-8 0,-0.1 -0.1,-0.2 -0.2,-0.2 -0.1,0 -0.1,0.1 -0.2,0.2 -0.8,4.1 -4,7.2 -8,8 -0.1,0 -0.2,0.1 -0.2,0.2 0,0.1 0.1,0.1 0.2,0.2 4.1,0.8 7.2,4 8,8 0,0.1 0.1,0.2 0.2,0.2 0.1,0 0.1,-0.1 0.2,-0.2 0.8,-4.1 4,-7.2 8,-8 0.1,0 0.2,-0.1 0.2,-0.2 0,-0.1 -0.1,-0.2 -0.2,-0.2 z"
   id="path1247" />

	<path
   style="fill:#231f20"
   class="st7"
   d="m 183.9,41.8 c -1.4,0 -2.5,-1.1 -2.5,-2.5 0,-0.6 0.2,-1.1 0.5,-1.6 l 8.4,-10.5 -9.1,-0.4 c -1.4,-0.1 -2.4,-1.2 -2.4,-2.6 0,-0.4 0.1,-0.8 0.4,-1.2 L 192.5,1.2 c 0.7,-1.2 2.2,-1.6 3.4,-1 1.2,0.7 1.6,2.2 1,3.4 0,0.1 -0.1,0.1 -0.1,0.2 l -11.1,18.2 9.8,0.5 c 1.4,0.1 2.4,1.2 2.4,2.6 0,0.5 -0.2,1 -0.5,1.4 l -11.5,14.4 c -0.5,0.6 -1.2,0.9 -2,0.9 z"
   id="path1249" />

	<path
   style="fill:#231f20"
   class="st7"
   d="m 161.6,35 c -1.4,0 -2.5,-1.1 -2.5,-2.5 0,-0.3 0.1,-0.6 0.2,-0.9 l 3.1,-8.5 -6.1,1.7 c -1.3,0.4 -2.7,-0.4 -3.1,-1.7 -0.1,-0.4 -0.1,-0.8 0,-1.2 L 157.7,2 c 0.3,-1.4 1.6,-2.2 2.9,-2 1.4,0.3 2.2,1.6 2,2.9 0,0 0,0.1 0,0.1 L 159,18.9 165.8,17 c 1.3,-0.4 2.7,0.4 3.1,1.7 0.1,0.5 0.1,1 -0.1,1.5 L 164,33.4 c -0.4,1 -1.3,1.6 -2.4,1.6 z"
   id="path1251" />

	<path
   style="fill:#231f20"
   class="st7"
   d="m 197.8,58.8 c -1.4,0 -2.5,-1.1 -2.5,-2.5 0,-1 0.6,-2 1.6,-2.3 l 7.9,-3.2 -5.4,-3.4 c -1.2,-0.7 -1.5,-2.3 -0.8,-3.4 0.2,-0.4 0.5,-0.6 0.9,-0.9 l 17.8,-9.9 c 1.2,-0.7 2.7,-0.2 3.4,1 0.6,1.2 0.2,2.7 -0.9,3.3 l -14.1,7.9 5.9,3.8 c 1.2,0.7 1.5,2.3 0.8,3.4 -0.3,0.4 -0.7,0.8 -1.2,1 l -12.5,5 c -0.2,0.2 -0.5,0.2 -0.9,0.2 z"
   id="path1253" />

	<path
   style="fill:#231f20"
   class="st7"
   d="m 99.7,95.1 c -3.8,0 -7.6,-0.4 -11.4,-1.1 -1.1,0.8 -2.7,0.5 -3.5,-0.6 -0.2,-0.3 -0.3,-0.6 -0.4,-1 0,0 0,-0.1 0,-0.1 -0.1,-0.7 -0.2,-1.3 -0.2,-2 0,-0.5 0,-0.9 -0.1,-1.4 V 87.3 C 84,83.5 83.9,78.7 82.3,77.2 c -0.5,-0.4 -1.2,-0.6 -1.9,-0.5 -0.3,0 -0.9,0 -1.6,1.3 -0.7,1.2 -2.3,1.5 -3.4,0.8 -1,-0.6 -1.5,-2 -1,-3.1 L 83.5,54 c 0.1,-0.3 0.2,-0.7 0.2,-1 0,-0.1 0,-0.1 0,-0.2 0,-0.2 0,-0.5 -0.1,-0.7 -0.1,-0.5 -0.4,-0.9 -0.7,-1.3 -0.9,-1 -0.9,-2.5 0,-3.5 8.7,-9 20.6,-14 33.1,-14 h 12.5 c 8.6,0 16.6,4.2 21.6,11.1 8,-3.9 17.4,-3.5 25,1 1.2,0.7 1.6,2.2 0.9,3.4 -0.3,0.6 -0.9,1 -1.6,1.2 -0.2,0 -0.3,0.1 -0.5,0.2 -0.7,0.3 -1.3,0.9 -1.5,1.6 -0.1,0.2 -0.1,0.4 -0.2,0.6 -0.1,0.5 0,1.1 0.2,1.6 l 9.1,21.6 c 0.5,1.3 -0.1,2.7 -1.3,3.3 -1.1,0.5 -2.4,0.1 -3.1,-1 -0.1,-0.2 -0.2,-0.4 -0.4,-0.5 -0.2,-0.3 -0.6,-0.5 -0.9,-0.7 -0.1,0 -0.2,-0.1 -0.3,-0.1 -1.3,-0.1 -2.2,0.3 -2.8,2.3 -0.1,0.3 -0.2,0.6 -0.2,0.9 -0.1,0.4 -0.2,0.8 -0.2,1.2 -0.1,0.6 -0.2,1.3 -0.2,2.1 0,0.5 -0.1,1.1 -0.1,1.7 0,0.8 -0.1,1.7 -0.1,2.5 0,0.8 -0.4,1.5 -1.1,2 -0.6,0.5 -1.5,0.6 -2.2,0.4 -17.9,-0.5 -27.7,-7.4 -32,-11.6 -11.2,14.1 -26.2,17 -36.9,17 z m -10.6,-6 v 0 c 8.4,1.8 29.3,3.9 43.7,-14.3 1.6,-2.1 4.7,-2.4 6.7,-0.8 0.1,0.1 0.3,0.2 0.4,0.3 2.9,2.8 11.1,9.3 27,10.2 0,-0.6 0.1,-1.2 0.1,-1.8 0.1,-0.9 0.1,-1.7 0.2,-2.4 0.1,-0.5 0.2,-1.1 0.3,-1.6 0.1,-0.5 0.2,-0.9 0.4,-1.3 1.3,-4.3 4.1,-5.6 6.6,-5.8 L 167.9,56 c -1.1,-2.6 -0.7,-5.6 1,-7.9 -6.1,-2.2 -12.8,-1.5 -18.3,1.9 -1.2,0.7 -2.7,0.3 -3.4,-0.9 0,0 0,0 0,0 -3.9,-6.6 -11,-10.6 -18.7,-10.7 H 116 c -10.4,0 -20.5,3.9 -28.1,11.1 0.2,0.4 0.4,0.9 0.5,1.3 0.2,0.6 0.3,1.2 0.3,1.8 0,0.1 0,0.2 0,0.3 0,1 -0.2,2.1 -0.6,3 l -6.6,15.7 c 1.6,0.1 3.1,0.8 4.2,1.8 3.1,2.9 3.3,8.4 3.4,13.6 v 1.5 c 0,0.3 0,0.5 0,0.6 z"
   id="path1255" />

	<path
   style="fill:#231f20"
   class="st7"
   d="m 128.5,173 c -18,0 -34.2,-10.7 -41.3,-27.3 -0.2,-0.6 -0.3,-1.2 -0.1,-1.8 l 1.8,-5.3 c 0,0 0,-0.1 0,-0.1 -0.6,-0.2 -1.1,-0.7 -1.4,-1.3 -0.3,-0.6 -0.3,-1.3 0,-1.9 l 3.1,-7.4 c -1.2,-0.5 -1.8,-1.9 -1.4,-3.2 0.3,-0.9 0.6,-1.8 0.9,-2.7 0.5,-1.7 0.8,-3.5 0.9,-5.2 0,-0.7 0,-1.5 0,-2.2 0,-0.2 0,-0.4 0,-0.7 0,-0.4 -0.1,-0.7 -0.1,-1.1 -0.3,-1.9 -0.8,-3.7 -1.5,-5.4 -1.9,-4.2 -4.2,-10.2 -4.9,-14.8 -0.1,-0.9 0.2,-1.8 1,-2.4 1.1,-0.8 2.5,-1.1 3.8,-0.8 8.3,1.7 29.3,3.8 43.7,-14.3 1.6,-2.1 4.7,-2.4 6.7,-0.8 0.1,0.1 0.3,0.2 0.4,0.3 3,2.9 11.8,9.8 28.9,10.3 0.5,0 0.9,0.1 1.3,0.2 1.1,0.3 1.8,1.3 1.7,2.4 v 0.2 c 0,0.9 0,1.8 -0.1,2.7 -0.1,1.8 -0.4,3.7 -1,5.5 -0.4,1.5 -0.9,3.1 -1.5,4.8 -0.1,0.4 -0.3,0.8 -0.4,1.2 -0.7,1.7 -1.4,3.5 -2.2,5.4 -0.5,1.1 -0.9,2.3 -1.2,3.4 -0.1,0.4 -0.2,0.8 -0.2,1.2 -0.2,1.2 -0.3,2.4 -0.3,3.6 0,0.4 0,0.8 0,1.2 0.1,0.9 0.2,1.8 0.3,2.7 0.3,1.8 0.8,3.6 1.5,5.3 0.5,1.3 -0.1,2.7 -1.3,3.2 l 3,7.4 c 0.5,1.3 -0.1,2.7 -1.4,3.3 0,0 0,0 0,0 0,0 0,0.1 0,0.1 l 2.3,6.4 c 0.2,0.6 0.2,1.3 -0.1,1.9 -7.6,15.8 -23.4,25.9 -40.9,26 z M 92.1,144.6 c 9.2,20.1 32.9,28.9 52.9,19.8 8.4,-3.8 15.2,-10.4 19.2,-18.6 l -1.9,-5.4 c -0.7,-1.7 -0.4,-3.5 0.7,-4.9 l -2.4,-5.7 c -0.7,-1.7 -0.4,-3.6 0.7,-5 -0.5,-1.5 -0.9,-3 -1.1,-4.5 -0.2,-1.1 -0.3,-2.1 -0.4,-3.2 0,-0.5 0,-1 0,-1.5 0,-1.5 0.1,-3 0.4,-4.5 0.1,-0.5 0.2,-1 0.3,-1.5 0.4,-1.5 0.8,-2.9 1.4,-4.3 0.8,-1.8 1.5,-3.5 2.1,-5.1 0.1,-0.4 0.3,-0.7 0.4,-1.1 0.6,-1.6 1.1,-3.1 1.4,-4.4 0.4,-1.4 0.7,-2.9 0.8,-4.4 0,-0.1 0,-0.3 0,-0.4 C 149.9,89 140.6,82.4 136.4,78.4 121,97.6 98.5,96.1 89.7,94.6 c 1.1,3.7 2.4,7.3 4,10.8 0.9,2.2 1.6,4.4 1.9,6.8 0.1,0.4 0.1,0.9 0.1,1.3 0,0.3 0,0.6 0.1,0.9 0,0.9 0,1.9 0,2.8 -0.1,2.1 -0.5,4.2 -1.1,6.3 -0.1,0.5 -0.3,1 -0.4,1.5 0.7,0.9 1.1,2 1.1,3.1 0,0.7 -0.1,1.3 -0.4,1.9 l -2.4,5.7 c 1.1,1.4 1.4,3.3 0.7,4.9 z"
   id="path1257" />

	<path
   style="fill:#231f20"
   class="st7"
   d="m 214.4,232.5 c -9,0 -17.1,-5.4 -20.5,-13.7 l -31.5,-78.4 c -1,-2.5 0.2,-5.4 2.7,-6.5 l 31.8,-13.1 c 2.5,-1 5.5,0.2 6.5,2.7 l 31.5,78.4 c 4.6,11.3 -0.8,24.3 -12.1,28.9 v 0 c -2.6,1.1 -5.5,1.7 -8.4,1.7 z m 6.5,-6.3 1,2.3 -1,-2.3 c 8.8,-3.6 12.9,-13.6 9.3,-22.4 0,0 0,0 0,0 l -31.5,-78.4 -31.7,13.1 31.5,78.3 c 3.7,8.8 13.7,13 22.4,9.4 z"
   id="path1259" />

	<path
   style="fill:#231f20"
   class="st7"
   d="m 166.2,138.7 c -1,0 -1.9,-0.6 -2.3,-1.5 l -3.1,-7.4 c -1,-2.5 0.2,-5.5 2.7,-6.5 v 0 l 27,-11.1 c 2.5,-1 5.5,0.2 6.5,2.7 l 3.1,7.4 c 0.5,1.3 -0.1,2.7 -1.4,3.3 l -31.6,13 c -0.3,0 -0.6,0.1 -0.9,0.1 z m -0.8,-10.9 v 0 l 2.1,5.1 27,-11.1 -2.1,-5.1 z"
   id="path1261" />

	<path
   style="fill:#231f20"
   class="st7"
   d="m 164.4,128 c -1,0 -1.9,-0.6 -2.3,-1.6 -1.2,-3 -1.9,-6.2 -2.1,-9.5 -0.2,-4 0.5,-8.1 2.1,-11.8 v 0 c 2.9,-6.6 4.6,-12 4.7,-15.1 0,-0.9 0.1,-1.9 0.1,-2.9 0.1,-5.3 0.2,-10.7 3.4,-13.6 1.2,-1.1 2.7,-1.7 4.2,-1.8 L 167.9,56 c -1.7,-4 0.2,-8.7 4.2,-10.4 3.7,-1.6 8,-0.1 9.9,3.4 l 12,20.8 c 0,0 0,0.1 0.1,0.1 4.3,8.3 5.2,17.9 2.4,26.8 l -4.5,14.5 c -0.2,1.2 -0.2,2.5 -0.1,3.8 0.1,1.1 -0.5,2.2 -1.5,2.6 l -25,10.3 c -0.3,0 -0.6,0.1 -1,0.1 z m 10.9,-51.3 c -0.6,-0.1 -1.2,0.1 -1.6,0.5 -1.6,1.5 -1.7,6.3 -1.8,10.1 0,1 0,2 -0.1,3 -0.2,4.8 -2.9,11.8 -5.1,16.9 v 0 c -1.3,3 -1.9,6.2 -1.7,9.4 0.1,1.9 0.4,3.8 1,5.6 l 20.8,-8.6 c 0,-1.2 0.1,-2.5 0.3,-3.7 0,-0.1 0,-0.1 0,-0.2 l 4.5,-14.6 c 2.4,-7.6 1.7,-15.9 -2,-23 L 177.7,51.4 c -0.8,-1.4 -2.6,-1.9 -4,-1.1 -1.3,0.7 -1.8,2.3 -1.2,3.7 l 9.1,21.6 c 0.5,1.3 -0.1,2.7 -1.3,3.3 -1.1,0.5 -2.4,0.1 -3.1,-1 -0.8,-1.2 -1.4,-1.2 -1.6,-1.3 -0.1,0.1 -0.2,0.1 -0.3,0.1 z m -10.9,29.4 z"
   id="path1263" />

	<path
   style="fill:#231f20"
   class="st7"
   d="m 181.8,93.7 h -0.1 c -1.4,-0.1 -2.4,-1.2 -2.4,-2.6 0.1,-2.3 0,-9.2 -1.8,-12.7 -0.6,-1.2 -0.2,-2.7 1.1,-3.4 1.3,-0.7 2.7,-0.2 3.4,1.1 2.8,5.4 2.4,14.8 2.4,15.2 -0.2,1.3 -1.3,2.4 -2.6,2.4 z"
   id="path1265" />

	<path
   style="fill:#231f20"
   class="st7"
   d="m 155.3,217.4 c -1.9,0 -3.6,-0.8 -4.8,-2.3 L 137.6,199 c -0.6,-0.8 -0.7,-1.8 -0.3,-2.7 l 9.1,-18.8 c 0.5,-1 1.7,-1.6 2.8,-1.3 l 19.9,4.6 c 1.3,0.3 2.2,1.7 1.9,3 0,0.1 0,0.2 -0.1,0.2 l -9.8,29.4 c 0,0.1 0,0.1 -0.1,0.1 -0.8,2 -2.6,3.5 -4.8,3.8 -0.3,0.1 -0.6,0.1 -0.9,0.1 z m -12.8,-20.3 11.9,14.8 c 0.4,0.5 1.1,0.6 1.6,0.2 0.1,-0.1 0.2,-0.3 0.3,-0.4 L 165.2,185 150,181.5 Z"
   id="path1267" />

	<path
   style="fill:#231f20"
   class="st7"
   d="m 102.9,217.4 c -0.3,0 -0.6,0 -0.9,-0.1 -2.2,-0.3 -4,-1.7 -4.8,-3.8 0,0 0,-0.1 -0.1,-0.1 L 87.3,184 c -0.4,-1.3 0.3,-2.7 1.6,-3.2 0.1,0 0.2,0 0.2,-0.1 l 19.9,-4.6 c 1.2,-0.3 2.4,0.3 2.8,1.4 l 8.4,18.7 c 0,0.1 0.1,0.1 0.1,0.2 0.6,0.9 0.5,2.1 -0.1,2.9 l -12.5,15.6 c -1.2,1.6 -3,2.5 -4.8,2.5 z m -1.1,-5.7 c 0.3,0.6 1,0.8 1.5,0.6 0.2,-0.1 0.3,-0.2 0.4,-0.3 L 115.2,197.6 108,181.5 92.9,185 Z"
   id="path1269" />

	<path
   style="fill:#231f20"
   class="st7"
   d="m 135.9,202.2 h -14.3 c -2.6,0 -4.9,-1.5 -6,-3.9 l -8.4,-18.7 c -0.1,-0.3 -0.2,-0.7 -0.2,-1 V 166 c 0,-1.4 1.1,-2.5 2.5,-2.5 0.4,0 0.8,0.1 1.1,0.3 5.5,2.8 11.6,4.2 17.8,4.2 6.6,0 13.2,-1.7 19,-4.8 1.2,-0.7 2.7,-0.2 3.4,1 0.2,0.4 0.3,0.8 0.3,1.2 v 13.3 c 0,0.4 -0.1,0.8 -0.2,1.1 l -9.1,18.8 c -1.1,2.2 -3.4,3.6 -5.9,3.6 z m -23.9,-24.1 8.2,18.2 c 0.3,0.6 0.8,0.9 1.4,0.9 h 14.3 c 0.6,0 1.1,-0.3 1.4,-0.9 l 8.9,-18.3 v -8.7 c -5.6,2.4 -11.6,3.7 -17.7,3.7 -5.6,0 -11.2,-1.1 -16.5,-3.1 z"
   id="path1271" />

	<path
   style="fill:#231f20"
   class="st7"
   d="m 41.6,232.5 c -12.2,0 -22.2,-10 -22.1,-22.2 0,-2.9 0.6,-5.7 1.7,-8.4 l 31.5,-78.3 c 1,-2.5 3.9,-3.8 6.5,-2.7 0,0 0,0 0,0 L 91,134 c 2.5,1 3.8,4 2.7,6.5 0,0 0,0 0,0 L 62.2,218.8 C 58.7,227 50.6,232.5 41.6,232.5 Z M 57.2,125.4 25.7,203.7 c -3.6,8.8 0.6,18.8 9.3,22.4 0,0 0,0 0,0 v 0 c 8.8,3.6 18.8,-0.6 22.4,-9.3 L 89,138.5 Z"
   id="path1273" />

	<path
   style="fill:#231f20"
   class="st7"
   d="m 89.8,138.7 c -0.3,0 -0.6,-0.1 -1,-0.2 l -31.6,-13 c -1.3,-0.5 -1.9,-2 -1.4,-3.3 l 3.1,-7.4 c 1,-2.5 4,-3.8 6.5,-2.7 l 27,11.1 v 0 c 2.5,1 3.8,4 2.7,6.5 l -3.1,7.4 c -0.2,1 -1.1,1.6 -2.2,1.6 z m -28.3,-16.9 27,11.1 2.1,-5.1 -27,-11.1 z"
   id="path1275" />

	<path
   style="fill:#231f20"
   class="st7"
   d="m 91.6,128 c -0.3,0 -0.6,-0.1 -1,-0.2 l -25,-10.3 c -1,-0.4 -1.7,-1.5 -1.5,-2.6 0.2,-1.3 0.1,-2.5 -0.1,-3.8 L 59.5,96.6 c -2.8,-8.9 -1.9,-18.5 2.4,-26.8 0,0 0,-0.1 0.1,-0.1 L 74,48.9 c 2.2,-3.8 7,-5.1 10.8,-2.9 3.5,2 4.9,6.3 3.4,9.9 l -6.6,15.7 c 1.6,0.1 3.1,0.8 4.2,1.8 3.1,2.9 3.2,8.4 3.4,13.6 0,1 0,1.9 0.1,2.9 0.1,3.1 1.8,8.5 4.7,15.1 1.6,3.7 2.3,7.7 2.1,11.8 -0.2,3.3 -0.9,6.5 -2.1,9.5 -0.5,1 -1.4,1.7 -2.4,1.7 z M 69.2,113.6 90,122.2 c 0.5,-1.8 0.9,-3.7 1,-5.6 0.2,-3.2 -0.4,-6.5 -1.7,-9.4 v 0 c -2.2,-5.1 -4.9,-12.1 -5.1,-16.9 0,-1 -0.1,-2 -0.1,-3 -0.1,-3.8 -0.2,-8.6 -1.8,-10.1 -0.5,-0.4 -1.2,-0.6 -1.9,-0.5 -0.3,0 -0.9,0 -1.6,1.3 -0.7,1.2 -2.3,1.5 -3.4,0.8 -1,-0.6 -1.5,-2 -1,-3.1 L 83.5,54 c 0.6,-1.5 -0.1,-3.2 -1.5,-3.8 -1.4,-0.6 -2.9,0 -3.7,1.2 l -12,20.8 c -3.7,7.1 -4.4,15.3 -2,23 l 4.5,14.6 c 0,0.1 0,0.1 0,0.2 0.3,1.1 0.4,2.3 0.4,3.6 z"
   id="path1277" />

	<path
   style="fill:#231f20"
   class="st7"
   d="m 74.2,93.7 c -1.3,0 -2.4,-1.1 -2.5,-2.4 0,-0.4 -0.4,-9.8 2.4,-15.2 0.6,-1.2 2.1,-1.7 3.4,-1.1 1.2,0.6 1.7,2.1 1.1,3.4 -1.8,3.5 -2,10.4 -1.8,12.7 0.1,1.4 -1,2.5 -2.4,2.6 z"
   id="path1279" />

	<path
   style="fill:#231f20"
   class="st7"
   d="m 42.1,232.5 c -1.4,0 -2.5,-1.1 -2.5,-2.5 0,-1.4 1.1,-2.5 2.5,-2.5 0.2,0 0.4,0 0.6,0 h 0.1 c 1.4,-0.1 2.6,1 2.7,2.3 0.1,1.4 -0.9,2.5 -2.3,2.7 l -0.8,0.1 c -0.2,-0.1 -0.2,-0.1 -0.3,-0.1 z"
   id="path1281" />

	<path
   style="fill:#231f20"
   class="st7"
   d="m 175.6,256 h -93 c -3.3,0 -6,-2.7 -6,-6 v -19.8 c 0,-0.3 -0.3,-0.6 -0.6,-0.6 0,0 0,0 0,0 l -31.9,2.7 c -1.4,0.1 -2.6,-0.9 -2.7,-2.3 -0.1,-1.3 0.9,-2.5 2.2,-2.7 6.2,-0.7 11.5,-4.8 13.8,-10.5 l 12.7,-31.5 c 0.3,-0.8 1,-1.4 1.9,-1.5 l 17.2,-3.1 c 1.2,-0.2 2.4,0.5 2.8,1.7 l 9.8,29.3 c 0.3,0.6 1,0.8 1.5,0.6 0.2,-0.1 0.3,-0.2 0.4,-0.3 l 12.5,-15.6 c 0.9,-1.1 2.4,-1.2 3.5,-0.4 0.2,0.2 0.4,0.4 0.5,0.6 0.3,0.4 0.8,0.7 1.3,0.7 h 14.3 c 0.6,0 1.1,-0.3 1.4,-0.9 0.6,-1.2 2.1,-1.8 3.3,-1.2 0.3,0.2 0.6,0.4 0.9,0.7 l 12.9,16.1 c 0.4,0.5 1.1,0.6 1.6,0.2 0.1,-0.1 0.2,-0.3 0.3,-0.4 l 9.8,-29.3 c 0.4,-1.2 1.6,-1.9 2.8,-1.7 l 14.9,2.7 c 0.8,0.2 1.6,0.7 1.9,1.5 l 12.8,31.9 c 2.1,5.2 6.7,9 12.1,10.2 1.3,0.3 2.2,1.6 1.9,3 -0.3,1.2 -1.4,2 -2.6,1.9 l -27.7,-2.3 c -0.3,0 -0.6,0.2 -0.6,0.5 0,0 0,0 0,0 V 250 c 0.1,3.3 -2.6,6 -5.9,6 z M 76,224.6 c 3.1,0 5.6,2.5 5.6,5.6 0,0 0,0 0,0 V 250 c 0,0.5 0.4,1 1,1 h 93 c 0.5,0 1,-0.4 1,-1 v -19.8 c 0,-3.1 2.5,-5.6 5.6,-5.6 0.2,0 0.3,0 0.5,0 l 16.2,1.4 c -2.1,-2.1 -3.8,-4.6 -4.9,-7.3 v 0 l -12.3,-30.6 -11.4,-2 -9.1,27.4 c 0,0.1 0,0.1 -0.1,0.1 -1.3,3.2 -4.9,4.7 -8,3.4 -1,-0.4 -1.8,-1 -2.5,-1.8 l -11.1,-13.9 c -1,0.7 -2.3,1 -3.5,1 h -14.3 c -1.1,0 -2.1,-0.3 -3,-0.8 l -10.9,13.6 c -2.1,2.7 -6,3.1 -8.7,0.9 -0.8,-0.7 -1.5,-1.5 -1.8,-2.5 0,0 0,-0.1 -0.1,-0.1 L 88,186 74.3,188.5 62.2,218.7 c -1.2,2.8 -2.9,5.4 -5.1,7.5 l 18.6,-1.5 c 0,-0.1 0.2,-0.1 0.3,-0.1 z"
   id="path1283" />

	<path
   style="fill:#231f20"
   class="st7"
   d="m 129.1,153.3 c -4.5,0 -8.9,-1.5 -12.4,-4.4 -7.1,-6.1 -6.9,-15.6 -6.6,-19.5 0.2,-1.9 1.9,-3.4 3.9,-3.2 0.2,0 0.5,0.1 0.7,0.1 4.7,1.4 9.5,2.3 14.4,2.4 4.9,-0.1 9.7,-1 14.4,-2.4 1.9,-0.6 3.8,0.5 4.4,2.4 0.1,0.2 0.1,0.4 0.1,0.7 v 0 c 0.4,3.8 0.5,13.4 -6.6,19.5 -3.4,2.9 -7.8,4.4 -12.3,4.4 z M 115,131.7 c -0.1,3.6 0.5,9.6 5,13.4 5.3,4.2 12.9,4.2 18.2,0 4.4,-3.8 5.1,-9.8 5,-13.4 -4.6,1.3 -9.3,2 -14.1,2.1 -4.8,-0.1 -9.5,-0.8 -14.1,-2.1 z"
   id="path1285" />

	<path
   style="fill:#231f20"
   class="st7"
   d="m 129.1,141.7 c -5.7,-0.1 -11.4,-1.1 -16.9,-2.8 -0.9,-0.3 -1.6,-1 -1.8,-2 -0.4,-2.5 -0.5,-5.1 -0.2,-7.6 0.2,-1.9 1.9,-3.4 3.9,-3.2 0.2,0 0.5,0.1 0.7,0.1 4.7,1.4 9.5,2.3 14.4,2.4 4.9,-0.1 9.7,-1 14.4,-2.4 1.9,-0.6 3.8,0.5 4.4,2.4 0.1,0.2 0.1,0.4 0.1,0.7 0.2,2.5 0.2,5.1 -0.2,7.6 -0.2,0.9 -0.8,1.7 -1.8,2 -5.6,1.8 -11.3,2.7 -17,2.8 z m -14,-7.1 c 4.5,1.3 9.2,2 13.9,2.1 4.7,-0.1 9.4,-0.8 13.9,-2.1 0.1,-1 0.1,-2 0.1,-3 -4.6,1.3 -9.3,2 -14.1,2.1 -4.8,-0.1 -9.5,-0.8 -14.1,-2.1 0.2,1.1 0.2,2.1 0.3,3 z"
   id="path1287" />

	<path
   style="fill:#231f20"
   class="st7"
   d="m 150.4,116.7 c -0.3,0 -0.6,-0.1 -0.8,-0.1 l -9.1,-3.3 c -1.3,-0.5 -2,-1.9 -1.5,-3.2 0.2,-0.5 0.5,-0.9 0.9,-1.2 l 9.1,-6.2 c 1.1,-0.8 2.7,-0.5 3.5,0.6 0.8,1.1 0.5,2.7 -0.6,3.5 0,0 0,0 -0.1,0 l -5.1,3.5 4.5,1.6 c 1.3,0.5 2,1.9 1.5,3.2 -0.3,0.9 -1.2,1.6 -2.3,1.6 z"
   id="path1289" />

	<path
   style="fill:#231f20"
   class="st7"
   d="m 107.7,116.7 c -1.4,0 -2.5,-1.1 -2.5,-2.5 0,-1.1 0.7,-2 1.7,-2.4 l 4.5,-1.6 -5.1,-3.5 c -1.2,-0.8 -1.5,-2.3 -0.7,-3.5 0.8,-1.2 2.3,-1.5 3.5,-0.7 0,0 0,0 0.1,0 l 9.1,6.2 c 1.1,0.8 1.4,2.3 0.7,3.5 -0.3,0.4 -0.7,0.8 -1.2,0.9 l -9.1,3.3 c -0.4,0.2 -0.7,0.3 -1,0.3 z"
   id="path1291" />

	<path
   style="fill:#231f20"
   class="st7"
   d="m 129.1,218.3 c -0.7,0 -1.3,-0.3 -1.8,-0.7 -0.1,-0.1 -0.2,-0.2 -0.3,-0.4 -0.2,-0.3 -0.3,-0.6 -0.4,-0.9 0,-0.2 -0.1,-0.3 -0.1,-0.5 0,-0.7 0.3,-1.3 0.7,-1.8 0.6,-0.6 1.4,-0.8 2.3,-0.7 0.2,0 0.3,0.1 0.5,0.1 0.2,0.1 0.3,0.1 0.4,0.2 0.1,0.1 0.3,0.2 0.4,0.3 0.5,0.5 0.7,1.1 0.7,1.8 0,0.2 0,0.3 -0.1,0.5 0,0.2 -0.1,0.3 -0.1,0.5 -0.1,0.1 -0.1,0.3 -0.2,0.4 -0.1,0.1 -0.2,0.3 -0.3,0.4 -0.1,0.1 -0.3,0.2 -0.4,0.3 -0.1,0.1 -0.3,0.2 -0.4,0.2 -0.1,0.1 -0.3,0.1 -0.5,0.1 -0.1,0.2 -0.2,0.2 -0.4,0.2 z"
   id="path1293" />

	<path
   style="fill:#231f20"
   class="st7"
   d="m 129.1,232.8 c -0.7,0 -1.3,-0.3 -1.8,-0.7 -0.1,-0.1 -0.2,-0.2 -0.3,-0.4 -0.1,-0.1 -0.2,-0.3 -0.2,-0.4 -0.1,-0.2 -0.1,-0.3 -0.1,-0.5 0,-0.2 -0.1,-0.3 -0.1,-0.5 0,-0.7 0.3,-1.3 0.7,-1.8 0.6,-0.6 1.4,-0.8 2.3,-0.7 0.2,0 0.3,0.1 0.5,0.1 0.2,0.1 0.3,0.1 0.4,0.2 0.1,0.1 0.3,0.2 0.4,0.3 0.5,0.5 0.7,1.1 0.7,1.8 0,0.2 0,0.3 -0.1,0.5 0,0.2 -0.1,0.3 -0.1,0.5 -0.1,0.1 -0.1,0.3 -0.2,0.4 -0.2,0.3 -0.4,0.5 -0.7,0.7 -0.1,0.1 -0.3,0.2 -0.4,0.2 -0.1,0.1 -0.3,0.1 -0.5,0.1 -0.2,0.2 -0.3,0.2 -0.5,0.2 z"
   id="path1295" />

</g>
  <text
     id="text1370"
     y="75.948883"
     x="-26.301214"
     style="font-style:normal;font-variant:normal;font-weight:bold;font-stretch:normal;font-size:8.46666622px;line-height:1;font-family:Arial;-inkscape-font-specification:'Arial, Bold';font-variant-ligatures:normal;font-variant-caps:normal;font-variant-numeric:normal;font-feature-settings:normal;text-align:start;letter-spacing:0px;word-spacing:0px;writing-mode:lr-tb;text-anchor:start;fill:#a31100;fill-opacity:1;stroke:none;stroke-width:0.26458332;"
     xml:space="preserve"><tspan
       style="text-align:start;text-anchor:start;stroke-width:0.26458332;fill:#a31100;fill-opacity:1;"
       id="tspan1360"
       y="75.948883"
       x="6.2900753"><tspan
         style="text-align:start;text-anchor:start;stroke-width:0.26458332;fill:#a31100;fill-opacity:1;"
         id="tspan1358"
         y="75.948883"
         x="6.2900753">90% of diseases </tspan></tspan><tspan
       style="text-align:start;text-anchor:start;stroke-width:0.26458332;fill:#a31100;fill-opacity:1;"
       id="tspan1364"
       y="84.41555"
       x="10.763187"><tspan
         style="text-align:start;text-anchor:start;stroke-width:0.26458332;fill:#a31100;fill-opacity:1;"
         id="tspan1362"
         y="84.41555"
         x="10.763187">are caused by </tspan></tspan><tspan
       style="text-align:start;text-anchor:start;stroke-width:0.26458332;fill:#a31100;fill-opacity:1;"
       id="tspan1368"
       y="92.882217"
       x="26.530701"><tspan
         style="text-align:start;text-anchor:start;stroke-width:0.26458332;fill:#a31100;fill-opacity:1;"
         id="tspan1366"
         y="92.882217"
         x="26.530701">stress</tspan></tspan></text>
</svg>
