<?xml version="1.0" encoding="UTF-8" standalone="no"?>
<svg
   xmlns:dc="http://purl.org/dc/elements/1.1/"
   xmlns:cc="http://creativecommons.org/ns#"
   xmlns:rdf="http://www.w3.org/1999/02/22-rdf-syntax-ns#"
   xmlns:svg="http://www.w3.org/2000/svg"
   xmlns="http://www.w3.org/2000/svg"
   xmlns:sodipodi="http://sodipodi.sourceforge.net/DTD/sodipodi-0.dtd"
   xmlns:inkscape="http://www.inkscape.org/namespaces/inkscape"
   id="svg885"
   version="1.1"
   viewBox="0 0 79.374998 111.125"
   height="420"
   width="300"
   sodipodi:docname="001.svg"
   inkscape:version="0.92.4 (5da689c313, 2019-01-14)">
  <sodipodi:namedview
     pagecolor="#ffffff"
     bordercolor="#666666"
     borderopacity="1"
     objecttolerance="10"
     gridtolerance="10"
     guidetolerance="10"
     inkscape:pageopacity="0"
     inkscape:pageshadow="2"
     inkscape:window-width="1366"
     inkscape:window-height="745"
     id="namedview1371"
     showgrid="false"
     inkscape:zoom="1"
     inkscape:cx="-28.534768"
     inkscape:cy="198.83666"
     inkscape:window-x="-8"
     inkscape:window-y="-8"
     inkscape:window-maximized="1"
     inkscape:current-layer="svg885" />
  <defs
     id="defs879" />
  <metadata
     id="metadata882">
    <rdf:RDF>
      <cc:Work
         rdf:about="">
        <dc:format>image/svg+xml</dc:format>
        <dc:type
           rdf:resource="http://purl.org/dc/dcmitype/StillImage" />
        <dc:title></dc:title>
      </cc:Work>
    </rdf:RDF>
  </metadata>
  <g
     transform="matrix(1.0032661,0,0,1.0042403,-0.77146268,-187.56403)"
     id="layer1">
    <rect
       y="186.77562"
       x="0.77077419"
       height="110.64958"
       width="79.111778"
       id="rect1430"
       style="opacity:1;fill:#ebce53;fill-opacity:1;fill-rule:nonzero;stroke:none;stroke-width:0.26499999;stroke-linecap:round;stroke-linejoin:round;stroke-miterlimit:4;stroke-dasharray:none;stroke-opacity:1;paint-order:normal" />
    <g
       transform="matrix(0.023889,0.00809651,-0.01067594,0.02424115,48.66516,184.89981)"
       id="g2432">
      <path
         style="fill:#fedb41"
         d="m 307.88,181.02 c 24.89,3.35 170.91,25.86 188.78,94.34 0,0 8.81,30.15 -19.41,62.04 -7.89,8.92 -18.69,17.98 -33.39,26.55 0,0 -28.7,17.68 -73.34,-34.47 0,0 -36.66,-38.9 -55.48,-93.31 a 189.894,189.894 0 0 1 -10.76,-55.61 c 0,0 1.27,0.15 3.6,0.46 z"
         id="path2392"
         inkscape:connector-curvature="0" />
      <path
         style="fill:#f4b844"
         d="m 314.06,242.33 c 0.29,-2.05 0.61,-4.1 0.98,-6.16 18.82,54.41 55.48,93.31 55.48,93.31 44.64,52.15 73.34,34.47 73.34,34.47 14.7,-8.57 25.5,-17.63 33.39,-26.55 l 1.94,0.75 c 4.76,8.96 7.66,24.31 8.08,34 0,0 3.84,52.53 -71.86,77.32 0,0 -32.52,11.54 -66,-50.25 a 248.4,248.4 0 0 1 -13.46,-26.95 q -1.59,-3.66 -3.23,-7.73 a 294.054,294.054 0 0 1 -15.98,-53.03 c -4.23,-21.46 -6.07,-45.19 -2.68,-69.18 z"
         id="path2394"
         inkscape:connector-curvature="0" />
      <path
         style="fill:#00efd1"
         d="m 335.95,372.27 c -0.58,1.58 -2.77,6.87 -3.38,8.4 -16.24,40.57 -50.49,82.32 -69.97,82.32 -23.03,0 -68.26,-45.64 -84.26,-92.06 l -0.1,-0.04 q 1.23,-3.03 2.51,-6.31 c 44.02,4 106.75,3.67 151.9,-0.01 l 0.07,-0.03 q 1.635,4.065 3.23,7.73 z"
         id="path2396"
         inkscape:connector-curvature="0" />
      <path
         style="fill:#00acea"
         d="m 332.72,364.54 -0.07,0.03 c -45.15,3.68 -107.88,4.01 -151.9,0.01 a 327.164,327.164 0 0 0 15.65,-53.05 c 37.71,3.66 81.57,3.36 120.28,-0.01 l 0.06,-0.01 a 294.054,294.054 0 0 0 15.98,53.03 z"
         id="path2398"
         inkscape:connector-curvature="0" />
      <path
         style="fill:#00efd1"
         d="m 316.74,311.51 -0.06,0.01 c -38.71,3.37 -82.57,3.67 -120.28,0.01 4.32,-21.59 6.47,-45.38 3.74,-69.2 33,3.21 80.04,2.94 113.92,0 -3.39,23.99 -1.55,47.72 2.68,69.18 z"
         id="path2400"
         inkscape:connector-curvature="0" />
      <path
         style="fill:#00acea"
         d="m 208.81,176.98 c 13.83,-14.34 30.16,-22.62 47.65,-22.62 17.05,0 33.38,8.25 47.08,22.01 q 2.22,2.235 4.34,4.65 c -2.33,-0.31 -3.6,-0.46 -3.6,-0.46 a 189.894,189.894 0 0 0 10.76,55.61 c -0.37,2.06 -0.69,4.11 -0.98,6.16 -33.88,2.94 -80.92,3.21 -113.92,0 q -0.63,-5.46 -1.6,-10.91 h -0.01 a 186.9,186.9 0 0 0 9.19,-50.86 c 0,0 -0.87,0.1 -2.49,0.32 1.16,-1.35 2.36,-2.65 3.58,-3.9 z"
         id="path2402"
         inkscape:connector-curvature="0" />
      <path
         style="fill:#fedb41"
         d="m 205.23,180.88 c 1.62,-0.22 2.49,-0.32 2.49,-0.32 a 186.9,186.9 0 0 1 -9.19,50.86 C 180.29,288.3 141.48,329.48 141.48,329.48 96.84,381.63 68.14,363.95 68.14,363.95 55.07,356.33 45.09,348.33 37.5,340.38 5.97,307.42 15.34,275.36 15.34,275.36 33.5,205.77 183.99,183.66 205.23,180.88 Z"
         id="path2404"
         inkscape:connector-curvature="0" />
      <path
         style="fill:#f4b844"
         d="m 180.75,364.58 q -1.275,3.285 -2.51,6.31 a 276.41,276.41 0 0 1 -13.27,28.33 c -33.48,61.79 -66,50.25 -66,50.25 -75.7,-24.79 -71.86,-77.32 -71.86,-77.32 0.47,-10.9 4.08,-21.37 9.95,-31.34 l 0.44,-0.43 c 7.59,7.95 17.57,15.95 30.64,23.57 0,0 28.7,17.68 73.34,-34.47 0,0 38.81,-41.18 57.05,-98.06 h 0.01 q 0.975,5.445 1.6,10.91 c 2.73,23.82 0.58,47.61 -3.74,69.2 a 327.164,327.164 0 0 1 -15.65,53.05 z"
         id="path2406"
         inkscape:connector-curvature="0" />
      <path
         style="fill:#fedb41"
         d="m 277.235,104.481 a 6,6 0 0 1 -5.836,-7.416 l 12.01,-49.47 a 6.0002322,6.0002322 0 0 1 11.662,2.83 L 283.062,99.9 a 6,6 0 0 1 -5.827,4.581 z"
         id="path2408"
         inkscape:connector-curvature="0" />
      <path
         style="fill:#fedb41"
         d="m 234.765,104.481 a 6,6 0 0 1 -5.827,-4.585 L 216.929,50.425 a 6.0002322,6.0002322 0 1 1 11.662,-2.83 l 12.01,49.47 a 6,6 0 0 1 -5.836,7.416 z"
         id="path2410"
         inkscape:connector-curvature="0" />
      <path
         style="fill:#00efd1"
         d="m 310.71,149.28 a 54.335,54.335 0 0 1 -7.17,27.09 c -13.7,-13.76 -30.03,-22.01 -47.08,-22.01 -17.49,0 -33.82,8.28 -47.65,22.62 a 54.714,54.714 0 1 1 101.9,-27.7 z"
         id="path2412"
         inkscape:connector-curvature="0" />
    </g>
    <g
       transform="matrix(0.70433384,0,0,0.65653062,-49.006493,178.8761)"
       id="g2540">
      <g
         id="layer5">
        <path
           style="fill:none;stroke:#f3c374;stroke-width:3.2650001;stroke-linecap:round;stroke-linejoin:round;stroke-miterlimit:4;stroke-dasharray:none;stroke-opacity:1;paint-order:stroke markers fill"
           d="m 113.45591,108.30771 c 8.84929,2.10694 9.14065,1.68367 16.5679,-3.31961"
           id="path931"
           inkscape:connector-curvature="0" />
        <path
           id="path933"
           d="m 73.766387,108.04045 c 8.062633,0.94302 9.176259,3.51364 17.238892,-0.13364"
           style="fill:none;stroke:#f3c374;stroke-width:3.2650001;stroke-linecap:round;stroke-linejoin:round;stroke-miterlimit:4;stroke-dasharray:none;stroke-opacity:1;paint-order:stroke markers fill"
           inkscape:connector-curvature="0" />
        <path
           style="fill:none;stroke:#65a3d9;stroke-width:4.66499996;stroke-linecap:round;stroke-linejoin:miter;stroke-miterlimit:4;stroke-dasharray:none;stroke-opacity:1"
           d="m 92.320683,134.47023 0.09449,22.96205"
           id="path935"
           inkscape:connector-curvature="0" />
        <path
           id="path937"
           d="m 111.59747,135.22618 0.0945,22.96205"
           style="fill:none;stroke:#65a3d9;stroke-width:4.66499996;stroke-linecap:round;stroke-linejoin:miter;stroke-miterlimit:4;stroke-dasharray:none;stroke-opacity:1"
           inkscape:connector-curvature="0" />
      </g>
      <g
         id="layer4">
        <path
           style="fill:#64a4d9;fill-opacity:1;stroke:none;stroke-width:0.26458332px;stroke-linecap:butt;stroke-linejoin:miter;stroke-opacity:1"
           d="M 102.28842,83.821433 78.003447,131.82439 c -0.631919,1.21463 -1.693481,3.42587 -0.0945,3.40179 l 46.774553,-0.28349 c 1.65651,-0.0523 0.47637,-2.44847 -0.0945,-3.73251 z"
           id="path912"
           inkscape:connector-curvature="0" />
      </g>
      <g
         id="layer1-6"
         transform="translate(0,1.9704834e-5)">
        <rect
           style="opacity:1;fill:#f5c372;fill-opacity:1;stroke:none;stroke-width:0.065;stroke-linecap:round;stroke-linejoin:round;stroke-miterlimit:4;stroke-dasharray:none;stroke-opacity:1;paint-order:fill markers stroke"
           id="rect887"
           width="55.940475"
           height="44.601189"
           x="74.083336"
           y="60.386894"
           ry="22.300594"
           rx="21.544643" />
        <rect
           style="opacity:1;fill:#74b5ed;fill-opacity:1;stroke:none;stroke-width:0.09139692;stroke-linecap:round;stroke-linejoin:round;stroke-miterlimit:4;stroke-dasharray:none;stroke-opacity:1;paint-order:fill markers stroke"
           id="rect891"
           width="37.612225"
           height="9.766675"
           x="83.530937"
           y="53.92931"
           rx="5.6541333"
           ry="9.766675" />
        <rect
           ry="5.9235139"
           rx="4.2155147"
           y="49.527447"
           x="87.862022"
           height="5.9235139"
           width="28.042297"
           id="rect893"
           style="opacity:1;fill:#74b5ed;fill-opacity:1;stroke:none;stroke-width:0.06145968;stroke-linecap:round;stroke-linejoin:round;stroke-miterlimit:4;stroke-dasharray:none;stroke-opacity:1;paint-order:fill markers stroke" />
        <path
           style="fill:#74b5ed;fill-opacity:1;fill-rule:evenodd;stroke:none;stroke-width:0.48082644"
           id="path895"
           d="m 115.70281,54.176216 a 13.835407,5.728909 0 0 1 -13.8345,5.728909 13.835407,5.728909 0 0 1 -13.836316,-5.728159 13.835407,5.728909 0 0 1 13.832686,-5.729659 13.835407,5.728909 0 0 1 13.83813,5.727409 l -13.83541,0.0015 z"
           transform="matrix(0.99980413,-0.01979139,0,1,0,0)"
           inkscape:connector-curvature="0" />
      </g>
      <g
         id="layer2-2">
        <path
           style="fill:#ffffff;fill-opacity:1;fill-rule:evenodd;stroke:none;stroke-width:0.26458332"
           id="path898"
           d="m 102.09696,77.03717 a 7.0826426,6.4144688 0 0 1 -7.082176,6.414469 7.0826426,6.4144688 0 0 1 -7.083106,-6.413629 7.0826426,6.4144688 0 0 1 7.081252,-6.415308 7.0826426,6.4144688 0 0 1 7.08403,6.412789 l -7.08264,0.0017 z"
           inkscape:connector-curvature="0" />
        <path
           d="m 115.72772,76.235359 a 7.0826426,6.4144688 0 0 1 -7.08218,6.414469 7.0826426,6.4144688 0 0 1 -7.08311,-6.413629 7.0826426,6.4144688 0 0 1 7.08125,-6.415308 7.0826426,6.4144688 0 0 1 7.08404,6.412789 l -7.08265,0.0017 z"
           id="path900"
           style="fill:#ffffff;fill-opacity:1;fill-rule:evenodd;stroke:none;stroke-width:0.26458332"
           inkscape:connector-curvature="0" />
        <path
           style="fill:#000000;fill-opacity:1;fill-rule:evenodd;stroke:none;stroke-width:0.26458332"
           id="path939"
           d="M 100.3,74.158585 A 3.4745038,3.6081386 0 0 1 96.82572,77.766723 3.4745038,3.6081386 0 0 1 93.350989,74.159057 3.4745038,3.6081386 0 0 1 96.824811,70.550446 3.4745038,3.6081386 0 0 1 100.3,74.15764 l -3.474507,9.45e-4 z"
           inkscape:connector-curvature="0" />
        <path
           d="m 113.93074,73.500702 a 3.4745038,3.6081386 0 0 1 -3.47427,3.608138 3.4745038,3.6081386 0 0 1 -3.47474,-3.607666 3.4745038,3.6081386 0 0 1 3.47383,-3.608611 3.4745038,3.6081386 0 0 1 3.47518,3.607194 l -3.4745,9.45e-4 z"
           id="path941"
           style="fill:#000000;fill-opacity:1;fill-rule:evenodd;stroke:none;stroke-width:0.26458332"
           inkscape:connector-curvature="0" />
      </g>
      <g
         id="layer6">
        <path
           style="fill:#f5c372;fill-opacity:1;stroke:none;stroke-width:0.1;stroke-linecap:butt;stroke-linejoin:miter;stroke-miterlimit:4;stroke-dasharray:none;stroke-opacity:1"
           d="m 87.931674,77.605116 c 0.206054,-9.397584 12.364326,-8.048915 13.764376,-2.77292 3.01919,-8.520227 13.82575,-4.828188 13.96484,0.701582 l 5.81311,-0.06682 -4.30972,-9.588293 -31.838484,1.069078 -1.23612,11.091685 z"
           id="path944"
           inkscape:connector-curvature="0" />
        <path
           style="fill:#f5c372;fill-opacity:1;stroke:none;stroke-width:0.065;stroke-linecap:butt;stroke-linejoin:miter;stroke-miterlimit:4;stroke-dasharray:none;stroke-opacity:1"
           d="m 87.931674,77.605114 c 1.510867,7.753588 12.062671,7.464916 13.980156,0.87739 2.93612,6.407451 14.02669,5.259541 13.74906,-2.948726 l 5.81311,-0.06682 -1.65555,10.386083 -35.482514,0.661459 -0.24626,-8.475073 z"
           id="path946"
           inkscape:connector-curvature="0" />
      </g>
      <g
         id="layer3">
        <path
           style="fill:none;stroke:#000000;stroke-width:1.66499996;stroke-linecap:round;stroke-linejoin:miter;stroke-miterlimit:4;stroke-dasharray:none;stroke-opacity:1"
           d="M 98.220497,89.403629 C 99.86557,87.681006 106.69027,88.115696 107.8443,89.09528"
           id="path903"
           inkscape:connector-curvature="0" />
      </g>
    </g>
    <flowRoot
       style="font-style:normal;font-variant:normal;font-weight:bold;font-stretch:normal;font-size:20.20400047px;line-height:1.25;font-family:Arial;-inkscape-font-specification:'Arial, Bold';font-variant-ligatures:normal;font-variant-caps:normal;font-variant-numeric:normal;font-feature-settings:normal;text-align:start;letter-spacing:0px;word-spacing:0px;writing-mode:lr-tb;text-anchor:start;fill:#000000;fill-opacity:1;stroke:none"
       id="flowRoot2560"
       xml:space="preserve"><flowRegion
         id="flowRegion2562"><rect
           y="-33.558495"
           x="-159.6041"
           height="422.24377"
           width="438.40622"
           id="rect2564" /></flowRegion><flowPara
         id="flowPara2566" /></flowRoot>    <text
       xml:space="preserve"
       style="font-style:normal;font-variant:normal;font-weight:bold;font-stretch:normal;font-size:6.3499999px;line-height:1.25;font-family:Arial;-inkscape-font-specification:'Arial, Bold';font-variant-ligatures:normal;font-variant-caps:normal;font-variant-numeric:normal;font-feature-settings:normal;text-align:start;letter-spacing:0px;word-spacing:0px;writing-mode:lr-tb;text-anchor:start;fill:#515352;fill-opacity:1;stroke:none;stroke-width:0.26458332"
       x="42.573627"
       y="253.5238"
       id="text1389"><tspan
         sodipodi:role="line"
         x="42.573627"
         y="253.5238"
         id="tspan1375"
         style="stroke-width:0.26458332"><tspan
           x="42.573627"
           y="253.5238"
           id="tspan1373"
           style="stroke-width:0.26458332">Bees Dies </tspan></tspan><tspan
         sodipodi:role="line"
         x="42.573627"
         y="261.4613"
         id="tspan1379"
         style="stroke-width:0.26458332"><tspan
           x="42.573627"
           y="261.4613"
           id="tspan1377"
           style="stroke-width:0.26458332">When They </tspan></tspan><tspan
         sodipodi:role="line"
         x="42.573627"
         y="269.3988"
         id="tspan1383"
         style="stroke-width:0.26458332"><tspan
           x="42.573627"
           y="269.3988"
           id="tspan1381"
           style="stroke-width:0.26458332">Sting On </tspan></tspan><tspan
         sodipodi:role="line"
         x="42.573627"
         y="277.3363"
         id="tspan1387"
         style="stroke-width:0.26458332"><tspan
           x="42.573627"
           y="277.3363"
           id="tspan1385"
           style="stroke-width:0.26458332">Us!</tspan></tspan></text>
    <g
       id="g2639"
       transform="matrix(0.00406179,-0.01098606,0.0108336,0.00537093,45.068373,211.43396)">
      <path
         id="path2617"
         d="m 307.88,181.02 c 24.89,3.35 170.91,25.86 188.78,94.34 0,0 8.81,30.15 -19.41,62.04 -7.89,8.92 -18.69,17.98 -33.39,26.55 0,0 -28.7,17.68 -73.34,-34.47 0,0 -36.66,-38.9 -55.48,-93.31 a 189.894,189.894 0 0 1 -10.76,-55.61 c 0,0 1.27,0.15 3.6,0.46 z"
         style="fill:#fedb41"
         inkscape:connector-curvature="0" />
      <path
         id="path2619"
         d="m 314.06,242.33 c 0.29,-2.05 0.61,-4.1 0.98,-6.16 18.82,54.41 55.48,93.31 55.48,93.31 44.64,52.15 73.34,34.47 73.34,34.47 14.7,-8.57 25.5,-17.63 33.39,-26.55 l 1.94,0.75 c 4.76,8.96 7.66,24.31 8.08,34 0,0 3.84,52.53 -71.86,77.32 0,0 -32.52,11.54 -66,-50.25 a 248.4,248.4 0 0 1 -13.46,-26.95 q -1.59,-3.66 -3.23,-7.73 a 294.054,294.054 0 0 1 -15.98,-53.03 c -4.23,-21.46 -6.07,-45.19 -2.68,-69.18 z"
         style="fill:#f4b844"
         inkscape:connector-curvature="0" />
      <path
         id="path2621"
         d="m 335.95,372.27 c -0.58,1.58 -2.77,6.87 -3.38,8.4 -16.24,40.57 -50.49,82.32 -69.97,82.32 -23.03,0 -68.26,-45.64 -84.26,-92.06 l -0.1,-0.04 q 1.23,-3.03 2.51,-6.31 c 44.02,4 106.75,3.67 151.9,-0.01 l 0.07,-0.03 q 1.635,4.065 3.23,7.73 z"
         style="fill:#00efd1"
         inkscape:connector-curvature="0" />
      <path
         id="path2623"
         d="m 332.72,364.54 -0.07,0.03 c -45.15,3.68 -107.88,4.01 -151.9,0.01 a 327.164,327.164 0 0 0 15.65,-53.05 c 37.71,3.66 81.57,3.36 120.28,-0.01 l 0.06,-0.01 a 294.054,294.054 0 0 0 15.98,53.03 z"
         style="fill:#00acea"
         inkscape:connector-curvature="0" />
      <path
         id="path2625"
         d="m 316.74,311.51 -0.06,0.01 c -38.71,3.37 -82.57,3.67 -120.28,0.01 4.32,-21.59 6.47,-45.38 3.74,-69.2 33,3.21 80.04,2.94 113.92,0 -3.39,23.99 -1.55,47.72 2.68,69.18 z"
         style="fill:#00efd1"
         inkscape:connector-curvature="0" />
      <path
         id="path2627"
         d="m 208.81,176.98 c 13.83,-14.34 30.16,-22.62 47.65,-22.62 17.05,0 33.38,8.25 47.08,22.01 q 2.22,2.235 4.34,4.65 c -2.33,-0.31 -3.6,-0.46 -3.6,-0.46 a 189.894,189.894 0 0 0 10.76,55.61 c -0.37,2.06 -0.69,4.11 -0.98,6.16 -33.88,2.94 -80.92,3.21 -113.92,0 q -0.63,-5.46 -1.6,-10.91 h -0.01 a 186.9,186.9 0 0 0 9.19,-50.86 c 0,0 -0.87,0.1 -2.49,0.32 1.16,-1.35 2.36,-2.65 3.58,-3.9 z"
         style="fill:#00acea"
         inkscape:connector-curvature="0" />
      <path
         id="path2629"
         d="m 205.23,180.88 c 1.62,-0.22 2.49,-0.32 2.49,-0.32 a 186.9,186.9 0 0 1 -9.19,50.86 C 180.29,288.3 141.48,329.48 141.48,329.48 96.84,381.63 68.14,363.95 68.14,363.95 55.07,356.33 45.09,348.33 37.5,340.38 5.97,307.42 15.34,275.36 15.34,275.36 33.5,205.77 183.99,183.66 205.23,180.88 Z"
         style="fill:#fedb41"
         inkscape:connector-curvature="0" />
      <path
         id="path2631"
         d="m 180.75,364.58 q -1.275,3.285 -2.51,6.31 a 276.41,276.41 0 0 1 -13.27,28.33 c -33.48,61.79 -66,50.25 -66,50.25 -75.7,-24.79 -71.86,-77.32 -71.86,-77.32 0.47,-10.9 4.08,-21.37 9.95,-31.34 l 0.44,-0.43 c 7.59,7.95 17.57,15.95 30.64,23.57 0,0 28.7,17.68 73.34,-34.47 0,0 38.81,-41.18 57.05,-98.06 h 0.01 q 0.975,5.445 1.6,10.91 c 2.73,23.82 0.58,47.61 -3.74,69.2 a 327.164,327.164 0 0 1 -15.65,53.05 z"
         style="fill:#f4b844"
         inkscape:connector-curvature="0" />
      <path
         id="path2633"
         d="m 277.235,104.481 a 6,6 0 0 1 -5.836,-7.416 l 12.01,-49.47 a 6.0002322,6.0002322 0 0 1 11.662,2.83 L 283.062,99.9 a 6,6 0 0 1 -5.827,4.581 z"
         style="fill:#fedb41"
         inkscape:connector-curvature="0" />
      <path
         id="path2635"
         d="m 234.765,104.481 a 6,6 0 0 1 -5.827,-4.585 L 216.929,50.425 a 6.0002322,6.0002322 0 1 1 11.662,-2.83 l 12.01,49.47 a 6,6 0 0 1 -5.836,7.416 z"
         style="fill:#fedb41"
         inkscape:connector-curvature="0" />
      <path
         id="path2637"
         d="m 310.71,149.28 a 54.335,54.335 0 0 1 -7.17,27.09 c -13.7,-13.76 -30.03,-22.01 -47.08,-22.01 -17.49,0 -33.82,8.28 -47.65,22.62 a 54.714,54.714 0 1 1 101.9,-27.7 z"
         style="fill:#00efd1"
         inkscape:connector-curvature="0" />
    </g>
    <g
       transform="matrix(-0.00783044,0.01580489,-0.01591658,-0.00950378,75.667272,213.8884)"
       id="g2663">
      <path
         style="fill:#fedb41"
         d="m 307.88,181.02 c 24.89,3.35 170.91,25.86 188.78,94.34 0,0 8.81,30.15 -19.41,62.04 -7.89,8.92 -18.69,17.98 -33.39,26.55 0,0 -28.7,17.68 -73.34,-34.47 0,0 -36.66,-38.9 -55.48,-93.31 a 189.894,189.894 0 0 1 -10.76,-55.61 c 0,0 1.27,0.15 3.6,0.46 z"
         id="path2641"
         inkscape:connector-curvature="0" />
      <path
         style="fill:#f4b844"
         d="m 314.06,242.33 c 0.29,-2.05 0.61,-4.1 0.98,-6.16 18.82,54.41 55.48,93.31 55.48,93.31 44.64,52.15 73.34,34.47 73.34,34.47 14.7,-8.57 25.5,-17.63 33.39,-26.55 l 1.94,0.75 c 4.76,8.96 7.66,24.31 8.08,34 0,0 3.84,52.53 -71.86,77.32 0,0 -32.52,11.54 -66,-50.25 a 248.4,248.4 0 0 1 -13.46,-26.95 q -1.59,-3.66 -3.23,-7.73 a 294.054,294.054 0 0 1 -15.98,-53.03 c -4.23,-21.46 -6.07,-45.19 -2.68,-69.18 z"
         id="path2643"
         inkscape:connector-curvature="0" />
      <path
         style="fill:#00efd1"
         d="m 335.95,372.27 c -0.58,1.58 -2.77,6.87 -3.38,8.4 -16.24,40.57 -50.49,82.32 -69.97,82.32 -23.03,0 -68.26,-45.64 -84.26,-92.06 l -0.1,-0.04 q 1.23,-3.03 2.51,-6.31 c 44.02,4 106.75,3.67 151.9,-0.01 l 0.07,-0.03 q 1.635,4.065 3.23,7.73 z"
         id="path2645"
         inkscape:connector-curvature="0" />
      <path
         style="fill:#00acea"
         d="m 332.72,364.54 -0.07,0.03 c -45.15,3.68 -107.88,4.01 -151.9,0.01 a 327.164,327.164 0 0 0 15.65,-53.05 c 37.71,3.66 81.57,3.36 120.28,-0.01 l 0.06,-0.01 a 294.054,294.054 0 0 0 15.98,53.03 z"
         id="path2647"
         inkscape:connector-curvature="0" />
      <path
         style="fill:#00efd1"
         d="m 316.74,311.51 -0.06,0.01 c -38.71,3.37 -82.57,3.67 -120.28,0.01 4.32,-21.59 6.47,-45.38 3.74,-69.2 33,3.21 80.04,2.94 113.92,0 -3.39,23.99 -1.55,47.72 2.68,69.18 z"
         id="path2649"
         inkscape:connector-curvature="0" />
      <path
         style="fill:#00acea"
         d="m 208.81,176.98 c 13.83,-14.34 30.16,-22.62 47.65,-22.62 17.05,0 33.38,8.25 47.08,22.01 q 2.22,2.235 4.34,4.65 c -2.33,-0.31 -3.6,-0.46 -3.6,-0.46 a 189.894,189.894 0 0 0 10.76,55.61 c -0.37,2.06 -0.69,4.11 -0.98,6.16 -33.88,2.94 -80.92,3.21 -113.92,0 q -0.63,-5.46 -1.6,-10.91 h -0.01 a 186.9,186.9 0 0 0 9.19,-50.86 c 0,0 -0.87,0.1 -2.49,0.32 1.16,-1.35 2.36,-2.65 3.58,-3.9 z"
         id="path2651"
         inkscape:connector-curvature="0" />
      <path
         style="fill:#fedb41"
         d="m 205.23,180.88 c 1.62,-0.22 2.49,-0.32 2.49,-0.32 a 186.9,186.9 0 0 1 -9.19,50.86 C 180.29,288.3 141.48,329.48 141.48,329.48 96.84,381.63 68.14,363.95 68.14,363.95 55.07,356.33 45.09,348.33 37.5,340.38 5.97,307.42 15.34,275.36 15.34,275.36 33.5,205.77 183.99,183.66 205.23,180.88 Z"
         id="path2653"
         inkscape:connector-curvature="0" />
      <path
         style="fill:#f4b844"
         d="m 180.75,364.58 q -1.275,3.285 -2.51,6.31 a 276.41,276.41 0 0 1 -13.27,28.33 c -33.48,61.79 -66,50.25 -66,50.25 -75.7,-24.79 -71.86,-77.32 -71.86,-77.32 0.47,-10.9 4.08,-21.37 9.95,-31.34 l 0.44,-0.43 c 7.59,7.95 17.57,15.95 30.64,23.57 0,0 28.7,17.68 73.34,-34.47 0,0 38.81,-41.18 57.05,-98.06 h 0.01 q 0.975,5.445 1.6,10.91 c 2.73,23.82 0.58,47.61 -3.74,69.2 a 327.164,327.164 0 0 1 -15.65,53.05 z"
         id="path2655"
         inkscape:connector-curvature="0" />
      <path
         style="fill:#fedb41"
         d="m 277.235,104.481 a 6,6 0 0 1 -5.836,-7.416 l 12.01,-49.47 a 6.0002322,6.0002322 0 0 1 11.662,2.83 L 283.062,99.9 a 6,6 0 0 1 -5.827,4.581 z"
         id="path2657"
         inkscape:connector-curvature="0" />
      <path
         style="fill:#fedb41"
         d="m 234.765,104.481 a 6,6 0 0 1 -5.827,-4.585 L 216.929,50.425 a 6.0002322,6.0002322 0 1 1 11.662,-2.83 l 12.01,49.47 a 6,6 0 0 1 -5.836,7.416 z"
         id="path2659"
         inkscape:connector-curvature="0" />
      <path
         style="fill:#00efd1"
         d="m 310.71,149.28 a 54.335,54.335 0 0 1 -7.17,27.09 c -13.7,-13.76 -30.03,-22.01 -47.08,-22.01 -17.49,0 -33.82,8.28 -47.65,22.62 a 54.714,54.714 0 1 1 101.9,-27.7 z"
         id="path2661"
         inkscape:connector-curvature="0" />
    </g>
  </g>
  <g
     id="layer2">
    <g
       transform="matrix(0.02391479,0,0,0.02619938,59.172722,5.3544549)"
       id="g1716">
      <path
         style="fill:#fedb41"
         d="m 335.58,331.4 a 198.085,198.085 0 0 1 -9.61,-23.08 c 0,0 -7.28,-18.05 -13.16,-45.6 a 323.435,323.435 0 0 1 -7.27,-62.3 c -0.35,-24.16 2.42,-50.11 10.87,-75.31 0.31,-0.92 0.63,-1.84 0.95,-2.76 0,0 175.64,92.98 165.31,180.8 0,0 -5.17,58.55 -92.99,72.32 0,0 -21.19,3.85 -42.68,-25.18 A 127.888,127.888 0 0 1 335.58,331.4 Z"
         id="path1679" />
      <path
         style="fill:#00acea"
         d="m 325.97,308.32 a 198.085,198.085 0 0 0 9.61,23.08 c -51.48,4.18 -109.01,4.55 -159.17,0 a 196.3,196.3 0 0 0 9.62,-23.08 c 0,0 7.28,-18.05 13.16,-45.6 h 0.02 c 35.15,3.42 77.5,3.13 113.58,0 h 0.02 c 5.88,27.55 13.16,45.6 13.16,45.6 z"
         id="path1681" />
      <path
         style="fill:#00efd1"
         d="m 312.81,262.72 h -0.02 c -36.08,3.13 -78.43,3.42 -113.58,0 h -0.02 a 323.435,323.435 0 0 0 7.27,-62.3 c 29.68,2.87 68.62,2.64 99.08,0 a 323.435,323.435 0 0 0 7.27,62.3 z"
         id="path1683" />
      <path
         style="fill:#00acea"
         d="m 308.56,116.83 c 2.72,2.64 5.34,5.41 7.85,8.28 -8.45,25.2 -11.22,51.15 -10.87,75.31 -30.46,2.64 -69.4,2.87 -99.08,0 0.35,-24.67 -2.53,-51.21 -11.42,-76.91 a 107.906,107.906 0 0 1 7.7,-8.12 c 15.69,-14.93 34.96,-24.14 53.79,-24.14 18.38,0 36.74,10.71 52.03,25.58 z"
         id="path1685" />
      <path
         style="fill:#fedb41"
         d="m 206.46,200.42 a 323.435,323.435 0 0 1 -7.27,62.3 c -5.88,27.55 -13.16,45.6 -13.16,45.6 a 196.3,196.3 0 0 1 -9.62,23.08 132.717,132.717 0 0 1 -9.18,15.76 C 145,379.6 122.32,375.47 122.32,375.47 34.5,361.7 29.33,303.15 29.33,303.15 19,215.33 194.64,122.35 194.64,122.35 c 0.14,0.39 0.27,0.77 0.4,1.16 8.89,25.7 11.77,52.24 11.42,76.91 z"
         id="path1687" />
      <path
         style="fill:#f4b844"
         d="m 305.845,46.271 a 6,6 0 0 1 -4.83,-9.554 l 18.23,-24.81 a 6.0000862,6.0000862 0 1 1 9.67,7.106 l -18.23,24.81 a 5.993,5.993 0 0 1 -4.84,2.448 z"
         id="path1689" />
      <path
         style="fill:#f4b844"
         d="m 206.155,46.271 a 5.992,5.992 0 0 1 -4.84,-2.448 l -18.23,-24.81 a 6.0000862,6.0000862 0 0 1 9.67,-7.106 l 18.23,24.81 a 6,6 0 0 1 -4.83,9.554 z"
         id="path1691" />
      <path
         style="fill:#fedb41"
         d="m 256,498.54 h -0.077 a 6,6 0 0 1 -5.774,-4.666 l -7.69,-33.72 a 69.94,69.94 0 0 0 -5.083,-14.585 l -2.589,-5.408 a 6,6 0 0 1 5.412,-8.591 h 32.72 a 6,6 0 0 1 5.409,8.6 l -3.01,6.27 a 69.231,69.231 0 0 0 -4.663,12.875 l -8.842,34.709 A 6,6 0 0 1 256,498.54 Z"
         id="path1693" />
      <path
         style="fill:#00efd1"
         d="m 347,350.29 c -0.66,1.8 -2.84,7.74 -3.54,9.49 -18.54,46.34 -50.16,76.85 -86.04,76.85 -39.26,0 -72.68,-35.64 -90.19,-89.47 a 132.717,132.717 0 0 0 9.18,-15.76 c 50.16,4.55 107.69,4.18 159.17,0 A 127.888,127.888 0 0 0 347,350.29 Z"
         id="path1695" />
      <path
         style="fill:#00acea"
         d="m 318.5,83.03 a 62.111,62.111 0 0 1 -9.94,33.8 c -15.29,-14.87 -33.65,-25.58 -52.03,-25.58 -18.83,0 -38.1,9.21 -53.79,24.14 l -0.58,-0.6 A 62.5,62.5 0 1 1 318.5,83.03 Z"
         id="path1697" />
    </g>
    <g
       transform="matrix(0.02167027,-0.01109953,0.01292949,0.02100655,28.627726,11.080476)"
       id="g2308">
      <path
         style="fill:#fedb41"
         d="m 335.58,331.4 a 198.085,198.085 0 0 1 -9.61,-23.08 c 0,0 -7.28,-18.05 -13.16,-45.6 a 323.435,323.435 0 0 1 -7.27,-62.3 c -0.35,-24.16 2.42,-50.11 10.87,-75.31 0.31,-0.92 0.63,-1.84 0.95,-2.76 0,0 175.64,92.98 165.31,180.8 0,0 -5.17,58.55 -92.99,72.32 0,0 -21.19,3.85 -42.68,-25.18 A 127.888,127.888 0 0 1 335.58,331.4 Z"
         id="path2274" />
      <path
         style="fill:#00efd1"
         d="m 347,350.29 c -0.66,1.8 -2.84,7.74 -3.54,9.49 -18.54,46.34 -50.16,76.85 -86.04,76.85 -39.26,0 -72.68,-35.64 -90.19,-89.47 a 132.717,132.717 0 0 0 9.18,-15.76 c 50.16,4.55 107.69,4.18 159.17,0 A 127.888,127.888 0 0 0 347,350.29 Z"
         id="path2276" />
      <path
         style="fill:#00acea"
         d="m 325.97,308.32 a 198.085,198.085 0 0 0 9.61,23.08 c -51.48,4.18 -109.01,4.55 -159.17,0 a 196.3,196.3 0 0 0 9.62,-23.08 c 0,0 7.28,-18.05 13.16,-45.6 h 0.02 c 35.15,3.42 77.5,3.13 113.58,0 h 0.02 c 5.88,27.55 13.16,45.6 13.16,45.6 z"
         id="path2278" />
      <path
         style="fill:#00acea"
         d="m 318.5,83.03 a 62.111,62.111 0 0 1 -9.94,33.8 c -15.29,-14.87 -33.65,-25.58 -52.03,-25.58 -18.83,0 -38.1,9.21 -53.79,24.14 l -0.58,-0.6 A 62.5,62.5 0 1 1 318.5,83.03 Z"
         id="path2280" />
      <path
         style="fill:#00efd1"
         d="m 312.81,262.72 h -0.02 c -36.08,3.13 -78.43,3.42 -113.58,0 h -0.02 a 323.435,323.435 0 0 0 7.27,-62.3 c 29.68,2.87 68.62,2.64 99.08,0 a 323.435,323.435 0 0 0 7.27,62.3 z"
         id="path2282" />
      <path
         style="fill:#00acea"
         d="m 308.56,116.83 c 2.72,2.64 5.34,5.41 7.85,8.28 -8.45,25.2 -11.22,51.15 -10.87,75.31 -30.46,2.64 -69.4,2.87 -99.08,0 0.35,-24.67 -2.53,-51.21 -11.42,-76.91 a 107.906,107.906 0 0 1 7.7,-8.12 c 15.69,-14.93 34.96,-24.14 53.79,-24.14 18.38,0 36.74,10.71 52.03,25.58 z"
         id="path2284" />
      <path
         style="fill:#00acea"
         d="m 272.92,441.57 -3.01,6.27 a 75.076,75.076 0 0 0 -5.07,14 l -8.84,34.7 -7.69,-33.72 a 75.886,75.886 0 0 0 -5.52,-15.84 l -2.59,-5.41 z"
         id="path2286" />
      <path
         style="fill:#fedb41"
         d="m 206.46,200.42 a 323.435,323.435 0 0 1 -7.27,62.3 c -5.88,27.55 -13.16,45.6 -13.16,45.6 a 196.3,196.3 0 0 1 -9.62,23.08 132.717,132.717 0 0 1 -9.18,15.76 C 145,379.6 122.32,375.47 122.32,375.47 34.5,361.7 29.33,303.15 29.33,303.15 19,215.33 194.64,122.35 194.64,122.35 c 0.14,0.39 0.27,0.77 0.4,1.16 8.89,25.7 11.77,52.24 11.42,76.91 z"
         id="path2288" />
      <path
         style="fill:#083863"
         d="m 407.646,175.139 c -42.572,-34.184 -87.035,-57.857 -87.479,-58.092 a 6,6 0 0 0 -3.586,-0.639 c -0.162,-0.17 -0.325,-0.336 -0.488,-0.5 a 68.371,68.371 0 0 0 -4.679,-73.073 l 17.5,-23.818 a 6.0000862,6.0000862 0 1 0 -9.67,-7.106 l -15.921,21.665 a 68.314,68.314 0 0 0 -94.646,0 L 192.755,11.907 a 6.0000862,6.0000862 0 0 0 -9.67,7.106 l 17.5,23.818 a 68.387,68.387 0 0 0 -5.439,71.655 q -0.967,1 -1.919,2.04 a 5.936,5.936 0 0 0 -1.4,0.521 c -0.444,0.235 -44.907,23.908 -87.479,58.092 -58.24,46.771 -85.488,90.061 -80.984,128.652 0.16,1.588 2.011,17 14.729,33.956 C 59.584,366.4 95.252,377.3 121.39,381.4 a 22.816,22.816 0 0 0 3.462,0.229 c 7.085,0 23.514,-2.432 40.4,-22.043 8.79,23.089 20.652,42.549 34.648,56.714 10.69,10.82 22.514,18.432 34.936,22.6 a 6,6 0 0 0 -0.049,5.263 l 2.589,5.408 a 69.94,69.94 0 0 1 5.083,14.585 l 7.69,33.95 a 6.178,6.178 0 0 0 5.774,4.9 H 256 a 6.212,6.212 0 0 0 5.813,-4.749 l 8.842,-34.824 a 69.807,69.807 0 0 1 4.663,-12.933 l 3.01,-6.3 a 6.024,6.024 0 0 0 0.148,-4.842 c 28.75,-9.07 54.205,-36.532 70.516,-77.247 16.093,17.318 31.412,19.524 38.171,19.523 a 22.65,22.65 0 0 0 3.445,-0.229 c 47.356,-7.426 71.436,-27.838 83.3,-43.653 12.721,-16.959 14.57,-32.375 14.729,-33.957 C 493.14,265.2 465.892,221.91 407.646,175.139 Z m -203.737,94.027 c 15.608,1.329 32.875,2 50.567,2 17.887,0 36.183,-0.687 53.6,-2.045 5.462,23.9 11.571,39.549 12.27,41.3 1.911,5.476 3.963,10.709 6.129,15.652 -47.451,3.408 -97.882,3.432 -140.99,0.067 2.175,-4.952 4.238,-10.208 6.162,-15.72 a 301.345,301.345 0 0 0 12.262,-41.254 z m 2.485,-11.829 a 328.008,328.008 0 0 0 5.888,-50.387 c 12.934,1.019 27.558,1.531 42.49,1.531 15.158,0 30.627,-0.526 44.945,-1.577 a 328,328 0 0 0 5.877,50.378 c -33.071,2.494 -69.194,2.512 -99.2,0.055 z m 93.125,-62.452 c -28.277,2.118 -61.229,2.134 -87.037,0.045 -0.143,-25.221 -3.726,-48.732 -10.657,-70.027 1.654,-1.814 3.343,-3.547 5.051,-5.166 15.018,-14.291 33.116,-22.487 49.654,-22.487 15.019,0 32.012,8.481 47.851,23.885 1.775,1.724 3.535,3.541 5.261,5.42 -6.583,20.876 -9.985,43.818 -10.123,68.33 z M 256,26.53 a 56.483,56.483 0 0 1 51.024,80.744 C 286.255,89.239 268.309,85.25 256.53,85.25 c -17.738,0 -36.025,7.315 -52.174,20.7 A 56.506,56.506 0 0 1 256,26.53 Z m -132.6,343.037 -0.145,-0.025 c -33.984,-5.328 -59.958,-18.61 -75.113,-38.41 -11.379,-14.864 -12.82,-28.4 -12.83,-28.51 -0.005,-0.058 -0.011,-0.115 -0.018,-0.173 -5.011,-42.6 38.806,-87.6 76.447,-117.847 32.389,-26.027 65.923,-45.848 79.477,-53.5 6.387,20.613 9.491,43.454 9.254,68 a 5.942,5.942 0 0 0 -0.04,2.436 316.264,316.264 0 0 1 -7.1,59.931 c -5.687,26.645 -12.786,44.433 -12.857,44.608 -0.036,0.089 -0.069,0.179 -0.1,0.27 a 193.833,193.833 0 0 1 -8.695,21.089 5.956,5.956 0 0 0 -1.33,2.641 126.05,126.05 0 0 1 -8.058,13.693 c -19.47,28.394 -38.192,25.9 -38.892,25.797 z m 135.63,91.007 -2.7,10.5 -2.164,-9.325 A 68.349,68.349 0 0 0 249.64,448 h 13.792 a 74.282,74.282 0 0 0 -4.407,12.574 z m -1.6,-29.944 c -17.33,0 -34.268,-7.872 -48.983,-22.766 -14.255,-14.428 -26.172,-35.082 -34.581,-59.837 2.082,-3.213 4.1,-6.662 6.045,-10.312 23.29,1.98 48.295,2.983 73.965,2.983 25.8,0 52.251,-1.013 78.212,-3.015 a 134.646,134.646 0 0 0 8.2,13.512 c -1.5,4.076 -2.131,5.718 -2.386,6.356 -18.32,45.76 -48.402,73.079 -80.482,73.079 z M 476.711,302.449 c -0.007,0.058 -0.013,0.115 -0.018,0.173 -0.047,0.539 -5.708,54.026 -88,66.931 -0.732,0.11 -18.161,2.437 -36.865,-22.83 a 120.708,120.708 0 0 1 -10.149,-16.581 5.962,5.962 0 0 0 -1.359,-2.72 195.469,195.469 0 0 1 -8.681,-21.076 c -0.031,-0.09 -0.065,-0.18 -0.1,-0.268 -0.072,-0.177 -7.171,-17.965 -12.858,-44.61 a 316.316,316.316 0 0 1 -7.105,-59.93 5.93,5.93 0 0 0 -0.041,-2.438 c -0.243,-24.5 2.861,-47.351 9.25,-68 30.78,17.434 164.587,97.722 155.926,171.349 z"
         id="path2290" />
    </g>
    <g
       id="g2683"
       transform="matrix(0.00787933,-0.00829723,0.01006469,0.0051998,53.901859,22.05309)">
      <path
         id="path2665"
         d="m 335.58,331.4 a 198.085,198.085 0 0 1 -9.61,-23.08 c 0,0 -7.28,-18.05 -13.16,-45.6 a 323.435,323.435 0 0 1 -7.27,-62.3 c -0.35,-24.16 2.42,-50.11 10.87,-75.31 0.31,-0.92 0.63,-1.84 0.95,-2.76 0,0 175.64,92.98 165.31,180.8 0,0 -5.17,58.55 -92.99,72.32 0,0 -21.19,3.85 -42.68,-25.18 A 127.888,127.888 0 0 1 335.58,331.4 Z"
         style="fill:#fedb41" />
      <path
         id="path2667"
         d="m 347,350.29 c -0.66,1.8 -2.84,7.74 -3.54,9.49 -18.54,46.34 -50.16,76.85 -86.04,76.85 -39.26,0 -72.68,-35.64 -90.19,-89.47 a 132.717,132.717 0 0 0 9.18,-15.76 c 50.16,4.55 107.69,4.18 159.17,0 A 127.888,127.888 0 0 0 347,350.29 Z"
         style="fill:#00efd1" />
      <path
         id="path2669"
         d="m 325.97,308.32 a 198.085,198.085 0 0 0 9.61,23.08 c -51.48,4.18 -109.01,4.55 -159.17,0 a 196.3,196.3 0 0 0 9.62,-23.08 c 0,0 7.28,-18.05 13.16,-45.6 h 0.02 c 35.15,3.42 77.5,3.13 113.58,0 h 0.02 c 5.88,27.55 13.16,45.6 13.16,45.6 z"
         style="fill:#00acea" />
      <path
         id="path2671"
         d="m 318.5,83.03 a 62.111,62.111 0 0 1 -9.94,33.8 c -15.29,-14.87 -33.65,-25.58 -52.03,-25.58 -18.83,0 -38.1,9.21 -53.79,24.14 l -0.58,-0.6 A 62.5,62.5 0 1 1 318.5,83.03 Z"
         style="fill:#00acea" />
      <path
         id="path2673"
         d="m 312.81,262.72 h -0.02 c -36.08,3.13 -78.43,3.42 -113.58,0 h -0.02 a 323.435,323.435 0 0 0 7.27,-62.3 c 29.68,2.87 68.62,2.64 99.08,0 a 323.435,323.435 0 0 0 7.27,62.3 z"
         style="fill:#00efd1" />
      <path
         id="path2675"
         d="m 308.56,116.83 c 2.72,2.64 5.34,5.41 7.85,8.28 -8.45,25.2 -11.22,51.15 -10.87,75.31 -30.46,2.64 -69.4,2.87 -99.08,0 0.35,-24.67 -2.53,-51.21 -11.42,-76.91 a 107.906,107.906 0 0 1 7.7,-8.12 c 15.69,-14.93 34.96,-24.14 53.79,-24.14 18.38,0 36.74,10.71 52.03,25.58 z"
         style="fill:#00acea" />
      <path
         id="path2677"
         d="m 272.92,441.57 -3.01,6.27 a 75.076,75.076 0 0 0 -5.07,14 l -8.84,34.7 -7.69,-33.72 a 75.886,75.886 0 0 0 -5.52,-15.84 l -2.59,-5.41 z"
         style="fill:#00acea" />
      <path
         id="path2679"
         d="m 206.46,200.42 a 323.435,323.435 0 0 1 -7.27,62.3 c -5.88,27.55 -13.16,45.6 -13.16,45.6 a 196.3,196.3 0 0 1 -9.62,23.08 132.717,132.717 0 0 1 -9.18,15.76 C 145,379.6 122.32,375.47 122.32,375.47 34.5,361.7 29.33,303.15 29.33,303.15 19,215.33 194.64,122.35 194.64,122.35 c 0.14,0.39 0.27,0.77 0.4,1.16 8.89,25.7 11.77,52.24 11.42,76.91 z"
         style="fill:#fedb41" />
      <path
         id="path2681"
         d="m 407.646,175.139 c -42.572,-34.184 -87.035,-57.857 -87.479,-58.092 a 6,6 0 0 0 -3.586,-0.639 c -0.162,-0.17 -0.325,-0.336 -0.488,-0.5 a 68.371,68.371 0 0 0 -4.679,-73.073 l 17.5,-23.818 a 6.0000862,6.0000862 0 1 0 -9.67,-7.106 l -15.921,21.665 a 68.314,68.314 0 0 0 -94.646,0 L 192.755,11.907 a 6.0000862,6.0000862 0 0 0 -9.67,7.106 l 17.5,23.818 a 68.387,68.387 0 0 0 -5.439,71.655 q -0.967,1 -1.919,2.04 a 5.936,5.936 0 0 0 -1.4,0.521 c -0.444,0.235 -44.907,23.908 -87.479,58.092 -58.24,46.771 -85.488,90.061 -80.984,128.652 0.16,1.588 2.011,17 14.729,33.956 C 59.584,366.4 95.252,377.3 121.39,381.4 a 22.816,22.816 0 0 0 3.462,0.229 c 7.085,0 23.514,-2.432 40.4,-22.043 8.79,23.089 20.652,42.549 34.648,56.714 10.69,10.82 22.514,18.432 34.936,22.6 a 6,6 0 0 0 -0.049,5.263 l 2.589,5.408 a 69.94,69.94 0 0 1 5.083,14.585 l 7.69,33.95 a 6.178,6.178 0 0 0 5.774,4.9 H 256 a 6.212,6.212 0 0 0 5.813,-4.749 l 8.842,-34.824 a 69.807,69.807 0 0 1 4.663,-12.933 l 3.01,-6.3 a 6.024,6.024 0 0 0 0.148,-4.842 c 28.75,-9.07 54.205,-36.532 70.516,-77.247 16.093,17.318 31.412,19.524 38.171,19.523 a 22.65,22.65 0 0 0 3.445,-0.229 c 47.356,-7.426 71.436,-27.838 83.3,-43.653 12.721,-16.959 14.57,-32.375 14.729,-33.957 C 493.14,265.2 465.892,221.91 407.646,175.139 Z m -203.737,94.027 c 15.608,1.329 32.875,2 50.567,2 17.887,0 36.183,-0.687 53.6,-2.045 5.462,23.9 11.571,39.549 12.27,41.3 1.911,5.476 3.963,10.709 6.129,15.652 -47.451,3.408 -97.882,3.432 -140.99,0.067 2.175,-4.952 4.238,-10.208 6.162,-15.72 a 301.345,301.345 0 0 0 12.262,-41.254 z m 2.485,-11.829 a 328.008,328.008 0 0 0 5.888,-50.387 c 12.934,1.019 27.558,1.531 42.49,1.531 15.158,0 30.627,-0.526 44.945,-1.577 a 328,328 0 0 0 5.877,50.378 c -33.071,2.494 -69.194,2.512 -99.2,0.055 z m 93.125,-62.452 c -28.277,2.118 -61.229,2.134 -87.037,0.045 -0.143,-25.221 -3.726,-48.732 -10.657,-70.027 1.654,-1.814 3.343,-3.547 5.051,-5.166 15.018,-14.291 33.116,-22.487 49.654,-22.487 15.019,0 32.012,8.481 47.851,23.885 1.775,1.724 3.535,3.541 5.261,5.42 -6.583,20.876 -9.985,43.818 -10.123,68.33 z M 256,26.53 a 56.483,56.483 0 0 1 51.024,80.744 C 286.255,89.239 268.309,85.25 256.53,85.25 c -17.738,0 -36.025,7.315 -52.174,20.7 A 56.506,56.506 0 0 1 256,26.53 Z m -132.6,343.037 -0.145,-0.025 c -33.984,-5.328 -59.958,-18.61 -75.113,-38.41 -11.379,-14.864 -12.82,-28.4 -12.83,-28.51 -0.005,-0.058 -0.011,-0.115 -0.018,-0.173 -5.011,-42.6 38.806,-87.6 76.447,-117.847 32.389,-26.027 65.923,-45.848 79.477,-53.5 6.387,20.613 9.491,43.454 9.254,68 a 5.942,5.942 0 0 0 -0.04,2.436 316.264,316.264 0 0 1 -7.1,59.931 c -5.687,26.645 -12.786,44.433 -12.857,44.608 -0.036,0.089 -0.069,0.179 -0.1,0.27 a 193.833,193.833 0 0 1 -8.695,21.089 5.956,5.956 0 0 0 -1.33,2.641 126.05,126.05 0 0 1 -8.058,13.693 c -19.47,28.394 -38.192,25.9 -38.892,25.797 z m 135.63,91.007 -2.7,10.5 -2.164,-9.325 A 68.349,68.349 0 0 0 249.64,448 h 13.792 a 74.282,74.282 0 0 0 -4.407,12.574 z m -1.6,-29.944 c -17.33,0 -34.268,-7.872 -48.983,-22.766 -14.255,-14.428 -26.172,-35.082 -34.581,-59.837 2.082,-3.213 4.1,-6.662 6.045,-10.312 23.29,1.98 48.295,2.983 73.965,2.983 25.8,0 52.251,-1.013 78.212,-3.015 a 134.646,134.646 0 0 0 8.2,13.512 c -1.5,4.076 -2.131,5.718 -2.386,6.356 -18.32,45.76 -48.402,73.079 -80.482,73.079 z M 476.711,302.449 c -0.007,0.058 -0.013,0.115 -0.018,0.173 -0.047,0.539 -5.708,54.026 -88,66.931 -0.732,0.11 -18.161,2.437 -36.865,-22.83 a 120.708,120.708 0 0 1 -10.149,-16.581 5.962,5.962 0 0 0 -1.359,-2.72 195.469,195.469 0 0 1 -8.681,-21.076 c -0.031,-0.09 -0.065,-0.18 -0.1,-0.268 -0.072,-0.177 -7.171,-17.965 -12.858,-44.61 a 316.316,316.316 0 0 1 -7.105,-59.93 5.93,5.93 0 0 0 -0.041,-2.438 c -0.243,-24.5 2.861,-47.351 9.25,-68 30.78,17.434 164.587,97.722 155.926,171.349 z"
         style="fill:#083863" />
    </g>
  </g>
</svg>
