<?xml version="1.0" encoding="UTF-8" standalone="no"?>
<svg
   xmlns:dc="http://purl.org/dc/elements/1.1/"
   xmlns:cc="http://creativecommons.org/ns#"
   xmlns:rdf="http://www.w3.org/1999/02/22-rdf-syntax-ns#"
   xmlns:svg="http://www.w3.org/2000/svg"
   xmlns="http://www.w3.org/2000/svg"
   xmlns:sodipodi="http://sodipodi.sourceforge.net/DTD/sodipodi-0.dtd"
   xmlns:inkscape="http://www.inkscape.org/namespaces/inkscape"
   width="300"
   height="420"
   viewBox="0 0 79.374998 111.125"
   version="1.1"
   id="svg885"
   sodipodi:docname="004.svg"
   inkscape:version="0.92.4 (5da689c313, 2019-01-14)">
  <sodipodi:namedview
     pagecolor="#ffffff"
     bordercolor="#666666"
     borderopacity="1"
     objecttolerance="10"
     gridtolerance="10"
     guidetolerance="10"
     inkscape:pageopacity="0"
     inkscape:pageshadow="2"
     inkscape:window-width="1366"
     inkscape:window-height="745"
     id="namedview2546"
     showgrid="false"
     inkscape:zoom="1.1238095"
     inkscape:cx="144.66159"
     inkscape:cy="121.16699"
     inkscape:window-x="-8"
     inkscape:window-y="-8"
     inkscape:window-maximized="1"
     inkscape:current-layer="svg885" />
  <defs
     id="defs879" />
  <metadata
     id="metadata882">
    <rdf:RDF>
      <cc:Work
         rdf:about="">
        <dc:format>image/svg+xml</dc:format>
        <dc:type
           rdf:resource="http://purl.org/dc/dcmitype/StillImage" />
        <dc:title />
      </cc:Work>
    </rdf:RDF>
  </metadata>
  <g
     style="opacity:0.99;fill:#6f5849;fill-opacity:1"
     id="layer1"
     transform="translate(0,-185.87498)">
    <rect
       style="opacity:1;fill:#6f5849;fill-opacity:1;fill-rule:nonzero;stroke:none;stroke-width:0.26598862;stroke-linecap:round;stroke-linejoin:round;stroke-miterlimit:4;stroke-dasharray:none;stroke-opacity:1;paint-order:normal"
       id="rect1430"
       width="79.368423"
       height="111.11626"
       x="0.0034530037"
       y="185.87776" />
    <flowRoot
       xml:space="preserve"
       id="flowRoot2560"
       style="fill:#6f5849;fill-opacity:1;stroke:none;font-family:Arial;font-style:normal;font-weight:bold;font-size:20.20399984px;line-height:1.25;letter-spacing:0px;word-spacing:0px;-inkscape-font-specification:'Arial, Bold';font-stretch:normal;font-variant:normal;text-anchor:start;text-align:start;writing-mode:lr;font-variant-ligatures:normal;font-variant-caps:normal;font-variant-numeric:normal;font-feature-settings:normal"><flowRegion
         style="fill:#6f5849;fill-opacity:1"
         id="flowRegion2562"><rect
           style="fill:#6f5849;fill-opacity:1"
           id="rect2564"
           width="438.40622"
           height="422.24377"
           x="-159.6041"
           y="-33.558495" /></flowRegion><flowPara
         id="flowPara2566" /></flowRoot>  </g>
  <text
     id="text2322"
     y="8.8064241"
     x="2.7011271"
     style="font-style:normal;font-variant:normal;font-weight:bold;font-stretch:normal;font-size:6.3499999px;line-height:1.25;font-family:Arial;-inkscape-font-specification:'Arial, Bold';font-variant-ligatures:normal;font-variant-caps:normal;font-variant-numeric:normal;font-feature-settings:normal;text-align:start;letter-spacing:0px;word-spacing:0px;writing-mode:lr-tb;text-anchor:start;fill:#000000;fill-opacity:1;stroke:none;stroke-width:0.26458332"
     xml:space="preserve"><tspan
       style="stroke-width:0.26458332"
       id="tspan2320"
       y="8.8064241"
       x="2.7011271"><tspan
         style="stroke-width:0.26458332"
         id="tspan2318"
         y="8.8064241"
         x="2.7011271">4.</tspan></tspan></text>
  <g
     transform="matrix(0.23884439,0,0,0.26196743,16.688442,17.056503)"
     id="g2198">
    <g
       id="layer6">
      <path
         id="path880"
         d="m 139.53994,141.79213 c 9.68927,12.94143 25.35237,46.78746 17.95995,40.3533"
         style="fill:none;stroke:#000000;stroke-width:4.60422993;stroke-linecap:round;stroke-linejoin:miter;stroke-miterlimit:4;stroke-dasharray:none;stroke-opacity:1" />
      <path
         style="fill:none;stroke:#000000;stroke-width:5.86499977;stroke-linecap:round;stroke-linejoin:miter;stroke-miterlimit:4;stroke-dasharray:none;stroke-opacity:1"
         d="m 82.131923,185.30806 c 11.483861,17.80912 -11.928366,48.16385 -0.374176,45.46254"
         id="path882" />
      <path
         id="path884"
         d="m 116.18207,184.93389 c 11.48386,17.80912 -11.92837,48.16385 -0.37418,45.46254"
         style="fill:none;stroke:#000000;stroke-width:5.86499977;stroke-linecap:round;stroke-linejoin:miter;stroke-miterlimit:4;stroke-dasharray:none;stroke-opacity:1" />
    </g>
    <g
       id="layer4"
       style="display:inline">
      <rect
         style="opacity:1;fill:#fe7b6a;fill-opacity:1;stroke:none;stroke-width:0.07566334;stroke-linecap:round;stroke-linejoin:round;stroke-miterlimit:4;stroke-dasharray:none;stroke-opacity:1;paint-order:normal"
         id="rect2154"
         width="75.683777"
         height="49.587734"
         x="64.645958"
         y="136.27773"
         ry="2.5358722" />
      <path
         style="fill:#f0624e;fill-opacity:1;stroke:#f0624e;stroke-width:0.32813942;stroke-linecap:butt;stroke-linejoin:miter;stroke-miterlimit:4;stroke-dasharray:none;stroke-opacity:1"
         d="m 64.791873,156.17051 75.391307,-0.72834 5e-5,18.15658 -75.391309,0.11601 z"
         id="path2156" />
    </g>
    <g
       id="layer1-8">
      <g
         transform="translate(4.1038546,-103.99778)"
         id="layer1-4"
         style="fill:#a3e0c0;fill-opacity:1">
        <rect
           rx="49.514881"
           ry="50.081848"
           y="146.18748"
           x="33.261906"
           height="100.1637"
           width="132.66963"
           id="rect815"
           style="opacity:1;fill:#a3e0c0;fill-opacity:1;stroke:none;stroke-width:3.00399995;stroke-linecap:round;stroke-linejoin:round;stroke-miterlimit:4;stroke-dasharray:none;stroke-opacity:1;paint-order:normal" />
      </g>
      <path
         style="fill:#86d0ab;fill-opacity:1;fill-rule:evenodd;stroke-width:0.26458332"
         id="path2023"
         d="M 79.913584,104.69958 A 10.022608,10.557146 0 0 1 69.891632,115.25672 10.022608,10.557146 0 0 1 59.868368,104.70096 10.022608,10.557146 0 0 1 69.889008,94.142431 10.022608,10.557146 0 0 1 79.913583,104.69681 l -10.022607,0.003 z" />
      <path
         style="fill:#86d0ab;fill-opacity:1;fill-rule:evenodd;stroke-width:0.26458332"
         id="path2025"
         d="m 161.16352,101.75961 a 10.423512,11.358955 0 0 1 -10.42283,11.35896 10.423512,11.358955 0 0 1 -10.4242,-11.35747 10.423512,11.358955 0 0 1 10.42147,-11.360442 10.423512,11.358955 0 0 1 10.42556,11.355982 l -10.42351,0.003 z" />
      <path
         style="fill:#95d8af;fill-opacity:1;stroke:#95d8af;stroke-width:0.26458332px;stroke-linecap:butt;stroke-linejoin:miter;stroke-opacity:1"
         d="M 135.46234,139.90161 C 103.83913,141.25495 74.025655,141.06533 71.045524,115.05813 55.376425,115 57.726273,95.128724 69.412294,93.82613 65.298145,53.389322 79.393102,48.961318 88.864323,42.672194 59.562019,39.595249 37.185723,67.453189 37.809284,89.960016 c -1.76528,33.488194 25.446872,52.047174 47.118697,52.046414 23.662139,0.75924 42.395969,0.886 50.534359,-2.10482 z"
         id="path2029" />
      <path
         style="fill:#77c79f;fill-opacity:1;stroke:none;stroke-width:0.114;stroke-linecap:butt;stroke-linejoin:miter;stroke-miterlimit:4;stroke-dasharray:none;stroke-opacity:1"
         d="M 42.918268,69.134595 29.167873,57.475574 c -4.06867,-3.600109 1.797433,-10.284612 5.762783,-6.888703 l 13.041932,10.732934 c -2.588087,3.245779 -3.523411,5.121467 -5.05432,7.81479 z"
         id="path2031" />
      <path
         style="fill:#77c79f;fill-opacity:1;stroke:none;stroke-width:0.075;stroke-linecap:butt;stroke-linejoin:miter;stroke-miterlimit:4;stroke-dasharray:none;stroke-opacity:1"
         d="M 49.850716,58.986426 29.938228,41.293354 C 26.241189,38.140029 32.50453,32.234957 35.8028,34.8462 l 20.059955,18.236876 c -1.122746,1.030173 -4.87864,4.541005 -6.012039,5.90335 z"
         id="path2033" />
      <path
         id="path2044"
         d="M 58.093776,51.342742 44.461795,39.800021 c -4.06867,-3.600109 1.797433,-10.284612 5.762783,-6.888703 l 15.195652,13.90722 c -1.85391,0.869755 -5.856491,3.288176 -7.326454,4.524204 z"
         style="fill:#77c79f;fill-opacity:1;stroke:none;stroke-width:0.114;stroke-linecap:butt;stroke-linejoin:miter;stroke-miterlimit:4;stroke-dasharray:none;stroke-opacity:1" />
    </g>
    <g
       id="layer2"
       style="display:inline">
      <path
         d="M 108.76829,82.887405 A 13.607142,12.851191 0 0 1 95.162039,95.738596 13.607142,12.851191 0 0 1 81.554006,82.889088 13.607142,12.851191 0 0 1 95.158476,70.036215 13.607142,12.851191 0 0 1 108.76829,82.884041 l -13.607142,0.0034 z"
         id="path847"
         style="fill:#ffffff;fill-opacity:1;fill-rule:evenodd;stroke-width:0.26458332" />
      <path
         style="fill:#ffffff;fill-opacity:1;fill-rule:evenodd;stroke-width:0.26458332;paint-order:fill markers stroke"
         id="path2091"
         d="M 133.94442,83.118378 A 13.607142,12.851191 0 0 1 120.33816,95.969568 13.607142,12.851191 0 0 1 106.73013,83.12006 13.607142,12.851191 0 0 1 120.3346,70.267187 13.607142,12.851191 0 0 1 133.94441,83.115013 l -13.60714,0.0034 z" />
      <path
         style="fill:#000000;fill-opacity:1;fill-rule:evenodd;stroke:none;stroke-width:0.26458332;stroke-opacity:1"
         id="path2179"
         d="m 101.28195,82.887405 a 6.1208024,5.7743421 0 0 1 -6.120401,5.774342 6.1208024,5.7743421 0 0 1 -6.121203,-5.773586 6.1208024,5.7743421 0 0 1 6.1196,-5.775098 6.1208024,5.7743421 0 0 1 6.122004,5.772831 l -6.120802,0.0015 z" />
      <path
         d="m 126.45808,83.118378 a 6.1208024,5.7743421 0 0 1 -6.12041,5.774342 6.1208024,5.7743421 0 0 1 -6.1212,-5.773586 6.1208024,5.7743421 0 0 1 6.1196,-5.775098 6.1208024,5.7743421 0 0 1 6.122,5.77283 l -6.1208,0.0015 z"
         id="path2181"
         style="fill:#000000;fill-opacity:1;fill-rule:evenodd;stroke-width:0.26458332;paint-order:markers stroke fill" />
      <path
         style="fill:#a3e0c0;fill-opacity:1;stroke:#a3e0c0;stroke-width:0.065;stroke-linecap:butt;stroke-linejoin:miter;stroke-miterlimit:4;stroke-dasharray:none;stroke-opacity:1"
         d="m 81.47596,82.945154 c 1.738848,-17.658284 23.00856,-14.931422 26.27325,-4.965933 7.83267,-13.688767 26.00903,-7.572675 26.1952,5.13579 l 13.16761,-1.258019 -5.85786,-21.035023 -67.631584,4.659656 -1.464463,18.372362 z"
         id="path2201" />
      <path
         style="fill:#a3e0c0;fill-opacity:1;stroke:#a3e0c0;stroke-width:0.065;stroke-linecap:butt;stroke-linejoin:miter;stroke-miterlimit:4;stroke-dasharray:none;stroke-opacity:1"
         d="m 81.47596,82.945154 c 1.045872,13.684224 19.03344,18.034166 26.17231,5.112708 5.50008,11.980628 25.5048,10.051654 26.29614,-4.942853 l 13.16761,-1.258017 -9.33918,16.744471 -55.829213,5.144777 -6.559526,-11.403483 -3.128389,-0.201829 -0.0976,-8.286943 z"
         id="path2213" />
    </g>
    <g
       id="layer5" />
    <g
       id="layer3"
       style="display:inline">
      <path
         style="fill:none;stroke:#64a2d6;stroke-width:8.25;stroke-linecap:round;stroke-linejoin:miter;stroke-miterlimit:4;stroke-dasharray:none;stroke-opacity:1"
         d="m 91.369316,108.83786 c 34.845494,-3.27864 34.845494,-3.27864 34.845494,-3.27864"
         id="path895" />
      <path
         style="fill:none;stroke:#000000;stroke-width:2.06500006;stroke-linecap:round;stroke-linejoin:miter;stroke-miterlimit:4;stroke-dasharray:none;stroke-opacity:1"
         d="m 91.369316,108.83786 34.845494,-3.27864"
         id="path897" />
    </g>
    <path
       style="fill:none;stroke:#000000;stroke-width:4.60422993;stroke-linecap:round;stroke-linejoin:miter;stroke-miterlimit:4;stroke-dasharray:none;stroke-opacity:1"
       d="m 108.04508,100.07194 c 9.63573,6.37783 -48.724085,53.25164 -44.684236,38.67934"
       id="path878" />
  </g>
  <flowRoot
     transform="matrix(0.36679332,-0.17860667,0.2054505,0.31886871,-32.796199,27.349238)"
     style="font-style:normal;font-variant:normal;font-weight:bold;font-stretch:normal;font-size:20.20400047px;line-height:1.25;font-family:Arial;-inkscape-font-specification:'Arial, Bold';font-variant-ligatures:normal;font-variant-caps:normal;font-variant-numeric:normal;font-feature-settings:normal;text-align:start;letter-spacing:0px;word-spacing:0px;writing-mode:lr-tb;text-anchor:start;fill:#000000;fill-opacity:1;stroke:none"
     id="flowRoot2215"
     xml:space="preserve"><flowRegion
       id="flowRegion2217"><rect
         y="54.956131"
         x="159.31999"
         height="23.201941"
         width="63.934235"
         id="rect2219" /></flowRegion><flowPara
       id="flowPara2221">hum...</flowPara></flowRoot>  <flowRoot
     xml:space="preserve"
     id="flowRoot2245"
     style="font-style:normal;font-variant:normal;font-weight:bold;font-stretch:normal;font-size:20.20400047px;line-height:1.25;font-family:Arial;-inkscape-font-specification:'Arial, Bold';font-variant-ligatures:normal;font-variant-caps:normal;font-variant-numeric:normal;font-feature-settings:normal;text-align:start;letter-spacing:0px;word-spacing:0px;writing-mode:lr-tb;text-anchor:start;fill:#000000;fill-opacity:1;stroke:none"
     transform="matrix(0.29975048,-0.13632273,0.16789806,0.24337866,-16.148687,28.196364)"><flowRegion
       id="flowRegion2241"><rect
         id="rect2239"
         width="63.934235"
         height="23.201941"
         x="159.31999"
         y="54.956131" /></flowRegion><flowPara
       id="flowPara2243">hum...</flowPara></flowRoot>  <flowRoot
     transform="matrix(0.23717716,-0.10656736,0.13284911,0.19025603,-0.89718165,29.469514)"
     style="font-style:normal;font-variant:normal;font-weight:bold;font-stretch:normal;font-size:20.20400047px;line-height:1.25;font-family:Arial;-inkscape-font-specification:'Arial, Bold';font-variant-ligatures:normal;font-variant-caps:normal;font-variant-numeric:normal;font-feature-settings:normal;text-align:start;letter-spacing:0px;word-spacing:0px;writing-mode:lr-tb;text-anchor:start;fill:#000000;fill-opacity:1;stroke:none"
     id="flowRoot2253"
     xml:space="preserve"><flowRegion
       id="flowRegion2249"><rect
         y="54.956131"
         x="159.31999"
         height="23.201941"
         width="63.934235"
         id="rect2247" /></flowRegion><flowPara
       id="flowPara2251">hum...</flowPara></flowRoot>  <text
     xml:space="preserve"
     style="font-style:normal;font-variant:normal;font-weight:bold;font-stretch:normal;font-size:5.34564161px;line-height:1.25;font-family:Arial;-inkscape-font-specification:'Arial, Bold';font-variant-ligatures:normal;font-variant-caps:normal;font-variant-numeric:normal;font-feature-settings:normal;text-align:start;letter-spacing:0px;word-spacing:0px;writing-mode:lr-tb;text-anchor:start;fill:#4f0400;fill-opacity:1;stroke:none;stroke-width:0.26458332"
     x="9.4531698"
     y="95.104172"
     id="text3103"><tspan
       sodipodi:role="line"
       x="9.4531698"
       y="95.104172"
       id="tspan3093"
       style="stroke-width:0.26458332"><tspan
         x="9.4531698"
         y="95.104172"
         id="tspan3091"
         style="stroke-width:0.26458332">You can't hum while </tspan></tspan><tspan
       sodipodi:role="line"
       x="9.4531698"
       y="101.78622"
       id="tspan3097"
       style="stroke-width:0.26458332"><tspan
         x="9.4531698"
         y="101.78622"
         id="tspan3095"
         style="stroke-width:0.26458332">holding your nose &amp; </tspan></tspan><tspan
       sodipodi:role="line"
       x="9.4531698"
       y="108.46828"
       id="tspan3101"
       style="stroke-width:0.26458332"><tspan
         x="9.4531698"
         y="108.46828"
         id="tspan3099"
         style="stroke-width:0.26458332">mouth</tspan></tspan></text>
</svg>
