<?xml version="1.0" encoding="UTF-8" standalone="no"?>
<svg
   xmlns:dc="http://purl.org/dc/elements/1.1/"
   xmlns:cc="http://creativecommons.org/ns#"
   xmlns:rdf="http://www.w3.org/1999/02/22-rdf-syntax-ns#"
   xmlns:svg="http://www.w3.org/2000/svg"
   xmlns="http://www.w3.org/2000/svg"
   width="300"
   height="420"
   viewBox="0 0 79.374998 111.125"
   version="1.1"
   id="svg885">
  <defs
     id="defs879" />
  <metadata
     id="metadata882">
    <rdf:RDF>
      <cc:Work
         rdf:about="">
        <dc:format>image/svg+xml</dc:format>
        <dc:type
           rdf:resource="http://purl.org/dc/dcmitype/StillImage" />
        <dc:title></dc:title>
      </cc:Work>
    </rdf:RDF>
  </metadata>
  <g
     style="opacity:0.99;fill:#c03320;fill-opacity:1"
     id="layer1"
     transform="translate(0,-185.87498)">
    <rect
       style="opacity:1;fill:#c03320;fill-opacity:1;fill-rule:nonzero;stroke:none;stroke-width:0.26598862;stroke-linecap:round;stroke-linejoin:round;stroke-miterlimit:4;stroke-dasharray:none;stroke-opacity:1;paint-order:normal"
       id="rect1430"
       width="79.368423"
       height="111.11626"
       x="0.0034530037"
       y="185.87776" />
    <flowRoot
       xml:space="preserve"
       id="flowRoot2560"
       style="fill:#c03320;fill-opacity:1;stroke:none;font-family:Arial;font-style:normal;font-weight:bold;font-size:20.20399984px;line-height:1.25;letter-spacing:0px;word-spacing:0px;-inkscape-font-specification:'Arial, Bold';font-stretch:normal;font-variant:normal;text-anchor:start;text-align:start;writing-mode:lr;font-variant-ligatures:normal;font-variant-caps:normal;font-variant-numeric:normal;font-feature-settings:normal"><flowRegion
         style="fill:#c03320;fill-opacity:1"
         id="flowRegion2562"><rect
           style="fill:#c03320;fill-opacity:1"
           id="rect2564"
           width="438.40622"
           height="422.24377"
           x="-159.6041"
           y="-33.558495" /></flowRegion><flowPara
         id="flowPara2566" /></flowRoot>  </g>
  <text
     id="text2322"
     y="8.8064241"
     x="2.7011271"
     style="font-style:normal;font-variant:normal;font-weight:bold;font-stretch:normal;font-size:6.3499999px;line-height:1.25;font-family:Arial;-inkscape-font-specification:'Arial, Bold';font-variant-ligatures:normal;font-variant-caps:normal;font-variant-numeric:normal;font-feature-settings:normal;text-align:start;letter-spacing:0px;word-spacing:0px;writing-mode:lr-tb;text-anchor:start;fill:#000000;fill-opacity:1;stroke:none;stroke-width:0.26458332"
     xml:space="preserve"><tspan
       style="stroke-width:0.26458332"
       id="tspan2320"
       y="8.8064241"
       x="2.7011271"><tspan
         style="stroke-width:0.26458332"
         id="tspan2318"
         y="8.8064241"
         x="2.7011271">3.</tspan></tspan></text>
  <g
     transform="matrix(0.29003305,0,0,0.29356103,53.468232,15.011292)"
     id="Filled_outline"
     data-name="Filled outline">
    <path
       style="fill:#2d75bb"
       d="m 22.999,29 h 26 v 32 h -26 z"
       id="path1172" />
    <path
       style="fill:#2d75bb"
       d="m 8.999,8 h 14 v 21 h -14 z"
       id="path1174" />
    <path
       style="fill:#1a5484"
       d="m 8.999,8 h 6 v 21 h -6 z"
       id="path1176" />
    <path
       style="fill:#f4f4e6"
       d="m 45.999,58 h -7 v -2 h 5 v -8 h 2 z"
       id="path1178" />
    <path
       style="fill:#ffd782"
       d="m 37.999,37 v -4 h -4 v 4 h -4 v 4 h 4 v 12 h 4 V 41 h 4 v -4 z"
       id="path1180" />
    <path
       style="fill:#f4f4e6"
       d="m 25.999,56 h 2 v 2 h -2 z"
       id="path1182" />
    <path
       style="fill:#1a5484"
       d="m 28.999,53 h 2 v 2 h -2 z"
       id="path1184" />
    <path
       style="fill:#cfdfe8"
       d="m 28.999,19 h 12 v 10 h -12 z"
       id="path1186" />
    <path
       style="fill:#5a6470"
       d="m 31.999,26 h 2 v 3 h -2 z"
       id="path1188" />
    <path
       style="fill:#5a6470"
       d="m 35.999,26 h 2 v 3 h -2 z"
       id="path1190" />
    <path
       style="fill:#5a6470"
       d="m 31.999,22 h 2 v 2 h -2 z"
       id="path1192" />
    <path
       style="fill:#5a6470"
       d="m 35.999,22 h 2 v 2 h -2 z"
       id="path1194" />
    <circle
       style="fill:#394d5c"
       cx="43.999001"
       cy="26"
       r="3"
       id="circle1196" />
    <path
       style="fill:#e1462b"
       d="m 40,13 c 0,3.314 -2.238,6 -5,6 -2.762,0 -6.705,-4.159 -5,-7 a 36.853,36.853 0 0 0 4,-9 c 0,0 6,6 6,10 z"
       id="path1198" />
    <path
       style="fill:#fff69a"
       d="m 38,16 a 3,3 0 1 1 -6,0 c 0,-2 3,-5 3,-5 0,0 3,3 3,5 z"
       id="path1200" />
    <g
       style="fill:#fcf05a"
       id="g1226">
      <path
         d="m 50.999,15 h 2 v 2 h -2 z"
         id="path1202" />
      <path
         d="m 50.999,19 h 2 v 2 h -2 z"
         id="path1204" />
      <path
         d="m 48.999,17 h 2 v 2 h -2 z"
         id="path1206" />
      <path
         d="m 52.999,17 h 2 v 2 h -2 z"
         id="path1208" />
      <path
         d="m 13.999,33 h 2 v 2 h -2 z"
         id="path1210" />
      <path
         d="m 13.999,37 h 2 v 2 h -2 z"
         id="path1212" />
      <path
         d="m 11.999,35 h 2 v 2 h -2 z"
         id="path1214" />
      <path
         d="m 15.999,35 h 2 v 2 h -2 z"
         id="path1216" />
      <path
         d="m 43.999,4 h 2 v 2 h -2 z"
         id="path1218" />
      <path
         d="m 43.999,8 h 2 v 2 h -2 z"
         id="path1220" />
      <path
         d="m 41.999,6 h 2 v 2 h -2 z"
         id="path1222" />
      <path
         d="m 45.999,6 h 2 v 2 h -2 z"
         id="path1224" />
    </g>
    <path
       d="M 49,28 H 47.444 A 3.959,3.959 0 0 0 48,26 4,4 0 0 0 44,22 3.959,3.959 0 0 0 42,22.556 V 19 A 1,1 0 0 0 41,18 H 39.191 A 7.588,7.588 0 0 0 41,13 C 41,8.71 35.352,2.937 34.707,2.293 a 0.991,0.991 0 0 0 -0.974,-0.257 1,1 0 0 0 -0.7,0.721 36.28,36.28 0 0 1 -3.887,8.728 4.518,4.518 0 0 0 0.207,4.684 A 8.077,8.077 0 0 0 30.8,18 H 29 a 1,1 0 0 0 -1,1 v 9 H 24 V 8 A 1,1 0 0 0 23,7 H 9 A 1,1 0 0 0 8,8 v 21 a 1,1 0 0 0 1,1 h 13 v 31 a 1,1 0 0 0 1,1 h 26 a 1,1 0 0 0 1,-1 V 29 a 1,1 0 0 0 -1,-1 z m -5,-4 a 2,2 0 1 1 -2,2 2,2 0 0 1 2,-2 z M 34.561,17.948 A 2,2 0 0 1 33,16 c 0,-0.873 1.018,-2.381 2,-3.525 0.982,1.144 2,2.652 2,3.525 A 2,2 0 0 1 35.457,17.942 3.154,3.154 0 0 1 35,18 2.213,2.213 0 0 1 34.561,17.948 Z m -3.7,-5.433 A 41.4,41.4 0 0 0 34.446,4.941 C 36.312,7.062 39,10.629 39,13 a 6.013,6.013 0 0 1 -0.254,1.7 14.3,14.3 0 0 0 -3.039,-4.405 1,1 0 0 0 -1.414,0 c -0.3,0.3 -2.67,2.728 -3.188,4.913 L 31.09,15.186 A 2.724,2.724 0 0 1 30.857,12.515 Z M 30,20 h 10 v 8 h -2 v -2 h -2 v 2 h -2 v -2 h -2 v 2 h -2 z m -8,8 H 16 V 9 h 6 z M 10,28 V 9 h 4 V 28 Z M 48,60 H 24 V 30 h 24 z"
       id="path1228" />
    <path
       d="m 44,56 h -5 v 2 h 7 V 48 h -2 z"
       id="path1230" />
    <path
       d="m 39,42 h 3 a 1,1 0 0 0 1,-1 v -4 a 1,1 0 0 0 -1,-1 h -3 v -3 a 1,1 0 0 0 -1,-1 h -4 a 1,1 0 0 0 -1,1 v 3 h -3 a 1,1 0 0 0 -1,1 v 4 a 1,1 0 0 0 1,1 h 3 v 11 a 1,1 0 0 0 1,1 h 4 a 1,1 0 0 0 1,-1 z m -1,-2 a 1,1 0 0 0 -1,1 V 52 H 35 V 41 a 1,1 0 0 0 -1,-1 h -3 v -2 h 3 a 1,1 0 0 0 1,-1 v -3 h 2 v 3 a 1,1 0 0 0 1,1 h 3 v 2 z"
       id="path1232" />
    <path
       d="m 26,56 h 2 v 2 h -2 z"
       id="path1234" />
    <path
       d="m 29,53 h 2 v 2 h -2 z"
       id="path1236" />
    <path
       d="m 32,22 h 2 v 2 h -2 z"
       id="path1238" />
    <path
       d="m 36,22 h 2 v 2 h -2 z"
       id="path1240" />
    <path
       d="m 51,15 h 2 v 2 h -2 z"
       id="path1242" />
    <path
       d="m 51,19 h 2 v 2 h -2 z"
       id="path1244" />
    <path
       d="m 49,17 h 2 v 2 h -2 z"
       id="path1246" />
    <path
       d="m 53,17 h 2 v 2 h -2 z"
       id="path1248" />
    <path
       d="m 14,33 h 2 v 2 h -2 z"
       id="path1250" />
    <path
       d="m 14,37 h 2 v 2 h -2 z"
       id="path1252" />
    <path
       d="m 12,35 h 2 v 2 h -2 z"
       id="path1254" />
    <path
       d="m 16,35 h 2 v 2 h -2 z"
       id="path1256" />
    <path
       d="m 44,4 h 2 v 2 h -2 z"
       id="path1258" />
    <path
       d="m 44,8 h 2 v 2 h -2 z"
       id="path1260" />
    <path
       d="m 42,6 h 2 v 2 h -2 z"
       id="path1262" />
    <path
       d="m 46,6 h 2 v 2 h -2 z"
       id="path1264" />
  </g>
  <g
     transform="matrix(0.03960436,0,0,0.04002772,30.503194,14.522032)"
     id="g1575">
    <path
       style="fill:#bbbbbf"
       d="M 327.58203,5 H 63.382812 c -3.800781,0 -6.800781,3 -6.800781,6.800781 V 189 c 1.402344,-0.80078 3,-1.39844 4.601563,-1.39844 H 329.78125 c 1.60156,0 3.20312,0.39844 4.60156,1.39844 V 11.800781 C 334.38281,8 331.38281,5 327.58203,5 Z m 0,0"
       id="path1453" />
    <path
       style="fill:#ea4647"
       d="m 104.38281,71.800781 c 0,14.800781 -7.800779,32.999999 -17.60156,32.999999 -9.796875,0 -17.597656,-18.199218 -17.597656,-32.999999 C 69.183594,57 76.984375,45 86.78125,45 c 9.800781,0 17.60156,12 17.60156,26.800781 z m 0,0"
       id="path1455" />
    <path
       style="fill:#f9d0b4"
       d="M 97.183594,187.60156 V 97.199219 c -3,4.601561 -6.601563,7.601561 -10.402344,7.601561 -3.796875,0 -7.597656,-3 -10.398438,-7.601561 v 90.402341 z m 0,0"
       id="path1457" />
    <path
       style="fill:#ea4647"
       d="m 143.58203,71.800781 c 0,14.800781 -7.80078,32.999999 -17.59766,32.999999 -9.80078,0 -17.60156,-18.199218 -17.60156,-32.999999 C 108.38281,57 116.18359,45 125.98437,45 c 9.79688,0 17.59766,12 17.59766,26.800781 z m 0,0"
       id="path1459" />
    <path
       style="fill:#f9d0b4"
       d="M 136.38281,187.60156 V 97.199219 c -3,4.601561 -6.60156,7.601561 -10.39844,7.601561 -3.80078,0 -7.60156,-3 -10.40234,-7.601561 v 90.402341 z m 0,0"
       id="path1461" />
    <path
       style="fill:#ea4647"
       d="m 182.78125,71.800781 c 0,14.800781 -7.79687,32.999999 -17.59766,32.999999 -9.80078,0 -17.60156,-18.199218 -17.60156,-32.999999 C 147.58203,57 155.38281,45 165.18359,45 c 9.80079,0 17.59766,12 17.59766,26.800781 z m 0,0"
       id="path1463" />
    <path
       style="fill:#f9d0b4"
       d="M 175.78125,187.60156 V 97.199219 c -3,4.601561 -6.59766,7.601561 -10.39844,7.601561 -3.80078,0 -7.60156,-3 -10.39843,-7.601561 v 90.402341 z m 0,0"
       id="path1465" />
    <path
       style="fill:#ea4647"
       d="M 262.18359,78.800781 C 258.78125,93.199219 246.78125,109 237.38281,106.80078 227.98438,104.60156 224.58203,85 227.98438,70.601562 c 3.39843,-14.402343 13.79687,-24.203124 23.39843,-21.800781 9.60157,2.398438 14.39844,15.597657 10.80078,30 z m 0,0"
       id="path1467" />
    <path
       style="fill:#f9d0b4"
       d="m 228.78125,187.60156 20.60156,-85.80078 c -3.80078,3.80078 -8.19922,5.80078 -12,4.80078 -3.80078,-1 -6.60156,-4.60156 -8.39843,-9.800779 l -21.80079,90.597659 h 21.59766 z m 0,0"
       id="path1469" />
    <path
       style="fill:#f9d0b4"
       d="m 385.78125,132 c -4,0 -7.59766,-3 -10.39844,-7.60156 v 195.80078 c 0,5.80078 4.60157,10.40234 10.39844,10.40234 5.80078,0 10.40234,-4.60156 10.40234,-10.40234 V 124.39844 C 393.38281,129 389.78125,132 385.78125,132 Z m 0,0"
       id="path1471" />
    <path
       style="fill:#ea4647"
       d="m 431.38281,93.601562 c 3.60157,14.199218 0.60157,33.999998 -8.80078,36.398438 -9.39844,2.39844 -21.59765,-13.39844 -25.19922,-27.60156 -3.60156,-14.199221 1,-27.796878 10.39844,-30.199221 9.40234,-2.398438 19.80078,7 23.60156,21.402343 z m 0,0"
       id="path1473" />
    <path
       style="fill:#f9d0b4"
       d="m 422.58203,130 c -3.80078,1 -8,-1 -12,-4.60156 L 459.18359,315 c 1.39844,5.60156 7.19922,9 12.59766,7.60156 5.60156,-1.40234 9,-7.20312 7.60156,-12.60156 L 430.78125,120 c -1.79687,5.19922 -4.39844,9 -8.19922,10 z m 0,0"
       id="path1475" />
    <path
       style="fill:#ea4647"
       d="m 397.18359,102.19922 c -2,-7.19922 -1.60156,-15.000001 1.19922,-21.800782 -3.19922,-5 -7.60156,-8.199219 -12.60156,-8.199219 -9.79687,0 -17.59766,12 -17.59766,26.800781 0,14.80078 7.80078,33 17.59766,33 6.80078,0 12.60156,-8.80078 15.60156,-19 -1.80078,-3.60156 -3.19922,-7 -4.19922,-10.80078 z m 0,0"
       id="path1477" />
    <path
       style="fill:#e9e9ea"
       d="M 327.58203,5 H 63.382812 c -3.800781,0 -6.800781,3 -6.800781,6.800781 V 28 H 334.38281 V 11.800781 C 334.38281,8 331.38281,5 327.58203,5 Z m 0,0"
       id="path1479" />
    <path
       style="fill:#6d6c6b"
       d="M 61.183594,187.60156 H 329.78125 c 5,0 9,4 9,9 V 498 c 0,5 -4,9 -9,9 H 61.183594 c -5,0 -9,-4 -9,-9 V 196.60156 c 0,-5 4,-9 9,-9 z m 0,0"
       id="path1481" />
    <path
       style="fill:#ffcd29"
       d="M 73.183594,208.60156 H 317.98438 V 486.19922 H 73.183594 Z m 0,0"
       id="path1483" />
    <path
       style="fill:#ffae2c"
       d="m 98.183594,208.60156 h -25 v 98.19922 L 273.58203,486.19922 h 44.19922 v -79 z m 0,0"
       id="path1485" />
    <path
       style="fill:#ea4647"
       d="m 395.58203,380 h -3.59765 v -3.60156 c 0,-2.79688 -2.20313,-5 -5,-5 -2.80079,0 -5,2.20312 -5,5 V 380 h -3.60157 c -2.80078,0 -5,2.19922 -5,5 0,2.80078 2.19922,5 5,5 h 3.60157 v 3.60156 c 0,2.79688 2.19921,5 5,5 2.79687,0 5,-2.20312 5,-5 V 390 h 3.59765 c 2.80078,0 5,-2.19922 5,-5 0,-2.80078 -2.19922,-5 -5,-5 z m 0,0"
       id="path1487" />
    <path
       style="fill:#ffcd29"
       d="m 415.78125,428.39844 c 0,-0.39844 -0.19922,-0.59766 -0.19922,-1 -0.19922,-0.19922 -0.19922,-0.59766 -0.39844,-0.79688 -0.19922,-0.20312 -0.40234,-0.60156 -0.60156,-0.80078 -2,-1.80078 -5.19922,-1.80078 -7,0.19922 -0.19922,0.19922 -0.39844,0.39844 -0.59765,0.80078 -0.40235,0.59766 -0.60157,1.19922 -0.80079,1.80078 -0.19921,0.59766 -0.19921,1.39844 0,2 0,0.39844 0.19922,0.59766 0.19922,1 0.19922,0.39844 0.19922,0.59766 0.39844,0.79688 0.20313,0.20312 0.40234,0.60156 0.60156,0.80078 2,2 5.19922,2 7,0 0.19922,-0.19922 0.39844,-0.39844 0.60157,-0.80078 0.19921,-0.19922 0.39843,-0.59766 0.39843,-0.79688 0.19922,-0.20312 0.19922,-0.60156 0.19922,-1 0.40235,-0.80078 0.40235,-1.40234 0.19922,-2.20312 z m 0,0"
       id="path1489" />
    <path
       style="fill:#6dcc6d"
       d="m 400.98438,31 c 0,-0.398438 -0.20313,-0.601562 -0.20313,-1 -0.19922,-0.199219 -0.19922,-0.601562 -0.39844,-0.800781 -0.19922,-0.199219 -0.39843,-0.597657 -0.60156,-0.800781 -2,-1.796876 -5,-1.796876 -7,0 -0.19922,0.203124 -0.39844,0.402343 -0.59766,0.800781 -0.40234,0.601562 -0.60156,1.199219 -0.80078,1.800781 -0.19922,0.601562 -0.19922,1.398438 0,2 0,0.398438 0.19922,0.601562 0.19922,1 0.19922,0.398438 0.19922,0.601562 0.40235,0.800781 0.19921,0.199219 0.39843,0.597657 0.59765,0.800781 2,2 5,2 7,0 0.19922,-0.203124 0.40235,-0.402343 0.60156,-0.800781 0.19922,-0.199219 0.39844,-0.601562 0.39844,-0.800781 0.19922,-0.199219 0.19922,-0.601562 0.19922,-1 0.20313,-0.601562 0.20313,-1.398438 0.20313,-2 z m 0,0"
       id="path1491" />
    <path
       style="fill:#55acd5"
       d="m 32.984375,163.19922 c -8,-1.59766 -14.203125,-7.80078 -15.800781,-15.80078 0,-0.19922 -0.199219,-0.39844 -0.402344,-0.19922 -0.199219,0 -0.199219,0.19922 -0.199219,0.19922 -1.597656,8 -7.800781,14.20312 -15.800781,15.80078 -0.199219,0 -0.398438,0.19922 -0.199219,0.40234 0,0.19922 0.199219,0.19922 0.199219,0.19922 8,1.59766 14.203125,7.80078 15.800781,15.80078 0,0.19922 0.199219,0.39844 0.402344,0.19922 0.199219,0 0.199219,-0.19922 0.199219,-0.19922 1.597656,-8 7.800781,-14.20312 15.800781,-15.80078 0.199219,0 0.398437,-0.19922 0.199219,-0.40234 0,-0.19922 0,-0.19922 -0.199219,-0.19922 z m 0,0"
       id="path1493" />
    <path
       d="M 329.78125,512 H 61.183594 c -7.800782,0 -14,-6.19922 -14,-14 V 196.60156 c 0,-7.80078 6.199218,-14 14,-14 H 329.78125 c 7.80078,0 14,6.19922 14,14 V 498 c 0,7.80078 -6.39844,14 -14,14 z M 61.183594,192.60156 c -2.199219,0 -4,1.79688 -4,4 V 498 c 0,2.19922 1.800781,4 4,4 H 329.78125 c 2.20313,0 4,-1.80078 4,-4 V 196.60156 c 0,-2.20312 -1.79687,-4 -4,-4 z m 0,0"
       id="path1495" />
    <path
       d="m 334.38281,194 c -1,0 -1.80078,-0.19922 -2.60156,-0.80078 -0.59766,-0.39844 -1.39844,-0.59766 -2,-0.59766 H 61.183594 c -0.800782,0 -1.402344,0.19922 -2,0.59766 -2.402344,1.40234 -5.402344,0.60156 -6.800782,-1.59766 C 51.984375,190.80078 51.582031,190 51.582031,189 V 11.800781 C 51.582031,5.199219 56.78125,0 63.382812,0 H 327.58203 c 6.60156,0 11.80078,5.199219 11.80078,11.800781 V 189 c 0,2.80078 -2.19922,5 -5,5 z M 61.582031,182.60156 H 329.38281 V 11.800781 c 0,-1 -0.80078,-1.800781 -1.80078,-1.800781 H 63.382812 c -1,0 -1.800781,0.800781 -1.800781,1.800781 z m 0,0"
       id="path1497" />
    <path
       d="M 334.38281,33 H 56.582031 c -2.800781,0 -5,-2.199219 -5,-5 V 11.800781 C 51.582031,5.199219 56.78125,0 63.382812,0 H 327.58203 c 6.60156,0 11.80078,5.199219 11.80078,11.800781 V 28 c 0,2.800781 -2.19922,5 -5,5 z M 61.582031,23 H 329.38281 V 11.800781 c 0,-1 -0.80078,-1.800781 -1.80078,-1.800781 H 63.382812 c -1,0 -1.800781,0.800781 -1.800781,1.800781 z m 0,0"
       id="path1499" />
    <path
       d="m 86.78125,109.80078 c -14,0 -22.597656,-22.199218 -22.597656,-37.999999 C 64.183594,54 74.183594,40 86.78125,40 c 12.601562,0 22.60156,14 22.60156,31.800781 0,15.800781 -8.60156,37.999999 -22.60156,37.999999 z m 0,-59.80078 c -6.597656,0 -12.597656,10.199219 -12.597656,21.800781 0,14 7.398437,28 12.597656,28 5.203125,0 12.601562,-14.199219 12.601562,-28 C 99.382812,60.199219 93.582031,50 86.78125,50 Z m 0,0"
       id="path1501" />
    <path
       d="M 97.183594,192.60156 H 76.382812 c -2.800781,0 -5,-2.20312 -5,-5 V 97.199219 c 0,-2.800781 2.199219,-5 5,-5 1.601563,0 3.199219,0.800781 4.199219,2.199219 2.199219,3.203124 4.402344,5.203124 6.199219,5.203124 1.800781,0 4.203125,-2 6.203125,-5.203124 1.398437,-2.398438 4.597656,-3 7,-1.398438 1.398435,1 2.199215,2.601562 2.199215,4.199219 v 90.402341 c 0,2.79688 -2.199215,5 -4.999996,5 z m -15.800782,-10 h 10.800782 v -74 c -3.402344,1.59766 -7.402344,1.59766 -10.800782,0 z m 0,0"
       id="path1503" />
    <path
       d="m 125.98437,109.80078 c -14,0 -22.60156,-22.199218 -22.60156,-37.999999 C 103.38281,54 113.38281,40 125.98437,40 c 12.59766,0 22.59766,14 22.59766,31.800781 0,15.800781 -8.59765,37.999999 -22.59766,37.999999 z m 0,-59.80078 c -6.60156,0 -12.60156,10.199219 -12.60156,21.800781 0,14 7.39844,28 12.60156,28 5.19922,0 12.59766,-14.199219 12.59766,-28 C 138.58203,60.199219 132.78125,50 125.98437,50 Z m 0,0"
       id="path1505" />
    <path
       d="m 136.38281,192.60156 h -20.80078 c -2.80078,0 -5,-2.20312 -5,-5 V 97.199219 c 0,-2.800781 2.19922,-5 5,-5 1.60156,0 3.19922,0.800781 4.19922,2.199219 2.20312,3.203124 4.40234,5.203124 6.20312,5.203124 1.79688,0 4.19922,-2 6.19922,-5.203124 1.39844,-2.398438 4.59766,-3 7,-1.398438 1.39844,1 2.19922,2.601562 2.19922,4.199219 v 90.402341 c 0,2.79688 -2.19922,5 -5,5 z m -15.80078,-10 h 10.80078 v -74 c -3.39844,1.59766 -7.39844,1.59766 -10.80078,0 z m 0,0"
       id="path1507" />
    <path
       d="m 165.18359,109.80078 c -14,0 -22.60156,-22.199218 -22.60156,-37.999999 C 142.78125,54 152.58203,40 165.18359,40 c 12.59766,0 22.59766,14 22.59766,31.800781 0,15.800781 -8.59766,37.999999 -22.59766,37.999999 z m 0,-59.80078 c -6.60156,0 -12.60156,10.199219 -12.60156,21.800781 0,14 7.40235,28 12.60156,28 5.19922,0 12.59766,-14.199219 12.59766,-28 C 177.78125,60.199219 171.98438,50 165.18359,50 Z m 0,0"
       id="path1509" />
    <path
       d="m 175.78125,192.60156 h -21 c -2.79687,0 -5,-2.20312 -5,-5 V 97.199219 c 0,-2.800781 2.20313,-5 5,-5 1.60156,0 3.20313,0.800781 4.20313,2.199219 2.19921,3.203124 4.39843,5.203124 6.19921,5.203124 1.80079,0 4.19922,-2 6.19922,-5.203124 1.39844,-2.398438 4.60157,-3 7,-1.398438 1.39844,1 2.19922,2.601562 2.19922,4.199219 v 90.402341 c 0.19922,2.79688 -2.19922,5 -4.80078,5 z m -16,-10 h 10.80078 v -74 c -3.39844,1.59766 -7.39844,1.59766 -10.80078,0 z m 0,0"
       id="path1511" />
    <path
       d="m 239.38281,112 c -1,0 -2,-0.19922 -3,-0.39844 -13.60156,-3.20312 -16.80078,-26.800779 -13,-42.203122 1.60157,-7.398438 5.39844,-14.199219 10.80078,-19.597657 5.59766,-5.402343 12.19922,-7.402343 18.59766,-6 12.40234,3 18.60156,18.800781 14.60156,36.199219 -2,8.199219 -5.80078,15.800781 -11.19922,22.19922 C 250.58203,108.60156 244.78125,112 239.38281,112 Z m 9.19922,-58.800781 c -3,0.199219 -5.59765,1.601562 -7.80078,3.601562 -4,4 -6.79687,9.199219 -8,14.597657 -3.19922,13.601562 0.60156,29.000002 5.60156,30.203122 2.19922,0.59766 6,-1.800779 9.60157,-6.203122 4.39843,-5.398438 7.39843,-11.597657 9.19921,-18.199219 2.80078,-11.199219 -0.60156,-22.398438 -7.19922,-24 -0.20312,0.199219 -0.80078,0 -1.40234,0 z m 13.60156,25.601562"
       id="path1513" />
    <path
       d="m 228.78125,192.60156 h -21.39844 c -2.80078,0 -5,-2.20312 -5,-5 0,-0.40234 0,-0.80078 0.19922,-1.20312 l 21.80078,-90.597659 c 0.60157,-2.601562 3.39844,-4.402343 6,-3.601562 1.60157,0.402343 3,1.601562 3.60157,3.199219 1.19921,3.601562 3.19921,6.203122 4.79687,6.601562 1.60156,0.39844 4.40234,-1 7.20313,-3.601562 2,-2 5.19921,-1.796876 7,0.203124 1.19921,1.199219 1.59765,2.999998 1.19921,4.597658 L 233.58203,189 c -0.59765,2 -2.59765,3.60156 -4.80078,3.60156 z m -15.19922,-10 h 11.19922 l 17,-71 c -3.79687,0.79688 -7.59766,-0.20312 -10.59766,-2.60156 z m 0,0"
       id="path1515" />
    <path
       d="m 385.78125,335.60156 c -8.59766,0 -15.39844,-7 -15.39844,-15.40234 V 124.39844 c 0,-2.79688 2.19922,-5 5,-5 1.60157,0 3.19922,0.80078 4.19922,2.20312 2.19922,3.19922 4.40235,5.19922 6.19922,5.19922 1.80078,0 4.20313,-2 6.20313,-5.19922 1.39843,-2.40234 4.59765,-3 7,-1.40234 1.39843,1 2.19921,2.60156 2.19921,4.19922 v 195.80078 c 0.19922,8.60156 -6.80078,15.40234 -15.40234,15.40234 z m -5.39844,-199.80078 v 184.39844 c 0,3 2.39844,5.40234 5.39844,5.40234 3,0 5.40234,-2.40234 5.40234,-5.40234 V 135.80078 c -3.40234,1.59766 -7.40234,1.59766 -10.80078,0 z m 0,0"
       id="path1517" />
    <path
       d="m 420.58203,135.19922 c -5.39844,0 -11.19922,-3.19922 -16.59765,-9.59766 -5.40235,-6.40234 -9.40235,-14 -11.60157,-22.20312 -4.39843,-17.199221 1.80078,-33.199221 14,-36.39844 12.19922,-3.199219 25.39844,8 29.80078,25.199219 2,8.199221 2.19922,16.601561 0.59766,25.000001 -2,9.60156 -6.59766,16 -13,17.60156 -1.19922,0.19922 -2.19922,0.39844 -3.19922,0.39844 z m -10,-58.597658 c -0.59765,0 -1.19922,0 -1.59765,0.199219 -6.40235,1.597657 -9.60157,13 -6.80079,24.199219 1.80079,6.60156 5,12.80078 9.39844,18 3.60156,4.19922 7.40235,6.60156 9.80078,6 2.39844,-0.60156 4.60157,-4.39844 5.60157,-10 1.39843,-6.80078 1.19921,-13.60156 -0.40235,-20.398438 -2.80078,-10 -9.80078,-18 -16,-18 z m 0,0"
       id="path1519" />
    <path
       d="m 469.18359,327.80078 c -7,0 -13.19921,-4.80078 -15,-11.60156 L 405.58203,126.60156 c -0.59765,-2.60156 1,-5.40234 3.60156,-6 1.59766,-0.40234 3.39844,0 4.59766,1.19922 2.80078,2.59766 5.60156,4 7.40234,3.59766 1.80079,-0.39844 3.59766,-3 4.80079,-6.59766 0.79687,-2 2.79687,-3.40234 5,-3.40234 2.19921,0 4.19921,1.60156 4.59765,3.80078 l 48.60156,189.60156 c 2.19922,8.19922 -2.80078,16.59766 -11.19921,18.80078 -1.20313,0 -2.60157,0.19922 -3.80079,0.19922 z m -51,-192.80078 45.80079,178.60156 c 0.79687,3 3.79687,4.59766 6.59765,4 3,-0.80078 4.60156,-3.80078 4,-6.60156 L 428.78125,132.39844 c -1.39844,1.20312 -3.19922,2 -5,2.40234 -1.79687,0.39844 -3.79687,0.59766 -5.59766,0.19922 z m 4.39844,-5"
       id="path1521" />
    <path
       d="m 385.78125,137 c -14,0 -22.59766,-22.19922 -22.59766,-38 0,-17.800781 10,-31.800781 22.59766,-31.800781 6.40234,0 12.60156,3.800781 16.80078,10.601562 1,1.398438 1,3.199219 0.19922,4.800781 -2.39844,5.796876 -2.59766,12.398438 -1,18.597658 0.80078,3.19922 2.20313,6.40234 3.60156,9.60156 0.60157,1.19922 0.80078,2.39844 0.39844,3.59766 -2.79687,10.80078 -9.79687,22.60156 -20,22.60156 z m 0,-59.800781 c -6.79687,0 -12.59766,10.199219 -12.59766,21.800781 0,14 7.39844,28 12.59766,28 2.80078,0 7.40234,-5 10.20313,-13.60156 -1.60157,-3.19922 -2.80079,-6.39844 -3.60157,-9.79688 -2,-7.402341 -1.80078,-15.203122 0.39844,-22.402341 -1.59766,-2.398438 -4.19922,-3.800781 -7,-4 z m 0,0"
       id="path1523" />
    <path
       d="M 317.78125,491.19922 H 73.183594 c -2.800782,0 -5,-2.19922 -5,-5 V 208.60156 c 0,-2.80078 2.199218,-5 5,-5 H 317.98438 c 2.79687,0 5,2.19922 5,5 v 277.59766 c -0.20313,2.60156 -2.40235,5 -5.20313,5 z m -239.597656,-10 H 312.98438 V 213.60156 H 78.183594 Z m 0,0"
       id="path1525" />
    <path
       d="m 317.78125,491.19922 h -44.19922 c -1.19922,0 -2.39844,-0.39844 -3.39844,-1.19922 L 69.78125,310.39844 c -1,-1 -1.597656,-2.39844 -1.597656,-3.79688 v -98.20312 c 0,-2.79688 2.199218,-5 5,-5 h 25 c 1.199218,0 2.398436,0.40234 3.398436,1.20312 l 219.60156,198.59766 c 1,1 1.59766,2.19922 1.59766,3.80078 v 79 c 0,2.80078 -2.19922,5.19922 -5,5.19922 z m -42.39844,-10 h 37.39844 V 409.39844 L 96.183594,213.60156 h -18 v 91 z m 0,0"
       id="path1527" />
  </g>
  <g
     transform="matrix(0.03811695,0,0,0.03835367,8.407398,14.879581)"
     id="g1688">
    <path
       style="fill:#916643"
       d="M 298.35547,0.246094 H 37.480469 C 16.8125,0.246094 0,17.0625 0,37.730469 V 174.66406 c 0,4.14063 3.355469,7.4961 7.496094,7.4961 H 328.33984 c 4.14063,0 7.4961,-3.35547 7.4961,-7.4961 V 37.730469 C 335.83984,17.0625 319.02344,0.246094 298.35547,0.246094 Z m 0,0"
       id="path1623" />
    <path
       style="fill:#ffcc7b"
       d="m 262.375,182.16016 c -4.14062,0 -7.49609,-3.35547 -7.49609,-7.4961 v -46.48047 c 0,-4.13672 3.35547,-7.49609 7.49609,-7.49609 4.14063,0 7.49609,3.35937 7.49609,7.49609 v 46.48047 c 0,4.14063 -3.35546,7.4961 -7.49609,7.4961 z m 0,0"
       id="path1625" />
    <path
       style="fill:#ffcc7b"
       d="m 167.41797,182.16016 c -4.14063,0 -7.49609,-3.35547 -7.49609,-7.4961 v -46.48047 c 0,-4.13672 3.35546,-7.49609 7.49609,-7.49609 4.14062,0 7.49609,3.35937 7.49609,7.49609 v 46.48047 c 0,4.14063 -3.35547,7.4961 -7.49609,7.4961 z m 0,0"
       id="path1627" />
    <path
       style="fill:#ffcc7b"
       d="m 78.460938,182.16016 c -4.140626,0 -7.496094,-3.35547 -7.496094,-7.4961 v -46.48047 c 0,-4.13672 3.355468,-7.49609 7.496094,-7.49609 4.140624,0 7.496093,3.35937 7.496093,7.49609 v 46.48047 c 0.0039,4.14063 -3.355469,7.4961 -7.496093,7.4961 z m 0,0"
       id="path1629" />
    <path
       style="fill:#dd9300"
       d="M 328.34375,167.16797 H 7.496094 C 3.355469,167.16797 0,170.52344 0,174.66406 V 474.51953 C 0,495.1875 16.816406,512 37.484375,512 H 298.35547 c 20.66797,0 37.48437,-16.8125 37.48437,-37.48047 V 174.66406 c 0,-4.14062 -3.35937,-7.49609 -7.49609,-7.49609 z m 0,0"
       id="path1631" />
    <path
       style="fill:#ffcc7b"
       d="m 441.78516,496.50781 c 0,8.55469 -6.6836,15.49219 -15.24219,15.49219 h -0.125 c -8.55469,0 -15.61719,-6.9375 -15.61719,-15.49219 V 165.16797 h 30.98438 z m 0,0"
       id="path1633" />
    <g
       style="fill:#f75631"
       id="g1643">
      <path
         d="m 466.77344,134.68359 c 0,22.35547 -18.1211,40.47657 -40.47656,40.47657 -22.35938,0 -40.48047,-18.1211 -40.48047,-40.47657 V 40.726562 c 0,-22.355468 18.12109,-40.480468 40.48047,-40.480468 22.35546,0 40.47656,18.125 40.47656,40.480468 z m 0,0"
         id="path1635" />
      <path
         d="m 287.85938,103.19531 c 0,13.80078 -11.1836,24.98828 -24.98829,24.98828 -13.79687,0 -24.98437,-11.1875 -24.98437,-24.98828 V 87.203125 c 0,-13.796875 11.18359,-24.984375 24.98437,-24.984375 13.80079,0 24.98829,11.183594 24.98829,24.984375 z m 0,0"
         id="path1637" />
      <path
         d="m 192.90625,103.19531 c 0,13.80078 -11.1875,24.98828 -24.98828,24.98828 -13.80078,0 -24.98828,-11.1875 -24.98828,-24.98828 V 87.203125 c 0,-13.796875 11.1875,-24.984375 24.98828,-24.984375 13.80078,0 24.98828,11.183594 24.98828,24.984375 z m 0,0"
         id="path1639" />
      <path
         d="m 78.960938,128.18359 c -13.800782,0 -24.988282,-11.1875 -24.988282,-24.98828 V 87.203125 c 0,-13.796875 11.1875,-24.984375 24.988282,-24.984375 13.800781,0 24.988282,11.183594 24.988282,24.984375 v 15.992185 c 0,13.80078 -11.187501,24.98828 -24.988282,24.98828 z m 0,0"
         id="path1641" />
    </g>
    <path
       style="fill:#ffb93e"
       d="M 288.35938,202.14844 H 47.476562 c -6.886718,0 -12.492187,5.60547 -12.492187,12.49609 v 249.87891 c 0,6.88672 5.605469,12.49219 12.492187,12.49219 H 288.35938 c 6.89062,0 12.49609,-5.60547 12.49609,-12.49219 V 214.64453 c 0,-6.89062 -5.60547,-12.49609 -12.49609,-12.49609 z m 0,0"
       id="path1645" />
    <path
       style="fill:#f75631"
       d="m 209.88672,316.57422 c 2.90234,-3.26172 7.60156,-4.28516 11.57422,-2.47656 11.55469,5.25 15.41406,20.48047 15.41406,34.54687 -1.28516,37.89063 -30.60547,68.67969 -68.4375,68.96485 -39.56641,0.29687 -70.761719,-33.26954 -69.433594,-72.8125 1.417964,-42.19141 26.050784,-75.7461 57.984374,-82.04688 5.79297,-1.14062 11.3125,2.96484 11.88672,8.84375 l 5.80469,59.30859 c 0.84765,8.67188 11.61719,12.1836 17.41406,5.66797 z m 0,0"
       id="path1647" />
    <path
       style="fill:#d13020"
       d="m 287.85938,87.203125 v 15.992185 c 0,13.80469 -11.1836,24.98828 -24.98829,24.98828 -2.60547,0 -5.125,-0.39843 -7.49218,-1.13672 10.14453,-3.1875 17.48828,-12.66406 17.48828,-23.84765 V 87.203125 c 0,-6.894531 -2.79688,-13.152344 -7.31641,-17.667969 -2.80859,-2.808594 -6.28515,-4.949218 -10.17187,-6.179687 2.36718,-0.738281 4.88672,-1.136719 7.49218,-1.136719 6.89844,0 13.15625,2.796875 17.67188,7.316406 4.51953,4.515625 7.3164,10.773438 7.31641,17.667969 z m 0,0"
       id="path1649" />
    <path
       style="fill:#d13020"
       d="m 192.90625,87.203125 v 15.992185 c 0,13.80469 -11.18359,24.98828 -24.98828,24.98828 -2.60938,0 -5.12891,-0.39843 -7.49609,-1.13672 10.14453,-3.1875 17.49218,-12.66406 17.49218,-23.84765 V 87.203125 c 0,-6.894531 -2.79687,-13.152344 -7.3164,-17.667969 -2.8086,-2.808594 -6.28516,-4.949218 -10.17578,-6.179687 2.37109,-0.738281 4.89062,-1.136719 7.49609,-1.136719 6.89844,0 13.15625,2.796875 17.67187,7.316406 4.51954,4.515625 7.31641,10.773438 7.31641,17.667969 z m 0,0"
       id="path1651" />
    <path
       style="fill:#d13020"
       d="m 103.94922,87.203125 v 15.992185 c 0,13.80469 -11.183595,24.98828 -24.988282,24.98828 -2.609376,0 -5.125,-0.39843 -7.496094,-1.13672 10.144531,-3.1875 17.492187,-12.66406 17.492187,-23.84765 V 87.203125 c 0,-6.894531 -2.796875,-13.152344 -7.316406,-17.667969 -2.808594,-2.808594 -6.285156,-4.949218 -10.175781,-6.179687 2.371094,-0.738281 4.890625,-1.136719 7.496094,-1.136719 6.898437,0 13.15625,2.796875 17.671874,7.316406 4.519528,4.515625 7.316408,10.773438 7.316408,17.667969 z m 0,0"
       id="path1653" />
    <path
       style="fill:#845939"
       d="M 335.83984,37.726562 V 174.66406 c 0,-4.13672 -3.35937,-7.49218 -7.50781,-7.49218 H 315.24609 V 37.726562 c 0,-20.664062 -16.8164,-37.480468 -37.49218,-37.480468 h 20.59375 c 20.67578,0 37.49218,16.816406 37.49218,37.480468 z m 0,0"
       id="path1655" />
    <path
       style="fill:#ce7409"
       d="m 335.83984,174.66406 v 299.85547 c 0,20.66406 -16.8164,37.48047 -37.49218,37.48047 h -20.59375 c 20.67578,0 37.48828,-16.81641 37.48828,-37.48047 V 167.16797 h 13.08984 c 4.14844,0 7.50781,3.35937 7.50781,7.49609 z m 0,0"
       id="path1657" />
    <path
       style="fill:#d13020"
       d="M 467.41406,40.476562 V 134.4375 c 0,22.35156 -18.12109,40.47656 -40.48437,40.47656 -3.72656,0 -7.34375,-0.50781 -10.76953,-1.45312 17.61718,-4.38672 30.66406,-20.30469 30.66406,-39.27344 V 40.230469 c 0,-11.171875 -4.53125,-21.292969 -11.86328,-28.625 C 430.07812,6.722656 423.95312,3.089844 417.10547,1.203125 420.25781,0.410156 423.53906,0 426.92969,0 c 11.17968,0 21.30468,4.53125 28.625,11.851562 7.33203,7.332032 11.85937,17.453126 11.85937,28.625 z m 0,0"
       id="path1659" />
  </g>
  <g
     transform="matrix(-0.37673491,0.17661766,0.19949808,0.35911632,58.48407,64.276931)"
     id="g1975">
    <g
       id="g1917">
	<path
   style="fill:#e12602;fill-opacity:1"
   d="M 6.953,0.445 C 5.178,1.437 0,6.42 0,15.02 0,17.981 1.391,22.82 4.984,25.507 4.591,25.036 0.915,17.25 4.398,11.375 c 1.518,6.439 4.261,2.668 2.437,-3.181 2.243,1.906 3.825,6.479 0.827,10.199 1.938,-0.73 4.291,-1.858 4.291,-5.501 0,-3.643 -4.535,-9.799 -5,-12.447 z"
   id="path1911" />

	
		<line
   style="fill:none;stroke:#c0b398;stroke-width:2;stroke-linecap:round;stroke-linejoin:round;stroke-miterlimit:10;stroke-opacity:1"
   x1="7.9530001"
   y1="22.686001"
   x2="24.952999"
   y2="13.445"
   id="line1913" />

	<ellipse
   style="fill:#dc3210;fill-opacity:1"
   cx="8.3129997"
   cy="22.447001"
   rx="2.448"
   ry="1.808"
   id="ellipse1915" />

</g>
    <g
       id="g1919">
</g>
    <g
       id="g1921">
</g>
    <g
       id="g1923">
</g>
    <g
       id="g1925">
</g>
    <g
       id="g1927">
</g>
    <g
       id="g1929">
</g>
    <g
       id="g1931">
</g>
    <g
       id="g1933">
</g>
    <g
       id="g1935">
</g>
    <g
       id="g1937">
</g>
    <g
       id="g1939">
</g>
    <g
       id="g1941">
</g>
    <g
       id="g1943">
</g>
    <g
       id="g1945">
</g>
    <g
       id="g1947">
</g>
  </g>
  <g
     transform="matrix(0.36507852,0,0,0.39270885,-9.7601849,27.756697)"
     id="g2048">
    <g
       id="layer6">
      <path
         style="fill:none;stroke:#000000;stroke-width:3.00399995;stroke-linecap:round;stroke-linejoin:round;stroke-miterlimit:4;stroke-dasharray:none;stroke-opacity:1"
         d="m 41.530374,89.222178 c 0,0 -3.182588,11.240532 -4.15774,27.355442"
         id="path862" />
      <path
         style="fill:none;stroke:#000000;stroke-width:3.06500006;stroke-linecap:round;stroke-linejoin:round;stroke-miterlimit:4;stroke-dasharray:none;stroke-opacity:1"
         d="m 146.19861,89.285579 c 0,0 20.846,36.093271 24.17865,27.841521"
         id="path882" />
      <path
         style="fill:none;stroke:#000000;stroke-width:3.06500006;stroke-linecap:round;stroke-linejoin:round;stroke-miterlimit:4;stroke-dasharray:none;stroke-opacity:1"
         d="m 80.251755,129.72281 c 4.288849,10.15159 5.336811,21.02828 3.245881,34.93268"
         id="path884" />
      <path
         style="fill:none;stroke:#000000;stroke-width:3.06500006;stroke-linecap:round;stroke-linejoin:round;stroke-miterlimit:4;stroke-dasharray:none;stroke-opacity:1"
         d="m 110.3278,130.33954 c 8.00698,7.04502 6.3373,35.28411 6.33722,35.2856"
         id="path886" />
    </g>
    <g
       id="layer1-7"
       transform="translate(0,-106.49998)">
      <path
         style="fill:#fb7c85;fill-opacity:1;stroke:none;stroke-width:0.26458332px;stroke-linecap:butt;stroke-linejoin:miter;stroke-opacity:1"
         d="m 40.445546,195.70238 c 0,-10.20535 9.761556,-43.94905 44.979165,-42.71131 18.805869,0.66094 58.796349,3.57348 61.889939,42.71131 1.8154,22.96707 -25.3563,44.65874 -49.605716,43.84524 -8.57106,-0.28754 -60.665175,-1.13393 -57.263388,-43.84524 z"
         id="path3724" />
      <path
         style="fill:#fb7c85;fill-opacity:1;stroke:none;stroke-width:0.26458332px;stroke-linecap:butt;stroke-linejoin:miter;stroke-opacity:1"
         d="m 59.156936,163.19591 c -1.228422,-2.17336 -3.827274,-6.46471 -2.645832,-9.44941 1.795386,-4.53571 14.35465,-1.63738 15.686013,-4.44122 1.373734,-2.89306 2.624413,-15.60611 10.583333,-15.7805 8.392204,-0.18389 3.114245,14.90453 4.819198,13.60714 3.370416,-1.71488 9.271556,-4.48292 14.079602,-4.91369 3.59076,0.47247 5.82127,0.5898 6.70907,4.34673 0.96066,4.06528 -4.44175,8.50708 -4.44175,8.50708 -16.438202,-1.92965 -31.614828,-1.74498 -44.789634,8.12387 z"
         id="path3726" />
      <g
         style="display:inline"
         id="layer2"
         transform="translate(-16.105329,76.906318)" />
    </g>
    <g
       id="layer3">
      <path
         style="fill:#ffffff;fill-opacity:1;fill-rule:evenodd;stroke-width:0.53492969"
         id="path1026"
         d="M 97.114059,75.462433 A 10.205261,9.0032873 0 0 1 86.909481,84.46572 10.205261,9.0032873 0 0 1 76.703537,75.463638 10.205261,9.0032873 0 0 1 86.90675,66.459146 10.205261,9.0032873 0 0 1 97.114059,75.460024 l -10.205261,0.0024 z" />
      <path
         d="m 115.07457,75.836609 a 10.205261,9.0032873 0 0 1 -10.20458,9.003287 10.205261,9.0032873 0 0 1 -10.205943,-9.002082 10.205261,9.0032873 0 0 1 10.203213,-9.004492 10.205261,9.0032873 0 0 1 10.20731,9.000878 l -10.20526,0.0024 z"
         id="path1028"
         style="fill:#ffffff;fill-opacity:1;fill-rule:evenodd;stroke-width:0.53492969" />
      <path
         style="fill:#000000;fill-opacity:0.96984923;fill-rule:evenodd;stroke-width:0.26458332"
         id="path1030"
         d="m 95.566434,69.347664 a 3.6482289,3.7417734 0 0 1 -3.64799,3.741773 3.6482289,3.7417734 0 0 1 -3.648468,-3.741283 3.6482289,3.7417734 0 0 1 3.647513,-3.742263 3.6482289,3.7417734 0 0 1 3.648945,3.740793 l -3.648229,9.8e-4 z" />
      <path
         d="m 114.44382,70.163628 a 3.6482289,3.7417734 0 0 1 -3.64799,3.741773 3.6482289,3.7417734 0 0 1 -3.64847,-3.741284 3.6482289,3.7417734 0 0 1 3.64752,-3.742263 3.6482289,3.7417734 0 0 1 3.64894,3.740794 l -3.64823,9.8e-4 z"
         id="path1034"
         style="fill:#000000;fill-opacity:0.96984923;fill-rule:evenodd;stroke-width:0.26458332" />
      <path
         style="fill:none;stroke:none;stroke-width:0.1;stroke-linecap:butt;stroke-linejoin:miter;stroke-miterlimit:4;stroke-dasharray:none;stroke-opacity:1"
         d="m 76.66302,75.703905 c 0.214979,-3.187878 1.323704,-5.628946 3.978782,-7.352453 1.381309,-0.896657 3.113421,-1.794553 5.645436,-1.907963 3.094196,0.05116 6.361592,0.229091 9.723438,4.861718 v 0"
         id="path1036" />
      <path
         style="fill:none;stroke:none;stroke-width:0.1;stroke-linecap:butt;stroke-linejoin:miter;stroke-miterlimit:4;stroke-dasharray:none;stroke-opacity:1"
         d="m 96.010676,71.305205 c 2.286883,-2.991864 5.256074,-4.456663 8.852524,-4.517589 7.06639,0.565632 9.90392,4.601347 10.21137,9.046583 v 0"
         id="path1038" />
    </g>
    <g
       id="layer4">
      <path
         style="fill:#fb7c85;fill-opacity:0.98994978;stroke:none;stroke-width:0.065;stroke-linecap:butt;stroke-linejoin:miter;stroke-miterlimit:4;stroke-dasharray:none;stroke-opacity:1"
         d="m 76.72974,74.925975 c 0.810933,-5.3617 4.359082,-8.042189 10.196332,-8.465762 v 0 c 3.889787,0.02787 6.870231,1.730837 9.084604,4.844992 2.402437,-3.250785 5.632514,-4.391319 8.852524,-4.517589 5.87073,0.313218 9.81617,3.658861 10.21137,9.046583 l 7.42173,0.214308 -0.10523,-4.513514 -0.81503,-7.902702 -50.932291,-1.190625 1.190625,12.038541 z"
         id="path1082" />
      <path
         style="fill:#fb7c85;fill-opacity:1;stroke:none;stroke-width:0.065;stroke-linecap:butt;stroke-linejoin:miter;stroke-miterlimit:4;stroke-dasharray:none;stroke-opacity:1"
         d="m 76.72974,74.925975 c 0.0771,5.491221 3.696492,9.138065 10.360035,9.564907 4.076198,-0.246378 6.736854,-1.996769 8.676235,-4.513514 2.392054,3.308168 5.53782,5.186877 9.86893,4.817533 5.29249,-0.667928 9.27746,-3.743419 9.43963,-8.960702 l 7.42173,0.214308 0.10569,12.835426 -49.000631,1.556372 -1.766985,-15.9601 z"
         id="path1084" />
    </g>
    <g
       id="layer5">
      <path
         style="fill:none;stroke:#000000;stroke-width:1.06500006;stroke-linecap:round;stroke-linejoin:miter;stroke-miterlimit:4;stroke-dasharray:none;stroke-opacity:1"
         d="m 81.083589,98.908205 c 15.82572,11.858045 29.369381,-0.12023 29.394571,-0.14201"
         id="path1087" />
    </g>
  </g>
  <text
     id="text2074"
     y="82.319565"
     x="33.955032"
     style="font-style:normal;font-variant:normal;font-weight:bold;font-stretch:normal;font-size:4.93888903px;line-height:1.25;font-family:Tahoma;-inkscape-font-specification:'Tahoma, Bold';font-variant-ligatures:normal;font-variant-caps:normal;font-variant-numeric:normal;font-feature-settings:normal;text-align:start;letter-spacing:0px;word-spacing:0px;writing-mode:lr-tb;text-anchor:start;fill:#ff5f4d;fill-opacity:1;stroke:none;stroke-width:0.26458332"
     xml:space="preserve"><tspan
       style="font-size:4.93888903px;fill:#ff5f4d;fill-opacity:1;stroke-width:0.26458332"
       id="tspan2060"
       y="82.319565"
       x="33.955032"><tspan
         style="font-size:4.93888903px;fill:#ff5f4d;fill-opacity:1;stroke-width:0.26458332"
         id="tspan2058"
         y="82.319565"
         x="33.955032">The Cigarette </tspan></tspan><tspan
       style="font-size:4.93888903px;fill:#ff5f4d;fill-opacity:1;stroke-width:0.26458332"
       id="tspan2064"
       y="89.375114"
       x="33.955032"><tspan
         style="font-size:4.93888903px;fill:#ff5f4d;fill-opacity:1;stroke-width:0.26458332"
         id="tspan2062"
         y="89.375114"
         x="33.955032">lighter was </tspan></tspan><tspan
       style="font-size:4.93888903px;fill:#ff5f4d;fill-opacity:1;stroke-width:0.26458332"
       id="tspan2068"
       y="96.430672"
       x="33.955032"><tspan
         style="font-size:4.93888903px;fill:#ff5f4d;fill-opacity:1;stroke-width:0.26458332"
         id="tspan2066"
         y="96.430672"
         x="33.955032">invented before </tspan></tspan><tspan
       style="font-size:4.93888903px;fill:#ff5f4d;fill-opacity:1;stroke-width:0.26458332"
       id="tspan2072"
       y="103.48622"
       x="33.955032"><tspan
         style="font-size:4.93888903px;fill:#ff5f4d;fill-opacity:1;stroke-width:0.26458332"
         id="tspan2070"
         y="103.48622"
         x="33.955032">the match stick </tspan></tspan></text>
</svg>
