<?xml version="1.0" encoding="UTF-8" standalone="no"?>
<svg
   xmlns:dc="http://purl.org/dc/elements/1.1/"
   xmlns:cc="http://creativecommons.org/ns#"
   xmlns:rdf="http://www.w3.org/1999/02/22-rdf-syntax-ns#"
   xmlns:svg="http://www.w3.org/2000/svg"
   xmlns="http://www.w3.org/2000/svg"
   xmlns:sodipodi="http://sodipodi.sourceforge.net/DTD/sodipodi-0.dtd"
   xmlns:inkscape="http://www.inkscape.org/namespaces/inkscape"
   id="svg885"
   version="1.1"
   viewBox="0 0 79.374998 111.125"
   height="420"
   width="300"
   sodipodi:docname="011.svg"
   inkscape:version="0.92.4 (5da689c313, 2019-01-14)">
  <sodipodi:namedview
     pagecolor="#ffffff"
     bordercolor="#666666"
     borderopacity="1"
     objecttolerance="10"
     gridtolerance="10"
     guidetolerance="10"
     inkscape:pageopacity="0"
     inkscape:pageshadow="2"
     inkscape:window-width="1366"
     inkscape:window-height="745"
     id="namedview1053"
     showgrid="false"
     inkscape:zoom="1.3714286"
     inkscape:cx="11.774719"
     inkscape:cy="201.12004"
     inkscape:window-x="-8"
     inkscape:window-y="-8"
     inkscape:window-maximized="1"
     inkscape:current-layer="svg885" />
  <defs
     id="defs879" />
  <metadata
     id="metadata882">
    <rdf:RDF>
      <cc:Work
         rdf:about="">
        <dc:format>image/svg+xml</dc:format>
        <dc:type
           rdf:resource="http://purl.org/dc/dcmitype/StillImage" />
        <dc:title />
      </cc:Work>
    </rdf:RDF>
  </metadata>
  <g
     transform="translate(0,-185.87498)"
     id="layer1"
     style="opacity:0.99;fill:#000017;fill-opacity:1">
    <rect
       y="185.87776"
       x="0.0034530037"
       height="111.11626"
       width="79.368423"
       id="rect1430"
       style="opacity:1;fill:#000017;fill-opacity:1;fill-rule:nonzero;stroke:none;stroke-width:0.26598862;stroke-linecap:round;stroke-linejoin:round;stroke-miterlimit:4;stroke-dasharray:none;stroke-opacity:1;paint-order:normal" />
    <flowRoot
       style="fill:#000017;fill-opacity:1;stroke:none;font-family:Arial;font-style:normal;font-weight:bold;font-size:20.20399984px;line-height:1.25;letter-spacing:0px;word-spacing:0px;-inkscape-font-specification:'Arial, Bold';font-stretch:normal;font-variant:normal;text-anchor:start;text-align:start;writing-mode:lr;font-variant-ligatures:normal;font-variant-caps:normal;font-variant-numeric:normal;font-feature-settings:normal"
       id="flowRoot2560"
       xml:space="preserve"><flowRegion
         id="flowRegion2562"
         style="fill:#000017;fill-opacity:1"><rect
           y="-33.558495"
           x="-159.6041"
           height="422.24377"
           width="438.40622"
           id="rect2564"
           style="fill:#000017;fill-opacity:1" /></flowRegion><flowPara
         id="flowPara2566" /></flowRoot>  </g>
  <text
     xml:space="preserve"
     style="font-style:normal;font-variant:normal;font-weight:bold;font-stretch:normal;font-size:6.3499999px;line-height:1.25;font-family:Arial;-inkscape-font-specification:'Arial, Bold';font-variant-ligatures:normal;font-variant-caps:normal;font-variant-numeric:normal;font-feature-settings:normal;text-align:start;letter-spacing:0px;word-spacing:0px;writing-mode:lr-tb;text-anchor:start;fill:#8e8e91;fill-opacity:1;stroke:none;stroke-width:0.26458332;"
     x="2.7011271"
     y="8.8064241"
     id="text2322"><tspan
       sodipodi:role="line"
       x="2.7011271"
       y="8.8064241"
       id="tspan2320"
       style="fill:#8e8e91;fill-opacity:1;stroke-width:0.26458332;"><tspan
         x="2.7011271"
         y="8.8064241"
         id="tspan2318"
         style="fill:#8e8e91;fill-opacity:1;stroke-width:0.26458332;">11.</tspan></tspan></text>
  <g
     id="g2689"
     transform="matrix(0.1400271,0,0,0.1400271,-38.991579,-6.9894946)">
    <ellipse
       id="circle2595"
       cy="358.34384"
       cx="279.43109"
       style="fill:#ffc107;stroke-width:0.43667689"
       rx="71.344933"
       ry="68.422234" />
    <g
       id="g2621" />
    <g
       id="g2623" />
    <g
       id="g2625" />
    <g
       id="g2627" />
    <g
       id="g2629" />
    <g
       id="g2631" />
    <g
       id="g2633" />
    <g
       id="g2635" />
    <g
       id="g2637" />
    <g
       id="g2639" />
    <g
       id="g2641" />
    <g
       id="g2643" />
    <g
       id="g2645" />
    <g
       id="g2647" />
    <g
       id="g2649" />
    <g
       id="g2651" />
  </g>
  <path
     style="fill:none;stroke:#eef2f1;stroke-width:0.065;stroke-linecap:butt;stroke-linejoin:miter;stroke-opacity:1;stroke-miterlimit:4;stroke-dasharray:none"
     d="m 0,28.182358 c 24.811092,0.311673 26.030095,29.84497 0,30.557814"
     id="path2691"
     inkscape:connector-curvature="0"
     sodipodi:nodetypes="cc" />
  <g
     id="g2872"
     transform="matrix(0.08482132,0,0,0.07941275,16.197503,43.760555)">
    <g
       id="g2800">
      <g
         id="g2770">
        <path
           id="path2766"
           d="M 57.236,22.477 43.348,26.198 42.83,24.266 56.734,20.54 C 55.815,17.522 54.449,14.754 52.718,12.299 L 30.608,18.223 30.09,16.291 51.4,10.583 C 48.702,7.308 45.329,4.684 41.551,2.869 L 5.099,12.636 c -2.37,3.462 -3.982,7.419 -4.684,11.608 l 4.181,-1.12 0.518,1.932 -4.975,1.333 c -0.273,2.993 -0.078,6.072 0.635,9.147 l 35.812,-9.596 0.518,1.932 -35.809,9.595 c 0.388,1.265 0.835,2.497 1.374,3.67 2.763,-0.451 4.167,2.917 2.768,4.771 0.164,0.229 0.346,0.441 0.516,0.664 l 15.247,-4.086 0.518,1.932 -14.366,3.85 c 2.57,2.885 5.677,5.215 9.127,6.872 l 22.228,-5.956 0.518,1.932 -19.706,5.28 c 5.294,1.841 11.172,2.183 16.995,0.623 5.829,-1.562 10.762,-4.795 14.429,-9.043 L 44.504,49.7 43.986,47.768 52.94,45.369 c 0.151,-0.221 0.304,-0.44 0.449,-0.664 -0.843,-1.531 -0.499,-3.773 1.69,-4.36 0.228,-0.061 0.447,-0.095 0.657,-0.108 0.726,-1.724 1.266,-3.529 1.65,-5.376 l -6.264,1.679 -0.518,-1.932 7.148,-1.915 c 0.43,-3.326 0.281,-6.772 -0.516,-10.216 z"
           style="fill:#5e5f62"
           inkscape:connector-curvature="0" />
        <path
           id="path2768"
           d="M 21.5,0.995 C 19.638,1.494 17.869,2.167 16.201,2.986 16.261,4.22 15.64,5.463 14.095,5.878 13.224,6.111 12.479,5.963 11.888,5.599 10.11,6.9 8.502,8.392 7.082,10.035 L 38.52,1.61 C 33.22,-0.235 27.33,-0.567 21.5,0.995 Z"
           style="fill:#5e5f62"
           inkscape:connector-curvature="0" />
      </g>
      <circle
         id="circle2772"
         r="20.5"
         cy="27.499001"
         cx="24.499001"
         style="fill:#77797f" />
      <circle
         id="circle2774"
         r="11.5"
         cy="26.499001"
         cx="20.499001"
         style="fill:#868c9b" />
      <circle
         id="circle2776"
         r="1"
         cy="2.556"
         cx="2.0109999"
         style="fill:#f3d55b" />
      <circle
         id="circle2778"
         r="1"
         cy="56.556"
         cx="10.011"
         style="fill:#f3d55b" />
      <circle
         id="circle2780"
         r="1"
         cy="51.556"
         cx="55.011002"
         style="fill:#f3d55b" />
      <circle
         id="circle2782"
         r="1"
         cy="54.556"
         cx="2.0109999"
         style="fill:#f3d55b" />
      <circle
         id="circle2784"
         r="1"
         cy="6.1020002"
         cx="6.3039999"
         style="fill:#f3d55b" />
      <circle
         id="circle2786"
         r="1"
         cy="3.556"
         cx="52.011002"
         style="fill:#f3d55b" />
      <g
         id="g2798">
        <path
           id="path2788"
           d="M 51.537,34.358 C 51.532,34.3 51.535,34.24 51.527,34.182 51.295,32.42 49.921,30.636 47.743,30.636 c -0.357,0 -0.725,0.05 -1.093,0.149 -2.259,0.605 -3.046,2.577 -2.824,4.264 0.057,0.433 0.184,0.866 0.374,1.275 l -16.121,4.32 c -0.606,-1.184 -1.753,-2.121 -3.328,-2.121 -0.357,0 -0.725,0.05 -1.093,0.149 -2.107,0.564 -2.921,2.316 -2.843,3.918 L 5.953,46.572 c 0.446,0.585 0.912,1.15 1.398,1.696 L 21.376,44.51 c 0.625,1.111 1.736,1.972 3.243,1.972 0.357,0 0.725,-0.05 1.093,-0.149 2.032,-0.545 2.866,-2.195 2.852,-3.749 l 17.077,-4.576 c 0.551,0.36 1.208,0.587 1.97,0.587 0.357,0 0.725,-0.05 1.093,-0.149 1.214,-0.326 1.991,-1.05 2.427,-1.909 l 6.255,-1.676 c 0.149,-0.716 0.272,-1.439 0.366,-2.168 z M 25.194,44.401 c -1.372,0.365 -2.242,-0.708 -2.377,-1.728 -0.051,-0.387 -0.103,-1.679 1.359,-2.071 0.199,-0.053 0.393,-0.081 0.575,-0.081 1.074,0 1.687,0.937 1.802,1.808 0.051,0.387 0.103,1.68 -1.359,2.072 z m 22.992,-7.887 c -1.371,0.367 -2.242,-0.708 -2.377,-1.728 -0.051,-0.387 -0.103,-1.679 1.359,-2.071 0.199,-0.053 0.393,-0.081 0.575,-0.081 1.074,0 1.687,0.937 1.802,1.808 0.051,0.388 0.103,1.68 -1.359,2.072 z"
           style="fill:#7684a3"
           inkscape:connector-curvature="0" />
        <path
           id="path2790"
           d="M 38.52,1.61 7.082,10.034 C 6.367,10.861 5.715,11.736 5.099,12.636 L 41.551,2.868 C 40.566,2.395 39.556,1.971 38.52,1.61 Z"
           style="fill:#7684a3"
           inkscape:connector-curvature="0" />
        <path
           id="path2792"
           d="m 8.041,27.112 c 0.356,0 0.724,-0.05 1.092,-0.148 2.032,-0.545 2.866,-2.195 2.852,-3.749 l 11.728,-3.143 c 0.583,1.256 1.767,2.272 3.41,2.272 0.357,0 0.725,-0.05 1.093,-0.149 2.182,-0.584 2.981,-2.443 2.834,-4.089 L 52.719,12.3 C 52.302,11.708 51.858,11.139 51.4,10.583 l -20.986,5.623 c -0.64,-1.037 -1.718,-1.822 -3.157,-1.822 -0.357,0 -0.725,0.05 -1.093,0.149 -1.957,0.525 -2.806,2.075 -2.855,3.577 l -11.807,3.164 c -0.606,-1.183 -1.753,-2.121 -3.329,-2.121 -0.356,0 -0.724,0.05 -1.092,0.148 -2.107,0.565 -2.921,2.317 -2.843,3.919 l -3.823,1.024 c -0.119,0.709 -0.211,1.424 -0.276,2.144 l 4.659,-1.249 c 0.625,1.112 1.736,1.973 3.243,1.973 z m 18.64,-10.647 c 0.199,-0.053 0.393,-0.081 0.575,-0.081 1.074,0 1.687,0.938 1.802,1.808 0.051,0.387 0.103,1.679 -1.359,2.071 -1.37,0.367 -2.242,-0.708 -2.377,-1.727 -0.051,-0.387 -0.103,-1.679 1.359,-2.071 z M 7.598,21.233 c 0.199,-0.053 0.393,-0.08 0.574,-0.08 1.075,0 1.688,0.937 1.803,1.808 0.051,0.387 0.104,1.679 -1.359,2.071 C 7.237,25.4 6.374,24.322 6.239,23.304 6.188,22.917 6.135,21.625 7.598,21.233 Z"
           style="fill:#7684a3"
           inkscape:connector-curvature="0" />
        <path
           id="path2794"
           d="m 44.957,47.332 c -0.232,-1.763 -1.606,-3.548 -3.785,-3.548 -0.357,0 -0.725,0.05 -1.093,0.149 -2.259,0.605 -3.046,2.578 -2.823,4.264 0.057,0.433 0.184,0.867 0.374,1.275 L 16.478,55.14 c 0.988,0.475 2.001,0.895 3.039,1.256 L 39.07,51.157 c 0.551,0.36 1.208,0.587 1.97,0.587 0.357,0 0.725,-0.05 1.093,-0.149 1.215,-0.325 1.992,-1.051 2.427,-1.91 l 6.38,-1.709 c 0.717,-0.831 1.383,-1.702 2,-2.606 l -7.974,2.136 c -0.004,-0.058 -10e-4,-0.117 -0.009,-0.174 z m -3.341,2.331 c -1.371,0.365 -2.242,-0.709 -2.377,-1.728 -0.051,-0.387 -0.104,-1.679 1.358,-2.071 0.199,-0.053 0.393,-0.081 0.575,-0.081 1.074,0 1.688,0.938 1.802,1.809 0.051,0.387 0.104,1.679 -1.358,2.071 z"
           style="fill:#7684a3"
           inkscape:connector-curvature="0" />
        <path
           id="path2796"
           d="m 39.785,29.994 c 0.357,0 0.725,-0.05 1.093,-0.149 2.033,-0.544 2.866,-2.195 2.852,-3.749 L 57.236,22.477 C 57.161,22.151 57.105,21.826 57.018,21.5 56.931,21.176 56.832,20.859 56.735,20.541 l -13.489,3.614 c -0.606,-1.183 -1.753,-2.121 -3.328,-2.121 -0.357,0 -0.725,0.05 -1.093,0.149 -2.107,0.565 -2.921,2.317 -2.843,3.919 L 0.773,35.536 c 0.075,0.325 0.134,0.651 0.221,0.976 0.087,0.326 0.203,0.635 0.301,0.955 l 35.247,-9.444 c 0.625,1.11 1.735,1.971 3.243,1.971 z m -0.443,-5.879 c 0.199,-0.053 0.393,-0.081 0.575,-0.081 1.074,0 1.687,0.938 1.802,1.808 0.051,0.387 0.103,1.679 -1.359,2.071 -1.372,0.365 -2.242,-0.708 -2.377,-1.727 -0.051,-0.386 -0.103,-1.679 1.359,-2.071 z"
           style="fill:#7684a3"
           inkscape:connector-curvature="0" />
      </g>
    </g>
    <g
       id="g2802" />
    <g
       id="g2804" />
    <g
       id="g2806" />
    <g
       id="g2808" />
    <g
       id="g2810" />
    <g
       id="g2812" />
    <g
       id="g2814" />
    <g
       id="g2816" />
    <g
       id="g2818" />
    <g
       id="g2820" />
    <g
       id="g2822" />
    <g
       id="g2824" />
    <g
       id="g2826" />
    <g
       id="g2828" />
    <g
       id="g2830" />
  </g>
  <path
     sodipodi:nodetypes="cc"
     inkscape:connector-curvature="0"
     id="path2874"
     d="M -0.27283763,24.089793 C 32.177708,24.265047 35.306574,63.48408 0.68209409,63.378411"
     style="fill:none;stroke:#eef2f1;stroke-width:0.065;stroke-linecap:butt;stroke-linejoin:miter;stroke-miterlimit:4;stroke-dasharray:none;stroke-opacity:1" />
  <g
     id="g3025"
     transform="matrix(0.01820692,0,0,0.01887101,19.410237,31.765661)">
    <g
       id="g2959">
      <g
         id="g2957">
        <circle
           id="circle2937"
           r="145.256"
           cy="145.256"
           cx="145.256"
           style="fill:#f9ba48" />
        <path
           id="path2939"
           d="m 281.14,182.741 c -52.498,0 -140.57,-3.65 -140.57,-28.114 0,-25.378 101.581,-28.114 145.256,-28.114 v 9.371 c -96.028,0 -135.884,12.206 -135.884,18.743 0,6.115 32.069,18.743 131.199,18.743 z"
           style="fill:#333333"
           inkscape:connector-curvature="0" />
        <path
           id="path2941"
           d="m 36.534,127.033 c -10.594,0 -21.268,-0.164 -32.008,-0.52 l 0.314,-9.371 c 138.321,4.597 269.323,-23.049 270.63,-23.33 l 1.963,9.165 c -1.213,0.262 -113.838,24.056 -240.899,24.056 z"
           style="fill:#333333"
           inkscape:connector-curvature="0" />
        <path
           id="path2943"
           d="M 251.972,243.538 C 132.366,215.935 29.768,229.415 28.747,229.556 l -1.27,-9.282 c 1.04,-0.145 105.334,-13.851 226.599,14.132 z"
           style="fill:#333333"
           inkscape:connector-curvature="0" />
        <path
           id="path2945"
           d="M 191.419,206.118 C 99.374,192.309 15.411,201.357 14.573,201.456 l -1.031,-9.315 c 0.853,-0.094 86.024,-9.273 179.269,4.709 z"
           style="fill:#333333"
           inkscape:connector-curvature="0" />
        <path
           id="path2947"
           d="m 33.268,178.032 -0.937,-9.324 c 17.768,-1.781 35.175,-5.59 41.004,-8.776 -9.413,-3.303 -41.159,-5.304 -68.65,-5.304 v -9.371 c 79.656,0 79.656,9.849 79.656,14.057 0.001,9.033 -17.181,15.33 -51.073,18.718 z"
           style="fill:#333333"
           inkscape:connector-curvature="0" />
        <path
           id="path2949"
           d="m 92.144,82.674 c -41,0 -68.748,-2.994 -69.231,-3.046 l 1.036,-9.31 c 0.839,0.094 84.857,9.132 176.842,-4.662 l 1.392,9.268 c -40.223,6.026 -78.945,7.75 -110.039,7.75 z"
           style="fill:#333333"
           inkscape:connector-curvature="0" />
        <path
           id="path2951"
           d="m 57.067,257.637 -1.673,-9.221 c 2.132,-0.389 52.686,-9.442 90.447,-4.723 l -1.162,9.296 c -36.346,-4.536 -87.106,4.554 -87.612,4.648 z"
           style="fill:#333333"
           inkscape:connector-curvature="0" />
        <path
           id="path2953"
           d="m 92.598,66.79 c -19.099,0 -41.909,-1.218 -56.593,-6.115 l 2.966,-8.889 c 26.9,8.968 86.586,4.503 87.186,4.461 l 0.717,9.343 c -1.237,0.089 -16.072,1.2 -34.276,1.2 z"
           style="fill:#333333"
           inkscape:connector-curvature="0" />
        <path
           id="path2955"
           d="m 121.827,159.313 h -9.371 c 0,-7.811 5.684,-23.724 27.196,-28.02 l 1.841,9.189 c -19.441,3.883 -19.666,18.681 -19.666,18.831 z"
           style="fill:#333333"
           inkscape:connector-curvature="0" />
      </g>
    </g>
    <g
       id="g2961" />
    <g
       id="g2963" />
    <g
       id="g2965" />
    <g
       id="g2967" />
    <g
       id="g2969" />
    <g
       id="g2971" />
    <g
       id="g2973" />
    <g
       id="g2975" />
    <g
       id="g2977" />
    <g
       id="g2979" />
    <g
       id="g2981" />
    <g
       id="g2983" />
    <g
       id="g2985" />
    <g
       id="g2987" />
    <g
       id="g2989" />
  </g>
  <path
     style="fill:none;stroke:#eef2f1;stroke-width:0.08116388;stroke-linecap:butt;stroke-linejoin:miter;stroke-miterlimit:4;stroke-dasharray:none;stroke-opacity:1"
     d="M -0.95544729,19.45968 C 39.423049,19.679283 43.316324,68.822975 0.23278257,68.690566"
     id="path3027"
     inkscape:connector-curvature="0"
     sodipodi:nodetypes="cc" />
  <g
     id="g3148"
     transform="matrix(0.01199656,0,0,0.01266647,27.773801,43.576024)">
    <g
       id="g3086">
      <path
         id="path3078"
         d="m 441.374,79.519 -26.485,17.656 -44.141,-8.828 -26.485,-8.828 -35.313,8.828 -26.485,-8.828 17.656,-35.313 h 35.313 l 34.607,-17.303 c 26.689,13.198 50.834,31.013 71.333,52.616 z"
         style="fill:#03aa6f"
         inkscape:connector-curvature="0" />
      <path
         id="path3080"
         d="m 238.325,44.206 -8.828,26.485 -26.485,8.828 -26.485,44.141 -44.141,26.485 -61.797,8.828 v 26.485 l 17.656,17.656 v 35.313 L 61.762,220.77 35.277,203.114 19.916,156.943 C 46.356,93.935 96.898,44.126 160.284,18.604 l 25.072,16.774 z"
         style="fill:#03aa6f"
         inkscape:connector-curvature="0" />
      <polygon
         id="polygon3082"
         points="132.387,326.708 88.246,317.88 70.59,282.567 70.59,256.082 88.246,238.426 114.731,211.941 132.387,247.254 194.184,247.254 220.669,291.395 255.982,291.395 247.154,335.536 211.841,370.849 211.841,397.334 176.528,423.818 176.528,467.959 150.044,459.131 132.387,414.99 "
         style="fill:#03aa6f" />
      <path
         id="path3084"
         d="m 479.335,130.987 c 48.193,85.978 42.702,191.996 -14.125,272.526 l -23.836,-23.836 v -35.313 l -17.656,-35.313 -17.656,-35.313 v -35.313 l -26.485,-17.656 -35.313,8.828 -61.797,-26.485 -8.828,-61.797 26.485,-26.485 h 52.969 l 17.656,26.485 52.969,8.828 52.969,-17.656 z"
         style="fill:#03aa6f"
         inkscape:connector-curvature="0" />
    </g>
    <path
       id="path3088"
       d="m 308.951,88.347 35.313,-8.828 26.485,8.828 44.141,8.828 26.485,-17.656 c 14.787,15.476 27.544,32.77 37.961,51.468 l -2.648,1.501 -52.969,17.656 -52.969,-8.828 -17.656,-26.485 h -52.969 l -26.485,26.485 8.828,61.797 61.797,26.485 35.313,-8.828 26.485,17.656 v 35.313 l 17.656,35.313 17.656,35.313 v 35.313 l 23.836,23.836 C 383.683,519.04 223.936,546.593 108.419,465.064 10.311,395.815 -26.494,267.691 19.916,156.942 l 15.361,46.171 26.485,17.656 26.485,17.656 -17.657,17.657 v 26.485 l 17.656,35.313 44.141,8.828 v 88.282 l 17.656,44.141 26.485,8.828 v -44.141 l 35.313,-26.485 v -26.485 l 35.313,-35.313 8.828,-44.141 H 220.669 L 194.184,247.253 H 132.387 L 114.731,211.94 88.246,238.425 V 203.112 L 70.59,185.457 v -26.485 l 61.797,-8.828 44.141,-26.485 26.485,-44.141 26.485,-8.828 8.828,-26.485 -52.969,-8.828 -25.072,-16.774 C 228.174,-8.738 304.52,-5.719 370.043,26.902 l -34.607,17.303 h -35.313 l -17.656,35.313 z"
       style="fill:#86daf1"
       inkscape:connector-curvature="0" />
    <g
       id="g3090" />
    <g
       id="g3092" />
    <g
       id="g3094" />
    <g
       id="g3096" />
    <g
       id="g3098" />
    <g
       id="g3100" />
    <g
       id="g3102" />
    <g
       id="g3104" />
    <g
       id="g3106" />
    <g
       id="g3108" />
    <g
       id="g3110" />
    <g
       id="g3112" />
    <g
       id="g3114" />
    <g
       id="g3116" />
    <g
       id="g3118" />
  </g>
  <g
     id="g3464"
     transform="matrix(0.0093837,0,0,0.00881233,31.928391,32.064979)">
    <g
       id="g3365">
      <path
         id="path3277"
         d="m 24.746,346.221 c -0.636,-1.286 -1.262,-2.579 -1.876,-3.878 0.613,1.3 1.24,2.592 1.876,3.878 z"
         style="fill:#ff4f19"
         inkscape:connector-curvature="0" />
      <path
         id="path3279"
         d="m 22.327,341.18 c -0.588,-1.263 -1.168,-2.53 -1.735,-3.804 0.566,1.275 1.147,2.541 1.735,3.804 z"
         style="fill:#ff4f19"
         inkscape:connector-curvature="0" />
      <path
         id="path3281"
         d="m 20.031,336.094 c -0.549,-1.254 -1.093,-2.512 -1.621,-3.777 0.528,1.265 1.072,2.522 1.621,3.777 z"
         style="fill:#ff4f19"
         inkscape:connector-curvature="0" />
      <path
         id="path3283"
         d="m 17.864,330.98 c -0.519,-1.265 -1.035,-2.533 -1.533,-3.809 0.498,1.277 1.014,2.544 1.533,3.809 z"
         style="fill:#ff4f19"
         inkscape:connector-curvature="0" />
      <path
         id="path3285"
         d="m 303.561,8.525 c 38.557,10.583 73.23,30.554 101.437,57.281 C 395.485,64.659 385.822,64 376,64 251.73,64 149.521,158.448 137.238,279.477 v 0 c -0.003,0.032 -0.006,0.065 -0.009,0.097 -0.001,0.014 -0.002,0.028 -0.004,0.042 31.69,5.489 67.028,8.384 102.775,8.384 41.859,0 82.789,-3.922 118.367,-11.344 14.039,-2.938 27.203,-6.406 39.141,-10.328 4.195,-1.391 8.711,0.906 10.094,5.109 1.375,4.195 -0.906,8.711 -5.109,10.094 -7.778,2.554 -16.087,4.897 -24.746,7.059 -0.101,0.083 -0.148,0.205 -0.254,0.285 l -15.656,11.742 16.289,4.492 c 3.508,0.969 5.922,4.172 5.875,7.805 -0.047,3.641 -2.531,6.789 -6.063,7.664 C 337.57,330.672 289.867,336 240,336 c -3.523,0 -6.633,-2.305 -7.656,-5.68 -1.023,-3.375 0.289,-7.023 3.219,-8.977 2.563,-1.711 2.469,-4.25 2.313,-5.258 -0.156,-1.016 -0.844,-3.469 -3.813,-4.313 l -43.789,-9.68 c -0.065,-0.015 -0.112,-0.062 -0.177,-0.078 -18.638,-1.396 -36.801,-3.486 -53.936,-6.363 -0.095,2.772 -0.16,5.552 -0.16,8.348 0,54.205 18.011,104.173 48.33,144.339 18.574,-8.458 37.683,-17.042 56.006,-16.331 28.82,1.266 43.547,-6.867 43.688,-6.953 3.828,-2.133 8.711,-0.82 10.891,2.984 2.18,3.813 0.914,8.656 -2.883,10.867 -0.734,0.438 -18.305,10.547 -52.367,9.086 -13.441,-0.686 -29.28,6.086 -44.936,13.195 0,0 0.001,0.001 0.002,0.002 -0.001,0.001 -0.002,0.001 -0.004,0.002 5.148,5.928 10.579,11.605 16.276,17.003 -12.859,-1.55 -25.402,-4.12 -37.553,-7.619 -0.001,0 -0.003,10e-4 -0.004,0.002 -0.035,-0.01 -0.07,-0.022 -0.105,-0.032 -2.008,-0.579 -4.005,-1.186 -5.992,-1.816 -1.236,-0.389 -2.461,-0.801 -3.688,-1.208 -0.474,-0.159 -0.949,-0.314 -1.421,-0.475 -5.38,-1.822 -10.685,-3.803 -15.878,-6.005 0.055,0.002 0.115,-0.003 0.171,-0.002 C 97.059,440.104 56.062,403.067 30.136,356.486 71.109,430.151 149.727,480 240,480 372.548,480 480,372.548 480,240 480,129.458 405.259,36.388 303.561,8.525 Z M 272,232 c -0.258,0.016 -0.68,-0.008 -1.023,-0.008 -11.43,0 -18.469,3.594 -26.594,7.742 -8.633,4.406 -18.18,9.281 -32.875,9.281 -3.891,0 -8.133,-0.344 -12.82,-1.125 -4.359,-0.727 -7.305,-4.852 -6.578,-9.203 0.719,-4.359 4.828,-7.352 9.203,-6.578 17.211,2.852 25.813,-1.531 35.797,-6.625 8.938,-4.57 18.742,-9.945 35.023,-9.484 4.414,0.07 7.938,3.711 7.867,8.133 -0.07,4.367 -3.641,7.867 -8,7.867 z m 62.289,-11.055 c -7.18,9.141 -24.672,10.766 -29.859,11.047 -0.149,0.008 -0.289,0.008 -0.438,0.008 -4.219,0 -7.742,-3.297 -7.977,-7.563 -0.242,-4.406 3.133,-8.18 7.539,-8.422 7.672,-0.438 16.492,-2.844 18.156,-4.961 2.727,-3.469 7.75,-4.086 11.234,-1.344 3.47,2.727 4.079,7.759 1.345,11.235 z M 205.68,333.601 c -1.523,1.516 -3.602,2.398 -5.68,2.398 -2.078,0 -4.164,-0.883 -5.68,-2.32 -1.445,-1.523 -2.32,-3.602 -2.32,-5.68 0,-2.078 0.875,-4.164 2.32,-5.68 2.961,-2.961 8.32,-2.961 11.359,0 1.516,1.516 2.32,3.602 2.32,5.68 0,2.078 -0.804,4.157 -2.319,5.602 z m 103.999,40 c -1.523,1.516 -3.602,2.398 -5.68,2.398 -2.078,0 -4.164,-0.883 -5.68,-2.32 -1.445,-1.523 -2.32,-3.602 -2.32,-5.68 0,-2.078 0.875,-4.164 2.32,-5.68 2.961,-2.961 8.32,-2.961 11.359,0 1.516,1.516 2.32,3.602 2.32,5.68 0,2.078 -0.803,4.157 -2.319,5.602 z m 64,-176.099 c -1.523,1.516 -3.602,2.398 -5.68,2.398 -2.078,0 -4.164,-0.883 -5.68,-2.32 -1.445,-1.523 -2.32,-3.602 -2.32,-5.68 0,-2.078 0.875,-4.164 2.32,-5.68 2.961,-2.961 8.32,-2.961 11.359,0 1.516,1.516 2.32,3.602 2.32,5.68 0,2.078 -0.803,4.157 -2.319,5.602 z m 32,32.099 c -1.523,1.516 -3.602,2.398 -5.68,2.398 -2.078,0 -4.164,-0.883 -5.68,-2.32 -1.445,-1.523 -2.32,-3.602 -2.32,-5.68 0,-2.078 0.875,-4.164 2.32,-5.68 2.961,-2.961 8.32,-2.961 11.359,0 1.516,1.516 2.32,3.602 2.32,5.68 0,2.078 -0.803,4.157 -2.319,5.602 z m -35.906,-99.07 c -0.602,0.141 -1.195,0.203 -1.789,0.203 -3.648,0 -6.945,-2.508 -7.789,-6.219 -0.984,-4.305 1.703,-8.594 6.016,-9.578 24.808,-5.672 46.328,-12.667 64.396,-20.713 3.315,4.328 6.492,8.763 9.511,13.315 -19.603,9.038 -43.199,16.792 -70.345,22.992 z"
         style="fill:#ff4f19"
         inkscape:connector-curvature="0" />
      <path
         id="path3287"
         d="m 27.283,351.207 c -0.696,-1.327 -1.378,-2.663 -2.05,-4.004 0.672,1.342 1.355,2.677 2.05,4.004 z"
         style="fill:#ff4f19"
         inkscape:connector-curvature="0" />
      <path
         id="path3289"
         d="m 29.933,356.127 c -0.771,-1.391 -1.525,-2.791 -2.269,-4.198 0.743,1.407 1.499,2.807 2.269,4.198 z"
         style="fill:#ff4f19"
         inkscape:connector-curvature="0" />
      <path
         id="path3291"
         d="m 2.998,277.952 c -0.143,-0.898 -0.281,-1.798 -0.414,-2.7 0.133,0.902 0.271,1.802 0.414,2.7 z"
         style="fill:#ff4f19"
         inkscape:connector-curvature="0" />
      <path
         id="path3293"
         d="m 275.665,2.641 c 1.355,0.202 2.703,0.423 4.05,0.648 -1.348,-0.224 -2.696,-0.446 -4.05,-0.648 z"
         style="fill:#ff4f19"
         inkscape:connector-curvature="0" />
      <path
         id="path3295"
         d="m 281.394,3.568 c 1.446,0.252 2.885,0.522 4.322,0.8 -1.437,-0.277 -2.876,-0.549 -4.322,-0.8 z"
         style="fill:#ff4f19"
         inkscape:connector-curvature="0" />
      <path
         id="path3297"
         d="m 0.435,254.289 c -0.047,-0.793 -0.101,-1.583 -0.14,-2.378 0.039,0.795 0.094,1.585 0.14,2.378 z"
         style="fill:#ff4f19"
         inkscape:connector-curvature="0" />
      <path
         id="path3299"
         d="m 0.146,247.974 c -0.022,-0.667 -0.054,-1.332 -0.07,-2.001 0.016,0.668 0.048,1.333 0.07,2.001 z"
         style="fill:#ff4f19"
         inkscape:connector-curvature="0" />
      <path
         id="path3301"
         d="m 269.87,1.849 c 1.265,0.157 2.523,0.334 3.782,0.511 -1.259,-0.177 -2.517,-0.354 -3.782,-0.511 z"
         style="fill:#ff4f19"
         inkscape:connector-curvature="0" />
      <path
         id="path3303"
         d="m 246.08,0.077 c 0.765,0.019 1.525,0.058 2.288,0.084 -0.763,-0.026 -1.523,-0.065 -2.288,-0.084 z"
         style="fill:#ff4f19"
         inkscape:connector-curvature="0" />
      <path
         id="path3305"
         d="m 252.11,0.303 c 0.956,0.048 1.907,0.116 2.86,0.175 -0.953,-0.058 -1.903,-0.127 -2.86,-0.175 z"
         style="fill:#ff4f19"
         inkscape:connector-curvature="0" />
      <path
         id="path3307"
         d="m 287.051,4.623 c 1.539,0.306 3.071,0.631 4.599,0.967 -1.529,-0.335 -3.061,-0.661 -4.599,-0.967 z"
         style="fill:#ff4f19"
         inkscape:connector-curvature="0" />
      <path
         id="path3309"
         d="m 292.635,5.805 c 1.633,0.366 3.259,0.75 4.879,1.149 -1.62,-0.398 -3.245,-0.784 -4.879,-1.149 z"
         style="fill:#ff4f19"
         inkscape:connector-curvature="0" />
      <path
         id="path3311"
         d="m 298.142,7.107 c 1.735,0.432 3.462,0.883 5.182,1.353 -1.72,-0.469 -3.447,-0.921 -5.182,-1.353 z"
         style="fill:#ff4f19"
         inkscape:connector-curvature="0" />
      <path
         id="path3313"
         d="m 2.149,272.147 c -0.119,-0.886 -0.236,-1.772 -0.345,-2.66 0.11,0.888 0.227,1.774 0.345,2.66 z"
         style="fill:#ff4f19"
         inkscape:connector-curvature="0" />
      <path
         id="path3315"
         d="m 1.438,266.279 c -0.095,-0.869 -0.191,-1.737 -0.276,-2.609 0.085,0.872 0.181,1.74 0.276,2.609 z"
         style="fill:#ff4f19"
         inkscape:connector-curvature="0" />
      <path
         id="path3317"
         d="m 0.866,260.34 c -0.071,-0.843 -0.146,-1.684 -0.208,-2.529 0.062,0.845 0.138,1.687 0.208,2.529 z"
         style="fill:#ff4f19"
         inkscape:connector-curvature="0" />
      <path
         id="path3319"
         d="m 258.089,0.676 c 1.073,0.08 2.141,0.181 3.21,0.276 -1.069,-0.095 -2.137,-0.196 -3.21,-0.276 z"
         style="fill:#ff4f19"
         inkscape:connector-curvature="0" />
      <path
         id="path3321"
         d="m 7.731,300.627 c -0.249,-0.956 -0.482,-1.918 -0.72,-2.879 0.238,0.961 0.471,1.923 0.72,2.879 z"
         style="fill:#ff4f19"
         inkscape:connector-curvature="0" />
      <path
         id="path3323"
         d="m 15.854,325.916 c -0.506,-1.318 -1.009,-2.638 -1.492,-3.967 0.483,1.329 0.986,2.648 1.492,3.967 z"
         style="fill:#ff4f19"
         inkscape:connector-curvature="0" />
      <path
         id="path3325"
         d="m 9.241,306.163 c -0.29,-1.011 -0.56,-2.031 -0.837,-3.047 0.277,1.017 0.548,2.036 0.837,3.047 z"
         style="fill:#ff4f19"
         inkscape:connector-curvature="0" />
      <path
         id="path3327"
         d="m 6.349,295.035 c -0.219,-0.931 -0.424,-1.867 -0.632,-2.802 0.208,0.935 0.414,1.871 0.632,2.802 z"
         style="fill:#ff4f19"
         inkscape:connector-curvature="0" />
      <path
         id="path3329"
         d="m 14.108,321.229 c -1.555,-4.322 -2.983,-8.703 -4.293,-13.136 1.31,4.432 2.739,8.814 4.293,13.136 z"
         style="fill:#ff4f19"
         inkscape:connector-curvature="0" />
      <path
         id="path3331"
         d="m 5.1,289.396 c -0.192,-0.919 -0.375,-1.842 -0.557,-2.764 0.182,0.923 0.364,1.845 0.557,2.764 z"
         style="fill:#ff4f19"
         inkscape:connector-curvature="0" />
      <path
         id="path3333"
         d="m 3.981,283.7 c -0.167,-0.907 -0.327,-1.817 -0.483,-2.728 0.157,0.911 0.317,1.82 0.483,2.728 z"
         style="fill:#ff4f19"
         inkscape:connector-curvature="0" />
      <path
         id="path3335"
         d="m 264.01,1.192 c 1.172,0.117 2.338,0.254 3.506,0.387 -1.168,-0.133 -2.334,-0.27 -3.506,-0.387 z"
         style="fill:#ff4f19"
         inkscape:connector-curvature="0" />
      <path
         id="path3337"
         d="m 146.532,461.038 c -0.055,-0.001 -0.116,0.004 -0.171,0.002 5.193,2.203 10.499,4.183 15.878,6.005 0.472,0.162 0.948,0.317 1.421,0.475 1.227,0.407 2.452,0.819 3.688,1.208 1.986,0.63 3.983,1.236 5.992,1.816 0.035,0.01 0.07,0.022 0.105,0.032 0.001,0 0.003,-0.001 0.004,-0.002 12.15,3.499 24.694,6.069 37.553,7.619 -5.697,-5.398 -11.128,-11.075 -16.276,-17.003 -1.46,0.663 -2.921,1.326 -4.375,1.989 -5.725,2.606 -11.35,5.158 -16.817,7.36 -0.763,-0.219 -1.527,-0.437 -2.288,-0.663 -2.699,-0.804 -5.369,-1.67 -8.03,-2.559 -1.713,-0.578 -3.439,-1.131 -5.135,-1.747 -1.86,-0.668 -3.681,-1.418 -5.519,-2.133 -2.014,-0.789 -4.034,-1.565 -6.021,-2.406 9.272,0.228 23.412,-6.149 37.177,-12.414 0.22,-0.1 0.441,-0.2 0.662,-0.3 3.32,4.398 6.74,8.715 10.348,12.87 15.656,-7.109 31.495,-13.881 44.936,-13.195 34.063,1.461 51.633,-8.648 52.367,-9.086 3.797,-2.211 5.063,-7.055 2.883,-10.867 -2.18,-3.805 -7.063,-5.117 -10.891,-2.984 -0.141,0.086 -14.867,8.219 -43.688,6.953 -18.323,-0.711 -37.432,7.873 -56.006,16.331 C 154.011,408.173 136,358.205 136,304 c 0,-2.796 0.065,-5.575 0.16,-8.348 17.136,2.878 35.298,4.968 53.936,6.363 0.065,0.016 0.111,0.063 0.177,0.078 l 43.789,9.68 c 2.969,0.844 3.656,3.297 3.813,4.313 0.156,1.008 0.25,3.547 -2.313,5.258 -2.93,1.953 -4.242,5.602 -3.219,8.977 1.023,3.375 4.133,5.679 7.657,5.679 49.867,0 97.57,-5.328 137.937,-15.422 3.531,-0.875 6.016,-4.023 6.063,-7.664 0.047,-3.633 -2.367,-6.836 -5.875,-7.805 l -16.289,-4.492 15.656,-11.742 c 0.106,-0.08 0.153,-0.201 0.254,-0.285 8.658,-2.162 16.968,-4.505 24.746,-7.059 4.203,-1.383 6.484,-5.898 5.109,-10.094 -1.383,-4.203 -5.898,-6.5 -10.094,-5.109 -11.938,3.922 -25.102,7.391 -39.141,10.328 C 322.789,284.078 281.859,288 240,288 c -35.747,0 -71.085,-2.895 -102.775,-8.384 0.001,-0.014 0.002,-0.028 0.004,-0.042 -0.534,5.292 -0.831,10.651 -1.017,16.039 -3.252,-0.546 -6.532,-1.072 -9.705,-1.676 -4.344,-0.828 -7.195,-5.016 -6.367,-9.352 0.82,-4.344 5.008,-7.188 9.352,-6.367 2.503,0.477 5.193,0.816 7.745,1.259 C 149.521,158.448 251.73,64 376,64 c 9.822,0 19.485,0.659 28.998,1.806 C 376.79,39.079 342.118,19.108 303.561,8.525 303.482,8.503 303.403,8.482 303.324,8.461 301.605,7.991 299.877,7.54 298.142,7.108 297.934,7.056 297.724,7.006 297.515,6.955 295.895,6.556 294.269,6.172 292.636,5.806 292.308,5.732 291.978,5.663 291.65,5.591 290.122,5.255 288.59,4.931 287.051,4.624 286.607,4.536 286.161,4.454 285.717,4.368 284.28,4.09 282.841,3.82 281.395,3.568 280.837,3.471 280.275,3.383 279.716,3.29 278.369,3.065 277.02,2.844 275.666,2.642 274.997,2.542 274.324,2.455 273.653,2.36 272.394,2.183 271.136,2.006 269.871,1.849 269.089,1.752 268.301,1.67 267.517,1.58 266.35,1.446 265.184,1.309 264.011,1.193 263.11,1.103 262.204,1.032 261.301,0.952 260.232,0.858 259.164,0.757 258.091,0.676 257.055,0.599 256.012,0.542 254.972,0.478 254.019,0.419 253.068,0.35 252.112,0.303 250.868,0.241 249.618,0.204 248.369,0.161 247.606,0.135 246.846,0.096 246.081,0.077 244.059,0.027 242.033,0 240,0 134.986,0 45.739,67.453 13.186,161.39 c 0.463,-1.356 0.939,-2.706 1.431,-4.048 0.176,0.157 0.398,0.225 0.563,0.4 12.797,13.672 36.086,26.328 67.344,36.594 4.203,1.383 6.484,5.898 5.109,10.094 -1.109,3.375 -4.234,5.508 -7.602,5.508 -0.828,0 -1.664,-0.125 -2.492,-0.398 -29.783,-9.778 -53.172,-21.912 -68.33,-35.342 1.216,-4.272 2.51,-8.51 3.935,-12.688 C 4.635,186.105 0,212.51 0,240 c 0,1.997 0.027,3.987 0.076,5.973 0.016,0.669 0.049,1.334 0.07,2.001 0.043,1.314 0.086,2.628 0.15,3.937 0.039,0.795 0.093,1.585 0.14,2.378 0.069,1.176 0.137,2.351 0.223,3.522 0.062,0.845 0.137,1.686 0.208,2.529 0.094,1.112 0.187,2.223 0.296,3.33 0.085,0.872 0.181,1.74 0.276,2.609 0.117,1.071 0.236,2.141 0.367,3.208 0.109,0.889 0.226,1.775 0.345,2.66 0.139,1.037 0.282,2.072 0.434,3.105 0.133,0.902 0.271,1.802 0.414,2.7 0.16,1.009 0.327,2.015 0.5,3.02 0.157,0.911 0.316,1.821 0.483,2.728 0.18,0.98 0.37,1.956 0.562,2.932 0.182,0.923 0.364,1.845 0.557,2.764 0.198,0.948 0.408,1.893 0.618,2.837 0.208,0.935 0.413,1.871 0.632,2.802 0.213,0.907 0.439,1.81 0.662,2.713 0.237,0.961 0.471,1.923 0.72,2.879 0.217,0.833 0.448,1.66 0.674,2.489 0.277,1.017 0.547,2.036 0.837,3.047 0.185,0.646 0.384,1.286 0.574,1.929 1.31,4.433 2.738,8.815 4.293,13.136 0.086,0.239 0.167,0.481 0.254,0.72 0.483,1.329 0.986,2.649 1.492,3.967 0.16,0.418 0.315,0.839 0.477,1.255 0.498,1.276 1.014,2.544 1.533,3.809 0.183,0.445 0.361,0.892 0.546,1.336 0.528,1.266 1.072,2.523 1.621,3.777 0.187,0.427 0.371,0.856 0.561,1.283 0.567,1.274 1.147,2.541 1.735,3.804 0.181,0.388 0.36,0.776 0.543,1.163 0.614,1.299 1.24,2.592 1.876,3.878 0.162,0.327 0.324,0.655 0.488,0.981 0.671,1.342 1.354,2.677 2.05,4.004 0.126,0.241 0.254,0.481 0.381,0.722 0.744,1.407 1.499,2.808 2.269,4.198 0.067,0.12 0.134,0.239 0.201,0.359 25.923,46.584 66.92,83.62 116.394,104.554 z M 170.32,74.32 c 2.961,-2.961 8.32,-2.961 11.359,0 1.516,1.516 2.32,3.602 2.32,5.68 0,2.078 -0.805,4.156 -2.32,5.602 C 180.156,87.117 178.078,88 176,88 173.922,88 171.836,87.117 170.32,85.68 168.875,84.156 168,82.078 168,80 c 0,-2.078 0.875,-4.164 2.32,-5.68 z m -65.485,31.708 c 6.196,-9.737 17.263,-13.784 24.718,-9.04 7.455,4.744 8.476,16.483 2.28,26.22 -6.196,9.737 -17.262,13.784 -24.718,9.04 -7.456,-4.744 -8.476,-16.483 -2.28,-26.22 z m -49.2,168.79 c -1.982,-9.17 2.103,-17.834 9.124,-19.352 7.021,-1.518 14.32,4.686 16.302,13.856 1.982,9.17 -2.103,17.834 -9.124,19.352 -7.021,1.517 -14.32,-4.687 -16.302,-13.856 z"
         style="fill:#db3f3d"
         inkscape:connector-curvature="0" />
      <path
         id="path3339"
         d="m 272.133,216 c -16.281,-0.461 -26.086,4.914 -35.023,9.484 -9.984,5.094 -18.586,9.477 -35.797,6.625 -4.375,-0.773 -8.484,2.219 -9.203,6.578 -0.727,4.352 2.219,8.477 6.578,9.203 4.688,0.781 8.93,1.125 12.82,1.125 14.695,0 24.242,-4.875 32.875,-9.281 8.125,-4.148 15.164,-7.742 26.594,-7.742 0.344,0 0.766,0.023 1.023,0.008 4.359,0 7.93,-3.5 8,-7.867 0.07,-4.422 -3.453,-8.063 -7.867,-8.133 z"
         style="fill:#db3f3d"
         inkscape:connector-curvature="0" />
      <path
         id="path3341"
         d="m 332.945,209.711 c -3.484,-2.742 -8.508,-2.125 -11.234,1.344 -1.664,2.117 -10.484,4.523 -18.156,4.961 -4.406,0.242 -7.781,4.016 -7.539,8.422 0.234,4.266 3.758,7.563 7.977,7.563 0.148,0 0.289,0 0.438,-0.008 5.187,-0.281 22.68,-1.906 29.859,-11.047 2.733,-3.477 2.124,-8.509 -1.345,-11.235 z"
         style="fill:#db3f3d"
         inkscape:connector-curvature="0" />
      <ellipse
         id="ellipse3343"
         ry="16"
         rx="20.896999"
         cy="114.618"
         cx="118.334"
         style="fill:#a03939"
         transform="matrix(-0.5369,0.8437,-0.8437,-0.5369,278.5632,76.3195)" />
      <ellipse
         id="ellipse3345"
         ry="16.987"
         rx="13.006"
         cy="272.069"
         cx="68.348"
         style="fill:#a03939"
         transform="matrix(0.9774,-0.2113,0.2113,0.9774,-55.9416,20.5831)" />
      <path
         id="path3347"
         d="m 176,88 c 2.078,0 4.156,-0.883 5.68,-2.398 1.515,-1.446 2.32,-3.524 2.32,-5.602 0,-2.078 -0.805,-4.164 -2.32,-5.68 -3.039,-2.961 -8.398,-2.961 -11.359,0 C 168.875,75.836 168,77.922 168,80 c 0,2.078 0.875,4.156 2.32,5.68 1.516,1.437 3.602,2.32 5.68,2.32 z"
         style="fill:#a03939"
         inkscape:connector-curvature="0" />
      <path
         id="path3349"
         d="m 362.32,186.221 c -1.445,1.516 -2.32,3.602 -2.32,5.68 0,2.078 0.875,4.156 2.32,5.68 1.516,1.438 3.602,2.32 5.68,2.32 2.078,0 4.156,-0.883 5.68,-2.398 1.516,-1.445 2.32,-3.523 2.32,-5.602 0,-2.079 -0.805,-4.164 -2.32,-5.68 -3.04,-2.961 -8.399,-2.961 -11.36,0 z"
         style="fill:#db3f3d"
         inkscape:connector-curvature="0" />
      <path
         id="path3351"
         d="m 394.32,218.32 c -1.445,1.516 -2.32,3.602 -2.32,5.68 0,2.078 0.875,4.156 2.32,5.68 1.516,1.438 3.602,2.32 5.68,2.32 2.078,0 4.156,-0.883 5.68,-2.398 1.516,-1.445 2.32,-3.523 2.32,-5.602 0,-2.079 -0.805,-4.164 -2.32,-5.68 -3.04,-2.961 -8.399,-2.961 -11.36,0 z"
         style="fill:#db3f3d"
         inkscape:connector-curvature="0" />
      <path
         id="path3353"
         d="m 194.32,322.32 c -1.445,1.516 -2.32,3.602 -2.32,5.68 0,2.078 0.875,4.156 2.32,5.68 1.516,1.438 3.602,2.32 5.68,2.32 2.078,0 4.156,-0.883 5.68,-2.398 1.516,-1.445 2.32,-3.523 2.32,-5.602 0,-2.079 -0.805,-4.164 -2.32,-5.68 -3.039,-2.961 -8.399,-2.961 -11.36,0 z"
         style="fill:#db3f3d"
         inkscape:connector-curvature="0" />
      <path
         id="path3355"
         d="m 298.32,362.32 c -1.445,1.516 -2.32,3.602 -2.32,5.68 0,2.078 0.875,4.156 2.32,5.68 1.516,1.438 3.602,2.32 5.68,2.32 2.078,0 4.156,-0.883 5.68,-2.398 1.516,-1.445 2.32,-3.523 2.32,-5.602 0,-2.079 -0.805,-4.164 -2.32,-5.68 -3.04,-2.961 -8.399,-2.961 -11.36,0 z"
         style="fill:#db3f3d"
         inkscape:connector-curvature="0" />
      <path
         id="path3357"
         d="m 120.141,284.586 c -0.828,4.336 2.023,8.523 6.367,9.352 3.173,0.604 6.453,1.13 9.705,1.676 0.185,-5.388 0.482,-10.747 1.017,-16.039 0.003,-0.032 0.005,-0.065 0.009,-0.097 v 0 c -2.552,-0.443 -5.243,-0.782 -7.745,-1.259 -4.346,-0.821 -8.533,2.023 -9.353,6.367 z"
         style="fill:#a03939"
         inkscape:connector-curvature="0" />
      <path
         id="path3359"
         d="m 77.539,209.539 c 0.828,0.273 1.664,0.398 2.492,0.398 3.367,0 6.492,-2.133 7.602,-5.508 1.375,-4.195 -0.906,-8.711 -5.109,-10.094 -31.258,-10.266 -54.547,-22.922 -67.344,-36.594 -0.164,-0.175 -0.387,-0.243 -0.563,-0.4 -0.492,1.342 -0.968,2.692 -1.431,4.048 -0.014,0.04 -0.028,0.079 -0.042,0.119 -1.425,4.178 -2.719,8.417 -3.935,12.688 15.158,13.431 38.547,25.565 68.33,35.343 z"
         style="fill:#a03939"
         inkscape:connector-curvature="0" />
      <path
         id="path3361"
         d="m 184.38,448.317 c -0.22,0.1 -0.442,0.2 -0.662,0.3 -13.765,6.265 -27.904,12.642 -37.177,12.414 1.987,0.841 4.007,1.618 6.021,2.406 1.838,0.714 3.659,1.464 5.519,2.133 1.696,0.616 3.421,1.169 5.135,1.747 2.661,0.889 5.331,1.755 8.03,2.559 0.76,0.227 1.524,0.444 2.288,0.663 5.467,-2.202 11.092,-4.754 16.817,-7.36 1.454,-0.663 2.915,-1.326 4.375,-1.989 0.001,-10e-4 0.002,-10e-4 0.004,-0.002 -10e-4,-10e-4 -10e-4,-10e-4 -10e-4,-10e-4 -3.608,-4.155 -7.029,-8.472 -10.349,-12.87 z"
         style="fill:#a03939"
         inkscape:connector-curvature="0" />
      <path
         id="path3363"
         d="m 430.607,94.224 c -18.068,8.047 -39.588,15.041 -64.396,20.713 -4.313,0.984 -7,5.273 -6.016,9.578 0.844,3.711 4.141,6.219 7.789,6.219 0.594,0 1.188,-0.063 1.789,-0.203 27.146,-6.2 50.742,-13.954 70.345,-22.992 -3.02,-4.552 -6.196,-8.987 -9.511,-13.315 z"
         style="fill:#db3f3d"
         inkscape:connector-curvature="0" />
    </g>
    <g
       id="g3367" />
    <g
       id="g3369" />
    <g
       id="g3371" />
    <g
       id="g3373" />
    <g
       id="g3375" />
    <g
       id="g3377" />
    <g
       id="g3379" />
    <g
       id="g3381" />
    <g
       id="g3383" />
    <g
       id="g3385" />
    <g
       id="g3387" />
    <g
       id="g3389" />
    <g
       id="g3391" />
    <g
       id="g3393" />
    <g
       id="g3395" />
  </g>
  <path
     sodipodi:nodetypes="cc"
     inkscape:connector-curvature="0"
     id="path3466"
     d="M -1.1491638,15.705349 C 47.50291,15.9649 52.193919,74.048284 0.28253506,73.891789"
     style="fill:none;stroke:#eef2f1;stroke-width:0.09685688;stroke-linecap:butt;stroke-linejoin:miter;stroke-miterlimit:4;stroke-dasharray:none;stroke-opacity:1" />
  <text
     xml:space="preserve"
     style="font-style:normal;font-variant:normal;font-weight:bold;font-stretch:normal;font-size:5.34564161px;line-height:1.25;font-family:Arial;-inkscape-font-specification:'Arial, Bold';font-variant-ligatures:normal;font-variant-caps:normal;font-variant-numeric:normal;font-feature-settings:normal;text-align:start;letter-spacing:0px;word-spacing:0px;writing-mode:lr-tb;text-anchor:start;fill:#777573;fill-opacity:1;stroke:none;stroke-width:0.26458332"
     x="7.3313355"
     y="85.264984"
     id="text5977"><tspan
       sodipodi:role="line"
       x="7.3313355"
       y="85.264984"
       id="tspan5967"
       style="stroke-width:0.26458332"><tspan
         x="7.3313355"
         y="85.264984"
         id="tspan5965"
         style="stroke-width:0.26458332">Earth is the only planet in </tspan></tspan><tspan
       sodipodi:role="line"
       x="7.3313355"
       y="91.947037"
       id="tspan5971"
       style="stroke-width:0.26458332"><tspan
         x="7.3313355"
         y="91.947037"
         id="tspan5969"
         style="stroke-width:0.26458332">our solar system not </tspan></tspan><tspan
       sodipodi:role="line"
       x="7.3313355"
       y="98.629089"
       id="tspan5975"
       style="stroke-width:0.26458332"><tspan
         x="7.3313355"
         y="98.629089"
         id="tspan5973"
         style="stroke-width:0.26458332">named after god.</tspan></tspan></text>
</svg>
