<?xml version="1.0" encoding="UTF-8" standalone="no"?>
<svg
   xmlns:dc="http://purl.org/dc/elements/1.1/"
   xmlns:cc="http://creativecommons.org/ns#"
   xmlns:rdf="http://www.w3.org/1999/02/22-rdf-syntax-ns#"
   xmlns:svg="http://www.w3.org/2000/svg"
   xmlns="http://www.w3.org/2000/svg"
   xmlns:sodipodi="http://sodipodi.sourceforge.net/DTD/sodipodi-0.dtd"
   xmlns:inkscape="http://www.inkscape.org/namespaces/inkscape"
   id="svg885"
   version="1.1"
   viewBox="0 0 79.374998 111.125"
   height="420"
   width="300"
   sodipodi:docname="014.svg"
   inkscape:version="0.92.4 (5da689c313, 2019-01-14)">
  <sodipodi:namedview
     pagecolor="#ffffff"
     bordercolor="#666666"
     borderopacity="1"
     objecttolerance="10"
     gridtolerance="10"
     guidetolerance="10"
     inkscape:pageopacity="0"
     inkscape:pageshadow="2"
     inkscape:window-width="1366"
     inkscape:window-height="745"
     id="namedview1053"
     showgrid="false"
     inkscape:zoom="0.96974646"
     inkscape:cx="-89.373885"
     inkscape:cy="163.11215"
     inkscape:window-x="-8"
     inkscape:window-y="-8"
     inkscape:window-maximized="1"
     inkscape:current-layer="svg885" />
  <defs
     id="defs879" />
  <metadata
     id="metadata882">
    <rdf:RDF>
      <cc:Work
         rdf:about="">
        <dc:format>image/svg+xml</dc:format>
        <dc:type
           rdf:resource="http://purl.org/dc/dcmitype/StillImage" />
        <dc:title />
      </cc:Work>
    </rdf:RDF>
  </metadata>
  <g
     transform="translate(0,-185.87498)"
     id="layer1"
     style="opacity:0.99;fill:#c153c9;fill-opacity:1">
    <rect
       y="185.87776"
       x="0.0034530037"
       height="111.11626"
       width="79.368423"
       id="rect1430"
       style="opacity:1;fill:#c153c9;fill-opacity:1;fill-rule:nonzero;stroke:none;stroke-width:0.26598862;stroke-linecap:round;stroke-linejoin:round;stroke-miterlimit:4;stroke-dasharray:none;stroke-opacity:1;paint-order:normal" />
    <flowRoot
       style="fill:#c153c9;fill-opacity:1;stroke:none;font-family:Arial;font-style:normal;font-weight:bold;font-size:20.20399984px;line-height:1.25;letter-spacing:0px;word-spacing:0px;-inkscape-font-specification:'Arial, Bold';font-stretch:normal;font-variant:normal;text-anchor:start;text-align:start;writing-mode:lr;font-variant-ligatures:normal;font-variant-caps:normal;font-variant-numeric:normal;font-feature-settings:normal"
       id="flowRoot2560"
       xml:space="preserve"><flowRegion
         id="flowRegion2562"
         style="fill:#c153c9;fill-opacity:1"><rect
           y="-33.558495"
           x="-159.6041"
           height="422.24377"
           width="438.40622"
           id="rect2564"
           style="fill:#c153c9;fill-opacity:1" /></flowRegion><flowPara
         id="flowPara2566" /></flowRoot>  </g>
  <text
     xml:space="preserve"
     style="font-style:normal;font-variant:normal;font-weight:bold;font-stretch:normal;font-size:6.3499999px;line-height:1.25;font-family:Arial;-inkscape-font-specification:'Arial, Bold';font-variant-ligatures:normal;font-variant-caps:normal;font-variant-numeric:normal;font-feature-settings:normal;text-align:start;letter-spacing:0px;word-spacing:0px;writing-mode:lr-tb;text-anchor:start;fill:#292626;fill-opacity:1;stroke:none;stroke-width:0.26458332"
     x="2.7011271"
     y="8.8064241"
     id="text2322"><tspan
       sodipodi:role="line"
       x="2.7011271"
       y="8.8064241"
       id="tspan2320"
       style="fill:#292626;fill-opacity:1;stroke-width:0.26458332"><tspan
         x="2.7011271"
         y="8.8064241"
         id="tspan2318"
         style="fill:#292626;fill-opacity:1;stroke-width:0.26458332">14.</tspan></tspan></text>
  <g
     id="g1713"
     transform="matrix(0.15104673,0,0,0.09895213,-2.8783961,13.332302)">
    <g
       id="g1567">
      <path
         id="path1561"
         d="m 195.663,342.607 -20.713,-5.788 c 0,0 -9.137,-3.352 -2.74,-9.747 l 17.666,-27.413 -11.879,-1.218 -31.068,36.551 c 0,0 -5.178,6.7 7.005,9.442 0,0 104.168,15.534 125.185,59.699 0,0 3.047,1.523 3.351,-6.398 0,0 4.263,-45.078 -86.807,-55.128 z"
         style="fill:#ce4c36"
         inkscape:connector-curvature="0" />
      <path
         id="path1563"
         d="m 228.253,362.556 c 0,0 6.245,15.688 4.264,23.15 0,0 3.199,1.217 4.265,-1.827 1.067,-3.049 3.198,-13.25 3.198,-16.752 -10e-4,-3.506 -11.727,-4.571 -11.727,-4.571 z"
         style="fill:#ce4c36"
         inkscape:connector-curvature="0" />
      <path
         id="path1565"
         d="m 246.732,371.594 c 0,0 7.378,18.538 5.038,27.355 0,0 3.78,1.441 5.042,-2.161 1.258,-3.6 3.778,-15.658 3.778,-19.797 -10e-4,-4.139 -13.858,-5.397 -13.858,-5.397 z"
         style="fill:#ce4c36"
         inkscape:connector-curvature="0" />
    </g>
    <path
       id="path1569"
       d="m 202.771,300.978 c 0,0 -3.655,6.702 1.828,16.042 0,0 0.608,39.595 -0.61,78.175 v 41.424 l 8.935,0.406 9.746,-128.938 z"
       style="fill:#e25e40"
       inkscape:connector-curvature="0" />
    <path
       id="path1571"
       d="m 173.123,269.911 c 0,0 12.183,4.061 3.655,27.616 0,0 6.906,6.904 14.215,6.091 0,0 13.809,-16.651 18.275,-23.959 0,0 -4.469,-26.4 -36.145,-9.748 z"
       style="fill:#d8d3d2"
       inkscape:connector-curvature="0" />
    <path
       id="path1573"
       d="m 239.32,241.078 -67.415,26.397 c 0,0 30.866,-3.251 32.083,12.184 l -4.061,23.554 c 0,0 9.341,0.405 14.01,3.453 4.67,3.047 9.137,4.266 10.762,3.857 0,0 -4.467,-28.833 0,-37.767 10e-4,0 5.685,-22.742 14.621,-31.678 z"
       style="fill:#ede6e4"
       inkscape:connector-curvature="0" />
    <path
       id="path1575"
       d="m 243.788,180.162 -73.914,37.767 c 0,0 -21.116,6.903 -29.646,16.245 0,0 -34.521,35.739 -6.903,69.039 0,0 0.405,-9.341 3.248,-10.56 l 5.687,13.403 c 0,0 4.062,-16.648 7.311,-18.681 0,0 8.12,11.776 10.151,12.589 0,0 6.499,-19.086 12.997,-24.772 0,0 15.026,-14.214 38.986,-18.681 0,0 29.645,-10.966 43.452,-21.93 l 7.312,-48.733 z"
       style="fill:#666565"
       inkscape:connector-curvature="0" />
    <path
       id="path1577"
       d="m 225.511,62.389 c 0,0 -52.388,6.497 -21.523,25.585 l 151.073,25.991 z"
       style="fill:#ce4c36"
       inkscape:connector-curvature="0" />
    <path
       id="path1579"
       d="m 225.511,62.389 c 0,0 -29.468,3.654 -31.182,13.534 -0.571,3.294 160.732,38.042 160.732,38.042 z"
       style="fill:#e25e40"
       inkscape:connector-curvature="0" />
    <path
       id="path1581"
       d="m 296.988,171.632 c 0,0 -11.778,-51.17 -68.227,-71.883 0,0 -29.646,-13.403 -32.896,-23.553 0,0 10.559,-12.185 29.646,-13.808 0,0 4.468,-32.896 -34.113,-26.803 -10.59,1.672 -28.58,13.028 -29.646,30.051 -0.407,6.499 -3.248,27.212 24.773,35.738 0,0 59.699,24.367 51.17,51.171 0,0 -1.218,24.367 -30.458,32.895 0,0 -33.2,13.707 -39.292,33.199 0,0 44.164,-8.833 70.967,-30.762 l -9.746,30.457 c 0,0 20.712,-8.527 28.022,-14.619 0,0 -6.093,31.675 -3.656,37.767 0,0 13.403,-7.31 18.275,-18.274 0,0 3.656,8.528 2.438,17.055 0,0 18.275,-17.055 15.838,-35.33 0,0 3.251,6.092 4.063,9.34 0,0.001 10.965,-7.714 2.842,-42.641 z"
       style="fill:#ede6e4"
       inkscape:connector-curvature="0" />
    <circle
       id="circle1583"
       r="6.092"
       cy="63.609001"
       cx="197.49001"
       style="fill:#d1d1d1" />
    <circle
       id="circle1585"
       r="5.4320002"
       cy="63.609001"
       cx="197.49001"
       style="fill:#ffffff" />
    <circle
       id="circle1587"
       r="3.3510001"
       cy="63.609001"
       cx="197.49001"
       style="fill:#666565" />
    <circle
       id="circle1589"
       r="1.257"
       cy="62.348999"
       cx="198.75"
       style="fill:#ede6e4" />
    <path
       id="path1591"
       d="m 263.28,448.399 c 1.828,-1.015 7.411,4.466 7.412,1.217 0,-3.251 -5.848,-6.108 -8.63,-7.31 -16.802,-7.267 -37.362,-7.107 -37.362,-7.107 -37.971,-3.858 -54.014,21.118 -54.014,21.118 -2.234,9.139 10.91,-2.257 16.246,-4.061 28.224,-9.542 83.354,7.005 85.486,4.263 2.133,-2.739 -10.965,-7.104 -9.138,-8.12 z"
       style="fill:#e25e40"
       inkscape:connector-curvature="0" />
    <g
       id="g1597">
      <path
         id="path1593"
         d="m 420.997,187.986 c -8.339,-12.044 -25.71,-14.45 -38.799,-5.382 -13.093,9.072 -16.939,26.178 -8.597,38.217 8.337,12.041 25.707,14.448 38.8,5.378 13.087,-9.065 16.938,-26.176 8.596,-38.213 z"
         style="fill:#e9c29c"
         inkscape:connector-curvature="0" />
      <path
         id="path1595"
         d="m 386.363,180.817 c -1.378,-1.994 -5.057,-1.837 -8.21,0.347 -3.151,2.183 -4.588,5.571 -3.208,7.563 1.382,1.994 5.236,1.978 8.389,-0.208 3.154,-2.183 4.412,-5.708 3.029,-7.702 z"
         style="fill:#e9c29c"
         inkscape:connector-curvature="0" />
    </g>
    <path
       id="path1599"
       d="m 375.719,203.327 c -4.46,18.495 12.588,13.253 12.588,13.253 -12.812,0.663 -12.588,-13.253 -12.588,-13.253 z"
       style="fill:#d6af90"
       inkscape:connector-curvature="0" />
    <ellipse
       id="ellipse1601"
       ry="5.1399999"
       rx="4.8649998"
       cy="210.377"
       cx="402.009"
       style="fill:#343433"
       transform="matrix(-0.5696,-0.8219,0.8219,-0.5696,458.0859,660.6266)" />
    <path
       id="path1603"
       d="m 403.882,206.907 c -0.611,-0.88 -1.862,-1.073 -2.798,-0.425 -0.932,0.646 -1.194,1.888 -0.584,2.769 0.613,0.884 1.866,1.074 2.8,0.426 0.934,-0.647 1.194,-1.884 0.582,-2.77 z"
       style="fill:#ffffff"
       inkscape:connector-curvature="0" />
    <path
       id="path1605"
       d="m 391.784,186.725 c -1.532,-2.212 -4.667,-2.692 -7,-1.072 -2.333,1.614 -2.984,4.715 -1.453,6.928 1.531,2.208 4.663,2.688 6.995,1.073 2.336,-1.617 2.99,-4.72 1.458,-6.929 z"
       style="fill:#343433"
       inkscape:connector-curvature="0" />
    <path
       id="path1607"
       d="m 389.268,185.897 c -0.61,-0.883 -1.862,-1.076 -2.798,-0.425 -0.931,0.643 -1.194,1.885 -0.582,2.767 0.614,0.886 1.869,1.079 2.8,0.433 0.937,-0.65 1.196,-1.89 0.58,-2.775 z"
       style="fill:#ffffff"
       inkscape:connector-curvature="0" />
    <path
       id="path1609"
       d="m 421.059,220.842 c -2.083,-3.005 -7.274,-3.016 -11.596,-0.021 -4.318,2.993 -6.134,7.855 -4.054,10.861 2.084,3.006 7.276,3.014 11.597,0.022 4.317,-2.991 6.134,-7.856 4.053,-10.862 z"
       style="fill:#d6af90"
       inkscape:connector-curvature="0" />
    <path
       id="path1611"
       d="m 420.533,220.572 c -1.88,-2.711 -6.779,-2.931 -10.826,-0.127 -4.049,2.803 -5.71,7.567 -3.831,10.282 1.88,2.712 6.686,2.638 10.731,-0.164 4.046,-2.806 5.807,-7.277 3.926,-9.991 z"
       style="fill:#e9c29c"
       inkscape:connector-curvature="0" />
    <g
       id="g1617">
      <ellipse
         id="ellipse1613"
         ry="1.4859999"
         rx="1.351"
         cy="202.709"
         cx="383.56"
         style="fill:#d6af90" />
      <ellipse
         id="ellipse1615"
         ry="1.351"
         rx="1.4859999"
         cy="207.38901"
         cx="387.51999"
         style="fill:#d6af90" />
    </g>
    <g
       id="g1623">
      <path
         id="path1619"
         d="m 377.451,210.912 -37.963,-100.35 -3.822,-0.838 -35.737,112.791 0.221,0.002 c -0.873,3.394 -1.338,6.951 -1.338,10.617 0,23.45 19.01,42.459 42.458,42.459 23.45,0 42.459,-19.009 42.459,-42.459 0,-8.148 -2.3,-15.759 -6.278,-22.222 z"
         style="fill:#edc92f"
         inkscape:connector-curvature="0" />
      <path
         id="path1621"
         d="m 340.698,98.32 c -0.106,-0.103 -0.212,-0.206 -0.316,-0.306 -11.814,-11.393 -16.548,-3.675 -16.548,-3.675 5.759,1.467 12.378,12.126 12.378,12.126 l 3.511,1.384 c 6.913,-5.759 12.917,-16.233 12.917,-16.233 -5.448,6.392 -11.942,6.704 -11.942,6.704 z"
         style="fill:#edc92f"
         inkscape:connector-curvature="0" />
    </g>
    <path
       id="path1625"
       d="m 367.982,206.229 c -2.909,-2.909 -18.922,-65.227 -24.008,-63.681 -5.697,1.73 -0.625,56.483 -6.925,72.961 -11.078,28.966 -22.91,44.561 -22.91,44.561 14.869,14.869 38.973,14.869 53.842,0 14.869,-14.869 14.869,-38.974 0.001,-53.841 z"
       style="fill:#edcf54"
       inkscape:connector-curvature="0" />
    <g
       id="g1627" />
    <g
       id="g1629" />
    <g
       id="g1631" />
    <g
       id="g1633" />
    <g
       id="g1635" />
    <g
       id="g1637" />
    <g
       id="g1639" />
    <g
       id="g1641" />
    <g
       id="g1643" />
    <g
       id="g1645" />
    <g
       id="g1647" />
    <g
       id="g1649" />
    <g
       id="g1651" />
    <g
       id="g1653" />
    <g
       id="g1655" />
  </g>
  <text
     xml:space="preserve"
     style="font-style:normal;font-variant:normal;font-weight:bold;font-stretch:normal;font-size:7.05555534px;line-height:1.25;font-family:Arial;-inkscape-font-specification:'Arial, Bold';font-variant-ligatures:normal;font-variant-caps:normal;font-variant-numeric:normal;font-feature-settings:normal;text-align:start;letter-spacing:0px;word-spacing:0px;writing-mode:lr-tb;text-anchor:start;fill:#ffa5ff;fill-opacity:1;stroke:none;stroke-width:0.26458332"
     x="14.187403"
     y="80.920319"
     id="text3470"><tspan
       sodipodi:role="line"
       x="14.187403"
       y="80.920319"
       id="tspan3460"
       style="stroke-width:0.26458332"><tspan
         x="14.187403"
         y="80.920319"
         id="tspan3458"
         style="stroke-width:0.26458332">Newborns </tspan></tspan><tspan
       sodipodi:role="line"
       x="14.187403"
       y="89.739769"
       id="tspan3464"
       style="stroke-width:0.26458332"><tspan
         x="14.187403"
         y="89.739769"
         id="tspan3462"
         style="stroke-width:0.26458332">do not shed </tspan></tspan><tspan
       sodipodi:role="line"
       x="14.187403"
       y="98.559212"
       id="tspan3468"
       style="stroke-width:0.26458332"><tspan
         x="14.187403"
         y="98.559212"
         id="tspan3466"
         style="stroke-width:0.26458332">tears</tspan></tspan></text>
</svg>
