<?xml version="1.0" encoding="UTF-8" standalone="no"?>
<svg
   xmlns:dc="http://purl.org/dc/elements/1.1/"
   xmlns:cc="http://creativecommons.org/ns#"
   xmlns:rdf="http://www.w3.org/1999/02/22-rdf-syntax-ns#"
   xmlns:svg="http://www.w3.org/2000/svg"
   xmlns="http://www.w3.org/2000/svg"
   id="svg885"
   version="1.1"
   viewBox="0 0 79.374998 111.125"
   height="420"
   width="300">
  <defs
     id="defs879" />
  <metadata
     id="metadata882">
    <rdf:RDF>
      <cc:Work
         rdf:about="">
        <dc:format>image/svg+xml</dc:format>
        <dc:type
           rdf:resource="http://purl.org/dc/dcmitype/StillImage" />
        <dc:title></dc:title>
      </cc:Work>
    </rdf:RDF>
  </metadata>
  <g
     transform="translate(0,-185.87498)"
     id="layer1"
     style="opacity:0.99;fill:#16207b;fill-opacity:1">
    <rect
       y="185.87776"
       x="0.0034530037"
       height="111.11626"
       width="79.368423"
       id="rect1430"
       style="opacity:1;fill:#16207b;fill-opacity:1;fill-rule:nonzero;stroke:none;stroke-width:0.26598862;stroke-linecap:round;stroke-linejoin:round;stroke-miterlimit:4;stroke-dasharray:none;stroke-opacity:1;paint-order:normal" />
    <flowRoot
       style="fill:#16207b;fill-opacity:1;stroke:none;font-family:Arial;font-style:normal;font-weight:bold;font-size:20.20399984px;line-height:1.25;letter-spacing:0px;word-spacing:0px;-inkscape-font-specification:'Arial, Bold';font-stretch:normal;font-variant:normal;text-anchor:start;text-align:start;writing-mode:lr;font-variant-ligatures:normal;font-variant-caps:normal;font-variant-numeric:normal;font-feature-settings:normal"
       id="flowRoot2560"
       xml:space="preserve"><flowRegion
         id="flowRegion2562"
         style="fill:#16207b;fill-opacity:1"><rect
           y="-33.558495"
           x="-159.6041"
           height="422.24377"
           width="438.40622"
           id="rect2564"
           style="fill:#16207b;fill-opacity:1" /></flowRegion><flowPara
         id="flowPara2566" /></flowRoot>  </g>
  <text
     xml:space="preserve"
     style="font-style:normal;font-variant:normal;font-weight:bold;font-stretch:normal;font-size:6.3499999px;line-height:1.25;font-family:Arial;-inkscape-font-specification:'Arial, Bold';font-variant-ligatures:normal;font-variant-caps:normal;font-variant-numeric:normal;font-feature-settings:normal;text-align:start;letter-spacing:0px;word-spacing:0px;writing-mode:lr-tb;text-anchor:start;fill:#c9ccc7;fill-opacity:1;stroke:none;stroke-width:0.26458332"
     x="2.7011271"
     y="8.8064241"
     id="text2322"><tspan
       x="2.7011271"
       y="8.8064241"
       id="tspan2320"
       style="fill:#c9ccc7;fill-opacity:1;stroke-width:0.26458332"><tspan
         x="2.7011271"
         y="8.8064241"
         id="tspan2318"
         style="fill:#c9ccc7;fill-opacity:1;stroke-width:0.26458332">28.</tspan></tspan></text>
  <style
     id="style1209"
     type="text/css">
	.st0{fill:#6D6C6B;}
	.st1{fill:#60BAE2;}
	.st2{fill:#F9D0B4;}
	.st3{fill:#F45D64;}
	.st4{fill:#E9E9EA;}
	.st5{fill:#6DCC6D;}
	.st6{fill:#F9D97D;}
	.st7{fill:#231F20;}
</style>
  <flowRoot
     style="fill:black;fill-opacity:1;stroke:none;font-family:Arial;font-style:normal;font-weight:bold;font-size:20.20399984px;line-height:1.25;letter-spacing:0px;word-spacing:0px;-inkscape-font-specification:'Arial, Bold';font-stretch:normal;font-variant:normal;text-anchor:start;text-align:start;writing-mode:lr;font-variant-ligatures:normal;font-variant-caps:normal;font-variant-numeric:normal;font-feature-settings:normal"
     id="flowRoot1045"
     xml:space="preserve"><flowRegion
       id="flowRegion1047"><rect
         y="289.03793"
         x="186.64673"
         height="88.682976"
         width="56.715855"
         id="rect1049" /></flowRegion><flowPara
       id="flowPara1051"></flowPara></flowRoot>  <g
     transform="matrix(0.23692151,0,0,0.23591419,9.9165828,4.5052296)"
     id="g3974">
    <path
       style="fill:#6bdddd"
       d="M 156.847,233.615 H 20.654 v -19.148 c 0,-17.551 14.228,-31.778 31.778,-31.778 h 72.636 c 17.551,0 31.778,14.228 31.778,31.778 v 19.148 z"
       id="path3871" />
    <path
       style="fill:#f9cfcf"
       d="m 148.163,99.397 c -0.126,0 -0.248,0.016 -0.373,0.019 v -5.521 c 0,-32.268 -26.433,-58.427 -59.039,-58.427 -32.607,0 -59.039,26.159 -59.039,58.427 v 5.521 c -0.125,-0.003 -0.247,-0.019 -0.373,-0.019 -9.948,0 -18.012,7.981 -18.012,17.825 0,9.845 8.064,17.825 18.012,17.825 0.653,0 1.297,-0.039 1.933,-0.106 6.092,25.848 29.506,45.109 57.48,45.109 27.975,0 51.388,-19.261 57.48,-45.109 0.635,0.067 1.279,0.106 1.933,0.106 9.948,0 18.012,-7.981 18.012,-17.825 -0.002,-9.845 -8.066,-17.825 -18.014,-17.825 z"
       id="path3873" />
    <path
       style="fill:#f9cfcf"
       d="m 93.114,179.874 c -0.238,0.019 -0.476,0.039 -0.715,0.054 -0.37,0.023 -0.741,0.042 -1.114,0.058 -0.841,0.038 -1.685,0.064 -2.535,0.064 -0.85,0 -1.695,-0.026 -2.536,-0.064 -0.372,-0.016 -0.744,-0.035 -1.114,-0.058 -0.238,-0.016 -0.475,-0.036 -0.712,-0.054 -8.695,-0.63 -16.868,-3.108 -24.108,-7.065 v 6.784 c 0,15.773 12.336,28.559 27.554,28.559 h 1.832 c 15.218,0 27.554,-12.786 27.554,-28.559 v -6.785 c -7.239,3.958 -15.412,6.436 -24.106,7.066 z"
       id="path3875" />
    <path
       style="fill:#3762cc"
       d="M 156.847,235.615 H 20.654 c -1.104,0 -2,-0.896 -2,-2 v -19.148 c 0,-18.625 15.153,-33.777 33.778,-33.777 H 58.3 c -0.013,-0.368 -0.02,-0.734 -0.02,-1.097 v -6.783 c 0,-0.706 0.373,-1.36 0.98,-1.721 0.607,-0.358 1.36,-0.373 1.979,-0.034 7.19,3.93 15.027,6.226 23.293,6.824 l 0.699,0.054 c 0.348,0.021 0.707,0.04 1.067,0.056 1.635,0.074 3.273,0.074 4.896,0 0.367,-0.016 0.725,-0.034 1.083,-0.056 l 0.681,-0.053 c 8.275,-0.6 16.111,-2.896 23.302,-6.826 0.619,-0.339 1.372,-0.325 1.979,0.034 0.607,0.36 0.98,1.015 0.98,1.721 v 6.784 c 0,0.362 -0.007,0.729 -0.02,1.097 h 5.868 c 18.625,0 33.778,15.152 33.778,33.777 v 19.148 c 0.002,1.105 -0.894,2 -1.998,2 z m -134.193,-4 h 132.192 v -17.148 c 0,-16.419 -13.358,-29.777 -29.778,-29.777 h -8.012 c -0.566,0 -1.106,-0.24 -1.486,-0.661 -0.379,-0.421 -0.562,-0.982 -0.503,-1.546 0.102,-0.978 0.153,-1.949 0.153,-2.89 v -3.514 c -6.87,3.285 -14.242,5.23 -21.961,5.79 l -0.729,0.056 c -0.393,0.023 -0.775,0.044 -1.16,0.06 -1.729,0.077 -3.503,0.077 -5.245,0 -0.378,-0.016 -0.762,-0.036 -1.145,-0.06 l -0.747,-0.057 C 76.522,181.309 69.15,179.364 62.281,176.08 v 3.513 c 0,0.94 0.052,1.912 0.153,2.89 0.059,0.563 -0.125,1.125 -0.503,1.546 -0.379,0.421 -0.919,0.661 -1.486,0.661 h -8.012 c -16.42,0 -29.778,13.358 -29.778,29.777 v 17.148 z"
       id="path3877" />
    <path
       style="fill:#3762cc"
       d="m 88.75,182.051 c -27.943,0 -51.97,-18.423 -59.016,-45.008 -0.133,0.003 -0.266,0.004 -0.397,0.004 -11.035,0 -20.012,-8.894 -20.012,-19.825 0,-10.39 8.108,-18.938 18.385,-19.761 v -3.566 c 0,-33.319 27.382,-60.427 61.04,-60.427 33.658,0 61.04,27.107 61.04,60.427 v 3.566 c 10.277,0.823 18.385,9.371 18.385,19.761 0,10.932 -8.978,19.825 -20.012,19.825 -0.131,0 -0.264,-0.001 -0.397,-0.004 -7.045,26.585 -31.073,45.008 -59.016,45.008 z m -57.478,-49.11 c 0.917,0 1.73,0.63 1.945,1.541 6.046,25.652 28.882,43.568 55.533,43.568 26.651,0 49.487,-17.916 55.533,-43.568 0.231,-0.98 1.159,-1.626 2.158,-1.53 0.59,0.063 1.169,0.095 1.722,0.095 8.829,0 16.012,-7.1 16.012,-15.825 0,-8.723 -7.178,-15.82 -16.002,-15.825 -0.162,0.011 -0.256,0.017 -0.352,0.019 -0.538,0.003 -1.053,-0.198 -1.435,-0.575 -0.382,-0.376 -0.597,-0.889 -0.597,-1.425 v -5.521 c 0,-31.114 -25.588,-56.427 -57.04,-56.427 -31.452,0 -57.04,25.313 -57.04,56.427 v 5.521 c 0,0.536 -0.215,1.049 -0.597,1.425 -0.382,0.376 -0.872,0.57 -1.435,0.575 -0.096,-0.002 -0.191,-0.008 -0.286,-0.015 -0.002,0 -0.006,0 -0.008,0 -8.882,0 -16.06,7.098 -16.06,15.821 0,8.726 7.183,15.825 16.012,15.825 0.56,0 1.123,-0.031 1.722,-0.095 0.074,-0.007 0.145,-0.011 0.215,-0.011 z"
       id="path3879" />
    <path
       style="fill:#4671c6"
       d="M 10.314,78.714 C 7.642,71.56 7.453,63.716 9.775,56.441 l 0.2,-0.625 c 3.799,-11.901 13.809,-20.766 26.081,-23.1 5.793,-1.102 11.772,-0.681 17.353,1.222 l 0.652,0.222 c 0.038,0.338 0.095,0.678 0.177,1.016 2.68,10.954 7.599,21.05 14.284,29.726 -5.802,16.162 -12.9,25.376 -18.311,30.478 v 0.001 l -7.102,7.209 -13.771,-3.193 c -3.763,0 -7.254,1.145 -10.143,3.098 z"
       id="path3881" />
    <path
       style="fill:#4671c6"
       d="M 158.717,54.216 C 154.085,39.843 143.504,28.422 129.977,22.791 l 0.001,-0.008 C 82.424,-0.626 56.415,27.616 56.415,27.616 54.457,29.5 53.549,32.365 54.237,35.175 59.696,57.49 74.405,76.279 94.534,86.647 l 0.028,0.014 c 4.345,2.238 8.883,4.066 13.555,5.46 1.162,0.347 2.099,-0.999 1.395,-2.003 L 99.734,76.165 c -0.852,-1.216 0.645,-2.701 1.807,-1.79 10.812,8.466 31.819,22.492 53.069,23.196 l 3.46,-9.476 c 3.978,-10.89 4.206,-22.838 0.647,-33.879 z"
       id="path3883" />
    <g
       style="fill:#3762cc"
       id="g3899">
      <path
         d="m 43.109,104.59 c -0.15,0 -0.302,-0.017 -0.452,-0.052 l -13.542,-3.14 c -3.156,0.042 -6.195,0.992 -8.801,2.753 -0.508,0.343 -1.146,0.434 -1.729,0.248 -0.584,-0.188 -1.05,-0.631 -1.264,-1.205 L 8.44,79.414 c 0,-0.001 0,-0.001 0,-0.001 C 5.625,71.874 5.422,63.499 7.869,55.833 l 0.2,-0.625 c 4.026,-12.612 14.606,-21.983 27.612,-24.457 6.12,-1.165 12.473,-0.717 18.372,1.294 l 0.653,0.223 c 0.733,0.25 1.255,0.901 1.341,1.672 0.028,0.254 0.071,0.509 0.133,0.763 2.593,10.603 7.278,20.353 13.925,28.979 0.416,0.54 0.528,1.255 0.298,1.896 -6.059,16.882 -13.579,26.316 -18.82,31.258 l -7.049,7.158 c -0.381,0.385 -0.896,0.596 -1.425,0.596 z M 29.338,97.396 c 0.152,0 0.304,0.018 0.452,0.052 l 12.68,2.94 6.316,-6.411 C 53.657,89.382 60.547,80.739 66.268,65.242 59.638,56.398 54.941,46.457 52.3,35.677 47.189,34.021 41.713,33.676 36.428,34.681 24.866,36.88 15.459,45.212 11.88,56.425 l -0.2,0.625 c -2.176,6.815 -1.996,14.261 0.507,20.965 l 8.048,21.551 c 2.807,-1.425 5.911,-2.17 9.103,-2.17 z"
         id="path3885" />
      <path
         d="m 154.61,99.573 c -0.022,0 -0.044,0 -0.067,-10e-4 -19.625,-0.65 -38.956,-12.305 -50.57,-20.84 l 7.176,10.24 c 0.822,1.172 0.812,2.681 -0.026,3.843 -0.825,1.146 -2.23,1.629 -3.578,1.224 -4.783,-1.427 -9.459,-3.311 -13.899,-5.6 C 72.958,77.783 57.896,58.548 52.294,35.651 c -0.832,-3.4 0.201,-7.011 2.694,-9.438 0.653,-0.694 7.347,-7.572 19.746,-11.69 11.71,-3.891 30.956,-5.927 56.128,6.466 0.016,0.008 0.032,0.016 0.048,0.024 14.122,5.935 24.945,17.803 29.711,32.589 3.681,11.42 3.442,23.914 -0.672,35.181 l -3.46,9.476 c -0.289,0.791 -1.041,1.314 -1.879,1.314 z M 100.759,72.09 c 0.702,0 1.408,0.236 2.016,0.713 10.241,8.019 30.218,21.444 50.461,22.703 l 2.956,-8.095 c 3.811,-10.434 4.031,-22.005 0.623,-32.582 -4.424,-13.726 -14.485,-24.73 -27.605,-30.191 -0.094,-0.039 -0.184,-0.085 -0.269,-0.137 -45.583,-22.348 -70.803,4.2 -71.053,4.47 -0.027,0.03 -0.056,0.059 -0.084,0.087 -1.5,1.442 -2.121,3.604 -1.622,5.643 5.326,21.771 19.639,40.058 39.27,50.17 3.624,1.867 7.391,3.444 11.241,4.71 L 98.098,77.315 c -0.953,-1.359 -0.771,-3.174 0.433,-4.313 0.636,-0.606 1.429,-0.912 2.228,-0.912 z"
         id="path3887" />
      <path
         d="m 52.767,115.395 v 7.747 c 0,3.728 3.037,6.761 6.771,6.761 3.733,0 6.77,-3.033 6.77,-6.761 v -10.51 z"
         id="path3889" />
      <path
         d="m 47.934,118.381 c -0.931,0 -1.765,-0.652 -1.958,-1.601 -0.221,-1.082 0.478,-2.139 1.56,-2.359 l 23.203,-4.733 c 1.08,-0.222 2.138,0.478 2.359,1.561 0.221,1.082 -0.478,2.139 -1.56,2.359 l -23.203,4.733 c -0.134,0.027 -0.269,0.04 -0.401,0.04 z"
         id="path3891" />
      <path
         d="m 123.991,115.395 v 7.747 c 0,3.728 -3.037,6.761 -6.771,6.761 -3.733,0 -6.77,-3.033 -6.77,-6.761 v -10.51 z"
         id="path3893" />
      <path
         d="m 128.823,118.381 c -0.132,0 -0.267,-0.013 -0.402,-0.04 l -23.203,-4.733 c -1.082,-0.221 -1.781,-1.277 -1.56,-2.359 0.22,-1.082 1.272,-1.778 2.359,-1.561 l 23.203,4.733 c 1.082,0.221 1.781,1.277 1.56,2.359 -0.192,0.948 -1.026,1.601 -1.957,1.601 z"
         id="path3895" />
      <path
         d="m 100.165,153.968 c -1.104,0 -2,-0.896 -2,-2 0,-1.404 -0.624,-2.765 -1.803,-3.933 -1.048,-1.038 -2.482,-1.851 -4.146,-2.348 -1.001,-0.299 -2.137,-0.444 -3.472,-0.444 -1.335,0 -2.471,0.146 -3.472,0.444 -1.664,0.497 -3.098,1.31 -4.147,2.348 -1.179,1.168 -1.802,2.528 -1.802,3.933 0,1.104 -0.896,2 -2,2 -1.104,0 -2,-0.896 -2,-2 0,-2.46 1.061,-4.866 2.987,-6.774 1.515,-1.5 3.526,-2.653 5.816,-3.338 1.378,-0.412 2.889,-0.612 4.618,-0.612 1.729,0 3.239,0.2 4.618,0.612 2.291,0.685 4.302,1.839 5.815,3.338 1.927,1.908 2.988,4.314 2.988,6.774 0,1.104 -0.896,2 -2,2 z"
         id="path3897" />
    </g>
    <path
       style="fill:#a4c9ff"
       d="m 59.638,137.552 c -3.085,0 -6.04,-1.475 -7.903,-3.944 -0.831,-1.103 -0.612,-2.67 0.491,-3.502 1.103,-0.83 2.67,-0.61 3.501,0.49 0.937,1.243 2.363,1.956 3.911,1.956 1.625,0 3.142,-0.808 4.058,-2.161 0.774,-1.144 2.329,-1.445 3.472,-0.669 1.144,0.774 1.443,2.328 0.669,3.472 -1.848,2.729 -4.913,4.358 -8.199,4.358 z"
       id="path3901" />
    <path
       style="fill:#a4c9ff"
       d="m 117.824,137.552 c -3.084,0 -6.039,-1.475 -7.902,-3.944 -0.832,-1.103 -0.612,-2.67 0.49,-3.502 1.102,-0.83 2.67,-0.611 3.501,0.49 0.938,1.243 2.363,1.956 3.911,1.956 1.625,0 3.142,-0.808 4.058,-2.161 0.773,-1.144 2.327,-1.445 3.471,-0.669 1.144,0.773 1.443,2.328 0.669,3.472 -1.846,2.728 -4.911,4.358 -8.198,4.358 z"
       id="path3903" />
    <path
       style="fill:#4671c6"
       d="m 241.838,248 h -94.667 c -3.314,0 -6,-2.686 -6,-6 v -51.862 c 0,-3.314 2.686,-6 6,-6 h 94.667 c 3.314,0 6,2.686 6,6 V 242 c 0,3.314 -2.686,6 -6,6 z"
       id="path3905" />
    <path
       style="fill:#a4c9ff"
       d="m 154.172,232 v -31.862 c 0,-1.657 1.343,-3 3,-3 h 74.667 c 1.657,0 3,1.343 3,3 V 232 c 0,1.657 -1.343,3 -3,3 h -74.667 c -1.657,0 -3,-1.343 -3,-3 z"
       id="path3907" />
    <path
       style="fill:#f9a7a7"
       d="m 218.005,184.167 h -47 v -7.333 c 0,-1.657 1.343,-3 3,-3 h 41 c 1.657,0 3,1.343 3,3 z"
       id="path3909" />
    <path
       style="fill:#e0ebfc"
       d="m 171.935,213.363 c 1.031,0 1.918,-0.303 2.664,-0.908 0.745,-0.605 1.118,-1.473 1.118,-2.605 0,-0.862 -0.297,-1.605 -0.891,-2.227 -0.594,-0.622 -1.395,-0.933 -2.403,-0.933 -0.684,0 -1.247,0.095 -1.689,0.286 -0.443,0.191 -0.793,0.443 -1.051,0.756 -0.258,0.314 -0.501,0.717 -0.731,1.21 -0.23,0.493 -0.44,0.958 -0.63,1.395 -0.112,0.235 -0.314,0.42 -0.605,0.555 -0.292,0.134 -0.628,0.202 -1.009,0.202 -0.448,0 -0.86,-0.182 -1.235,-0.546 -0.375,-0.364 -0.563,-0.849 -0.563,-1.454 0,-0.582 0.177,-1.196 0.53,-1.84 0.353,-0.644 0.868,-1.257 1.546,-1.84 0.678,-0.583 1.521,-1.05 2.53,-1.403 1.009,-0.353 2.135,-0.529 3.378,-0.529 1.086,0 2.078,0.148 2.975,0.445 0.897,0.297 1.675,0.726 2.336,1.286 0.661,0.561 1.16,1.21 1.496,1.95 0.336,0.74 0.504,1.535 0.504,2.387 0,1.121 -0.244,2.082 -0.731,2.882 -0.487,0.801 -1.185,1.583 -2.093,2.345 0.874,0.471 1.611,1.008 2.21,1.614 0.599,0.605 1.05,1.274 1.353,2.008 0.302,0.734 0.454,1.527 0.454,2.378 0,1.02 -0.205,2.006 -0.613,2.958 -0.409,0.953 -1.011,1.801 -1.807,2.546 -0.795,0.745 -1.739,1.328 -2.832,1.748 -1.092,0.42 -2.3,0.63 -3.622,0.63 -1.344,0 -2.549,-0.241 -3.613,-0.723 -1.065,-0.481 -1.941,-1.084 -2.63,-1.807 -0.689,-0.723 -1.21,-1.471 -1.563,-2.244 -0.353,-0.773 -0.529,-1.412 -0.529,-1.916 0,-0.65 0.21,-1.174 0.63,-1.572 0.42,-0.397 0.944,-0.597 1.571,-0.597 0.314,0 0.616,0.093 0.908,0.277 0.292,0.185 0.482,0.406 0.572,0.664 0.583,1.558 1.207,2.714 1.874,3.471 0.667,0.756 1.605,1.134 2.815,1.134 0.695,0 1.364,-0.17 2.009,-0.512 0.644,-0.342 1.176,-0.849 1.597,-1.521 0.42,-0.672 0.63,-1.451 0.63,-2.336 0,-1.311 -0.359,-2.339 -1.076,-3.084 -0.717,-0.745 -1.714,-1.118 -2.992,-1.118 -0.225,0 -0.572,0.023 -1.042,0.067 -0.47,0.045 -0.773,0.067 -0.907,0.067 -0.617,0 -1.093,-0.154 -1.429,-0.462 -0.336,-0.308 -0.504,-0.737 -0.504,-1.286 0,-0.538 0.202,-0.972 0.605,-1.303 0.403,-0.331 1.003,-0.496 1.798,-0.496 h 0.687 z"
       id="path3911" />
    <path
       style="fill:#e0ebfc"
       d="m 200.19,225.738 -0.954,-2.508 h -8.123 l -0.954,2.563 c -0.373,1 -0.69,1.674 -0.954,2.023 -0.264,0.35 -0.695,0.525 -1.295,0.525 -0.509,0 -0.958,-0.187 -1.349,-0.559 -0.391,-0.372 -0.586,-0.795 -0.586,-1.267 0,-0.272 0.045,-0.554 0.136,-0.845 0.091,-0.291 0.241,-0.695 0.45,-1.213 l 5.11,-12.974 c 0.146,-0.373 0.32,-0.82 0.525,-1.342 0.205,-0.522 0.422,-0.956 0.654,-1.302 0.231,-0.345 0.536,-0.625 0.913,-0.838 0.377,-0.213 0.842,-0.32 1.396,-0.32 0.563,0 1.034,0.107 1.411,0.32 0.377,0.213 0.682,0.488 0.913,0.824 0.232,0.336 0.427,0.698 0.586,1.083 0.159,0.386 0.361,0.902 0.606,1.547 l 5.22,12.892 c 0.409,0.981 0.613,1.695 0.613,2.14 0,0.463 -0.193,0.888 -0.579,1.274 -0.386,0.386 -0.852,0.579 -1.397,0.579 -0.318,0 -0.591,-0.057 -0.818,-0.17 -0.227,-0.114 -0.418,-0.268 -0.572,-0.463 -0.155,-0.195 -0.32,-0.495 -0.498,-0.899 -0.178,-0.404 -0.326,-0.761 -0.454,-1.07 z m -8.013,-5.546 h 5.969 l -3.012,-8.245 z"
       id="path3913" />
    <path
       style="fill:#e0ebfc"
       d="m 214.227,224.988 -3.203,-12.729 v 13.792 c 0,0.763 -0.17,1.335 -0.511,1.717 -0.341,0.381 -0.793,0.572 -1.356,0.572 -0.545,0 -0.991,-0.189 -1.336,-0.566 -0.345,-0.376 -0.518,-0.951 -0.518,-1.724 v -15.809 c 0,-0.872 0.227,-1.46 0.681,-1.765 0.454,-0.305 1.067,-0.457 1.84,-0.457 h 1.254 c 0.754,0 1.301,0.068 1.642,0.204 0.341,0.137 0.593,0.382 0.756,0.736 0.164,0.354 0.35,0.931 0.559,1.73 l 2.903,10.943 2.903,-10.943 c 0.209,-0.799 0.395,-1.376 0.559,-1.73 0.164,-0.354 0.416,-0.6 0.756,-0.736 0.341,-0.136 0.888,-0.204 1.643,-0.204 h 1.253 c 0.772,0 1.386,0.152 1.84,0.457 0.454,0.305 0.682,0.893 0.682,1.765 v 15.809 c 0,0.763 -0.17,1.335 -0.511,1.717 -0.341,0.381 -0.797,0.572 -1.37,0.572 -0.536,0 -0.977,-0.191 -1.322,-0.572 -0.346,-0.382 -0.518,-0.954 -0.518,-1.717 v -13.79 l -3.203,12.729 c -0.209,0.827 -0.379,1.433 -0.511,1.819 -0.132,0.386 -0.375,0.738 -0.729,1.056 -0.354,0.318 -0.845,0.477 -1.472,0.477 -0.472,0 -0.872,-0.103 -1.199,-0.307 -0.327,-0.205 -0.582,-0.466 -0.763,-0.784 -0.181,-0.318 -0.325,-0.67 -0.429,-1.056 -0.104,-0.386 -0.211,-0.788 -0.32,-1.206 z"
       id="path3915" />
    <path
       style="fill:#ffea92"
       d="m 207.523,48.55 c -10.5,-10.5 -13.567,-25.618 -9.203,-38.817 0.314,-0.951 -0.663,-1.822 -1.56,-1.375 -3.91,1.948 -7.554,4.612 -10.736,7.993 -14.099,14.981 -13.605,38.719 1.075,53.13 14.855,14.582 38.718,14.498 53.469,-0.252 2.984,-2.984 5.367,-6.342 7.151,-9.923 0.445,-0.894 -0.427,-1.867 -1.375,-1.553 -13.201,4.365 -28.32,1.299 -38.821,-9.203 z"
       id="path3917" />
    <path
       style="fill:#ffea92"
       d="m 229.08,21.057 2.445,4.955 c 0.274,0.556 0.805,0.941 1.418,1.03 l 5.468,0.795 c 1.545,0.224 2.161,2.123 1.044,3.212 l -3.957,3.857 c -0.444,0.433 -0.646,1.056 -0.542,1.667 l 0.934,5.446 c 0.264,1.538 -1.351,2.711 -2.732,1.985 l -4.891,-2.571 c -0.549,-0.288 -1.204,-0.288 -1.753,0 l -4.891,2.571 c -1.381,0.726 -2.996,-0.447 -2.732,-1.985 l 0.934,-5.446 c 0.105,-0.611 -0.098,-1.234 -0.542,-1.667 l -3.957,-3.857 c -1.118,-1.089 -0.501,-2.988 1.044,-3.212 l 5.468,-0.795 c 0.613,-0.089 1.144,-0.474 1.418,-1.03 l 2.445,-4.955 c 0.692,-1.399 2.688,-1.399 3.379,0 z"
       id="path3919" />
    <path
       style="fill:#ffea92"
       d="m 195.992,85.594 2.154,4.364 c 0.242,0.49 0.709,0.829 1.249,0.907 l 4.816,0.7 c 1.36,0.198 1.904,1.87 0.919,2.829 l -3.485,3.397 c -0.391,0.381 -0.569,0.93 -0.477,1.468 l 0.823,4.797 c 0.232,1.355 -1.19,2.388 -2.407,1.748 l -4.308,-2.265 c -0.483,-0.254 -1.06,-0.254 -1.544,0 l -4.308,2.265 c -1.217,0.64 -2.639,-0.394 -2.407,-1.748 l 0.823,-4.797 c 0.092,-0.538 -0.086,-1.087 -0.477,-1.468 l -3.485,-3.397 c -0.984,-0.96 -0.441,-2.631 0.919,-2.829 l 4.816,-0.7 c 0.54,-0.078 1.007,-0.418 1.249,-0.907 l 2.154,-4.364 c 0.61,-1.232 2.368,-1.232 2.976,0 z"
       id="path3921" />
    <path
       style="fill:#3762cc"
       d="m 241.838,250 h -94.667 c -4.411,0 -8,-3.589 -8,-8 v -51.862 c 0,-4.411 3.589,-8 8,-8 h 94.667 c 4.411,0 8,3.589 8,8 V 242 c 0,4.411 -3.588,8 -8,8 z m -94.667,-63.862 c -2.206,0 -4,1.794 -4,4 V 242 c 0,2.206 1.794,4 4,4 h 94.667 c 2.206,0 4,-1.794 4,-4 v -51.862 c 0,-2.206 -1.794,-4 -4,-4 z"
       id="path3923" />
    <path
       style="fill:#3762cc"
       d="m 231.838,237 h -74.667 c -2.757,0 -5,-2.243 -5,-5 v -31.861 c 0,-2.757 2.243,-5 5,-5 h 74.667 c 2.757,0 5,2.243 5,5 V 232 c 0,2.757 -2.243,5 -5,5 z m -74.666,-37.861 c -0.551,0 -1,0.448 -1,1 V 232 c 0,0.552 0.449,1 1,1 h 74.667 c 0.551,0 1,-0.448 1,-1 v -31.861 c 0,-0.552 -0.449,-1 -1,-1 z"
       id="path3925" />
    <path
       style="fill:#3762cc"
       d="m 218.005,186.167 h -47 c -1.104,0 -2,-0.896 -2,-2 v -7.334 c 0,-2.757 2.243,-5 5,-5 h 41 c 2.757,0 5,2.243 5,5 v 7.334 c 0,1.104 -0.896,2 -2,2 z m -45,-4 h 43 v -5.334 c 0,-0.552 -0.449,-1 -1,-1 h -41 c -0.551,0 -1,0.448 -1,1 z"
       id="path3927" />
    <path
       style="fill:#3762cc"
       d="m 213.701,82.307 c -10.128,0.001 -20.258,-3.795 -28.003,-11.397 -15.41,-15.128 -15.917,-40.218 -1.131,-55.93 3.271,-3.475 7.073,-6.305 11.301,-8.411 1.127,-0.564 2.472,-0.395 3.426,0.433 0.961,0.833 1.324,2.151 0.925,3.36 -4.3,13.006 -0.96,27.097 8.718,36.775 9.68,9.678 23.772,13.019 36.779,8.717 1.206,-0.401 2.526,-0.036 3.359,0.924 0.824,0.951 0.995,2.294 0.435,3.42 -1.922,3.858 -4.455,7.373 -7.527,10.445 -7.773,7.772 -18.026,11.664 -28.282,11.664 z M 195.807,11.136 c -3.071,1.762 -5.866,3.971 -8.327,6.586 -13.306,14.139 -12.849,36.718 1.02,50.333 14.029,13.77 36.751,13.662 50.654,-0.24 2.266,-2.267 4.206,-4.799 5.784,-7.549 -13.87,3.799 -28.578,-0.05 -38.829,-10.301 C 195.857,39.714 192.005,25.006 195.807,11.136 Z"
       id="path3929" />
    <path
       style="fill:#3762cc"
       d="m 220.744,46.225 c -0.802,0 -1.598,-0.251 -2.278,-0.745 -1.205,-0.875 -1.797,-2.331 -1.545,-3.799 l 0.923,-5.386 -3.912,-3.814 c -1.066,-1.038 -1.443,-2.563 -0.983,-3.979 0.46,-1.416 1.661,-2.429 3.135,-2.644 l 5.408,-0.786 2.417,-4.899 c 0.659,-1.336 1.994,-2.165 3.482,-2.165 1.488,0 2.823,0.829 3.482,2.164 v 10e-4 l 2.417,4.899 5.408,0.786 c 1.474,0.215 2.675,1.228 3.135,2.644 0.46,1.417 0.083,2.941 -0.983,3.98 l -3.912,3.814 0.924,5.385 c 0.251,1.468 -0.341,2.924 -1.545,3.799 -1.206,0.874 -2.772,0.985 -4.089,0.295 l -4.836,-2.543 -4.837,2.543 c -0.574,0.3 -1.194,0.45 -1.811,0.45 z m 6.648,-7.008 c 0.621,0 1.241,0.148 1.806,0.445 l 4.682,2.461 -0.895,-5.213 c -0.216,-1.26 0.202,-2.544 1.117,-3.437 l 3.787,-3.691 -5.234,-0.761 c -1.265,-0.184 -2.357,-0.978 -2.924,-2.123 l -2.34,-4.744 -2.341,4.743 c -0.566,1.146 -1.659,1.94 -2.925,2.124 l -5.233,0.761 3.787,3.692 c 0.916,0.892 1.333,2.177 1.117,3.437 l -0.894,5.212 4.682,-2.461 c 0.566,-0.297 1.187,-0.445 1.808,-0.445 z m 5.927,-14.089 h 0.01 z m -4.239,-4.071 -1.793,0.885 z"
       id="path3931" />
    <path
       style="fill:#3762cc"
       d="m 200.36,108 c -0.582,0 -1.166,-0.14 -1.706,-0.424 l -4.149,-2.182 -4.149,2.182 c -1.242,0.65 -2.718,0.548 -3.854,-0.279 -1.135,-0.824 -1.692,-2.195 -1.455,-3.577 l 0.792,-4.621 -3.357,-3.271 c -1.005,-0.98 -1.359,-2.418 -0.925,-3.752 0.434,-1.334 1.565,-2.288 2.954,-2.489 l 4.639,-0.674 2.074,-4.203 c 0.621,-1.259 1.878,-2.04 3.281,-2.04 1.403,0 2.66,0.781 3.281,2.04 l 2.074,4.203 4.639,0.674 c 1.388,0.201 2.52,1.155 2.953,2.489 0.434,1.334 0.08,2.771 -0.925,3.751 l -3.357,3.271 0.792,4.621 c 0.237,1.382 -0.32,2.753 -1.455,3.577 -0.641,0.468 -1.392,0.704 -2.147,0.704 z m -14.589,-14.554 2.99,2.913 c 0.863,0.843 1.256,2.053 1.052,3.239 l -0.706,4.115 3.695,-1.943 c 1.067,-0.561 2.34,-0.56 3.405,0 l 3.696,1.943 -0.706,-4.115 c -0.204,-1.187 0.189,-2.396 1.051,-3.237 l 2.991,-2.915 -4.132,-0.601 c -1.19,-0.173 -2.221,-0.921 -2.754,-2.001 l -1.848,-3.744 -1.848,3.743 c -0.534,1.081 -1.564,1.829 -2.756,2.002 z m 18.153,0.1 h 0.01 z"
       id="path3933" />
  </g>
  <text
     id="text4004"
     y="76.105934"
     x="72.995628"
     style="font-style:normal;font-variant:normal;font-weight:bold;font-stretch:normal;font-size:5.34564161px;line-height:1.25;font-family:Arial;-inkscape-font-specification:'Arial, Bold';font-variant-ligatures:normal;font-variant-caps:normal;font-variant-numeric:normal;font-feature-settings:normal;text-align:center;letter-spacing:0px;word-spacing:0px;writing-mode:lr-tb;text-anchor:middle;fill:#c0d5ff;fill-opacity:1;stroke:none;stroke-width:0.26458332;"
     xml:space="preserve"><tspan
       style="text-align:center;text-anchor:middle;stroke-width:0.26458332;fill:#c0d5ff;fill-opacity:1;"
       id="tspan3986"
       y="76.105934"
       x="41.939747"><tspan
         style="text-align:center;text-anchor:middle;stroke-width:0.26458332;fill:#c0d5ff;fill-opacity:1;"
         id="tspan3984"
         y="76.105934"
         x="41.198456">A person will die from </tspan></tspan><tspan
       style="text-align:center;text-anchor:middle;stroke-width:0.26458332;fill:#c0d5ff;fill-opacity:1;"
       id="tspan3990"
       y="82.787987"
       x="41.939743"><tspan
         style="text-align:center;text-anchor:middle;stroke-width:0.26458332;fill:#c0d5ff;fill-opacity:1;"
         id="tspan3988"
         y="82.787987"
         x="41.198456">lack of sleep sooner </tspan></tspan><tspan
       style="text-align:center;text-anchor:middle;stroke-width:0.26458332;fill:#c0d5ff;fill-opacity:1;"
       id="tspan3994"
       y="89.470039"
       x="41.939743"><tspan
         style="text-align:center;text-anchor:middle;stroke-width:0.26458332;fill:#c0d5ff;fill-opacity:1;"
         id="tspan3992"
         y="89.470039"
         x="41.198456">than they will from </tspan></tspan><tspan
       style="text-align:center;text-anchor:middle;stroke-width:0.26458332;fill:#c0d5ff;fill-opacity:1;"
       id="tspan3998"
       y="96.1521"
       x="41.939743"><tspan
         style="text-align:center;text-anchor:middle;stroke-width:0.26458332;fill:#c0d5ff;fill-opacity:1;"
         id="tspan3996"
         y="96.1521"
         x="41.198456">starvation, which usually </tspan></tspan><tspan
       style="text-align:center;text-anchor:middle;stroke-width:0.26458332;fill:#c0d5ff;fill-opacity:1;"
       id="tspan4002"
       y="102.83416"
       x="41.198456"><tspan
         style="text-align:center;text-anchor:middle;stroke-width:0.26458332;fill:#c0d5ff;fill-opacity:1;"
         id="tspan4000"
         y="102.83416"
         x="41.198456">takes a few weeks</tspan></tspan></text>
</svg>
