<?xml version="1.0" encoding="UTF-8" standalone="no"?>
<svg
   xmlns:dc="http://purl.org/dc/elements/1.1/"
   xmlns:cc="http://creativecommons.org/ns#"
   xmlns:rdf="http://www.w3.org/1999/02/22-rdf-syntax-ns#"
   xmlns:svg="http://www.w3.org/2000/svg"
   xmlns="http://www.w3.org/2000/svg"
   xmlns:sodipodi="http://sodipodi.sourceforge.net/DTD/sodipodi-0.dtd"
   xmlns:inkscape="http://www.inkscape.org/namespaces/inkscape"
   id="svg885"
   version="1.1"
   viewBox="0 0 79.374998 111.125"
   height="420"
   width="300"
   sodipodi:docname="012.svg"
   inkscape:version="0.92.4 (5da689c313, 2019-01-14)">
  <sodipodi:namedview
     pagecolor="#ffffff"
     bordercolor="#666666"
     borderopacity="1"
     objecttolerance="10"
     gridtolerance="10"
     guidetolerance="10"
     inkscape:pageopacity="0"
     inkscape:pageshadow="2"
     inkscape:window-width="1366"
     inkscape:window-height="745"
     id="namedview1053"
     showgrid="false"
     inkscape:zoom="1.3714286"
     inkscape:cx="128.44138"
     inkscape:cy="230.28671"
     inkscape:window-x="-8"
     inkscape:window-y="-8"
     inkscape:window-maximized="1"
     inkscape:current-layer="svg885" />
  <defs
     id="defs879" />
  <metadata
     id="metadata882">
    <rdf:RDF>
      <cc:Work
         rdf:about="">
        <dc:format>image/svg+xml</dc:format>
        <dc:type
           rdf:resource="http://purl.org/dc/dcmitype/StillImage" />
        <dc:title></dc:title>
      </cc:Work>
    </rdf:RDF>
  </metadata>
  <g
     transform="translate(0,-185.87498)"
     id="layer1"
     style="opacity:0.99;fill:#154300;fill-opacity:1">
    <rect
       y="185.87776"
       x="0.0034530037"
       height="111.11626"
       width="79.368423"
       id="rect1430"
       style="opacity:1;fill:#154300;fill-opacity:1;fill-rule:nonzero;stroke:none;stroke-width:0.26598862;stroke-linecap:round;stroke-linejoin:round;stroke-miterlimit:4;stroke-dasharray:none;stroke-opacity:1;paint-order:normal" />
    <flowRoot
       style="fill:#154300;fill-opacity:1;stroke:none;font-family:Arial;font-style:normal;font-weight:bold;font-size:20.20399984px;line-height:1.25;letter-spacing:0px;word-spacing:0px;-inkscape-font-specification:'Arial, Bold';font-stretch:normal;font-variant:normal;text-anchor:start;text-align:start;writing-mode:lr;font-variant-ligatures:normal;font-variant-caps:normal;font-variant-numeric:normal;font-feature-settings:normal"
       id="flowRoot2560"
       xml:space="preserve"><flowRegion
         id="flowRegion2562"
         style="fill:#154300;fill-opacity:1"><rect
           y="-33.558495"
           x="-159.6041"
           height="422.24377"
           width="438.40622"
           id="rect2564"
           style="fill:#154300;fill-opacity:1" /></flowRegion><flowPara
         id="flowPara2566" /></flowRoot>  </g>
  <text
     xml:space="preserve"
     style="font-style:normal;font-variant:normal;font-weight:bold;font-stretch:normal;font-size:6.3499999px;line-height:1.25;font-family:Arial;-inkscape-font-specification:'Arial, Bold';font-variant-ligatures:normal;font-variant-caps:normal;font-variant-numeric:normal;font-feature-settings:normal;text-align:start;letter-spacing:0px;word-spacing:0px;writing-mode:lr-tb;text-anchor:start;fill:#8e8e91;fill-opacity:1;stroke:none;stroke-width:0.26458332"
     x="2.7011271"
     y="8.8064241"
     id="text2322"><tspan
       sodipodi:role="line"
       x="2.7011271"
       y="8.8064241"
       id="tspan2320"
       style="fill:#8e8e91;fill-opacity:1;stroke-width:0.26458332"><tspan
         x="2.7011271"
         y="8.8064241"
         id="tspan2318"
         style="fill:#8e8e91;fill-opacity:1;stroke-width:0.26458332">12.</tspan></tspan></text>
  <g
     id="g1885"
     transform="matrix(0.04603525,0,0,0.03773991,6.3499647,35.868953)">
    <g
       id="g1795">
	<path
   id="path1791"
   d="m 427.025,275.534 -23.316,28.498 c 13.644,1.727 76.167,20.472 76.167,46.379 0,21.657 -68.395,63.467 -270.47,34.451 -18.613,-2.673 -12.435,9.763 -12.435,9.763 C 441.533,447.475 512,380.116 512,346.956 c 0,-51.215 -84.975,-71.422 -84.975,-71.422 z"
   style="fill:#ff8087"
   inkscape:connector-curvature="0" />

	<path
   id="path1793"
   d="m 334.11,317.503 -24.482,5.745 c -5.16,1.211 -9.305,4.826 -10.987,9.583 l -2.986,8.447 c -0.987,2.793 1.217,5.677 4.339,5.677 h 56.12 c 3.927,0 7.225,-2.784 7.66,-6.465 l 2.369,-22.76 z"
   style="fill:#ff8087"
   inkscape:connector-curvature="0" />

</g>
    <path
       id="path1797"
       d="M 363.524,121.818 C 282.522,91.093 199.1,139.78 158.685,129.417 125.016,120.784 66.456,98.328 1.352,194.378 c -2.483,3.663 -1.371,8.745 1.902,11.723 5.589,5.085 15.767,12.288 31.137,15.695 22.075,25.064 52.519,27.04 75.064,19.139 57.886,78.935 158.094,74.491 193.272,60.505 0,0 12.435,20.644 55.901,20.644 50.475,0 79.78,-31.29 79.787,-82.123 0.009,-47.412 -12.755,-94.575 -74.891,-118.143 z"
       style="fill:#9c969e"
       inkscape:connector-curvature="0" />
    <path
       id="path1799"
       d="m 158.258,107.769 c -10.679,-16.68 -44.062,-13.826 -57.953,19.453 -2.822,6.759 -0.884,14.357 5.263,19.138 5.672,4.412 13.765,5.652 20.716,2.987 15.976,-6.127 44.288,-22.345 31.974,-41.578 z"
       style="fill:#867e88"
       inkscape:connector-curvature="0" />
    <circle
       id="circle1801"
       r="12.435"
       cy="177"
       cx="85.050003"
       style="fill:#4b3f4e" />
    <path
       id="path1803"
       d="m 105.242,148.498 c 5.186,4.004 12.585,5.13 18.94,2.711 6.968,-2.652 16.482,-7.394 23.318,-13.519 3.842,-3.443 5.764,-8.341 4.658,-13.038 -0.244,-1.038 -0.607,-2.017 -1.138,-2.85 -8.849,-13.875 -38.24,-12.494 -48.944,18.071 -1.198,3.42 1.388,7.252 3.166,8.625 z"
       style="fill:#ff8087"
       inkscape:connector-curvature="0" />
    <g
       id="g1809">
	<path
   id="path1805"
   d="m 67.337,219.643 c -12.087,2.995 -23.472,3.581 -33.905,1.879 0.339,0.08 0.616,0.199 0.96,0.275 6.592,7.485 13.938,12.872 21.59,16.591 5.035,-0.547 10.138,-1.359 15.354,-2.658 4.445,-1.105 7.149,-5.602 6.048,-10.043 -1.109,-4.449 -5.626,-7.169 -10.047,-6.044 z"
   style="fill:#867e88"
   inkscape:connector-curvature="0" />

	<path
   id="path1807"
   d="m 302.729,301.441 c -10.68,-11.3 -12.09,-25.353 -12.09,-39.472 0,-6.779 1.31,-13.575 3.174,-19.667 3.961,-12.954 -16.331,-21.353 -23.455,-9.831 -1.838,2.972 -3.514,6.654 -4.935,11.197 -4.252,13.607 -50.141,75.741 -118.829,5.636 -8.274,-8.444 -20.406,-11.941 -31.967,-9.473 l -5.171,1.105 c 56.484,77.949 156.942,74.988 193.273,60.505 z"
   style="fill:#867e88"
   inkscape:connector-curvature="0" />

</g>
    <path
       id="path1811"
       d="m 180.735,255.763 c 0,22.552 11.183,46.542 18.339,59.583 2.702,4.924 -0.21,11.012 -5.726,12.072 l -1.927,0.371 c -7.808,1.501 -13.449,8.332 -13.449,16.282 0,1.593 1.291,2.885 2.884,2.885 l 35.021,10e-4 c 3.757,0 7.019,-2.496 8.003,-6.121 4.214,-15.544 10.744,-46.757 13.85,-73.155 z"
       style="fill:#9c969e"
       inkscape:connector-curvature="0" />
    <g
       id="g1817">
	<path
   id="path1813"
   d="m 180.856,346.956 35.021,10e-4 c 3.757,0 7.019,-2.496 8.003,-6.121 1.202,-4.435 2.599,-10.235 4.044,-16.744 l -27.878,-4.439 c -0.166,3.65 -2.74,7.005 -6.697,7.766 l -1.927,0.371 c -7.808,1.501 -13.449,8.332 -13.449,16.282 -0.001,1.592 1.29,2.884 2.883,2.884 z"
   style="fill:#ff8087"
   inkscape:connector-curvature="0" />

	<path
   id="path1815"
   d="m 3.255,206.102 c 2.103,1.913 4.858,4.126 8.292,6.324 4.686,-2.26 7.958,-6.991 7.958,-12.541 0,-7.154 -5.392,-12.974 -12.322,-13.808 -1.937,2.668 -3.881,5.425 -5.831,8.301 -2.483,3.664 -1.371,8.746 1.903,11.724 z"
   style="fill:#ff8087"
   inkscape:connector-curvature="0" />

</g>
    <g
       id="g1819">
</g>
    <g
       id="g1821">
</g>
    <g
       id="g1823">
</g>
    <g
       id="g1825">
</g>
    <g
       id="g1827">
</g>
    <g
       id="g1829">
</g>
    <g
       id="g1831">
</g>
    <g
       id="g1833">
</g>
    <g
       id="g1835">
</g>
    <g
       id="g1837">
</g>
    <g
       id="g1839">
</g>
    <g
       id="g1841">
</g>
    <g
       id="g1843">
</g>
    <g
       id="g1845">
</g>
    <g
       id="g1847">
</g>
  </g>
  <g
     id="g2091"
     transform="matrix(0.07821004,-0.04069788,0.03910037,0.07514006,36.246291,33.775074)">
    <g
       id="g2014">
	<path
   id="path1970"
   d="m 437.917,293.176 c 0.231,0.51 0.462,1.02 0.692,1.529 -0.154,-0.543 -0.403,-1.048 -0.692,-1.529 z"
   style="fill:#b58d75"
   inkscape:connector-curvature="0" />

	
	
	
	
	
	
	
	<g
   id="g2012">
		<path
   id="path1986"
   d="m 107.902,239.975 c 8.405,4.445 16.924,8.327 26.448,9.729 4.406,0.649 4.406,0.908 4.897,-3.586 0.715,-6.54 -1.521,-12.378 -4.503,-17.991 -0.325,-0.612 -1.138,-1.231 -1.812,-1.35 -2.13,-0.375 -15.485,-1.96 -19.72,-3.523"
   style="fill:#414141"
   inkscape:connector-curvature="0" />

		<path
   id="path1988"
   d="m 362.297,230.214 c -0.506,-6.853 -5.408,-44.199 -44.035,-58.645 -2.602,-1.766 -27.089,-10.698 -29.899,-12.287 -6.718,-3.798 -13.296,-7.84 -19.998,-11.662 C 224.2,117.867 226.26,22.573 179.24,8.513 173.643,7.646 168.008,7.163 162.296,7.61 c -1.69,0.131 -3.334,0.748 -5.024,0.986 -0.649,0.091 -1.601,-0.008 -1.995,-0.418 -0.122,-0.128 -0.236,-0.264 -0.355,-0.394 -1.954,0.511 -3.984,1.142 -6.096,1.899 2.112,-0.757 4.142,-1.389 6.096,-1.899 -1.32,-1.442 -2.516,-3.002 -3.738,-4.53 -0.574,-0.718 -0.691,0.283 -1.248,-0.448 -0.278,-0.365 -0.613,-0.609 -0.761,-0.556 -0.153,0.055 -0.34,0.447 -0.415,0.874 -0.044,0.262 -0.36,0.923 -0.339,1.181 0.115,1.584 0.182,1.003 0.35,2.58 0.345,3.276 0.336,3.215 -2.945,3.654 -1.415,0.19 -2.943,0.438 -4.138,1.141 -0.048,0.028 -0.096,0.055 -0.143,0.081 l -12.081,6.619 c 0.048,0.045 0.095,0.091 0.143,0.136 2.365,2.255 2.589,4.459 1.135,7.397 -2.201,4.455 -4.591,8.855 -6.329,13.49 -0.839,2.235 -0.397,4.957 -0.49,7.46 -0.042,1.141 0.245,2.327 0.028,3.425 -1.942,9.759 -5.284,19.038 -9.724,27.936 -0.754,1.508 -1.379,3.071 -1.922,4.387 -0.181,0.444 -0.491,0.983 -0.619,1.25 -0.078,0.165 -0.137,0.333 -0.168,0.506 -0.035,0.192 -0.042,0.378 -0.031,0.555 0.027,0.307 0.148,0.731 0.231,0.953 0.079,0.221 0.196,0.537 0.25,0.718 0.032,0.105 0.069,0.208 0.121,0.316 0.299,0.655 0.656,1.265 1.024,1.872 0.357,0.589 0.231,1.451 -0.292,1.9 -0.192,0.165 -0.387,0.327 -0.584,0.49 -0.23,0.192 -0.406,0.414 -0.538,0.657 -0.223,0.416 -0.312,0.853 -0.361,0.924 -0.037,0.049 -0.061,0.096 -0.07,0.142 -0.093,0.508 0.017,1.295 0.363,1.597 1.618,1.406 3.314,2.719 5.111,4.147 0.375,0.295 0.328,0.704 -0.12,0.917 -0.833,0.389 -0.951,1.218 -0.236,1.796 1.628,1.314 3.564,1.571 5.628,1.622 1.084,0.028 2.157,0.4 3.236,0.586 0.478,0.084 1.12,0.309 1.422,0.094 1.803,-1.268 3.706,-1.085 5.777,-0.952 2.865,0.184 5.951,-2.808 6.085,-5.726 0.173,-3.825 1.775,-6.445 4.912,-8.804 2.536,-1.905 4.234,-4.905 6.36,-7.387 0.503,-0.587 1.12,-1.079 1.829,-1.385 1.77,-0.765 3.2,-0.14 3.312,1.675 0.224,3.719 1.014,7.538 0.441,11.134 -0.857,5.385 -2.515,10.667 -4.153,15.89 -1.839,5.861 -5.77,10.384 -10.025,14.696 -4.787,4.851 -8.044,10.448 -8.142,17.607 -0.053,3.883 -0.689,7.762 -1.222,11.62 -0.103,0.733 -0.817,1.747 -1.48,1.979 -11.855,4.17 -22.657,10.43 -33.492,16.644 -1.809,1.04 -3.809,1.754 -5.587,2.839 -4.637,2.823 -5.984,7.323 -5.966,12.404 0.005,1.142 0.094,2.371 0.515,3.411 1.979,4.904 1.249,9.573 -0.853,14.221 -3.266,7.222 -6.389,14.509 -9.735,21.692 -0.972,2.088 -1.064,4.067 -0.281,6.06 1.798,4.569 2.653,9.286 2.644,14.171 -0.009,4.101 1.562,7.714 3.269,11.327 1.323,2.803 4.826,4.28 6.079,7.114 1.045,2.367 -0.067,4.653 2.37,3.872 1.994,-0.64 4.149,-1.592 5.566,-3.054 3.973,-4.102 5.773,-9.25 5.725,-14.965 -0.011,-1.111 -0.235,-2.405 -0.835,-3.294 -2.194,-3.252 -4.469,-6.459 -6.92,-9.519 -1.706,-2.13 -1.851,-5.121 -0.315,-7.377 0.807,-1.186 1.448,-2.548 1.854,-3.916 0.422,-1.428 0.646,-2.917 0.915,-4.572 0.159,-0.977 0.85,-1.19 1.506,-0.449 2.087,2.355 3.45,4.854 3.362,7.805 -0.176,5.856 2.891,9.011 7.715,11.563 0,0 10.837,-15.542 7.001,-16.242 -2.874,-0.524 -4.833,-2.37 -5.749,-4.789 -2.089,-5.516 -3.791,-11.189 -5.472,-16.849 -0.232,-0.774 0.323,-2.04 0.913,-2.743 1.054,-1.258 2.31,-2.423 3.688,-3.303 0.806,-0.516 2.056,-0.676 3.04,-0.531 8.718,1.262 17.393,2.87 26.135,3.894 7.945,0.929 15.957,1.295 23.945,1.814 1.01,0.066 2.303,-0.154 3.042,-0.758 2.491,-2.024 4.787,-1.539 7.115,0.117 4.59,3.26 9.062,6.693 13.763,9.782 6.749,4.435 13.729,8.516 20.487,12.941 12.995,8.508 27.793,12.998 41.915,18.981 2.981,1.263 6.15,2.087 9.263,3.016 1.413,0.422 2.326,1.234 2.436,2.674 0.154,1.996 0.481,4.072 0.131,6.004 -1.27,7.027 -0.377,13.771 1.947,20.433 0.805,2.307 1.582,4.66 1.993,7.057 0.915,5.325 -0.788,9.815 -4.922,13.319 -8.076,6.848 -17.071,12.338 -26.157,17.692 -2.796,1.65 -5.6,3.302 -8.255,5.16 -0.917,0.643 -1.731,1.825 -2.014,2.915 -1.605,6.234 -3.405,12.38 -6.444,18.105 -2.182,4.113 -1.009,8.268 0.061,12.381 0.867,3.33 1.783,6.644 2.793,10.363 0.214,0.789 0.871,0.95 1.583,0.549 2.501,-1.405 4.602,-2.718 6.468,-4.334 4.102,-3.545 6.741,-8.29 9.063,-13.14 0.703,-1.469 0.711,-3.376 0.657,-5.076 -0.065,-2.135 -0.701,-4.26 -0.712,-6.389 -0.004,-0.736 1.053,-2.033 1.746,-2.125 2.807,-0.368 4.172,-2.431 6.049,-4.102 3.594,-3.201 7.567,-5.983 11.462,-8.834 4.175,-3.055 8.842,-5.041 13.808,-6.559 5.303,-1.619 10.484,-3.678 15.61,-5.807 1.169,-0.486 2.115,-1.519 3.156,-2.536 0.516,-0.503 1.396,-0.548 1.961,-0.102 3.105,2.454 5.151,5.995 6.196,10.452 2.142,9.129 -0.816,16.836 -6.114,23.887 -4.809,6.402 -9.936,12.566 -14.952,18.814 -3.067,3.823 -7.237,6.087 -11.593,8.095 -1.221,0.563 -2.505,1.234 -3.419,2.188 -6.353,6.623 -11.786,13.979 -16.976,21.524 -1.378,2.006 -1.328,2.687 1.037,3.447 2.931,0.948 5.998,1.594 9.053,2.016 5.239,0.723 10.392,0.353 15.123,-2.373 3.575,-2.063 5.951,-4.975 6.363,-9.233 0.019,-0.215 0.075,-0.432 0.067,-0.648 -0.12,-3.982 1.321,-6.394 5.725,-6.885 3.333,-0.374 5.572,-2.977 7.486,-5.54 5.525,-7.399 10.802,-14.983 16.427,-22.301 4.397,-5.718 9.115,-11.189 13.792,-16.677 3.091,-3.624 6.295,-7.155 9.583,-10.599 3.191,-3.347 3.162,-6.871 1.506,-10.936 -2.202,-5.402 -4.016,-10.96 -6.019,-16.444 -1.775,-4.862 0.22,-9.108 3.562,-11.911 8.493,-7.129 13.584,-16.778 20.11,-25.362 0.509,-0.67 0.893,-1.442 1.423,-2.14"
   style="fill:#b58d75"
   inkscape:connector-curvature="0" />

		<path
   id="path1990"
   d="m 148.061,57.145 c -7.99,-6.072 -18.461,-5.738 -23.387,0.745 l -16.617,21.866 c -4.927,6.483 -2.443,16.661 5.546,22.732 7.99,6.071 18.461,5.738 23.387,-0.745 l 16.616,-21.866 c 4.928,-6.483 2.445,-16.66 -5.545,-22.732 z"
   style="fill:#b58d75"
   inkscape:connector-curvature="0" />

		<path
   id="path1992"
   d="m 113.604,102.489 c 7.99,6.071 18.461,5.738 23.387,-0.745 l 5.789,-7.608 -34.723,-14.379 c -4.926,6.483 -2.443,16.661 5.547,22.732 z"
   style="fill:#414141"
   inkscape:connector-curvature="0" />

		<circle
   id="circle1994"
   r="2.947"
   cy="88.434998"
   cx="111.887"
   style="fill:#414141" />

		<path
   id="path1996"
   d="m 131.314,52.14 c 1.222,2.481 4.225,3.502 6.705,2.28 2.481,-1.222 3.502,-4.224 2.28,-6.706 z"
   style="fill:#414141"
   inkscape:connector-curvature="0" />

		<path
   id="path1998"
   d="m 77.069,239.534 c 0.436,12.672 3.639,18.71 9.064,26.663 2.509,3.679 2.319,3.855 5.956,1.169 5.294,-3.908 8.069,-9.509 10.175,-15.506 0.23,-0.654 0.134,-1.671 -0.235,-2.247 -1.168,-1.82 -8.829,-12.652 -10.55,-16.825 -0.273,0.576 -4.617,7.55 -14.41,6.746 z"
   style="fill:#414141"
   inkscape:connector-curvature="0" />

		<path
   id="path2000"
   d="m 220.501,326.983 c -8.02,12.587 -8.079,20.53 -8.113,31.862 -0.017,5.242 -0.318,5.286 5.001,5.103 7.741,-0.265 14.167,-3.851 20.205,-8.268 0.659,-0.481 1.243,-1.532 1.269,-2.338 0.079,-2.545 -0.139,-18.16 0.972,-23.357 -0.648,0.379 -10.366,4.303 -19.334,-3.002 z"
   style="fill:#414141"
   inkscape:connector-curvature="0" />

		<path
   id="path2002"
   d="m 261.047,365.314 c -12.249,6.484 -15.53,12.861 -20.166,21.983 -2.146,4.219 -2.431,4.117 2.373,6.4 6.991,3.324 14.632,2.964 21.586,0.473 0.782,-0.087 6.132,-3.344 8.219,-6.616 2.257,-5.744 0.971,-7.316 2.613,-11.536 -0.73,0.01 -9.618,-0.714 -14.625,-10.704 z"
   style="fill:#414141"
   inkscape:connector-curvature="0" />

		<path
   id="path2004"
   d="m 215.276,29.978 -0.061,-0.004 c 0.784,4.823 5.839,7.475 10.048,9.957 7,4.127 13.113,9.74 17.86,16.333 1.781,2.473 1.663,5.97 -0.592,8.02 -0.673,0.611 -1.153,1.413 -1.281,2.328 7.945,8.635 15.89,17.27 23.835,25.905 1.113,1.21 2.241,2.448 3.297,3.737 2.583,3.152 1.717,8.022 -1.962,9.773 -0.971,0.462 -1.719,1.249 -2.062,2.493 -0.425,1.544 0.008,3.2 0.97,4.481 l 15.568,20.719 c 2.264,3.013 4.581,6.175 6.272,9.54 2.979,5.927 -2.588,12.525 -8.935,10.598 -4.525,-1.374 -8.764,-4.42 -12.878,-6.73 -3.903,-2.192 -7.801,-6.358 -11.365,-9.066 -7.561,-5.745 -12.781,-15.815 -18.435,-23.445 -16.603,-22.404 -26.556,-48.972 -40.967,-72.845 -5.519,-9.143 -12.066,-18.226 -21.541,-23.155 -3.543,-1.843 -7.387,-3.041 -11.266,-3.99 -4.955,-1.213 -10.065,-2.037 -15.149,-1.618 -2.964,-2.146 -4.215,-9.678 -0.674,-10.6 3.878,-1.011 7.621,-2.051 11.274,-2.271 20.146,-1.211 40.666,5.717 55.955,18.891 1.871,1.612 3.705,3.382 5.18,5.362 1.79,2.399 -0.104,5.797 -3.091,5.587 z"
   style="fill:#886a57"
   inkscape:connector-curvature="0" />

		<path
   id="path2006"
   d="m 148.855,12.162 c 0.904,-0.538 1.369,-1.575 1.72,-2.566 0.319,-0.901 0.589,-1.819 0.809,-2.749 0.33,-1.4 1.863,-3.706 0.856,-4.734 -1.005,-1.027 -4.061,-0.276 -5.462,0.044 -2.011,0.46 -3.952,1.197 -5.799,2.116 -1.792,0.892 -3.495,1.952 -5.194,3.01 -1.248,0.778 -2.497,1.555 -3.745,2.333 -2.237,1.394 -4.529,2.837 -6.099,4.953 -2.406,3.243 -2.748,7.686 -1.689,11.583 0.414,1.525 1.082,3.071 2.35,4.014 0.353,0.262 0.776,0.478 1.213,0.43 0.3,-0.033 0.571,-0.187 0.833,-0.338 1.404,-0.81 2.84,-1.645 3.879,-2.89 0.861,-1.031 1.401,-2.286 2.07,-3.451 1.779,-3.096 4.467,-5.549 7.111,-7.949 1.438,-1.305 2.956,-2.654 4.836,-3.141 0.781,-0.2 1.62,-0.253 2.311,-0.665 z"
   style="fill:#886a57"
   inkscape:connector-curvature="0" />

		<path
   id="path2008"
   d="m 143.978,7.982 c -6.6,-5.939 -18.143,-3.873 -18.143,-3.873 0,0 -0.842,11.698 5.757,17.636 6.6,5.938 14.723,7.671 18.143,3.872 3.421,-3.801 0.842,-11.696 -5.757,-17.635 z"
   style="fill:#b58d75"
   inkscape:connector-curvature="0" />

		<path
   id="path2010"
   d="m 361.53,348.829 c 3.259,4.999 10.772,4.245 13.081,-1.258 1.438,-3.429 2.646,-6.967 3.458,-10.842 3.49,-16.66 16.377,-47.276 11.74,-75.486 -2.305,-14.022 -11.425,-26.398 -24.671,-31.544 -0.418,-0.162 -0.847,-0.289 -1.29,-0.364 -4.383,-0.737 -9.217,3.129 -9.923,7.517 -4.681,54.103 -18.509,70.872 0.088,100.737 2.371,3.809 5.06,7.471 7.517,11.24 z"
   style="fill:#886a57"
   inkscape:connector-curvature="0" />

	</g>

</g>
    <g
       id="g2016">
</g>
    <g
       id="g2018">
</g>
    <g
       id="g2020">
</g>
    <g
       id="g2022">
</g>
    <g
       id="g2024">
</g>
    <g
       id="g2026">
</g>
    <g
       id="g2028">
</g>
    <g
       id="g2030">
</g>
    <g
       id="g2032">
</g>
    <g
       id="g2034">
</g>
    <g
       id="g2036">
</g>
    <g
       id="g2038">
</g>
    <g
       id="g2040">
</g>
    <g
       id="g2042">
</g>
    <g
       id="g2044">
</g>
  </g>
  <text
     xml:space="preserve"
     style="font-style:normal;font-variant:normal;font-weight:bold;font-stretch:normal;font-size:5.34564161px;line-height:1.25;font-family:Arial;-inkscape-font-specification:'Arial, Bold';font-variant-ligatures:normal;font-variant-caps:normal;font-variant-numeric:normal;font-feature-settings:normal;text-align:start;letter-spacing:0px;word-spacing:0px;writing-mode:lr-tb;text-anchor:start;fill:#5c5861;fill-opacity:1;stroke:none;stroke-width:0.26458332"
     x="18.906857"
     y="86.229782"
     id="text2285"><tspan
       sodipodi:role="line"
       x="18.906857"
       y="86.229782"
       id="tspan2279"
       style="stroke-width:0.26458332"><tspan
         x="18.906857"
         y="86.229782"
         id="tspan2277"
         style="stroke-width:0.26458332">Rats and horses </tspan></tspan><tspan
       sodipodi:role="line"
       x="18.906857"
       y="92.911835"
       id="tspan2283"
       style="stroke-width:0.26458332"><tspan
         x="18.906857"
         y="92.911835"
         id="tspan2281"
         style="stroke-width:0.26458332">cannot vomit</tspan></tspan></text>
  <g
     id="g2275"
     transform="matrix(0.04617628,0,0,0.04037974,27.536029,57.0365)">
    <circle
       id="circle2172"
       r="218.62399"
       cy="218.62399"
       cx="255.996"
       style="fill:#ffd93b" />
    <path
       id="path2174"
       d="m 474.62,218.624 c 0,120.784 -97.904,218.624 -218.624,218.624 -68.72,0 -130.08,-31.696 -170.176,-81.36 37.504,30.336 85.264,48.432 137.248,48.432 120.72,0 218.624,-97.824 218.624,-218.624 0,-51.984 -18.112,-99.744 -48.432,-137.248 49.584,40.096 81.36,101.44 81.36,170.176 z"
       style="fill:#f4c534"
       inkscape:connector-curvature="0" />
    <g
       id="g2186">
	<path
   id="path2176"
   d="m 355.756,345.84 c 1.504,7.104 -4.912,13.664 -12.288,12.576 -57.792,-7.648 -117.232,-7.648 -175.168,0 -7.248,0.96 -13.536,-5.472 -12.032,-12.576 8.736,-43.04 46.592,-78.704 99.616,-78.704 53.136,0 90.848,35.664 99.872,78.704 z"
   style="fill:#3e4347"
   inkscape:connector-curvature="0" />

	<path
   id="path2178"
   d="m 169.996,248.256 c -29.904,0 -55.504,-21.392 -60.88,-50.864 -1.168,-6.496 3.136,-12.72 9.632,-13.904 6.544,-1.2 12.72,3.136 13.904,9.616 3.28,18.112 18.992,31.248 37.328,31.248 16.352,0 30.752,-10.608 35.856,-26.384 2.048,-6.272 8.752,-9.728 15.072,-7.696 6.288,2.032 9.728,8.768 7.696,15.056 -8.304,25.68 -31.856,42.928 -58.608,42.928 z"
   style="fill:#3e4347"
   inkscape:connector-curvature="0" />

	<path
   id="path2180"
   d="m 197.26,166.064 -83.616,-23.072 c -5.456,-1.52 -8.656,-7.152 -7.152,-12.608 1.504,-5.44 7.12,-8.656 12.592,-7.152 l 79.408,21.92 24.112,-14.32 c 4.864,-2.896 11.152,-1.28 14.032,3.584 2.896,4.864 1.296,11.152 -3.584,14.048 l -27.856,16.544 c -2.48,1.456 -5.36,1.76 -7.936,1.056 z"
   style="fill:#3e4347"
   inkscape:connector-curvature="0" />

	<path
   id="path2182"
   d="m 341.996,248.256 c -26.768,0 -50.304,-17.248 -58.608,-42.944 -2.032,-6.272 1.424,-13.024 7.712,-15.04 6.304,-2.032 13.024,1.424 15.056,7.712 5.088,15.776 19.488,26.368 35.84,26.368 18.352,0 34.048,-13.136 37.328,-31.232 1.184,-6.496 7.36,-10.816 13.904,-9.632 6.496,1.168 10.816,7.392 9.632,13.904 -5.344,29.472 -30.96,50.864 -60.864,50.864 z"
   style="fill:#3e4347"
   inkscape:connector-curvature="0" />

	<path
   id="path2184"
   d="m 306.796,164.992 -27.872,-16.544 c -4.864,-2.896 -6.464,-9.184 -3.584,-14.048 2.88,-4.864 9.168,-6.464 14.032,-3.584 l 24.128,14.32 79.408,-21.92 c 5.488,-1.504 11.088,1.712 12.592,7.152 1.504,5.456 -1.696,11.104 -7.152,12.608 l -83.616,23.072 c -2.56,0.72 -5.456,0.416 -7.936,-1.056 z"
   style="fill:#3e4347"
   inkscape:connector-curvature="0" />

</g>
    <path
       id="path2188"
       d="m 195.5,285.76 c 18.4,3.968 38.896,6.256 60.592,6.256 21.616,0 42,-2.256 60.304,-6.192 -16.352,-11.6 -36.912,-18.672 -60.528,-18.672 -23.52,-0.016 -44.032,7.04 -60.368,18.608 z"
       style="fill:#ffffff"
       inkscape:connector-curvature="0" />
    <path
       id="path2190"
       d="m 324.956,390.928 c -17.104,47.312 2.56,75.232 0.688,88.944 -0.96,6.144 -6.288,12.032 -12.288,11.072 -22.048,-3.68 4.208,-70.752 -10.928,-78.976 -13.664,-7.136 -21.632,21.616 -18.864,39.76 0.544,3.552 1.504,7.376 0.144,10.928 -1.232,3.408 -6.016,5.744 -8.736,3.408 -1.92,-1.632 -2.32,-4.784 -4.64,-5.6 -2.32,-0.688 -4.368,1.632 -5.184,3.824 -0.688,2.32 -0.544,4.912 -1.776,6.976 -2.704,4.432 -9.648,4.112 -11.344,-1.36 0.72,24.672 3.456,37.696 -3.68,41.264 -13.664,6.832 -24.384,-30.352 -20.352,-53.84 3.648,-18.208 -12.368,-15.936 -9.84,-4.096 0.816,3.824 2.88,7.376 2.32,11.344 -0.688,6.016 -7.92,9.568 -13.664,8.064 -23.632,-6.592 -3.472,-43.584 -27.904,-116.112 -0.144,-0.448 -0.112,-0.976 0.096,-1.392 15.648,-30.432 44.736,-29.792 76.176,-25.696 73.008,10.192 90.928,4.048 69.776,61.488 z"
       style="fill:#8cc63e"
       inkscape:connector-curvature="0" />
    <g
       id="g2196">
	<path
   id="path2192"
   d="m 271.996,410.608 c -0.144,1.92 -1.232,3.968 -3.136,4.368 -1.92,0.416 -3.696,-0.96 -4.512,-2.592 -0.816,-1.776 -0.816,-3.696 -0.816,-5.6 0.272,-8.064 1.92,-15.984 4.64,-23.632 -0.688,7.376 0.272,14.752 2.592,21.728 0.544,1.904 1.376,3.824 1.232,5.728 z"
   style="fill:#7fb239"
   inkscape:connector-curvature="0" />

	<path
   id="path2194"
   d="m 212.78,414.704 c 0.064,2.336 -1.408,4.816 -3.76,5.008 -10.496,0.768 -2.768,-38.512 0.256,-53.6 -0.256,44.224 3.968,34.912 3.504,48.592 z"
   style="fill:#7fb239"
   inkscape:connector-curvature="0" />

</g>
    <g
       id="g2202">
	<path
   id="path2198"
   d="m 323.98,341.664 c 0,0 20,25.888 10.944,46.112 -6.768,15.136 -0.624,21.408 7.904,23.488 8.528,2.08 15.184,-12.208 11.52,-29.104 -3.696,-16.88 -30.368,-40.496 -30.368,-40.496 z"
   style="fill:#8cc63e"
   inkscape:connector-curvature="0" />

	<path
   id="path2200"
   d="m 338.54,441.376 c 0.144,-0.416 3.28,-12.848 4.368,-16.8 1.504,5.744 3.008,11.344 4.512,17.072 4.64,16.816 -13.392,16.944 -8.88,-0.272 z"
   style="fill:#8cc63e"
   inkscape:connector-curvature="0" />

</g>
    <path
       id="path2204"
       d="m 241.356,462.064 c 0.144,1.232 1.984,15.2 3.072,19.504 3.904,17.536 -16.608,10.896 -3.072,-19.504 z"
       style="fill:#7fb239"
       inkscape:connector-curvature="0" />
    <g
       id="g2206">
</g>
    <g
       id="g2208">
</g>
    <g
       id="g2210">
</g>
    <g
       id="g2212">
</g>
    <g
       id="g2214">
</g>
    <g
       id="g2216">
</g>
    <g
       id="g2218">
</g>
    <g
       id="g2220">
</g>
    <g
       id="g2222">
</g>
    <g
       id="g2224">
</g>
    <g
       id="g2226">
</g>
    <g
       id="g2228">
</g>
    <g
       id="g2230">
</g>
    <g
       id="g2232">
</g>
    <g
       id="g2234">
</g>
  </g>
</svg>
