<?xml version="1.0" encoding="UTF-8" standalone="no"?>
<svg
   xmlns:dc="http://purl.org/dc/elements/1.1/"
   xmlns:cc="http://creativecommons.org/ns#"
   xmlns:rdf="http://www.w3.org/1999/02/22-rdf-syntax-ns#"
   xmlns:svg="http://www.w3.org/2000/svg"
   xmlns="http://www.w3.org/2000/svg"
   xmlns:sodipodi="http://sodipodi.sourceforge.net/DTD/sodipodi-0.dtd"
   xmlns:inkscape="http://www.inkscape.org/namespaces/inkscape"
   id="svg885"
   version="1.1"
   viewBox="0 0 79.374998 111.125"
   height="420"
   width="300"
   sodipodi:docname="017.svg"
   inkscape:version="0.92.4 (5da689c313, 2019-01-14)">
  <sodipodi:namedview
     pagecolor="#ffffff"
     bordercolor="#666666"
     borderopacity="1"
     objecttolerance="10"
     gridtolerance="10"
     guidetolerance="10"
     inkscape:pageopacity="0"
     inkscape:pageshadow="2"
     inkscape:window-width="1366"
     inkscape:window-height="745"
     id="namedview1053"
     showgrid="false"
     inkscape:zoom="0.96974645"
     inkscape:cx="39.474405"
     inkscape:cy="186.35308"
     inkscape:window-x="-8"
     inkscape:window-y="-8"
     inkscape:window-maximized="1"
     inkscape:current-layer="svg885" />
  <defs
     id="defs879" />
  <metadata
     id="metadata882">
    <rdf:RDF>
      <cc:Work
         rdf:about="">
        <dc:format>image/svg+xml</dc:format>
        <dc:type
           rdf:resource="http://purl.org/dc/dcmitype/StillImage" />
        <dc:title />
      </cc:Work>
    </rdf:RDF>
  </metadata>
  <g
     transform="translate(0,-185.87498)"
     id="layer1"
     style="opacity:0.99;fill:#7b4938;fill-opacity:1">
    <rect
       y="185.87776"
       x="0.0034530037"
       height="111.11626"
       width="79.368423"
       id="rect1430"
       style="opacity:1;fill:#7b4938;fill-opacity:1;fill-rule:nonzero;stroke:none;stroke-width:0.26598862;stroke-linecap:round;stroke-linejoin:round;stroke-miterlimit:4;stroke-dasharray:none;stroke-opacity:1;paint-order:normal" />
    <flowRoot
       style="fill:#7b4938;fill-opacity:1;stroke:none;font-family:Arial;font-style:normal;font-weight:bold;font-size:20.20399984px;line-height:1.25;letter-spacing:0px;word-spacing:0px;-inkscape-font-specification:'Arial, Bold';font-stretch:normal;font-variant:normal;text-anchor:start;text-align:start;writing-mode:lr;font-variant-ligatures:normal;font-variant-caps:normal;font-variant-numeric:normal;font-feature-settings:normal"
       id="flowRoot2560"
       xml:space="preserve"><flowRegion
         id="flowRegion2562"
         style="fill:#7b4938;fill-opacity:1"><rect
           y="-33.558495"
           x="-159.6041"
           height="422.24377"
           width="438.40622"
           id="rect2564"
           style="fill:#7b4938;fill-opacity:1" /></flowRegion><flowPara
         id="flowPara2566" /></flowRoot>  </g>
  <text
     xml:space="preserve"
     style="font-style:normal;font-variant:normal;font-weight:bold;font-stretch:normal;font-size:6.3499999px;line-height:1.25;font-family:Arial;-inkscape-font-specification:'Arial, Bold';font-variant-ligatures:normal;font-variant-caps:normal;font-variant-numeric:normal;font-feature-settings:normal;text-align:start;letter-spacing:0px;word-spacing:0px;writing-mode:lr-tb;text-anchor:start;fill:#292626;fill-opacity:1;stroke:none;stroke-width:0.26458332"
     x="2.7011271"
     y="8.8064241"
     id="text2322"><tspan
       sodipodi:role="line"
       x="2.7011271"
       y="8.8064241"
       id="tspan2320"
       style="fill:#292626;fill-opacity:1;stroke-width:0.26458332"><tspan
         x="2.7011271"
         y="8.8064241"
         id="tspan2318"
         style="fill:#292626;fill-opacity:1;stroke-width:0.26458332">17.</tspan></tspan></text>
  <g
     id="g1946"
     transform="matrix(0.0414112,-0.01075463,0.00948666,0.03652883,50.977339,94.032429)">
    <path
       id="path1887"
       d="m 196.40625,345.1875 c -27.03125,-35.52734 18.03125,-60.88672 7.67969,-99.52734 -9.15235,-34.13672 -57.50391,-59.12891 -95.91016,-48.80078 -36.316405,8.33984 -59.652342,43.75781 -52.984374,80.41406 7.015625,33.79297 65.343754,178.79297 123.382814,182.28125 25.25781,1.51172 83.19922,-28.42969 17.83203,-114.36719 z m 0,0"
       inkscape:connector-curvature="0"
       style="fill:#ffbcab" />
    <path
       id="path1889"
       d="m 188.73438,458.74609 c -3.33985,0.67969 -6.75391,0.94922 -10.16016,0.80079 C 120.49219,456.10547 62.175781,311.06641 55.214844,277.30859 c -6.707032,-36.67187 16.625,-72.13281 52.960936,-80.48047 8.68359,-2.28515 17.71484,-2.93359 26.63672,-1.92187 -3.59766,0.31641 -7.15625,0.95703 -10.63672,1.92187 -36.335936,8.34766 -59.667968,43.8086 -52.960936,80.48047 6.71875,32.63672 61.437496,169.19922 117.519536,181.4375 z m 0,0"
       inkscape:connector-curvature="0"
       style="fill:#ff9478" />
    <g
       id="g1903"
       style="fill:#ffbcab">
      <path
         id="path1891"
         d="m 195.24609,181.78516 c 12.80469,-3.42969 20.40235,-16.58985 16.97266,-29.39063 -3.43359,-12.80469 -16.59375,-20.40234 -29.39453,-16.97265 -12.80469,3.43359 -20.40234,16.59375 -16.96875,29.39843 3.42969,12.80078 16.58984,20.39453 29.39062,16.96485 z m 0,0"
         inkscape:connector-curvature="0" />
      <path
         id="path1893"
         d="m 132.87109,165.35547 c 8.53516,-2.28516 13.60157,-11.05859 11.31641,-19.59766 -2.28516,-8.53515 -11.0625,-13.60156 -19.59766,-11.3125 -8.53515,2.28516 -13.60156,11.0625 -11.3125,19.59766 2.28907,8.53125 11.0586,13.59766 19.59375,11.3125 z m 0,0"
         inkscape:connector-curvature="0" />
      <path
         id="path1895"
         d="m 78.78125,179.85156 c 8.535156,-2.28906 13.597656,-11.0625 11.308594,-19.59765 -2.289063,-8.53516 -11.0625,-13.59766 -19.597656,-11.3125 -8.53125,2.28906 -13.597657,11.0625 -11.308594,19.59765 2.285156,8.53516 11.0625,13.60157 19.597656,11.3125 z m 0,0"
         inkscape:connector-curvature="0" />
      <path
         id="path1897"
         d="m 38.628906,215.46094 c 8.535156,-2.28906 13.597656,-11.0625 11.3125,-19.59766 -2.285156,-8.53125 -11.058594,-13.59765 -19.59375,-11.3125 -8.53125,2.28125 -13.601562,11.05469 -11.316406,19.58985 2.28125,8.53906 11.058594,13.60937 19.597656,11.32031 z m 0,0"
         inkscape:connector-curvature="0" />
      <path
         id="path1899"
         d="m 11.863281,239.19531 c -8.539062,2.28516 -13.605469,11.0586 -11.320312,19.59375 2.289062,8.53907 11.0625,13.60547 19.597656,11.31641 8.539063,-2.28906 13.601563,-11.0625 11.3125,-19.59766 -2.285156,-8.53515 -11.058594,-13.59765 -19.589844,-11.3125 z m 0,0"
         inkscape:connector-curvature="0" />
      <path
         id="path1901"
         d="m 415.375,120.1875 c -3.02734,-37.152344 -34.75,-65.351562 -72,-64 -39.76953,0 -80,36.65625 -80,72 0,40 49.81641,50.75781 32.90234,92.07031 C 255.375,320.1875 319.375,336.1875 343.375,328.1875 c 55.19922,-18.40234 73.96875,-173.54297 72,-208 z m 0,0"
         inkscape:connector-curvature="0" />
    </g>
    <path
       id="path1905"
       d="M 338.89453,329.22656 C 312.33594,334.10547 257.69531,314.42578 296.25391,220.26563 313.21484,178.90625 263.375,168.1875 263.375,128.1875 c 0,-35.359375 40.23828,-72 80,-72 2.80078,0 5.59766,0.160156 8.32031,0.398438 -37.12109,4.320312 -72.32031,38.5625 -72.32031,71.601562 0,40 49.83984,50.71875 32.87891,92.07813 -31.76172,77.51953 -0.23828,104.5625 26.64062,108.96093 z m 0,0"
       inkscape:connector-curvature="0"
       style="fill:#ff9478" />
    <path
       id="path1907"
       d="m 279.375,40.1875 c 0,13.253906 -10.74609,24 -24,24 -13.25391,0 -24,-10.746094 -24,-24 0,-13.253906 10.74609,-24 24,-24 13.25391,0 24,10.746094 24,24 z m 0,0"
       inkscape:connector-curvature="0"
       style="fill:#ffbcab" />
    <path
       id="path1909"
       d="m 327.375,16.1875 c 0,8.835938 -7.16406,16 -16,16 -8.83594,0 -16,-7.164062 -16,-16 0,-8.835938 7.16406,-16 16,-16 8.83594,0 16,7.164062 16,16 z m 0,0"
       inkscape:connector-curvature="0"
       style="fill:#ffbcab" />
    <path
       id="path1911"
       d="m 383.375,16.1875 c 0,8.835938 -7.16406,16 -16,16 -8.83594,0 -16,-7.164062 -16,-16 0,-8.835938 7.16406,-16 16,-16 8.83594,0 16,7.164062 16,16 z m 0,0"
       inkscape:connector-curvature="0"
       style="fill:#ffbcab" />
    <path
       id="path1913"
       d="m 431.375,40.1875 c 0,8.835938 -7.16406,16 -16,16 -8.83594,0 -16,-7.164062 -16,-16 0,-8.835938 7.16406,-16 16,-16 8.83594,0 16,7.164062 16,16 z m 0,0"
       inkscape:connector-curvature="0"
       style="fill:#ffbcab" />
    <path
       id="path1915"
       d="m 463.375,88.1875 c 0,8.835938 -7.16406,16 -16,16 -8.83594,0 -16,-7.164062 -16,-16 0,-8.835938 7.16406,-16 16,-16 8.83594,0 16,7.164062 16,16 z m 0,0"
       inkscape:connector-curvature="0"
       style="fill:#ffbcab" />
    <path
       id="path1917"
       d="m 297.94922,142.13281 c -3.39844,0.004 -6.42969,-2.14062 -7.55859,-5.34765 -1.12891,-3.20703 -0.10547,-6.77735 2.55078,-8.90235 25.33593,-20.30078 59.80078,-24.97656 89.63281,-12.16797 3.99609,1.78125 5.82031,6.44141 4.09765,10.46094 -1.72656,4.01953 -6.35937,5.91016 -10.40234,4.24219 -24.40625,-10.49219 -52.60937,-6.66016 -73.33594,9.96094 -1.41406,1.13281 -3.17187,1.75 -4.98437,1.7539 z m 0,0"
       inkscape:connector-curvature="0"
       style="fill:#f1f2f2" />
    <path
       id="path1919"
       d="m 172.79688,278.13281 c -1.8125,-0.004 -3.57422,-0.62109 -4.99219,-1.7539 -20.72656,-16.60938 -48.92578,-20.4375 -73.33594,-9.96094 -2.632812,1.17578 -5.699219,0.83984 -8.015625,-0.875 -2.320313,-1.71875 -3.535156,-4.55078 -3.179687,-7.41406 0.355468,-2.86328 2.226562,-5.31641 4.894531,-6.41407 29.820311,-12.80468 64.273441,-8.1289 89.597661,12.16797 2.65625,2.125 3.67968,5.69532 2.55078,8.90235 -1.125,3.20703 -4.16016,5.35156 -7.5586,5.34765 z m 0,0"
       inkscape:connector-curvature="0"
       style="fill:#f1f2f2" />
  </g>
  <g
     transform="matrix(0.03991691,-0.01540097,0.01358519,0.03521071,35.153391,76.51155)"
     id="g1982">
    <path
       style="fill:#ffbcab"
       inkscape:connector-curvature="0"
       d="m 196.40625,345.1875 c -27.03125,-35.52734 18.03125,-60.88672 7.67969,-99.52734 -9.15235,-34.13672 -57.50391,-59.12891 -95.91016,-48.80078 -36.316405,8.33984 -59.652342,43.75781 -52.984374,80.41406 7.015625,33.79297 65.343754,178.79297 123.382814,182.28125 25.25781,1.51172 83.19922,-28.42969 17.83203,-114.36719 z m 0,0"
       id="path1948" />
    <path
       style="fill:#ff9478"
       inkscape:connector-curvature="0"
       d="m 188.73438,458.74609 c -3.33985,0.67969 -6.75391,0.94922 -10.16016,0.80079 C 120.49219,456.10547 62.175781,311.06641 55.214844,277.30859 c -6.707032,-36.67187 16.625,-72.13281 52.960936,-80.48047 8.68359,-2.28515 17.71484,-2.93359 26.63672,-1.92187 -3.59766,0.31641 -7.15625,0.95703 -10.63672,1.92187 -36.335936,8.34766 -59.667968,43.8086 -52.960936,80.48047 6.71875,32.63672 61.437496,169.19922 117.519536,181.4375 z m 0,0"
       id="path1950" />
    <g
       style="fill:#ffbcab"
       id="g1964">
      <path
         inkscape:connector-curvature="0"
         d="m 195.24609,181.78516 c 12.80469,-3.42969 20.40235,-16.58985 16.97266,-29.39063 -3.43359,-12.80469 -16.59375,-20.40234 -29.39453,-16.97265 -12.80469,3.43359 -20.40234,16.59375 -16.96875,29.39843 3.42969,12.80078 16.58984,20.39453 29.39062,16.96485 z m 0,0"
         id="path1952" />
      <path
         inkscape:connector-curvature="0"
         d="m 132.87109,165.35547 c 8.53516,-2.28516 13.60157,-11.05859 11.31641,-19.59766 -2.28516,-8.53515 -11.0625,-13.60156 -19.59766,-11.3125 -8.53515,2.28516 -13.60156,11.0625 -11.3125,19.59766 2.28907,8.53125 11.0586,13.59766 19.59375,11.3125 z m 0,0"
         id="path1954" />
      <path
         inkscape:connector-curvature="0"
         d="m 78.78125,179.85156 c 8.535156,-2.28906 13.597656,-11.0625 11.308594,-19.59765 -2.289063,-8.53516 -11.0625,-13.59766 -19.597656,-11.3125 -8.53125,2.28906 -13.597657,11.0625 -11.308594,19.59765 2.285156,8.53516 11.0625,13.60157 19.597656,11.3125 z m 0,0"
         id="path1956" />
      <path
         inkscape:connector-curvature="0"
         d="m 38.628906,215.46094 c 8.535156,-2.28906 13.597656,-11.0625 11.3125,-19.59766 -2.285156,-8.53125 -11.058594,-13.59765 -19.59375,-11.3125 -8.53125,2.28125 -13.601562,11.05469 -11.316406,19.58985 2.28125,8.53906 11.058594,13.60937 19.597656,11.32031 z m 0,0"
         id="path1958" />
      <path
         inkscape:connector-curvature="0"
         d="m 11.863281,239.19531 c -8.539062,2.28516 -13.605469,11.0586 -11.320312,19.59375 2.289062,8.53907 11.0625,13.60547 19.597656,11.31641 8.539063,-2.28906 13.601563,-11.0625 11.3125,-19.59766 -2.285156,-8.53515 -11.058594,-13.59765 -19.589844,-11.3125 z m 0,0"
         id="path1960" />
      <path
         inkscape:connector-curvature="0"
         d="m 415.375,120.1875 c -3.02734,-37.152344 -34.75,-65.351562 -72,-64 -39.76953,0 -80,36.65625 -80,72 0,40 49.81641,50.75781 32.90234,92.07031 C 255.375,320.1875 319.375,336.1875 343.375,328.1875 c 55.19922,-18.40234 73.96875,-173.54297 72,-208 z m 0,0"
         id="path1962" />
    </g>
    <path
       style="fill:#ff9478"
       inkscape:connector-curvature="0"
       d="M 338.89453,329.22656 C 312.33594,334.10547 257.69531,314.42578 296.25391,220.26563 313.21484,178.90625 263.375,168.1875 263.375,128.1875 c 0,-35.359375 40.23828,-72 80,-72 2.80078,0 5.59766,0.160156 8.32031,0.398438 -37.12109,4.320312 -72.32031,38.5625 -72.32031,71.601562 0,40 49.83984,50.71875 32.87891,92.07813 -31.76172,77.51953 -0.23828,104.5625 26.64062,108.96093 z m 0,0"
       id="path1966" />
    <path
       style="fill:#ffbcab"
       inkscape:connector-curvature="0"
       d="m 279.375,40.1875 c 0,13.253906 -10.74609,24 -24,24 -13.25391,0 -24,-10.746094 -24,-24 0,-13.253906 10.74609,-24 24,-24 13.25391,0 24,10.746094 24,24 z m 0,0"
       id="path1968" />
    <path
       style="fill:#ffbcab"
       inkscape:connector-curvature="0"
       d="m 327.375,16.1875 c 0,8.835938 -7.16406,16 -16,16 -8.83594,0 -16,-7.164062 -16,-16 0,-8.835938 7.16406,-16 16,-16 8.83594,0 16,7.164062 16,16 z m 0,0"
       id="path1970" />
    <path
       style="fill:#ffbcab"
       inkscape:connector-curvature="0"
       d="m 383.375,16.1875 c 0,8.835938 -7.16406,16 -16,16 -8.83594,0 -16,-7.164062 -16,-16 0,-8.835938 7.16406,-16 16,-16 8.83594,0 16,7.164062 16,16 z m 0,0"
       id="path1972" />
    <path
       style="fill:#ffbcab"
       inkscape:connector-curvature="0"
       d="m 431.375,40.1875 c 0,8.835938 -7.16406,16 -16,16 -8.83594,0 -16,-7.164062 -16,-16 0,-8.835938 7.16406,-16 16,-16 8.83594,0 16,7.164062 16,16 z m 0,0"
       id="path1974" />
    <path
       style="fill:#ffbcab"
       inkscape:connector-curvature="0"
       d="m 463.375,88.1875 c 0,8.835938 -7.16406,16 -16,16 -8.83594,0 -16,-7.164062 -16,-16 0,-8.835938 7.16406,-16 16,-16 8.83594,0 16,7.164062 16,16 z m 0,0"
       id="path1976" />
    <path
       style="fill:#f1f2f2"
       inkscape:connector-curvature="0"
       d="m 297.94922,142.13281 c -3.39844,0.004 -6.42969,-2.14062 -7.55859,-5.34765 -1.12891,-3.20703 -0.10547,-6.77735 2.55078,-8.90235 25.33593,-20.30078 59.80078,-24.97656 89.63281,-12.16797 3.99609,1.78125 5.82031,6.44141 4.09765,10.46094 -1.72656,4.01953 -6.35937,5.91016 -10.40234,4.24219 -24.40625,-10.49219 -52.60937,-6.66016 -73.33594,9.96094 -1.41406,1.13281 -3.17187,1.75 -4.98437,1.7539 z m 0,0"
       id="path1978" />
    <path
       style="fill:#f1f2f2"
       inkscape:connector-curvature="0"
       d="m 172.79688,278.13281 c -1.8125,-0.004 -3.57422,-0.62109 -4.99219,-1.7539 -20.72656,-16.60938 -48.92578,-20.4375 -73.33594,-9.96094 -2.632812,1.17578 -5.699219,0.83984 -8.015625,-0.875 -2.320313,-1.71875 -3.535156,-4.55078 -3.179687,-7.41406 0.355468,-2.86328 2.226562,-5.31641 4.894531,-6.41407 29.820311,-12.80468 64.273441,-8.1289 89.597661,12.16797 2.65625,2.125 3.67968,5.69532 2.55078,8.90235 -1.125,3.20703 -4.16016,5.35156 -7.5586,5.34765 z m 0,0"
       id="path1980" />
  </g>
  <g
     id="g2018"
     transform="matrix(0.03538279,-0.02405425,0.02121825,0.03121118,20.655485,63.432169)">
    <path
       id="path1984"
       d="m 196.40625,345.1875 c -27.03125,-35.52734 18.03125,-60.88672 7.67969,-99.52734 -9.15235,-34.13672 -57.50391,-59.12891 -95.91016,-48.80078 -36.316405,8.33984 -59.652342,43.75781 -52.984374,80.41406 7.015625,33.79297 65.343754,178.79297 123.382814,182.28125 25.25781,1.51172 83.19922,-28.42969 17.83203,-114.36719 z m 0,0"
       inkscape:connector-curvature="0"
       style="fill:#ffbcab" />
    <path
       id="path1986"
       d="m 188.73438,458.74609 c -3.33985,0.67969 -6.75391,0.94922 -10.16016,0.80079 C 120.49219,456.10547 62.175781,311.06641 55.214844,277.30859 c -6.707032,-36.67187 16.625,-72.13281 52.960936,-80.48047 8.68359,-2.28515 17.71484,-2.93359 26.63672,-1.92187 -3.59766,0.31641 -7.15625,0.95703 -10.63672,1.92187 -36.335936,8.34766 -59.667968,43.8086 -52.960936,80.48047 6.71875,32.63672 61.437496,169.19922 117.519536,181.4375 z m 0,0"
       inkscape:connector-curvature="0"
       style="fill:#ff9478" />
    <g
       id="g2000"
       style="fill:#ffbcab">
      <path
         id="path1988"
         d="m 195.24609,181.78516 c 12.80469,-3.42969 20.40235,-16.58985 16.97266,-29.39063 -3.43359,-12.80469 -16.59375,-20.40234 -29.39453,-16.97265 -12.80469,3.43359 -20.40234,16.59375 -16.96875,29.39843 3.42969,12.80078 16.58984,20.39453 29.39062,16.96485 z m 0,0"
         inkscape:connector-curvature="0" />
      <path
         id="path1990"
         d="m 132.87109,165.35547 c 8.53516,-2.28516 13.60157,-11.05859 11.31641,-19.59766 -2.28516,-8.53515 -11.0625,-13.60156 -19.59766,-11.3125 -8.53515,2.28516 -13.60156,11.0625 -11.3125,19.59766 2.28907,8.53125 11.0586,13.59766 19.59375,11.3125 z m 0,0"
         inkscape:connector-curvature="0" />
      <path
         id="path1992"
         d="m 78.78125,179.85156 c 8.535156,-2.28906 13.597656,-11.0625 11.308594,-19.59765 -2.289063,-8.53516 -11.0625,-13.59766 -19.597656,-11.3125 -8.53125,2.28906 -13.597657,11.0625 -11.308594,19.59765 2.285156,8.53516 11.0625,13.60157 19.597656,11.3125 z m 0,0"
         inkscape:connector-curvature="0" />
      <path
         id="path1994"
         d="m 38.628906,215.46094 c 8.535156,-2.28906 13.597656,-11.0625 11.3125,-19.59766 -2.285156,-8.53125 -11.058594,-13.59765 -19.59375,-11.3125 -8.53125,2.28125 -13.601562,11.05469 -11.316406,19.58985 2.28125,8.53906 11.058594,13.60937 19.597656,11.32031 z m 0,0"
         inkscape:connector-curvature="0" />
      <path
         id="path1996"
         d="m 11.863281,239.19531 c -8.539062,2.28516 -13.605469,11.0586 -11.320312,19.59375 2.289062,8.53907 11.0625,13.60547 19.597656,11.31641 8.539063,-2.28906 13.601563,-11.0625 11.3125,-19.59766 -2.285156,-8.53515 -11.058594,-13.59765 -19.589844,-11.3125 z m 0,0"
         inkscape:connector-curvature="0" />
      <path
         id="path1998"
         d="m 415.375,120.1875 c -3.02734,-37.152344 -34.75,-65.351562 -72,-64 -39.76953,0 -80,36.65625 -80,72 0,40 49.81641,50.75781 32.90234,92.07031 C 255.375,320.1875 319.375,336.1875 343.375,328.1875 c 55.19922,-18.40234 73.96875,-173.54297 72,-208 z m 0,0"
         inkscape:connector-curvature="0" />
    </g>
    <path
       id="path2002"
       d="M 338.89453,329.22656 C 312.33594,334.10547 257.69531,314.42578 296.25391,220.26563 313.21484,178.90625 263.375,168.1875 263.375,128.1875 c 0,-35.359375 40.23828,-72 80,-72 2.80078,0 5.59766,0.160156 8.32031,0.398438 -37.12109,4.320312 -72.32031,38.5625 -72.32031,71.601562 0,40 49.83984,50.71875 32.87891,92.07813 -31.76172,77.51953 -0.23828,104.5625 26.64062,108.96093 z m 0,0"
       inkscape:connector-curvature="0"
       style="fill:#ff9478" />
    <path
       id="path2004"
       d="m 279.375,40.1875 c 0,13.253906 -10.74609,24 -24,24 -13.25391,0 -24,-10.746094 -24,-24 0,-13.253906 10.74609,-24 24,-24 13.25391,0 24,10.746094 24,24 z m 0,0"
       inkscape:connector-curvature="0"
       style="fill:#ffbcab" />
    <path
       id="path2006"
       d="m 327.375,16.1875 c 0,8.835938 -7.16406,16 -16,16 -8.83594,0 -16,-7.164062 -16,-16 0,-8.835938 7.16406,-16 16,-16 8.83594,0 16,7.164062 16,16 z m 0,0"
       inkscape:connector-curvature="0"
       style="fill:#ffbcab" />
    <path
       id="path2008"
       d="m 383.375,16.1875 c 0,8.835938 -7.16406,16 -16,16 -8.83594,0 -16,-7.164062 -16,-16 0,-8.835938 7.16406,-16 16,-16 8.83594,0 16,7.164062 16,16 z m 0,0"
       inkscape:connector-curvature="0"
       style="fill:#ffbcab" />
    <path
       id="path2010"
       d="m 431.375,40.1875 c 0,8.835938 -7.16406,16 -16,16 -8.83594,0 -16,-7.164062 -16,-16 0,-8.835938 7.16406,-16 16,-16 8.83594,0 16,7.164062 16,16 z m 0,0"
       inkscape:connector-curvature="0"
       style="fill:#ffbcab" />
    <path
       id="path2012"
       d="m 463.375,88.1875 c 0,8.835938 -7.16406,16 -16,16 -8.83594,0 -16,-7.164062 -16,-16 0,-8.835938 7.16406,-16 16,-16 8.83594,0 16,7.164062 16,16 z m 0,0"
       inkscape:connector-curvature="0"
       style="fill:#ffbcab" />
    <path
       id="path2014"
       d="m 297.94922,142.13281 c -3.39844,0.004 -6.42969,-2.14062 -7.55859,-5.34765 -1.12891,-3.20703 -0.10547,-6.77735 2.55078,-8.90235 25.33593,-20.30078 59.80078,-24.97656 89.63281,-12.16797 3.99609,1.78125 5.82031,6.44141 4.09765,10.46094 -1.72656,4.01953 -6.35937,5.91016 -10.40234,4.24219 -24.40625,-10.49219 -52.60937,-6.66016 -73.33594,9.96094 -1.41406,1.13281 -3.17187,1.75 -4.98437,1.7539 z m 0,0"
       inkscape:connector-curvature="0"
       style="fill:#f1f2f2" />
    <path
       id="path2016"
       d="m 172.79688,278.13281 c -1.8125,-0.004 -3.57422,-0.62109 -4.99219,-1.7539 -20.72656,-16.60938 -48.92578,-20.4375 -73.33594,-9.96094 -2.632812,1.17578 -5.699219,0.83984 -8.015625,-0.875 -2.320313,-1.71875 -3.535156,-4.55078 -3.179687,-7.41406 0.355468,-2.86328 2.226562,-5.31641 4.894531,-6.41407 29.820311,-12.80468 64.273441,-8.1289 89.597661,12.16797 2.65625,2.125 3.67968,5.69532 2.55078,8.90235 -1.125,3.20703 -4.16016,5.35156 -7.5586,5.34765 z m 0,0"
       inkscape:connector-curvature="0"
       style="fill:#f1f2f2" />
  </g>
  <g
     transform="matrix(0.03542997,-0.02398472,0.02115692,0.03125279,5.6511033,51.403756)"
     id="g2054">
    <path
       style="fill:#ffbcab"
       inkscape:connector-curvature="0"
       d="m 196.40625,345.1875 c -27.03125,-35.52734 18.03125,-60.88672 7.67969,-99.52734 -9.15235,-34.13672 -57.50391,-59.12891 -95.91016,-48.80078 -36.316405,8.33984 -59.652342,43.75781 -52.984374,80.41406 7.015625,33.79297 65.343754,178.79297 123.382814,182.28125 25.25781,1.51172 83.19922,-28.42969 17.83203,-114.36719 z m 0,0"
       id="path2020" />
    <path
       style="fill:#ff9478"
       inkscape:connector-curvature="0"
       d="m 188.73438,458.74609 c -3.33985,0.67969 -6.75391,0.94922 -10.16016,0.80079 C 120.49219,456.10547 62.175781,311.06641 55.214844,277.30859 c -6.707032,-36.67187 16.625,-72.13281 52.960936,-80.48047 8.68359,-2.28515 17.71484,-2.93359 26.63672,-1.92187 -3.59766,0.31641 -7.15625,0.95703 -10.63672,1.92187 -36.335936,8.34766 -59.667968,43.8086 -52.960936,80.48047 6.71875,32.63672 61.437496,169.19922 117.519536,181.4375 z m 0,0"
       id="path2022" />
    <g
       style="fill:#ffbcab"
       id="g2036">
      <path
         inkscape:connector-curvature="0"
         d="m 195.24609,181.78516 c 12.80469,-3.42969 20.40235,-16.58985 16.97266,-29.39063 -3.43359,-12.80469 -16.59375,-20.40234 -29.39453,-16.97265 -12.80469,3.43359 -20.40234,16.59375 -16.96875,29.39843 3.42969,12.80078 16.58984,20.39453 29.39062,16.96485 z m 0,0"
         id="path2024" />
      <path
         inkscape:connector-curvature="0"
         d="m 132.87109,165.35547 c 8.53516,-2.28516 13.60157,-11.05859 11.31641,-19.59766 -2.28516,-8.53515 -11.0625,-13.60156 -19.59766,-11.3125 -8.53515,2.28516 -13.60156,11.0625 -11.3125,19.59766 2.28907,8.53125 11.0586,13.59766 19.59375,11.3125 z m 0,0"
         id="path2026" />
      <path
         inkscape:connector-curvature="0"
         d="m 78.78125,179.85156 c 8.535156,-2.28906 13.597656,-11.0625 11.308594,-19.59765 -2.289063,-8.53516 -11.0625,-13.59766 -19.597656,-11.3125 -8.53125,2.28906 -13.597657,11.0625 -11.308594,19.59765 2.285156,8.53516 11.0625,13.60157 19.597656,11.3125 z m 0,0"
         id="path2028" />
      <path
         inkscape:connector-curvature="0"
         d="m 38.628906,215.46094 c 8.535156,-2.28906 13.597656,-11.0625 11.3125,-19.59766 -2.285156,-8.53125 -11.058594,-13.59765 -19.59375,-11.3125 -8.53125,2.28125 -13.601562,11.05469 -11.316406,19.58985 2.28125,8.53906 11.058594,13.60937 19.597656,11.32031 z m 0,0"
         id="path2030" />
      <path
         inkscape:connector-curvature="0"
         d="m 11.863281,239.19531 c -8.539062,2.28516 -13.605469,11.0586 -11.320312,19.59375 2.289062,8.53907 11.0625,13.60547 19.597656,11.31641 8.539063,-2.28906 13.601563,-11.0625 11.3125,-19.59766 -2.285156,-8.53515 -11.058594,-13.59765 -19.589844,-11.3125 z m 0,0"
         id="path2032" />
      <path
         inkscape:connector-curvature="0"
         d="m 415.375,120.1875 c -3.02734,-37.152344 -34.75,-65.351562 -72,-64 -39.76953,0 -80,36.65625 -80,72 0,40 49.81641,50.75781 32.90234,92.07031 C 255.375,320.1875 319.375,336.1875 343.375,328.1875 c 55.19922,-18.40234 73.96875,-173.54297 72,-208 z m 0,0"
         id="path2034" />
    </g>
    <path
       style="fill:#ff9478"
       inkscape:connector-curvature="0"
       d="M 338.89453,329.22656 C 312.33594,334.10547 257.69531,314.42578 296.25391,220.26563 313.21484,178.90625 263.375,168.1875 263.375,128.1875 c 0,-35.359375 40.23828,-72 80,-72 2.80078,0 5.59766,0.160156 8.32031,0.398438 -37.12109,4.320312 -72.32031,38.5625 -72.32031,71.601562 0,40 49.83984,50.71875 32.87891,92.07813 -31.76172,77.51953 -0.23828,104.5625 26.64062,108.96093 z m 0,0"
       id="path2038" />
    <path
       style="fill:#ffbcab"
       inkscape:connector-curvature="0"
       d="m 279.375,40.1875 c 0,13.253906 -10.74609,24 -24,24 -13.25391,0 -24,-10.746094 -24,-24 0,-13.253906 10.74609,-24 24,-24 13.25391,0 24,10.746094 24,24 z m 0,0"
       id="path2040" />
    <path
       style="fill:#ffbcab"
       inkscape:connector-curvature="0"
       d="m 327.375,16.1875 c 0,8.835938 -7.16406,16 -16,16 -8.83594,0 -16,-7.164062 -16,-16 0,-8.835938 7.16406,-16 16,-16 8.83594,0 16,7.164062 16,16 z m 0,0"
       id="path2042" />
    <path
       style="fill:#ffbcab"
       inkscape:connector-curvature="0"
       d="m 383.375,16.1875 c 0,8.835938 -7.16406,16 -16,16 -8.83594,0 -16,-7.164062 -16,-16 0,-8.835938 7.16406,-16 16,-16 8.83594,0 16,7.164062 16,16 z m 0,0"
       id="path2044" />
    <path
       style="fill:#ffbcab"
       inkscape:connector-curvature="0"
       d="m 431.375,40.1875 c 0,8.835938 -7.16406,16 -16,16 -8.83594,0 -16,-7.164062 -16,-16 0,-8.835938 7.16406,-16 16,-16 8.83594,0 16,7.164062 16,16 z m 0,0"
       id="path2046" />
    <path
       style="fill:#ffbcab"
       inkscape:connector-curvature="0"
       d="m 463.375,88.1875 c 0,8.835938 -7.16406,16 -16,16 -8.83594,0 -16,-7.164062 -16,-16 0,-8.835938 7.16406,-16 16,-16 8.83594,0 16,7.164062 16,16 z m 0,0"
       id="path2048" />
    <path
       style="fill:#f1f2f2"
       inkscape:connector-curvature="0"
       d="m 297.94922,142.13281 c -3.39844,0.004 -6.42969,-2.14062 -7.55859,-5.34765 -1.12891,-3.20703 -0.10547,-6.77735 2.55078,-8.90235 25.33593,-20.30078 59.80078,-24.97656 89.63281,-12.16797 3.99609,1.78125 5.82031,6.44141 4.09765,10.46094 -1.72656,4.01953 -6.35937,5.91016 -10.40234,4.24219 -24.40625,-10.49219 -52.60937,-6.66016 -73.33594,9.96094 -1.41406,1.13281 -3.17187,1.75 -4.98437,1.7539 z m 0,0"
       id="path2050" />
    <path
       style="fill:#f1f2f2"
       inkscape:connector-curvature="0"
       d="m 172.79688,278.13281 c -1.8125,-0.004 -3.57422,-0.62109 -4.99219,-1.7539 -20.72656,-16.60938 -48.92578,-20.4375 -73.33594,-9.96094 -2.632812,1.17578 -5.699219,0.83984 -8.015625,-0.875 -2.320313,-1.71875 -3.535156,-4.55078 -3.179687,-7.41406 0.355468,-2.86328 2.226562,-5.31641 4.894531,-6.41407 29.820311,-12.80468 64.273441,-8.1289 89.597661,12.16797 2.65625,2.125 3.67968,5.69532 2.55078,8.90235 -1.125,3.20703 -4.16016,5.35156 -7.5586,5.34765 z m 0,0"
       id="path2052" />
  </g>
  <g
     id="g2090"
     transform="matrix(0.03227692,-0.02808469,0.02477351,0.02847148,-10.693228,43.329958)">
    <path
       id="path2056"
       d="m 196.40625,345.1875 c -27.03125,-35.52734 18.03125,-60.88672 7.67969,-99.52734 -9.15235,-34.13672 -57.50391,-59.12891 -95.91016,-48.80078 -36.316405,8.33984 -59.652342,43.75781 -52.984374,80.41406 7.015625,33.79297 65.343754,178.79297 123.382814,182.28125 25.25781,1.51172 83.19922,-28.42969 17.83203,-114.36719 z m 0,0"
       inkscape:connector-curvature="0"
       style="fill:#ffbcab" />
    <path
       id="path2058"
       d="m 188.73438,458.74609 c -3.33985,0.67969 -6.75391,0.94922 -10.16016,0.80079 C 120.49219,456.10547 62.175781,311.06641 55.214844,277.30859 c -6.707032,-36.67187 16.625,-72.13281 52.960936,-80.48047 8.68359,-2.28515 17.71484,-2.93359 26.63672,-1.92187 -3.59766,0.31641 -7.15625,0.95703 -10.63672,1.92187 -36.335936,8.34766 -59.667968,43.8086 -52.960936,80.48047 6.71875,32.63672 61.437496,169.19922 117.519536,181.4375 z m 0,0"
       inkscape:connector-curvature="0"
       style="fill:#ff9478" />
    <g
       id="g2072"
       style="fill:#ffbcab">
      <path
         id="path2060"
         d="m 195.24609,181.78516 c 12.80469,-3.42969 20.40235,-16.58985 16.97266,-29.39063 -3.43359,-12.80469 -16.59375,-20.40234 -29.39453,-16.97265 -12.80469,3.43359 -20.40234,16.59375 -16.96875,29.39843 3.42969,12.80078 16.58984,20.39453 29.39062,16.96485 z m 0,0"
         inkscape:connector-curvature="0" />
      <path
         id="path2062"
         d="m 132.87109,165.35547 c 8.53516,-2.28516 13.60157,-11.05859 11.31641,-19.59766 -2.28516,-8.53515 -11.0625,-13.60156 -19.59766,-11.3125 -8.53515,2.28516 -13.60156,11.0625 -11.3125,19.59766 2.28907,8.53125 11.0586,13.59766 19.59375,11.3125 z m 0,0"
         inkscape:connector-curvature="0" />
      <path
         id="path2064"
         d="m 78.78125,179.85156 c 8.535156,-2.28906 13.597656,-11.0625 11.308594,-19.59765 -2.289063,-8.53516 -11.0625,-13.59766 -19.597656,-11.3125 -8.53125,2.28906 -13.597657,11.0625 -11.308594,19.59765 2.285156,8.53516 11.0625,13.60157 19.597656,11.3125 z m 0,0"
         inkscape:connector-curvature="0" />
      <path
         id="path2066"
         d="m 38.628906,215.46094 c 8.535156,-2.28906 13.597656,-11.0625 11.3125,-19.59766 -2.285156,-8.53125 -11.058594,-13.59765 -19.59375,-11.3125 -8.53125,2.28125 -13.601562,11.05469 -11.316406,19.58985 2.28125,8.53906 11.058594,13.60937 19.597656,11.32031 z m 0,0"
         inkscape:connector-curvature="0" />
      <path
         id="path2068"
         d="m 11.863281,239.19531 c -8.539062,2.28516 -13.605469,11.0586 -11.320312,19.59375 2.289062,8.53907 11.0625,13.60547 19.597656,11.31641 8.539063,-2.28906 13.601563,-11.0625 11.3125,-19.59766 -2.285156,-8.53515 -11.058594,-13.59765 -19.589844,-11.3125 z m 0,0"
         inkscape:connector-curvature="0" />
      <path
         id="path2070"
         d="m 415.375,120.1875 c -3.02734,-37.152344 -34.75,-65.351562 -72,-64 -39.76953,0 -80,36.65625 -80,72 0,40 49.81641,50.75781 32.90234,92.07031 C 255.375,320.1875 319.375,336.1875 343.375,328.1875 c 55.19922,-18.40234 73.96875,-173.54297 72,-208 z m 0,0"
         inkscape:connector-curvature="0" />
    </g>
    <path
       id="path2074"
       d="M 338.89453,329.22656 C 312.33594,334.10547 257.69531,314.42578 296.25391,220.26563 313.21484,178.90625 263.375,168.1875 263.375,128.1875 c 0,-35.359375 40.23828,-72 80,-72 2.80078,0 5.59766,0.160156 8.32031,0.398438 -37.12109,4.320312 -72.32031,38.5625 -72.32031,71.601562 0,40 49.83984,50.71875 32.87891,92.07813 -31.76172,77.51953 -0.23828,104.5625 26.64062,108.96093 z m 0,0"
       inkscape:connector-curvature="0"
       style="fill:#ff9478" />
    <path
       id="path2076"
       d="m 279.375,40.1875 c 0,13.253906 -10.74609,24 -24,24 -13.25391,0 -24,-10.746094 -24,-24 0,-13.253906 10.74609,-24 24,-24 13.25391,0 24,10.746094 24,24 z m 0,0"
       inkscape:connector-curvature="0"
       style="fill:#ffbcab" />
    <path
       id="path2078"
       d="m 327.375,16.1875 c 0,8.835938 -7.16406,16 -16,16 -8.83594,0 -16,-7.164062 -16,-16 0,-8.835938 7.16406,-16 16,-16 8.83594,0 16,7.164062 16,16 z m 0,0"
       inkscape:connector-curvature="0"
       style="fill:#ffbcab" />
    <path
       id="path2080"
       d="m 383.375,16.1875 c 0,8.835938 -7.16406,16 -16,16 -8.83594,0 -16,-7.164062 -16,-16 0,-8.835938 7.16406,-16 16,-16 8.83594,0 16,7.164062 16,16 z m 0,0"
       inkscape:connector-curvature="0"
       style="fill:#ffbcab" />
    <path
       id="path2082"
       d="m 431.375,40.1875 c 0,8.835938 -7.16406,16 -16,16 -8.83594,0 -16,-7.164062 -16,-16 0,-8.835938 7.16406,-16 16,-16 8.83594,0 16,7.164062 16,16 z m 0,0"
       inkscape:connector-curvature="0"
       style="fill:#ffbcab" />
    <path
       id="path2084"
       d="m 463.375,88.1875 c 0,8.835938 -7.16406,16 -16,16 -8.83594,0 -16,-7.164062 -16,-16 0,-8.835938 7.16406,-16 16,-16 8.83594,0 16,7.164062 16,16 z m 0,0"
       inkscape:connector-curvature="0"
       style="fill:#ffbcab" />
    <path
       id="path2086"
       d="m 297.94922,142.13281 c -3.39844,0.004 -6.42969,-2.14062 -7.55859,-5.34765 -1.12891,-3.20703 -0.10547,-6.77735 2.55078,-8.90235 25.33593,-20.30078 59.80078,-24.97656 89.63281,-12.16797 3.99609,1.78125 5.82031,6.44141 4.09765,10.46094 -1.72656,4.01953 -6.35937,5.91016 -10.40234,4.24219 -24.40625,-10.49219 -52.60937,-6.66016 -73.33594,9.96094 -1.41406,1.13281 -3.17187,1.75 -4.98437,1.7539 z m 0,0"
       inkscape:connector-curvature="0"
       style="fill:#f1f2f2" />
    <path
       id="path2088"
       d="m 172.79688,278.13281 c -1.8125,-0.004 -3.57422,-0.62109 -4.99219,-1.7539 -20.72656,-16.60938 -48.92578,-20.4375 -73.33594,-9.96094 -2.632812,1.17578 -5.699219,0.83984 -8.015625,-0.875 -2.320313,-1.71875 -3.535156,-4.55078 -3.179687,-7.41406 0.355468,-2.86328 2.226562,-5.31641 4.894531,-6.41407 29.820311,-12.80468 64.273441,-8.1289 89.597661,12.16797 2.65625,2.125 3.67968,5.69532 2.55078,8.90235 -1.125,3.20703 -4.16016,5.35156 -7.5586,5.34765 z m 0,0"
       inkscape:connector-curvature="0"
       style="fill:#f1f2f2" />
  </g>
  <text
     xml:space="preserve"
     style="font-style:normal;font-variant:normal;font-weight:bold;font-stretch:normal;font-size:6.3499999px;line-height:1.25;font-family:Arial;-inkscape-font-specification:'Arial, Bold';font-variant-ligatures:normal;font-variant-caps:normal;font-variant-numeric:normal;font-feature-settings:normal;text-align:start;letter-spacing:0px;word-spacing:0px;writing-mode:lr-tb;text-anchor:start;fill:#926957;fill-opacity:1;stroke:none;stroke-width:0.26458332"
     x="30.284931"
     y="21.897291"
     id="text4065"><tspan
       sodipodi:role="line"
       x="30.284931"
       y="21.897291"
       id="tspan4051"
       style="stroke-width:0.26458332"><tspan
         x="30.284931"
         y="21.897291"
         id="tspan4049"
         style="stroke-width:0.26458332">Your feet </tspan></tspan><tspan
       sodipodi:role="line"
       x="30.284931"
       y="29.834791"
       id="tspan4055"
       style="stroke-width:0.26458332"><tspan
         x="30.284931"
         y="29.834791"
         id="tspan4053"
         style="stroke-width:0.26458332">contain 1/4 of </tspan></tspan><tspan
       sodipodi:role="line"
       x="30.284931"
       y="37.772293"
       id="tspan4059"
       style="stroke-width:0.26458332"><tspan
         x="30.284931"
         y="37.772293"
         id="tspan4057"
         style="stroke-width:0.26458332">all the bones </tspan></tspan><tspan
       sodipodi:role="line"
       x="30.284931"
       y="45.709793"
       id="tspan4063"
       style="stroke-width:0.26458332"><tspan
         x="30.284931"
         y="45.709793"
         id="tspan4061"
         style="stroke-width:0.26458332">in your body</tspan></tspan></text>
</svg>
