<?xml version="1.0" encoding="UTF-8" standalone="no"?>
<svg
   xmlns:dc="http://purl.org/dc/elements/1.1/"
   xmlns:cc="http://creativecommons.org/ns#"
   xmlns:rdf="http://www.w3.org/1999/02/22-rdf-syntax-ns#"
   xmlns:svg="http://www.w3.org/2000/svg"
   xmlns="http://www.w3.org/2000/svg"
   xmlns:sodipodi="http://sodipodi.sourceforge.net/DTD/sodipodi-0.dtd"
   xmlns:inkscape="http://www.inkscape.org/namespaces/inkscape"
   width="300"
   height="420"
   viewBox="0 0 79.374998 111.125"
   version="1.1"
   id="svg885"
   sodipodi:docname="008.svg"
   inkscape:version="0.92.4 (5da689c313, 2019-01-14)">
  <sodipodi:namedview
     pagecolor="#ffffff"
     bordercolor="#666666"
     borderopacity="1"
     objecttolerance="10"
     gridtolerance="10"
     guidetolerance="10"
     inkscape:pageopacity="0"
     inkscape:pageshadow="2"
     inkscape:window-width="1366"
     inkscape:window-height="745"
     id="namedview6708"
     showgrid="false"
     inkscape:zoom="1.1238095"
     inkscape:cx="126.60118"
     inkscape:cy="149.59816"
     inkscape:window-x="-8"
     inkscape:window-y="-8"
     inkscape:window-maximized="1"
     inkscape:current-layer="svg885" />
  <defs
     id="defs879" />
  <metadata
     id="metadata882">
    <rdf:RDF>
      <cc:Work
         rdf:about="">
        <dc:format>image/svg+xml</dc:format>
        <dc:type
           rdf:resource="http://purl.org/dc/dcmitype/StillImage" />
        <dc:title />
      </cc:Work>
    </rdf:RDF>
  </metadata>
  <g
     style="opacity:0.99;fill:#f18a18;fill-opacity:1"
     id="layer1"
     transform="translate(0,-185.87498)">
    <rect
       style="opacity:1;fill:#f18a18;fill-opacity:1;fill-rule:nonzero;stroke:none;stroke-width:0.26598862;stroke-linecap:round;stroke-linejoin:round;stroke-miterlimit:4;stroke-dasharray:none;stroke-opacity:1;paint-order:normal"
       id="rect1430"
       width="79.368423"
       height="111.11626"
       x="0.0034530037"
       y="185.87776" />
    <flowRoot
       xml:space="preserve"
       id="flowRoot2560"
       style="fill:#f18a18;fill-opacity:1;stroke:none;font-family:Arial;font-style:normal;font-weight:bold;font-size:20.20399984px;line-height:1.25;letter-spacing:0px;word-spacing:0px;-inkscape-font-specification:'Arial, Bold';font-stretch:normal;font-variant:normal;text-anchor:start;text-align:start;writing-mode:lr;font-variant-ligatures:normal;font-variant-caps:normal;font-variant-numeric:normal;font-feature-settings:normal"><flowRegion
         style="fill:#f18a18;fill-opacity:1"
         id="flowRegion2562"><rect
           style="fill:#f18a18;fill-opacity:1"
           id="rect2564"
           width="438.40622"
           height="422.24377"
           x="-159.6041"
           y="-33.558495" /></flowRegion><flowPara
         id="flowPara2566" /></flowRoot>  </g>
  <text
     id="text2322"
     y="8.8064241"
     x="2.7011271"
     style="font-style:normal;font-variant:normal;font-weight:bold;font-stretch:normal;font-size:6.3499999px;line-height:1.25;font-family:Arial;-inkscape-font-specification:'Arial, Bold';font-variant-ligatures:normal;font-variant-caps:normal;font-variant-numeric:normal;font-feature-settings:normal;text-align:start;letter-spacing:0px;word-spacing:0px;writing-mode:lr-tb;text-anchor:start;fill:#000000;fill-opacity:1;stroke:none;stroke-width:0.26458332"
     xml:space="preserve"><tspan
       style="stroke-width:0.26458332"
       id="tspan2320"
       y="8.8064241"
       x="2.7011271"><tspan
         style="stroke-width:0.26458332"
         id="tspan2318"
         y="8.8064241"
         x="2.7011271">8.</tspan></tspan></text>
  <g
     transform="matrix(0.15001249,0,0,0.13319742,0.20333621,9.3628163)"
     id="g1612">
    <path
       id="SVGCleanerId_0"
       style="fill:#8a8990"
       d="M 418.233,97.234 C 375.632,69.872 300.947,77.252 251.525,82.136 c -5.216,0.516 -10.135,1.002 -14.684,1.412 -39.466,3.568 -64.234,20.688 -72.905,27.73 -11.339,-1.974 -43.267,-6.394 -69.107,0.925 -24.959,7.07 -33.22,31.38 -34.599,47.354 -6.547,4.169 -14.648,14.816 -20.756,40.765 -0.351,1.487 -0.74,3.121 -1.161,4.893 -11.27,47.324 -41.211,173.032 14.795,213.877 16.074,11.722 29.275,15.496 39.609,15.496 12.429,0 20.712,-5.458 24.855,-9.106 13.053,-11.494 17.321,-32.382 9.514,-46.563 -1.929,-3.502 -6.06,-5.164 -9.875,-3.969 l -16.786,5.254 c -3.659,1.145 -6.079,4.623 -5.883,8.452 0.099,1.925 -0.476,5.599 -1.568,6.748 -0.053,0.055 -0.133,0.14 -0.518,0.168 -0.89,-0.214 -5.788,-1.686 -10.443,-8.76 -14.987,-22.768 -6.925,-68.892 0.219,-97.41 12.587,-3.213 42.842,-12.601 54.76,-30.951 l 14.486,-1.62 c 0.64,-0.072 1.252,-0.22 1.836,-0.424 3.227,5.622 10.12,11.945 24.735,10.6 2.985,-0.275 5.545,-0.59 7.746,-0.93 L 200,390.585 c -24.452,18.603 -19.958,35.104 -19.332,37.013 1.133,3.451 4.354,5.783 7.985,5.783 h 67.22 c 4.642,0 8.406,-3.764 8.406,-8.406 v -80.174 c 3.692,-8.105 7.368,-17.736 10.805,-27.587 19.582,5.543 36.893,7.4 51.281,7.4 18.629,0 32.354,-3.103 39.782,-5.319 4.809,6.04 8.967,10.727 11.437,13.415 v 60.321 c -12.322,12.397 -18.859,28.031 -19.15,28.737 -1.069,2.593 -0.776,5.55 0.785,7.881 1.56,2.331 4.18,3.731 6.986,3.731 h 74.196 c 2.595,0 5.043,-1.198 6.635,-3.246 1.593,-2.048 2.15,-4.716 1.512,-7.231 -0.161,-0.632 -15.631,-64.235 23.218,-147.766 33.623,-72.294 15.113,-133.813 -53.533,-177.903 z" />
    <g
       id="g1525">
      <path
         id="SVGCleanerId_0_1_"
         style="fill:#8a8990"
         d="M 418.233,97.234 C 375.632,69.872 300.947,77.252 251.525,82.136 c -5.216,0.516 -10.135,1.002 -14.684,1.412 -39.466,3.568 -64.234,20.688 -72.905,27.73 -11.339,-1.974 -43.267,-6.394 -69.107,0.925 -24.959,7.07 -33.22,31.38 -34.599,47.354 -6.547,4.169 -14.648,14.816 -20.756,40.765 -0.351,1.487 -0.74,3.121 -1.161,4.893 -11.27,47.324 -41.211,173.032 14.795,213.877 16.074,11.722 29.275,15.496 39.609,15.496 12.429,0 20.712,-5.458 24.855,-9.106 13.053,-11.494 17.321,-32.382 9.514,-46.563 -1.929,-3.502 -6.06,-5.164 -9.875,-3.969 l -16.786,5.254 c -3.659,1.145 -6.079,4.623 -5.883,8.452 0.099,1.925 -0.476,5.599 -1.568,6.748 -0.053,0.055 -0.133,0.14 -0.518,0.168 -0.89,-0.214 -5.788,-1.686 -10.443,-8.76 -14.987,-22.768 -6.925,-68.892 0.219,-97.41 12.587,-3.213 42.842,-12.601 54.76,-30.951 l 14.486,-1.62 c 0.64,-0.072 1.252,-0.22 1.836,-0.424 3.227,5.622 10.12,11.945 24.735,10.6 2.985,-0.275 5.545,-0.59 7.746,-0.93 L 200,390.585 c -24.452,18.603 -19.958,35.104 -19.332,37.013 1.133,3.451 4.354,5.783 7.985,5.783 h 67.22 c 4.642,0 8.406,-3.764 8.406,-8.406 v -80.174 c 3.692,-8.105 7.368,-17.736 10.805,-27.587 19.582,5.543 36.893,7.4 51.281,7.4 18.629,0 32.354,-3.103 39.782,-5.319 4.809,6.04 8.967,10.727 11.437,13.415 v 60.321 c -12.322,12.397 -18.859,28.031 -19.15,28.737 -1.069,2.593 -0.776,5.55 0.785,7.881 1.56,2.331 4.18,3.731 6.986,3.731 h 74.196 c 2.595,0 5.043,-1.198 6.635,-3.246 1.593,-2.048 2.15,-4.716 1.512,-7.231 -0.161,-0.632 -15.631,-64.235 23.218,-147.766 33.623,-72.294 15.113,-133.813 -53.533,-177.903 z" />
    </g>
    <g
       id="g1535">
      <path
         style="fill:#666568"
         d="m 503.569,319.541 c -0.027,0 -0.053,0 -0.08,0 -4.642,-0.043 -8.371,-3.841 -8.327,-8.483 0.939,-101.895 -24.233,-124.332 -24.488,-124.529 -3.666,-2.849 -4.327,-8.13 -1.478,-11.795 2.849,-3.666 8.131,-4.328 11.795,-1.478 3.278,2.547 31.995,28.064 30.982,137.958 -0.042,4.614 -3.798,8.327 -8.404,8.327 z"
         id="path1527" />
      <path
         style="fill:#666568"
         d="M 418.233,97.234 C 390.359,79.331 348.75,76.304 309.468,77.717 c 29.094,1.199 57.169,6.298 77.752,19.517 68.645,44.091 87.157,105.61 53.532,177.906 -38.849,83.53 -23.378,147.133 -23.218,147.766 0.639,2.515 0.081,5.184 -1.512,7.231 -1.593,2.048 -4.041,3.246 -6.635,3.246 h 31.012 c 2.595,0 5.043,-1.198 6.635,-3.246 1.593,-2.048 2.15,-4.716 1.512,-7.231 -0.161,-0.632 -15.631,-64.235 23.218,-147.766 33.625,-72.297 15.115,-133.816 -53.531,-177.906 z"
         id="path1529" />
      <path
         style="fill:#666568"
         d="m 137.037,258.448 14.44,-1.614 c 0.577,-0.065 1.127,-0.198 1.659,-0.371 l -15.453,-92.041 c 0,-0.001 -6.372,64.578 -0.646,94.026 z"
         id="path1531" />
      <path
         style="fill:#666568"
         d="m 53.334,282.387 c -34.925,114.224 33.521,113.186 39.122,113.186 -0.89,-0.214 -5.788,-1.686 -10.443,-8.76 -14.987,-22.768 -6.925,-68.892 0.219,-97.41 0.236,-0.06 0.492,-0.128 0.741,-0.193 0.398,-2.14 0.81,-4.313 1.247,-6.54 -13.128,0.39 -30.886,-0.283 -30.886,-0.283 z"
         id="path1533" />
    </g>
    <path
       style="fill:#d9d9db"
       d="m 83.582,244.176 c -3.013,-2.551 -7.395,-2.662 -10.532,-0.267 -19.378,14.793 -68.147,41.18 -68.637,41.444 -3.255,1.757 -4.978,5.436 -4.245,9.061 0.733,3.626 3.749,6.346 7.431,6.701 4.058,0.392 8.074,0.566 12.018,0.566 30.274,0 55.97,-10.291 58.808,-11.466 13.349,-4.909 17.35,-12.591 18.352,-18.184 2.519,-14.08 -11.58,-26.486 -13.195,-27.855 z"
       id="path1537" />
    <path
       style="fill:#666568"
       d="m 185.631,266.104 c 0.053,-0.008 0.111,-0.016 0.164,-0.024 l 2.995,26.246 c 19.249,-7.971 53.165,-33.468 59.903,-56.301 6.611,-29.099 0.323,-46.666 -9.68,-57.281 1.845,9.237 1.696,20.677 -1.528,34.866 -5.538,18.765 -34.783,42.322 -51.854,52.494 z"
       id="path1539" />
    <path
       style="fill:#8a8990"
       d="M 236.652,153.699 C 219.314,131.98 189.899,131.73 188.655,131.73 c -4.631,0 -8.374,3.746 -8.39,8.375 -0.004,1.302 0.297,2.533 0.824,3.635 l -35.819,17.066 c -1.422,-2.982 -4.538,-4.964 -8.053,-4.778 -4.634,0.257 -8.184,4.223 -7.927,8.857 0.052,0.93 1.305,23.043 5.164,46.974 7.453,46.224 17.759,56.825 24.863,60.777 3.831,2.131 8.416,3.192 13.545,3.192 6.072,0 12.908,-1.487 20.152,-4.449 20.482,-8.373 44.669,-28.747 52.531,-55.391 0.05,-0.17 0.095,-0.343 0.134,-0.517 5.924,-26.065 2.887,-46.848 -9.027,-61.772 z"
       id="path1541" />
    <path
       style="fill:#666568"
       d="m 290.44,268.557 c 0.657,-2.034 -2.005,-3.451 -3.323,-1.769 -14.077,17.971 -43.16,53.758 -53.658,76.168 v 90.427 h 22.415 c 4.642,0 8.406,-3.763 8.406,-8.406 v -80.174 c 3.692,-8.105 7.368,-17.736 10.805,-27.587 0.129,0.037 0.254,0.068 0.382,0.104 5.246,-18.293 11.254,-37.255 14.973,-48.763 z"
       id="path1543" />
    <path
       style="fill:#2b2b2b"
       d="m 88.465,214.723 c -5.383,0 -9.762,-4.371 -9.762,-9.744 0,-5.373 4.379,-9.744 9.762,-9.744 5.383,0 9.762,4.371 9.762,9.744 0,5.372 -4.379,9.744 -9.762,9.744 z"
       id="path1545" />
    <g
       id="g1547" />
    <g
       id="g1549" />
    <g
       id="g1551" />
    <g
       id="g1553" />
    <g
       id="g1555" />
    <g
       id="g1557" />
    <g
       id="g1559" />
    <g
       id="g1561" />
    <g
       id="g1563" />
    <g
       id="g1565" />
    <g
       id="g1567" />
    <g
       id="g1569" />
    <g
       id="g1571" />
    <g
       id="g1573" />
    <g
       id="g1575" />
  </g>
  <text
     xml:space="preserve"
     style="font-style:normal;font-variant:normal;font-weight:bold;font-stretch:normal;font-size:5.64444447px;line-height:1.25;font-family:Arial;-inkscape-font-specification:'Arial, Bold';font-variant-ligatures:normal;font-variant-caps:normal;font-variant-numeric:normal;font-feature-settings:normal;text-align:start;letter-spacing:0px;word-spacing:0px;writing-mode:lr-tb;text-anchor:start;fill:#4e4c4a;fill-opacity:1;stroke:none;stroke-width:0.26458332"
     x="6.0023985"
     y="84.01432"
     id="text7269"><tspan
       sodipodi:role="line"
       x="6.0023985"
       y="84.01432"
       id="tspan7255"
       style="stroke-width:0.26458332"><tspan
         x="6.0023985"
         y="84.01432"
         id="tspan7253"
         style="stroke-width:0.26458332">The elephant is the only </tspan></tspan><tspan
       sodipodi:role="line"
       x="6.0023985"
       y="91.069878"
       id="tspan7259"
       style="stroke-width:0.26458332"><tspan
         x="6.0023985"
         y="91.069878"
         id="tspan7257"
         style="stroke-width:0.26458332">mammal which cannot lift </tspan></tspan><tspan
       sodipodi:role="line"
       x="6.0023985"
       y="98.125427"
       id="tspan7263"
       style="stroke-width:0.26458332"><tspan
         x="6.0023985"
         y="98.125427"
         id="tspan7261"
         style="stroke-width:0.26458332">all four feet off the </tspan></tspan><tspan
       sodipodi:role="line"
       x="6.0023985"
       y="105.18098"
       id="tspan7267"
       style="stroke-width:0.26458332"><tspan
         x="6.0023985"
         y="105.18098"
         id="tspan7265"
         style="stroke-width:0.26458332">ground at the same time.</tspan></tspan></text>
</svg>
