<?xml version="1.0" encoding="UTF-8" standalone="no"?>
<svg
   xmlns:dc="http://purl.org/dc/elements/1.1/"
   xmlns:cc="http://creativecommons.org/ns#"
   xmlns:rdf="http://www.w3.org/1999/02/22-rdf-syntax-ns#"
   xmlns:svg="http://www.w3.org/2000/svg"
   xmlns="http://www.w3.org/2000/svg"
   xmlns:sodipodi="http://sodipodi.sourceforge.net/DTD/sodipodi-0.dtd"
   xmlns:inkscape="http://www.inkscape.org/namespaces/inkscape"
   id="svg885"
   version="1.1"
   viewBox="0 0 79.374998 111.125"
   height="420"
   width="300"
   sodipodi:docname="006.svg"
   inkscape:version="0.92.4 (5da689c313, 2019-01-14)">
  <sodipodi:namedview
     pagecolor="#ffffff"
     bordercolor="#666666"
     borderopacity="1"
     objecttolerance="10"
     gridtolerance="10"
     guidetolerance="10"
     inkscape:pageopacity="0"
     inkscape:pageshadow="2"
     inkscape:window-width="1366"
     inkscape:window-height="745"
     id="namedview1053"
     showgrid="false"
     inkscape:zoom="0.96974646"
     inkscape:cx="216.22381"
     inkscape:cy="271.28866"
     inkscape:window-x="-8"
     inkscape:window-y="-8"
     inkscape:window-maximized="1"
     inkscape:current-layer="svg885" />
  <defs
     id="defs879" />
  <metadata
     id="metadata882">
    <rdf:RDF>
      <cc:Work
         rdf:about="">
        <dc:format>image/svg+xml</dc:format>
        <dc:type
           rdf:resource="http://purl.org/dc/dcmitype/StillImage" />
        <dc:title></dc:title>
      </cc:Work>
    </rdf:RDF>
  </metadata>
  <g
     transform="translate(0,-185.87498)"
     id="layer1"
     style="opacity:0.99;fill:#5c322d;fill-opacity:1">
    <rect
       y="185.87776"
       x="0.0034530037"
       height="111.11626"
       width="79.368423"
       id="rect1430"
       style="opacity:1;fill:#5c322d;fill-opacity:1;fill-rule:nonzero;stroke:none;stroke-width:0.26598862;stroke-linecap:round;stroke-linejoin:round;stroke-miterlimit:4;stroke-dasharray:none;stroke-opacity:1;paint-order:normal" />
    <flowRoot
       style="fill:#5c322d;fill-opacity:1;stroke:none;font-family:Arial;font-style:normal;font-weight:bold;font-size:20.20399984px;line-height:1.25;letter-spacing:0px;word-spacing:0px;-inkscape-font-specification:'Arial, Bold';font-stretch:normal;font-variant:normal;text-anchor:start;text-align:start;writing-mode:lr;font-variant-ligatures:normal;font-variant-caps:normal;font-variant-numeric:normal;font-feature-settings:normal"
       id="flowRoot2560"
       xml:space="preserve"><flowRegion
         id="flowRegion2562"
         style="fill:#5c322d;fill-opacity:1"><rect
           y="-33.558495"
           x="-159.6041"
           height="422.24377"
           width="438.40622"
           id="rect2564"
           style="fill:#5c322d;fill-opacity:1" /></flowRegion><flowPara
         id="flowPara2566" /></flowRoot>  </g>
  <text
     xml:space="preserve"
     style="font-style:normal;font-variant:normal;font-weight:bold;font-stretch:normal;font-size:6.3499999px;line-height:1.25;font-family:Arial;-inkscape-font-specification:'Arial, Bold';font-variant-ligatures:normal;font-variant-caps:normal;font-variant-numeric:normal;font-feature-settings:normal;text-align:start;letter-spacing:0px;word-spacing:0px;writing-mode:lr-tb;text-anchor:start;fill:#000000;fill-opacity:1;stroke:none;stroke-width:0.26458332"
     x="2.7011271"
     y="8.8064241"
     id="text2322"><tspan
       sodipodi:role="line"
       x="2.7011271"
       y="8.8064241"
       id="tspan2320"
       style="stroke-width:0.26458332"><tspan
         x="2.7011271"
         y="8.8064241"
         id="tspan2318"
         style="stroke-width:0.26458332">6.</tspan></tspan></text>
  <g
     id="g1609"
     transform="matrix(0.63991743,0,0,0.56642792,-35.43055,-15.959331)">
    <g
       inkscape:label="arms &amp; legs"
       id="layer5">
      <path
         sodipodi:nodetypes="cc"
         inkscape:connector-curvature="0"
         id="path931"
         d="m 113.45591,108.30771 c 7.17795,5.29324 24.09428,9.16232 22.80347,3.72498"
         style="fill:none;stroke:#f3c374;stroke-width:3.2650001;stroke-linecap:round;stroke-linejoin:round;stroke-miterlimit:4;stroke-dasharray:none;stroke-opacity:1;paint-order:stroke markers fill" />
      <path
         sodipodi:nodetypes="cc"
         style="fill:none;stroke:#f3c374;stroke-width:3.2650001;stroke-linecap:round;stroke-linejoin:round;stroke-miterlimit:4;stroke-dasharray:none;stroke-opacity:1;paint-order:stroke markers fill"
         d="m 74.064493,103.22124 c -1.768156,0.90707 8.821625,7.11946 16.884258,3.47218"
         id="path933"
         inkscape:connector-curvature="0" />
      <path
         inkscape:connector-curvature="0"
         id="path935"
         d="m 92.320683,134.47023 0.09449,22.96205"
         style="fill:none;stroke:#65a3d9;stroke-width:4.66499996;stroke-linecap:round;stroke-linejoin:miter;stroke-miterlimit:4;stroke-dasharray:none;stroke-opacity:1" />
      <path
         style="fill:none;stroke:#65a3d9;stroke-width:4.66499996;stroke-linecap:round;stroke-linejoin:miter;stroke-miterlimit:4;stroke-dasharray:none;stroke-opacity:1"
         d="m 111.59747,135.22618 0.0945,22.96205"
         id="path937"
         inkscape:connector-curvature="0" />
    </g>
    <g
       inkscape:label="body"
       id="layer4">
      <path
         sodipodi:nodetypes="cccccc"
         inkscape:connector-curvature="0"
         id="path912"
         d="M 102.28842,83.821433 78.003447,131.82439 c -0.631919,1.21463 -1.693481,3.42587 -0.0945,3.40179 l 46.774553,-0.28349 c 1.65651,-0.0523 0.47637,-2.44847 -0.0945,-3.73251 z"
         style="fill:#64a4d9;fill-opacity:1;stroke:none;stroke-width:0.26458332px;stroke-linecap:butt;stroke-linejoin:miter;stroke-opacity:1" />
    </g>
    <g
       transform="translate(0,1.9704834e-5)"
       id="layer1-0"
       inkscape:label="face">
      <rect
         rx="21.544643"
         ry="22.300594"
         y="60.386894"
         x="74.083336"
         height="44.601189"
         width="55.940475"
         id="rect887"
         style="opacity:1;fill:#f5c372;fill-opacity:1;stroke:none;stroke-width:0.065;stroke-linecap:round;stroke-linejoin:round;stroke-miterlimit:4;stroke-dasharray:none;stroke-opacity:1;paint-order:fill markers stroke" />
      <rect
         ry="9.766675"
         rx="5.6541333"
         y="53.92931"
         x="83.530937"
         height="9.766675"
         width="37.612225"
         id="rect891"
         style="opacity:1;fill:#74b5ed;fill-opacity:1;stroke:none;stroke-width:0.09139692;stroke-linecap:round;stroke-linejoin:round;stroke-miterlimit:4;stroke-dasharray:none;stroke-opacity:1;paint-order:fill markers stroke" />
      <rect
         style="opacity:1;fill:#74b5ed;fill-opacity:1;stroke:none;stroke-width:0.06145968;stroke-linecap:round;stroke-linejoin:round;stroke-miterlimit:4;stroke-dasharray:none;stroke-opacity:1;paint-order:fill markers stroke"
         id="rect893"
         width="28.042297"
         height="5.9235139"
         x="87.862022"
         y="49.527447"
         rx="4.2155147"
         ry="5.9235139" />
      <path
         transform="matrix(0.99980413,-0.01979139,0,1,0,0)"
         d="m 115.70281,54.176216 a 13.835407,5.728909 0 0 1 -13.8345,5.728909 13.835407,5.728909 0 0 1 -13.836316,-5.728159 13.835407,5.728909 0 0 1 13.832686,-5.729659 13.835407,5.728909 0 0 1 13.83813,5.727409 l -13.83541,0.0015 z"
         sodipodi:end="6.2829235"
         sodipodi:start="0"
         sodipodi:ry="5.728909"
         sodipodi:rx="13.835407"
         sodipodi:cy="54.176216"
         sodipodi:cx="101.8674"
         sodipodi:type="arc"
         id="path895"
         style="fill:#74b5ed;fill-opacity:1;fill-rule:evenodd;stroke:none;stroke-width:0.48082644" />
    </g>
    <g
       inkscape:label="eye &amp; brow"
       id="layer2">
      <path
         d="m 102.09696,77.03717 a 7.0826426,6.4144688 0 0 1 -7.082176,6.414469 7.0826426,6.4144688 0 0 1 -7.083106,-6.413629 7.0826426,6.4144688 0 0 1 7.081252,-6.415308 7.0826426,6.4144688 0 0 1 7.08403,6.412789 l -7.08264,0.0017 z"
         sodipodi:end="6.2829235"
         sodipodi:start="0"
         sodipodi:ry="6.4144688"
         sodipodi:rx="7.0826426"
         sodipodi:cy="77.03717"
         sodipodi:cx="95.01432"
         sodipodi:type="arc"
         id="path898"
         style="fill:#ffffff;fill-opacity:1;fill-rule:evenodd;stroke:none;stroke-width:0.26458332" />
      <path
         style="fill:#ffffff;fill-opacity:1;fill-rule:evenodd;stroke:none;stroke-width:0.26458332"
         id="path900"
         sodipodi:type="arc"
         sodipodi:cx="108.64507"
         sodipodi:cy="76.235359"
         sodipodi:rx="7.0826426"
         sodipodi:ry="6.4144688"
         sodipodi:start="0"
         sodipodi:end="6.2829235"
         d="m 115.72772,76.235359 a 7.0826426,6.4144688 0 0 1 -7.08218,6.414469 7.0826426,6.4144688 0 0 1 -7.08311,-6.413629 7.0826426,6.4144688 0 0 1 7.08125,-6.415308 7.0826426,6.4144688 0 0 1 7.08404,6.412789 l -7.08265,0.0017 z" />
      <path
         d="m 98.488824,77.03717 a 3.4745038,3.6081386 0 0 1 -3.474276,3.608139 3.4745038,3.6081386 0 0 1 -3.474731,-3.607666 3.4745038,3.6081386 0 0 1 3.473821,-3.608611 3.4745038,3.6081386 0 0 1 3.475186,3.607194 l -3.474504,9.44e-4 z"
         sodipodi:end="6.2829235"
         sodipodi:start="0"
         sodipodi:ry="3.6081386"
         sodipodi:rx="3.4745038"
         sodipodi:cy="77.03717"
         sodipodi:cx="95.01432"
         sodipodi:type="arc"
         id="path939"
         style="fill:#000000;fill-opacity:1;fill-rule:evenodd;stroke:none;stroke-width:0.26458332" />
      <path
         style="fill:#000000;fill-opacity:1;fill-rule:evenodd;stroke:none;stroke-width:0.26458332"
         id="path941"
         sodipodi:type="arc"
         sodipodi:cx="108.64507"
         sodipodi:cy="76.235359"
         sodipodi:rx="3.4745038"
         sodipodi:ry="3.6081386"
         sodipodi:start="0"
         sodipodi:end="6.2829235"
         d="m 112.11958,76.235359 a 3.4745038,3.6081386 0 0 1 -3.47428,3.608139 3.4745038,3.6081386 0 0 1 -3.47473,-3.607666 3.4745038,3.6081386 0 0 1 3.47382,-3.608611 3.4745038,3.6081386 0 0 1 3.47519,3.607194 l -3.47451,9.44e-4 z" />
    </g>
    <g
       inkscape:label="eyebrow cover"
       id="layer6">
      <path
         sodipodi:nodetypes="cccccccc"
         inkscape:connector-curvature="0"
         id="path944"
         d="m 87.931674,77.605116 c 0.206054,-9.397584 12.364326,-8.048915 13.764376,-2.77292 3.01919,-8.520227 13.82575,-4.828188 13.96484,0.701582 l 5.81311,-0.06682 -4.30972,-9.588293 -31.838484,1.069078 -1.23612,11.091685 z"
         style="fill:#f5c372;fill-opacity:1;stroke:none;stroke-width:0.1;stroke-linecap:butt;stroke-linejoin:miter;stroke-miterlimit:4;stroke-dasharray:none;stroke-opacity:1" />
      <path
         sodipodi:nodetypes="cccccccc"
         inkscape:connector-curvature="0"
         id="path946"
         d="m 87.931674,77.605114 c 1.510867,7.753588 12.062671,7.464916 13.980156,0.87739 2.93612,6.407451 14.02669,5.259541 13.74906,-2.948726 l 5.81311,-0.06682 -1.65555,10.386083 -35.482514,0.661459 -0.24626,-8.475073 z"
         style="fill:#f5c372;fill-opacity:1;stroke:none;stroke-width:0.065;stroke-linecap:butt;stroke-linejoin:miter;stroke-miterlimit:4;stroke-dasharray:none;stroke-opacity:1" />
    </g>
    <g
       inkscape:label="mouth"
       id="layer3">
      <path
         sodipodi:nodetypes="cc"
         inkscape:connector-curvature="0"
         id="path903"
         d="m 98.488819,88.396123 c 0.169303,5.185988 9.610141,5.18889 9.087161,-0.668172"
         style="fill:none;stroke:#000000;stroke-width:1.66499996;stroke-linecap:round;stroke-linejoin:miter;stroke-miterlimit:4;stroke-dasharray:none;stroke-opacity:1" />
    </g>
  </g>
  <g
     id="g1940"
     transform="matrix(0.01643185,0.00535007,-0.00573879,0.01762575,8.9484326,44.461727)">
    <g
       id="g1883">
	<g
   id="g1881">
		<path
   id="path1879"
   d="m 343.29193,-282.65929 c 1.225,9.385 -1.635,17.545 -8.568,24.48 l -81.396,80.781 c -3.672,4.08 -8.465,7.551 -14.381,10.404 -5.916,2.857 -11.729,4.693 -17.439,5.508 -0.408,0 -1.635,0.105 -3.676,0.309 -2.037,0.203 -4.689,0.307 -7.953,0.307 -7.754,0 -20.301,-1.326 -37.641,-3.979 -17.34,-2.653 -38.555,-9.182 -63.645,-19.584 -25.096003,-10.404 -53.553003,-26.012 -85.376003,-46.818 -31.8230003,-20.805 -65.688,-49.367 -101.592,-85.68 -28.559997,-28.152 -52.223997,-55.08 -70.991997,-80.783 -18.768,-25.705 -33.864,-49.471 -45.288,-71.299 -11.425,-21.828 -19.993,-41.616 -25.705,-59.364 -5.712,-17.748 -9.588,-33.048 -11.628,-45.9 -2.04,-12.852 -2.856,-22.95 -2.448,-30.294 0.408,-7.344 0.612,-11.424 0.612,-12.24 0.816,-5.712 2.652,-11.526 5.508,-17.442 2.856,-5.916 6.324,-10.71 10.404,-14.382 l 81.396,-81.396 c 5.712,-5.712 12.24,-8.568 19.584,-8.568 5.304,0 9.996,1.53 14.076,4.59 4.079997,3.06 7.547997,6.834 10.403997,11.322 l 65.484,124.236 c 3.672,6.528 4.692,13.668 3.06,21.42 -1.632,7.752 -5.1,14.28 -10.404,19.584 l -29.988,29.988 c -0.816,0.816 -1.53,2.142 -2.142,3.978 -0.612,1.836 -0.918,3.366 -0.918,4.59 1.632,8.568 5.304,18.36 11.016,29.376 4.896,9.792 12.444,21.726 22.644,35.802 10.2,14.076 24.6839997,30.293 43.4519997,48.653 18.3600003,18.77 34.6800003,33.354 48.9600003,43.76 14.277,10.4 26.215,18.053 35.803,22.949 9.588003,4.896 16.932003,7.854 22.031003,8.871 l 7.648,1.531 c 0.816,0 2.145,-0.307 3.979,-0.918 1.836,-0.613 3.162,-1.326 3.979,-2.143 l 34.883,-35.496 c 7.348,-6.527 15.912,-9.791 25.705,-9.791 6.938,0 12.443,1.223 16.523,3.672 h 0.611 l 118.115,69.768 c 8.571,5.308 13.67,12.038 15.303,20.198 z"
   style="fill:#010002"
   inkscape:connector-curvature="0" />

	</g>

</g>
    <g
       id="g1885">
</g>
    <g
       id="g1887">
</g>
    <g
       id="g1889">
</g>
    <g
       id="g1891">
</g>
    <g
       id="g1893">
</g>
    <g
       id="g1895">
</g>
    <g
       id="g1897">
</g>
    <g
       id="g1899">
</g>
    <g
       id="g1901">
</g>
    <g
       id="g1903">
</g>
    <g
       id="g1905">
</g>
    <g
       id="g1907">
</g>
    <g
       id="g1909">
</g>
    <g
       id="g1911">
</g>
    <g
       id="g1913">
</g>
  </g>
  <path
     style="fill:none;stroke:#000000;stroke-width:0.26458332px;stroke-linecap:butt;stroke-linejoin:miter;stroke-opacity:1"
     d="m 15.050874,42.076369 c 1.40331,2.137625 1.370528,4.365005 -0.136419,6.684521 -1.97987,2.942332 -5.0774428,3.20218 -7.9122917,4.092564 -4.7826451,1.790466 -2.4978501,4.895805 0.4092564,8.116922 3.1164763,3.48958 -1.1329719,3.677193 -8.526176,2.455537"
     id="path1942"
     inkscape:connector-curvature="0"
     sodipodi:nodetypes="ccccc" />
  <g
     id="g2406"
     transform="matrix(0.01807357,0.00574669,-0.00524012,0.01648037,45.945278,38.762479)">
    <path
       id="path2264"
       d="M 361.931,0 H 150.069 c -14.626,0 -26.483,11.857 -26.483,26.483 v 459.034 c 0,14.626 11.857,26.483 26.483,26.483 h 211.862 c 14.626,0 26.483,-11.857 26.483,-26.483 V 26.483 C 388.414,11.857 376.557,0 361.931,0 Z M 220.69,35.31 c 0,-4.875 3.953,-8.828 8.828,-8.828 h 52.966 c 4.875,0 8.828,3.953 8.828,8.828 v 0 c 0,4.875 -3.953,8.828 -8.828,8.828 h -52.966 c -4.876,0 -8.828,-3.953 -8.828,-8.828 z m -26.483,-8.827 c 4.875,0 8.828,3.953 8.828,8.828 0,4.875 -3.953,8.828 -8.828,8.828 -4.875,0 -8.828,-3.953 -8.828,-8.828 0,-4.875 3.953,-8.828 8.828,-8.828 z M 256,494.345 c -9.751,0 -17.655,-7.905 -17.655,-17.655 0,-9.751 7.904,-17.655 17.655,-17.655 9.751,0 17.655,7.904 17.655,17.655 0,9.75 -7.904,17.655 -17.655,17.655 z M 370.759,335.448 V 441.379 H 141.241 V 335.448 70.621 h 229.517 v 264.827 z"
       style="fill:#707384"
       inkscape:connector-curvature="0" />
    <path
       id="path2266"
       d="m 141.241,335.448 h 70.621 c 0,-4.875 3.953,-8.828 8.828,-8.828 4.875,0 8.828,3.953 8.828,8.828 h 17.655 c 0,-4.875 3.953,-8.828 8.828,-8.828 4.875,0 8.828,3.953 8.828,8.828 h 17.655 c 0,-4.875 3.953,-8.828 8.828,-8.828 4.875,0 8.828,3.953 8.828,8.828 h 70.621 V 70.621 H 141.241 Z M 300.138,114.759 c 0,-4.875 3.953,-8.828 8.828,-8.828 h 35.31 c 4.875,0 8.828,3.953 8.828,8.828 v 35.31 c 0,4.875 -3.953,8.828 -8.828,8.828 h -35.31 c -4.875,0 -8.828,-3.953 -8.828,-8.828 z m 0,70.62 c 0,-4.875 3.953,-8.828 8.828,-8.828 h 35.31 c 4.875,0 8.828,3.953 8.828,8.828 v 35.31 c 0,4.875 -3.953,8.828 -8.828,8.828 h -35.31 c -4.875,0 -8.828,-3.953 -8.828,-8.828 z m 0,70.621 c 0,-4.875 3.953,-8.828 8.828,-8.828 h 35.31 c 4.875,0 8.828,3.953 8.828,8.828 v 35.31 c 0,4.875 -3.953,8.828 -8.828,8.828 h -35.31 c -4.875,0 -8.828,-3.953 -8.828,-8.828 z M 229.517,114.759 c 0,-4.875 3.953,-8.828 8.828,-8.828 h 35.31 c 4.875,0 8.828,3.953 8.828,8.828 v 35.31 c 0,4.875 -3.953,8.828 -8.828,8.828 h -35.31 c -4.875,0 -8.828,-3.953 -8.828,-8.828 z m 0,70.62 c 0,-4.875 3.953,-8.828 8.828,-8.828 h 35.31 c 4.875,0 8.828,3.953 8.828,8.828 v 35.31 c 0,4.875 -3.953,8.828 -8.828,8.828 h -35.31 c -4.875,0 -8.828,-3.953 -8.828,-8.828 z m 0,70.621 c 0,-4.875 3.953,-8.828 8.828,-8.828 h 35.31 c 4.875,0 8.828,3.953 8.828,8.828 v 35.31 c 0,4.875 -3.953,8.828 -8.828,8.828 h -35.31 c -4.875,0 -8.828,-3.953 -8.828,-8.828 z m -70.62,-141.241 c 0,-4.875 3.953,-8.828 8.828,-8.828 h 35.31 c 4.875,0 8.828,3.953 8.828,8.828 v 35.31 c 0,4.875 -3.953,8.828 -8.828,8.828 h -35.31 c -4.875,0 -8.828,-3.953 -8.828,-8.828 z m 0,70.62 c 0,-4.875 3.953,-8.828 8.828,-8.828 h 35.31 c 4.875,0 8.828,3.953 8.828,8.828 v 35.31 c 0,4.875 -3.953,8.828 -8.828,8.828 h -35.31 c -4.875,0 -8.828,-3.953 -8.828,-8.828 z m 0,70.621 c 0,-4.875 3.953,-8.828 8.828,-8.828 h 35.31 c 4.875,0 8.828,3.953 8.828,8.828 v 35.31 c 0,4.875 -3.953,8.828 -8.828,8.828 h -35.31 c -4.875,0 -8.828,-3.953 -8.828,-8.828 z"
       style="fill:#63afdb"
       inkscape:connector-curvature="0" />
    <path
       id="path2268"
       d="m 291.31,344.276 c -4.875,0 -8.828,-3.953 -8.828,-8.828 h -17.655 c 0,4.875 -3.953,8.828 -8.828,8.828 -4.875,0 -8.828,-3.953 -8.828,-8.828 h -17.655 c 0,4.875 -3.953,8.828 -8.828,8.828 -4.875,0 -8.828,-3.953 -8.828,-8.828 H 141.239 V 441.379 H 370.756 V 335.448 h -70.621 c 0.003,4.875 -3.95,8.828 -8.825,8.828 z m -79.448,61.793 c 0,4.875 -3.953,8.828 -8.828,8.828 h -35.31 c -4.875,0 -8.828,-3.953 -8.828,-8.828 v -35.31 c 0,-4.875 3.953,-8.828 8.828,-8.828 h 35.31 c 4.875,0 8.828,3.953 8.828,8.828 z m 70.621,0 c 0,4.875 -3.953,8.828 -8.828,8.828 h -35.31 c -4.875,0 -8.828,-3.953 -8.828,-8.828 v -35.31 c 0,-4.875 3.953,-8.828 8.828,-8.828 h 35.31 c 4.875,0 8.828,3.953 8.828,8.828 z m 26.483,-44.138 h 35.31 c 4.875,0 8.828,3.953 8.828,8.828 v 35.31 c 0,4.875 -3.953,8.828 -8.828,8.828 h -35.31 c -4.875,0 -8.828,-3.953 -8.828,-8.828 v -35.31 c 0,-4.875 3.952,-8.828 8.828,-8.828 z"
       style="fill:#468cbe"
       inkscape:connector-curvature="0" />
    <g
       id="g2276">
	<path
   id="path2270"
   d="m 229.517,44.138 h 52.966 c 4.875,0 8.828,-3.953 8.828,-8.828 v 0 c 0,-4.875 -3.953,-8.828 -8.828,-8.828 h -52.966 c -4.875,0 -8.828,3.953 -8.828,8.828 v 0 c 0.001,4.875 3.953,8.828 8.828,8.828 z"
   style="fill:#464655"
   inkscape:connector-curvature="0" />

	<circle
   id="circle2272"
   r="8.8280001"
   cy="35.310001"
   cx="194.207"
   style="fill:#464655" />

	<circle
   id="circle2274"
   r="17.655001"
   cy="476.69"
   cx="256"
   style="fill:#464655" />

</g>
    <path
       id="path2278"
       d="m 273.655,361.931 h -35.31 c -4.875,0 -8.828,3.953 -8.828,8.828 v 35.31 c 0,4.875 3.953,8.828 8.828,8.828 h 35.31 c 4.875,0 8.828,-3.953 8.828,-8.828 v -35.31 c 0,-4.875 -3.953,-8.828 -8.828,-8.828 z M 256,406.069 c -9.751,0 -17.655,-7.905 -17.655,-17.655 0,-9.751 7.904,-17.655 17.655,-17.655 9.751,0 17.655,7.904 17.655,17.655 0,9.75 -7.904,17.655 -17.655,17.655 z"
       style="fill:#63afdb"
       inkscape:connector-curvature="0" />
    <path
       id="path2280"
       d="m 300.138,406.069 c 0,4.875 3.953,8.828 8.828,8.828 h 35.31 c 4.875,0 8.828,-3.953 8.828,-8.828 v -35.31 c 0,-4.875 -3.953,-8.828 -8.828,-8.828 h -35.31 c -4.875,0 -8.828,3.953 -8.828,8.828 z"
       style="fill:#ff6469"
       inkscape:connector-curvature="0" />
    <path
       id="path2282"
       d="m 203.034,361.931 h -35.31 c -4.875,0 -8.828,3.953 -8.828,8.828 v 35.31 c 0,4.875 3.953,8.828 8.828,8.828 h 35.31 c 4.875,0 8.828,-3.953 8.828,-8.828 v -35.31 c 0,-4.875 -3.952,-8.828 -8.828,-8.828 z"
       style="fill:#00dccd"
       inkscape:connector-curvature="0" />
    <path
       id="path2284"
       d="m 238.345,300.138 h 35.31 c 4.875,0 8.828,-3.953 8.828,-8.828 V 256 c 0,-4.875 -3.953,-8.828 -8.828,-8.828 h -35.31 c -4.875,0 -8.828,3.953 -8.828,8.828 v 35.31 c 0,4.875 3.953,8.828 8.828,8.828 z"
       style="fill:#ffdc69"
       inkscape:connector-curvature="0" />
    <path
       id="path2286"
       d="m 308.966,300.138 h 35.31 c 4.875,0 8.828,-3.953 8.828,-8.828 V 256 c 0,-4.875 -3.953,-8.828 -8.828,-8.828 h -35.31 c -4.875,0 -8.828,3.953 -8.828,8.828 v 35.31 c 0,4.875 3.952,8.828 8.828,8.828 z m 0,-26.483 c 0,-4.875 3.953,-8.828 8.828,-8.828 h 17.655 c 4.875,0 8.828,3.953 8.828,8.828 v 0 c 0,4.875 -3.953,8.828 -8.828,8.828 h -17.655 c -4.876,0 -8.828,-3.953 -8.828,-8.828 z"
       style="fill:#ffffff"
       inkscape:connector-curvature="0" />
    <path
       id="path2288"
       d="m 167.724,300.138 h 35.31 c 4.875,0 8.828,-3.953 8.828,-8.828 V 256 c 0,-4.875 -3.953,-8.828 -8.828,-8.828 h -35.31 c -4.875,0 -8.828,3.953 -8.828,8.828 v 35.31 c 0.001,4.875 3.953,8.828 8.828,8.828 z m 0,-26.483 c 0,-4.875 3.953,-8.828 8.828,-8.828 h 17.655 c 4.875,0 8.828,3.953 8.828,8.828 v 0 c 0,4.875 -3.953,8.828 -8.828,8.828 h -17.655 c -4.875,0 -8.828,-3.953 -8.828,-8.828 z"
       style="fill:#468cbe"
       inkscape:connector-curvature="0" />
    <path
       id="path2290"
       d="m 238.345,229.517 h 35.31 c 4.875,0 8.828,-3.953 8.828,-8.828 v -35.31 c 0,-4.875 -3.953,-8.828 -8.828,-8.828 h -35.31 c -4.875,0 -8.828,3.953 -8.828,8.828 v 35.31 c 0,4.876 3.953,8.828 8.828,8.828 z m 0,-26.483 c 0,-4.875 3.953,-8.828 8.828,-8.828 h 17.655 c 4.875,0 8.828,3.953 8.828,8.828 v 0 c 0,4.875 -3.953,8.828 -8.828,8.828 h -17.655 c -4.876,0 -8.828,-3.952 -8.828,-8.828 z"
       style="fill:#464655"
       inkscape:connector-curvature="0" />
    <path
       id="path2292"
       d="m 308.966,229.517 h 35.31 c 4.875,0 8.828,-3.953 8.828,-8.828 v -35.31 c 0,-4.875 -3.953,-8.828 -8.828,-8.828 h -35.31 c -4.875,0 -8.828,3.953 -8.828,8.828 v 35.31 c 0,4.876 3.952,8.828 8.828,8.828 z"
       style="fill:#ffa055"
       inkscape:connector-curvature="0" />
    <path
       id="path2294"
       d="m 167.724,229.517 h 35.31 c 4.875,0 8.828,-3.953 8.828,-8.828 v -35.31 c 0,-4.875 -3.953,-8.828 -8.828,-8.828 h -35.31 c -4.875,0 -8.828,3.953 -8.828,8.828 v 35.31 c 0.001,4.876 3.953,8.828 8.828,8.828 z m 17.655,-44.138 c 9.751,0 17.655,7.904 17.655,17.655 0,9.75 -7.904,17.655 -17.655,17.655 -9.751,0 -17.655,-7.905 -17.655,-17.655 0,-9.751 7.904,-17.655 17.655,-17.655 z"
       style="fill:#a0d778"
       inkscape:connector-curvature="0" />
    <path
       id="path2296"
       d="m 238.345,158.897 h 35.31 c 4.875,0 8.828,-3.953 8.828,-8.828 v -35.31 c 0,-4.875 -3.953,-8.828 -8.828,-8.828 h -35.31 c -4.875,0 -8.828,3.953 -8.828,8.828 v 35.31 c 0,4.875 3.953,8.828 8.828,8.828 z"
       style="fill:#ff6469"
       inkscape:connector-curvature="0" />
    <path
       id="path2298"
       d="m 308.966,158.897 h 35.31 c 4.875,0 8.828,-3.953 8.828,-8.828 v -35.31 c 0,-4.875 -3.953,-8.828 -8.828,-8.828 h -35.31 c -4.875,0 -8.828,3.953 -8.828,8.828 v 35.31 c 0,4.875 3.952,8.828 8.828,8.828 z m 17.655,-44.138 c 9.751,0 17.655,7.904 17.655,17.655 0,9.75 -7.904,17.655 -17.655,17.655 -9.751,0 -17.655,-7.905 -17.655,-17.655 0,-9.751 7.904,-17.655 17.655,-17.655 z"
       style="fill:#00dccd"
       inkscape:connector-curvature="0" />
    <g
       id="g2306">
	<path
   id="path2300"
   d="m 167.724,158.897 h 35.31 c 4.875,0 8.828,-3.953 8.828,-8.828 v -35.31 c 0,-4.875 -3.953,-8.828 -8.828,-8.828 h -35.31 c -4.875,0 -8.828,3.953 -8.828,8.828 v 35.31 c 0.001,4.875 3.953,8.828 8.828,8.828 z"
   style="fill:#ffdc69"
   inkscape:connector-curvature="0" />

	<circle
   id="circle2302"
   r="17.655001"
   cy="203.034"
   cx="185.379"
   style="fill:#ffdc69" />

	<circle
   id="circle2304"
   r="17.655001"
   cy="388.414"
   cx="256"
   style="fill:#ffdc69" />

</g>
    <circle
       id="circle2308"
       r="17.655001"
       cy="132.414"
       cx="326.621"
       style="fill:#ff6469" />
    <path
       id="path2310"
       d="m 247.172,211.862 h 17.655 c 4.875,0 8.828,-3.953 8.828,-8.828 v 0 c 0,-4.875 -3.953,-8.828 -8.828,-8.828 h -17.655 c -4.875,0 -8.828,3.953 -8.828,8.828 v 0 c 0.001,4.876 3.953,8.828 8.828,8.828 z"
       style="fill:#468cbe"
       inkscape:connector-curvature="0" />
    <path
       id="path2312"
       d="m 317.793,282.483 h 17.655 c 4.875,0 8.828,-3.953 8.828,-8.828 v 0 c 0,-4.875 -3.953,-8.828 -8.828,-8.828 h -17.655 c -4.875,0 -8.828,3.953 -8.828,8.828 v 0 c 0.001,4.875 3.953,8.828 8.828,8.828 z"
       style="fill:#ff6469"
       inkscape:connector-curvature="0" />
    <path
       id="path2314"
       d="m 176.552,282.483 h 17.655 c 4.875,0 8.828,-3.953 8.828,-8.828 v 0 c 0,-4.875 -3.953,-8.828 -8.828,-8.828 h -17.655 c -4.875,0 -8.828,3.953 -8.828,8.828 v 0 c 0,4.875 3.953,8.828 8.828,8.828 z"
       style="fill:#ffffff"
       inkscape:connector-curvature="0" />
    <circle
       id="circle2316"
       r="8.8280001"
       cy="335.448"
       cx="220.69"
       style="fill:#464655" />
    <g
       id="g2322">
	<circle
   id="circle2318"
   r="8.8280001"
   cy="335.448"
   cx="256"
   style="fill:#ffffff" />

	<circle
   id="circle2320"
   r="8.8280001"
   cy="335.448"
   cx="291.31"
   style="fill:#ffffff" />

</g>
    <g
       id="g2324">
</g>
    <g
       id="g2326">
</g>
    <g
       id="g2328">
</g>
    <g
       id="g2330">
</g>
    <g
       id="g2332">
</g>
    <g
       id="g2334">
</g>
    <g
       id="g2336">
</g>
    <g
       id="g2338">
</g>
    <g
       id="g2340">
</g>
    <g
       id="g2342">
</g>
    <g
       id="g2344">
</g>
    <g
       id="g2346">
</g>
    <g
       id="g2348">
</g>
    <g
       id="g2350">
</g>
    <g
       id="g2352">
</g>
  </g>
  <text
     xml:space="preserve"
     style="font-style:normal;font-variant:normal;font-weight:bold;font-stretch:normal;font-size:5.34564161px;line-height:1.25;font-family:Arial;-inkscape-font-specification:'Arial, Bold';font-variant-ligatures:normal;font-variant-caps:normal;font-variant-numeric:normal;font-feature-settings:normal;text-align:start;letter-spacing:0px;word-spacing:0px;writing-mode:lr-tb;text-anchor:start;fill:#aeb2b9;fill-opacity:1;stroke:none;stroke-width:0.26458332"
     x="7.1380653"
     y="91.824272"
     id="text2428"><tspan
       sodipodi:role="line"
       x="7.1380653"
       y="91.824272"
       id="tspan2418"
       style="stroke-width:0.26458332"><tspan
         x="7.1380653"
         y="91.824272"
         id="tspan2416"
         style="stroke-width:0.26458332">More than 50% of people </tspan></tspan><tspan
       sodipodi:role="line"
       x="7.1380653"
       y="98.506325"
       id="tspan2422"
       style="stroke-width:0.26458332"><tspan
         x="7.1380653"
         y="98.506325"
         id="tspan2420"
         style="stroke-width:0.26458332">in the world haven't made </tspan></tspan><tspan
       sodipodi:role="line"
       x="7.1380653"
       y="105.18838"
       id="tspan2426"
       style="stroke-width:0.26458332"><tspan
         x="7.1380653"
         y="105.18838"
         id="tspan2424"
         style="stroke-width:0.26458332">or received a phone call</tspan></tspan></text>
</svg>
