<?xml version="1.0" encoding="UTF-8" standalone="no"?>
<svg
   xmlns:dc="http://purl.org/dc/elements/1.1/"
   xmlns:cc="http://creativecommons.org/ns#"
   xmlns:rdf="http://www.w3.org/1999/02/22-rdf-syntax-ns#"
   xmlns:svg="http://www.w3.org/2000/svg"
   xmlns="http://www.w3.org/2000/svg"
   width="300"
   height="420"
   viewBox="0 0 79.374998 111.125"
   version="1.1"
   id="svg885">
  <defs
     id="defs879" />
  <metadata
     id="metadata882">
    <rdf:RDF>
      <cc:Work
         rdf:about="">
        <dc:format>image/svg+xml</dc:format>
        <dc:type
           rdf:resource="http://purl.org/dc/dcmitype/StillImage" />
        <dc:title></dc:title>
      </cc:Work>
    </rdf:RDF>
  </metadata>
  <g
     style="opacity:0.99;fill:#c76e87;fill-opacity:1"
     id="layer1"
     transform="translate(0,-185.87498)">
    <rect
       style="opacity:1;fill:#c76e87;fill-opacity:1;fill-rule:nonzero;stroke:none;stroke-width:0.26598862;stroke-linecap:round;stroke-linejoin:round;stroke-miterlimit:4;stroke-dasharray:none;stroke-opacity:1;paint-order:normal"
       id="rect1430"
       width="79.368423"
       height="111.11626"
       x="0.0034530037"
       y="185.87776" />
    <flowRoot
       xml:space="preserve"
       id="flowRoot2560"
       style="fill:#c76e87;fill-opacity:1;stroke:none;font-family:Arial;font-style:normal;font-weight:bold;font-size:20.20399984px;line-height:1.25;letter-spacing:0px;word-spacing:0px;-inkscape-font-specification:'Arial, Bold';font-stretch:normal;font-variant:normal;text-anchor:start;text-align:start;writing-mode:lr;font-variant-ligatures:normal;font-variant-caps:normal;font-variant-numeric:normal;font-feature-settings:normal"><flowRegion
         style="fill:#c76e87;fill-opacity:1"
         id="flowRegion2562"><rect
           style="fill:#c76e87;fill-opacity:1"
           id="rect2564"
           width="438.40622"
           height="422.24377"
           x="-159.6041"
           y="-33.558495" /></flowRegion><flowPara
         id="flowPara2566" /></flowRoot>  </g>
  <text
     id="text2322"
     y="8.8064241"
     x="2.7011271"
     style="font-style:normal;font-variant:normal;font-weight:bold;font-stretch:normal;font-size:6.3499999px;line-height:1.25;font-family:Arial;-inkscape-font-specification:'Arial, Bold';font-variant-ligatures:normal;font-variant-caps:normal;font-variant-numeric:normal;font-feature-settings:normal;text-align:start;letter-spacing:0px;word-spacing:0px;writing-mode:lr-tb;text-anchor:start;fill:#c9ccc7;fill-opacity:1;stroke:none;stroke-width:0.26458332"
     xml:space="preserve"><tspan
       style="fill:#c9ccc7;fill-opacity:1;stroke-width:0.26458332"
       id="tspan2320"
       y="8.8064241"
       x="2.7011271"><tspan
         style="fill:#c9ccc7;fill-opacity:1;stroke-width:0.26458332"
         id="tspan2318"
         y="8.8064241"
         x="2.7011271">23.</tspan></tspan></text>
  <style
     type="text/css"
     id="style1209">
	.st0{fill:#6D6C6B;}
	.st1{fill:#60BAE2;}
	.st2{fill:#F9D0B4;}
	.st3{fill:#F45D64;}
	.st4{fill:#E9E9EA;}
	.st5{fill:#6DCC6D;}
	.st6{fill:#F9D97D;}
	.st7{fill:#231F20;}
</style>
  <flowRoot
     xml:space="preserve"
     id="flowRoot1045"
     style="fill:black;fill-opacity:1;stroke:none;font-family:Arial;font-style:normal;font-weight:bold;font-size:20.20399984px;line-height:1.25;letter-spacing:0px;word-spacing:0px;-inkscape-font-specification:'Arial, Bold';font-stretch:normal;font-variant:normal;text-anchor:start;text-align:start;writing-mode:lr;font-variant-ligatures:normal;font-variant-caps:normal;font-variant-numeric:normal;font-feature-settings:normal"><flowRegion
       id="flowRegion1047"><rect
         id="rect1049"
         width="56.715855"
         height="88.682976"
         x="186.64673"
         y="289.03793" /></flowRegion><flowPara
       id="flowPara1051" /></flowRoot>  <g
     id="g1673"
     transform="matrix(0.06375218,0,0,0.0738731,24.556844,12.231319)">
    <g
       id="g1595"
       transform="matrix(1.25,0,0,-1.25,0,45)">
      <g
         id="g1593">
        <g
           id="g1591">
          <g
             id="g1553"
             transform="translate(18,33)">
            <path
               id="path1549"
               d="m 175.422,-19.756 c 0,0 0,22.756 -34.133,22.756 -22.756,0 -61.156,-23.233 -68.267,-45.511 -22.756,0 -56.889,-45.511 -45.511,-79.644 -34.133,-11.378 -41.244,-91.5 -22.756,-102.4 -22.755,-22.756 -11.377,-79.645 34.134,-91.023 11.48,-35.214 40.96,-58.63 68.267,-56.889 9.956,-8.055 20.389,-11.378 34.133,-11.378 34.133,0 34.133,22.278 34.133,56.411 z"
               style="fill:#f2abba" />
            <path
               id="path1551"
               d="m 175.422,-19.756 c 0,0 0,22.756 34.133,22.756 22.756,0 61.156,-23.233 68.267,-45.511 22.756,0 56.889,-45.511 45.511,-79.644 34.133,-11.378 41.244,-91.5 22.756,-102.4 22.756,-22.756 11.378,-79.644 -34.133,-91.022 -11.48,-35.214 -40.96,-58.63 -68.267,-56.889 -9.956,-8.055 -20.389,-11.378 -34.133,-11.378 -34.133,0 -34.133,22.278 -34.133,56.411 v 307.677 z"
               style="fill:#f2abba" />
          </g>
          <g
             id="g1589">
            <path
               id="path1555"
               d="m 125.156,-72.089 c -0.592,0 -1.195,0.091 -1.798,0.296 -30.083,10.024 -38.025,37.683 -38.025,50.904 0,3.129 2.537,5.666 5.666,5.678 h 0.023 c 3.118,0 5.666,-2.526 5.689,-5.655 0.011,-1.229 0.558,-30.242 30.242,-40.141 2.981,-0.99 4.597,-4.21 3.595,-7.191 -0.796,-2.389 -3.014,-3.891 -5.392,-3.891"
               style="fill:#e75a70" />
            <path
               id="path1557"
               d="m 125.156,-94.844 c -2.094,0 -4.096,1.149 -5.097,3.14 -11.014,22.027 4.301,36.955 13.926,41.768 2.81,1.388 6.224,0.273 7.634,-2.537 1.399,-2.799 0.273,-6.212 -2.526,-7.623 -1.798,-0.922 -17.351,-9.512 -8.852,-26.51 1.399,-2.81 0.262,-6.235 -2.549,-7.634 -0.818,-0.411 -1.683,-0.604 -2.536,-0.604"
               style="fill:#e75a70" />
            <path
               id="path1559"
               d="m 93.889,-152.974 -4.665,1.536 c -36.739,12.242 -45.818,50.13 -46.182,51.735 -0.705,3.049 1.206,6.098 4.255,6.804 3.061,0.694 6.11,-1.195 6.827,-4.255 0.08,-0.319 7.384,-30.231 34.486,-41.882 5.006,7.418 17.044,21.436 36.557,21.436 3.14,0 5.689,-2.537 5.689,-5.689 0,-3.14 -2.549,-5.689 -5.689,-5.689 -18.876,0 -28.956,-19.422 -29.059,-19.627 z"
               style="fill:#e75a70" />
            <path
               id="path1561"
               d="m 113.766,-195.663 c -0.626,0 -1.274,0.102 -1.9,0.319 -2.947,1.058 -4.494,4.267 -3.47,7.225 0.137,0.375 13.687,37.296 63.647,24.849 3.049,-0.774 4.904,-3.857 4.13,-6.906 -0.762,-3.049 -3.88,-4.87 -6.895,-4.142 -39.652,9.921 -49.732,-16.475 -50.153,-17.59 -0.842,-2.31 -3.026,-3.755 -5.359,-3.755"
               style="fill:#e75a70" />
            <path
               id="path1563"
               d="m 79.644,-254.133 c -0.853,0 -1.718,0.193 -2.537,0.603 -17.271,8.636 -18.978,23.472 -16.589,34.133 -20.844,3.186 -35.453,18.125 -36.136,18.83 -2.173,2.253 -2.105,5.848 0.148,8.033 2.253,2.173 5.86,2.105 8.033,-0.137 0.159,-0.148 15.747,-15.952 35.703,-15.952 h 9.216 l -4.119,-8.238 c -0.876,-1.798 -8.169,-18 8.829,-26.499 2.81,-1.411 3.948,-4.824 2.549,-7.634 -1.001,-1.979 -3.003,-3.139 -5.097,-3.139"
               style="fill:#e75a70" />
            <path
               id="path1565"
               d="m 136.533,-333.778 c -1.49,0 -2.981,0.58 -4.096,1.741 -2.173,2.264 -2.116,5.86 0.137,8.033 0.205,0.205 20.605,20.252 15.531,38.946 -0.819,3.038 0.967,6.155 3.994,6.986 3.038,0.808 6.167,-0.967 6.986,-4.005 6.849,-25.213 -17.567,-49.095 -18.614,-50.108 -1.093,-1.058 -2.515,-1.593 -3.938,-1.593"
               style="fill:#e75a70" />
            <path
               id="path1567"
               d="m 161.109,-289.268 c -21.549,0 -29.252,14.791 -29.616,15.508 -1.411,2.81 -0.273,6.235 2.526,7.646 2.81,1.399 6.19,0.284 7.612,-2.48 0.353,-0.649 7.168,-12.481 27.978,-8.408 3.061,0.637 6.064,-1.388 6.679,-4.471 0.614,-3.083 -1.399,-6.076 -4.471,-6.679 -3.904,-0.786 -7.465,-1.116 -10.708,-1.116"
               style="fill:#e75a70" />
            <path
               id="path1569"
               d="m 133.495,-9.591 c -1.365,0 -2.731,0.489 -3.823,1.479 -2.321,2.105 -2.503,5.689 -0.398,8.021 0.592,0.649 14.655,15.997 32.427,16.441 8.943,0.319 17.192,-3.288 24.36,-10.468 2.219,-2.219 2.219,-5.814 0,-8.044 -2.219,-2.219 -5.825,-2.219 -8.044,0 -4.938,4.938 -10.456,7.339 -15.974,7.134 -12.868,-0.296 -24.223,-12.584 -24.337,-12.698 -1.127,-1.239 -2.663,-1.865 -4.211,-1.865"
               style="fill:#e75a70" />
            <path
               id="path1571"
               d="m 261.689,-72.089 c -2.378,0 -4.597,1.502 -5.404,3.891 -0.99,2.981 0.626,6.201 3.607,7.191 29.685,9.899 30.231,38.912 30.242,40.141 0.023,3.14 2.219,5.78 5.712,5.655 3.129,-0.011 5.666,-2.549 5.666,-5.678 0,-13.221 -7.942,-40.88 -38.025,-50.904 -0.603,-0.205 -1.195,-0.296 -1.798,-0.296"
               style="fill:#e75a70" />
            <path
               id="path1573"
               d="m 261.689,-94.844 c -0.853,0 -1.718,0.193 -2.549,0.603 -2.81,1.399 -3.937,4.824 -2.537,7.634 8.59,17.169 -7.02,25.589 -8.841,26.499 -2.81,1.399 -3.937,4.824 -2.537,7.634 1.411,2.81 4.836,3.925 7.634,2.537 9.626,-4.813 24.929,-19.74 13.915,-41.768 -1,-1.99 -3.003,-3.139 -5.085,-3.139"
               style="fill:#e75a70" />
            <path
               id="path1575"
               d="m 292.966,-152.996 -2.219,4.392 c -0.102,0.193 -10.194,19.627 -29.059,19.627 -3.14,0 -5.689,2.537 -5.689,5.689 0,3.14 2.549,5.689 5.689,5.689 19.513,0 31.539,-14.029 36.545,-21.447 27.261,11.685 34.406,41.563 34.486,41.882 0.694,3.049 3.721,5.018 6.815,4.267 3.061,-0.694 4.972,-3.755 4.278,-6.815 -0.364,-1.604 -9.444,-39.481 -46.194,-51.723 z"
               style="fill:#e75a70" />
            <path
               id="path1577"
               d="m 273.067,-195.686 c -2.344,0 -4.528,1.456 -5.359,3.777 -0.41,1.126 -10.615,27.511 -50.153,17.59 -3.038,-0.705 -6.144,1.104 -6.895,4.142 -0.762,3.049 1.081,6.133 4.142,6.906 49.937,12.481 63.499,-24.474 63.636,-24.849 1.035,-2.97 -0.523,-6.212 -3.493,-7.248 -0.627,-0.215 -1.253,-0.318 -1.878,-0.318"
               style="fill:#e75a70" />
            <path
               id="path1579"
               d="m 307.2,-254.133 c -2.082,0 -4.085,1.161 -5.086,3.14 -1.399,2.81 -0.273,6.224 2.537,7.634 17.169,8.59 9.739,24.69 8.841,26.499 l -4.119,8.238 h 9.205 c 19.968,0 35.556,15.804 35.715,15.952 2.207,2.241 5.769,2.321 8.044,0.125 2.253,-2.173 2.321,-5.769 0.137,-8.021 -0.683,-0.705 -15.292,-15.644 -36.136,-18.83 2.389,-10.661 0.671,-25.498 -16.589,-34.133 -0.831,-0.411 -1.696,-0.604 -2.549,-0.604"
               style="fill:#e75a70" />
            <path
               id="path1581"
               d="m 250.311,-333.778 c -1.422,0 -2.844,0.535 -3.948,1.593 -1.035,1.013 -25.452,24.895 -18.603,50.108 0.819,3.026 3.925,4.813 6.975,4.005 3.026,-0.831 4.824,-3.948 3.994,-6.986 -5.097,-18.785 15.326,-38.73 15.531,-38.935 2.264,-2.173 2.332,-5.78 0.148,-8.044 -1.116,-1.161 -2.606,-1.741 -4.097,-1.741"
               style="fill:#e75a70" />
            <path
               id="path1583"
               d="m 225.781,-289.268 c -3.243,0 -6.815,0.33 -10.695,1.115 -3.095,0.603 -5.097,3.595 -4.483,6.679 0.614,3.083 3.652,5.131 6.679,4.471 21.026,-4.119 27.694,7.896 27.989,8.42 1.456,2.753 4.881,3.834 7.657,2.389 2.753,-1.434 3.868,-4.79 2.469,-7.566 -0.364,-0.717 -8.078,-15.508 -29.616,-15.508"
               style="fill:#e75a70" />
            <path
               id="path1585"
               d="m 253.349,-9.591 c -1.547,0 -3.083,0.626 -4.21,1.866 -0.114,0.114 -11.469,12.402 -24.337,12.698 -5.905,0.273 -11.036,-2.196 -15.974,-7.134 -2.219,-2.219 -5.825,-2.219 -8.044,0 -2.219,2.23 -2.219,5.825 0,8.044 7.168,7.168 15.053,10.866 24.36,10.468 17.761,-0.444 31.835,-15.792 32.427,-16.441 2.105,-2.332 1.923,-5.916 -0.398,-8.021 -1.093,-0.991 -2.459,-1.48 -3.824,-1.48"
               style="fill:#e75a70" />
            <path
               id="path1587"
               d="m 199.111,1.867 h -11.378 c -3.129,0 -5.689,-2.56 -5.689,-5.689 v -295.822 c 0,-3.129 2.56,-5.689 5.689,-5.689 h 11.378 c 3.129,0 5.689,2.56 5.689,5.689 V -3.822 c 0,3.129 -2.56,5.689 -5.689,5.689"
               style="fill:#e75a70" />
          </g>
        </g>
      </g>
    </g>
    <g
       id="g1597" />
    <g
       id="g1599" />
    <g
       id="g1601" />
    <g
       id="g1603" />
    <g
       id="g1605" />
    <g
       id="g1607" />
    <g
       id="g1609" />
    <g
       id="g1611" />
    <g
       id="g1613" />
    <g
       id="g1615" />
    <g
       id="g1617" />
    <g
       id="g1619" />
    <g
       id="g1621" />
    <g
       id="g1623" />
    <g
       id="g1625" />
  </g>
  <text
     id="text3253"
     y="78.180168"
     x="72.112923"
     style="font-style:normal;font-variant:normal;font-weight:bold;font-stretch:normal;font-size:7.76111126px;line-height:1.25;font-family:Arial;-inkscape-font-specification:'Arial, Bold';font-variant-ligatures:normal;font-variant-caps:normal;font-variant-numeric:normal;font-feature-settings:normal;text-align:center;letter-spacing:0px;word-spacing:0px;writing-mode:lr-tb;text-anchor:middle;fill:#c0d5ff;fill-opacity:1;stroke:none;stroke-width:0.26458332"
     xml:space="preserve"><tspan
       style="text-align:center;text-anchor:middle;stroke-width:0.26458332"
       id="tspan3247"
       y="78.180168"
       x="40.462139"><tspan
         style="text-align:center;text-anchor:middle;stroke-width:0.26458332"
         id="tspan3245"
         y="78.180168"
         x="39.385891">The brain is 75% </tspan></tspan><tspan
       style="text-align:center;text-anchor:middle;stroke-width:0.26458332"
       id="tspan3251"
       y="87.881554"
       x="39.385891"><tspan
         style="text-align:center;text-anchor:middle;stroke-width:0.26458332"
         id="tspan3249"
         y="87.881554"
         x="39.385891">water and 60% fat</tspan></tspan></text>
</svg>
