<?xml version="1.0" encoding="UTF-8" standalone="no"?>
<svg
   xmlns:dc="http://purl.org/dc/elements/1.1/"
   xmlns:cc="http://creativecommons.org/ns#"
   xmlns:rdf="http://www.w3.org/1999/02/22-rdf-syntax-ns#"
   xmlns:svg="http://www.w3.org/2000/svg"
   xmlns="http://www.w3.org/2000/svg"
   xmlns:sodipodi="http://sodipodi.sourceforge.net/DTD/sodipodi-0.dtd"
   xmlns:inkscape="http://www.inkscape.org/namespaces/inkscape"
   id="svg885"
   version="1.1"
   viewBox="0 0 79.374998 111.125"
   height="420"
   width="300"
   sodipodi:docname="016.svg"
   inkscape:version="0.92.4 (5da689c313, 2019-01-14)">
  <sodipodi:namedview
     pagecolor="#ffffff"
     bordercolor="#666666"
     borderopacity="1"
     objecttolerance="10"
     gridtolerance="10"
     guidetolerance="10"
     inkscape:pageopacity="0"
     inkscape:pageshadow="2"
     inkscape:window-width="1366"
     inkscape:window-height="745"
     id="namedview1053"
     showgrid="false"
     inkscape:zoom="1.9394929"
     inkscape:cx="193.70689"
     inkscape:cy="136.49724"
     inkscape:window-x="-8"
     inkscape:window-y="-8"
     inkscape:window-maximized="1"
     inkscape:current-layer="svg885" />
  <defs
     id="defs879" />
  <metadata
     id="metadata882">
    <rdf:RDF>
      <cc:Work
         rdf:about="">
        <dc:format>image/svg+xml</dc:format>
        <dc:type
           rdf:resource="http://purl.org/dc/dcmitype/StillImage" />
        <dc:title />
      </cc:Work>
    </rdf:RDF>
  </metadata>
  <g
     transform="translate(0,-185.87498)"
     id="layer1"
     style="opacity:0.99;fill:#537758;fill-opacity:1">
    <rect
       y="185.87776"
       x="0.0034530037"
       height="111.11626"
       width="79.368423"
       id="rect1430"
       style="opacity:1;fill:#537758;fill-opacity:1;fill-rule:nonzero;stroke:none;stroke-width:0.26598862;stroke-linecap:round;stroke-linejoin:round;stroke-miterlimit:4;stroke-dasharray:none;stroke-opacity:1;paint-order:normal" />
    <flowRoot
       style="fill:#537758;fill-opacity:1;stroke:none;font-family:Arial;font-style:normal;font-weight:bold;font-size:20.20399984px;line-height:1.25;letter-spacing:0px;word-spacing:0px;-inkscape-font-specification:'Arial, Bold';font-stretch:normal;font-variant:normal;text-anchor:start;text-align:start;writing-mode:lr;font-variant-ligatures:normal;font-variant-caps:normal;font-variant-numeric:normal;font-feature-settings:normal"
       id="flowRoot2560"
       xml:space="preserve"><flowRegion
         id="flowRegion2562"
         style="fill:#537758;fill-opacity:1"><rect
           y="-33.558495"
           x="-159.6041"
           height="422.24377"
           width="438.40622"
           id="rect2564"
           style="fill:#537758;fill-opacity:1" /></flowRegion><flowPara
         id="flowPara2566" /></flowRoot>  </g>
  <text
     xml:space="preserve"
     style="font-style:normal;font-variant:normal;font-weight:bold;font-stretch:normal;font-size:6.3499999px;line-height:1.25;font-family:Arial;-inkscape-font-specification:'Arial, Bold';font-variant-ligatures:normal;font-variant-caps:normal;font-variant-numeric:normal;font-feature-settings:normal;text-align:start;letter-spacing:0px;word-spacing:0px;writing-mode:lr-tb;text-anchor:start;fill:#292626;fill-opacity:1;stroke:none;stroke-width:0.26458332"
     x="2.7011271"
     y="8.8064241"
     id="text2322"><tspan
       sodipodi:role="line"
       x="2.7011271"
       y="8.8064241"
       id="tspan2320"
       style="fill:#292626;fill-opacity:1;stroke-width:0.26458332"><tspan
         x="2.7011271"
         y="8.8064241"
         id="tspan2318"
         style="fill:#292626;fill-opacity:1;stroke-width:0.26458332">16.</tspan></tspan></text>
  <g
     id="g1463"
     transform="matrix(0.28983155,0,0,0.34206928,10.161523,-3.7662475)">
    <g
       inkscape:label="arms &amp; legs"
       id="layer6">
      <path
         sodipodi:nodetypes="cc"
         inkscape:connector-curvature="0"
         id="path878"
         d="M 66.768157,139.81035 C 51.893233,146.9178 32.246079,178.46662 40.013915,173.24137"
         style="fill:none;stroke:#000000;stroke-width:4.60422993;stroke-linecap:round;stroke-linejoin:miter;stroke-miterlimit:4;stroke-dasharray:none;stroke-opacity:1" />
      <path
         style="fill:none;stroke:#000000;stroke-width:4.60422993;stroke-linecap:round;stroke-linejoin:miter;stroke-miterlimit:4;stroke-dasharray:none;stroke-opacity:1"
         d="m 139.53994,141.79213 c 9.68927,12.94143 25.35237,46.78746 17.95995,40.3533"
         id="path880"
         inkscape:connector-curvature="0"
         sodipodi:nodetypes="cc" />
      <path
         sodipodi:nodetypes="cc"
         inkscape:connector-curvature="0"
         id="path882"
         d="m 82.131923,185.30806 c 4.188273,16.61271 -11.928366,48.16385 -0.374176,45.46254"
         style="fill:none;stroke:#000000;stroke-width:5.86499977;stroke-linecap:round;stroke-linejoin:miter;stroke-miterlimit:4;stroke-dasharray:none;stroke-opacity:1" />
      <path
         style="fill:none;stroke:#000000;stroke-width:5.86499977;stroke-linecap:round;stroke-linejoin:miter;stroke-miterlimit:4;stroke-dasharray:none;stroke-opacity:1"
         d="m 121.35958,185.33269 c 3.48225,17.21091 -11.92837,48.16385 -0.37418,45.46254"
         id="path884"
         inkscape:connector-curvature="0"
         sodipodi:nodetypes="cc" />
    </g>
    <g
       style="display:inline"
       inkscape:label="body"
       id="layer4">
      <rect
         ry="2.5358722"
         y="136.27773"
         x="64.645958"
         height="49.587734"
         width="75.683777"
         id="rect2154"
         style="opacity:1;fill:#fe7b6a;fill-opacity:1;stroke:none;stroke-width:0.07566334;stroke-linecap:round;stroke-linejoin:round;stroke-miterlimit:4;stroke-dasharray:none;stroke-opacity:1;paint-order:normal" />
      <path
         sodipodi:nodetypes="ccccc"
         inkscape:connector-curvature="0"
         id="path2156"
         d="m 64.791873,156.17051 75.391307,-0.72834 5e-5,18.15658 -75.391309,0.11601 z"
         style="fill:#f0624e;fill-opacity:1;stroke:#f0624e;stroke-width:0.32813942;stroke-linecap:butt;stroke-linejoin:miter;stroke-miterlimit:4;stroke-dasharray:none;stroke-opacity:1" />
    </g>
    <g
       id="layer1-5"
       inkscape:label="face">
      <g
         style="fill:#a3e0c0;fill-opacity:1"
         inkscape:label="Layer 1"
         id="layer1-4"
         transform="translate(4.1038546,-103.99778)">
        <rect
           style="opacity:1;fill:#a3e0c0;fill-opacity:1;stroke:none;stroke-width:3.00399995;stroke-linecap:round;stroke-linejoin:round;stroke-miterlimit:4;stroke-dasharray:none;stroke-opacity:1;paint-order:normal"
           id="rect815"
           width="132.66963"
           height="100.1637"
           x="33.261906"
           y="146.18748"
           ry="50.081848"
           rx="49.514881" />
      </g>
      <path
         d="M 79.913584,104.69958 A 10.022608,10.557146 0 0 1 69.891632,115.25672 10.022608,10.557146 0 0 1 59.868368,104.70096 10.022608,10.557146 0 0 1 69.889008,94.142431 10.022608,10.557146 0 0 1 79.913583,104.69681 l -10.022607,0.003 z"
         sodipodi:end="6.2829235"
         sodipodi:start="0"
         sodipodi:ry="10.557146"
         sodipodi:rx="10.022608"
         sodipodi:cy="104.69958"
         sodipodi:cx="69.890976"
         sodipodi:type="arc"
         id="path2023"
         style="fill:#86d0ab;fill-opacity:1;fill-rule:evenodd;stroke-width:0.26458332" />
      <path
         d="m 161.16352,101.75961 a 10.423512,11.358955 0 0 1 -10.42283,11.35896 10.423512,11.358955 0 0 1 -10.4242,-11.35747 10.423512,11.358955 0 0 1 10.42147,-11.360442 10.423512,11.358955 0 0 1 10.42556,11.355982 l -10.42351,0.003 z"
         sodipodi:end="6.2829235"
         sodipodi:start="0"
         sodipodi:ry="11.358955"
         sodipodi:rx="10.423512"
         sodipodi:cy="101.75961"
         sodipodi:cx="150.74001"
         sodipodi:type="arc"
         id="path2025"
         style="fill:#86d0ab;fill-opacity:1;fill-rule:evenodd;stroke-width:0.26458332" />
      <path
         sodipodi:nodetypes="ccccccc"
         inkscape:connector-curvature="0"
         id="path2029"
         d="M 135.46234,139.90161 C 103.83913,141.25495 74.025655,141.06533 71.045524,115.05813 55.376425,115 57.726273,95.128724 69.412294,93.82613 65.298145,53.389322 79.393102,48.961318 88.864323,42.672194 59.562019,39.595249 37.185723,67.453189 37.809284,89.960016 c -1.76528,33.488194 25.446872,52.047174 47.118697,52.046414 23.662139,0.75924 42.395969,0.886 50.534359,-2.10482 z"
         style="fill:#95d8af;fill-opacity:1;stroke:#95d8af;stroke-width:0.26458332px;stroke-linecap:butt;stroke-linejoin:miter;stroke-opacity:1" />
      <path
         sodipodi:nodetypes="ccccc"
         inkscape:connector-curvature="0"
         id="path2031"
         d="M 42.918268,69.134595 29.167873,57.475574 c -4.06867,-3.600109 1.797433,-10.284612 5.762783,-6.888703 l 13.041932,10.732934 c -2.588087,3.245779 -3.523411,5.121467 -5.05432,7.81479 z"
         style="fill:#77c79f;fill-opacity:1;stroke:none;stroke-width:0.114;stroke-linecap:butt;stroke-linejoin:miter;stroke-miterlimit:4;stroke-dasharray:none;stroke-opacity:1" />
      <path
         sodipodi:nodetypes="ccccc"
         inkscape:connector-curvature="0"
         id="path2033"
         d="M 49.850716,58.986426 29.938228,41.293354 C 26.241189,38.140029 32.50453,32.234957 35.8028,34.8462 l 20.059955,18.236876 c -1.122746,1.030173 -4.87864,4.541005 -6.012039,5.90335 z"
         style="fill:#77c79f;fill-opacity:1;stroke:none;stroke-width:0.075;stroke-linecap:butt;stroke-linejoin:miter;stroke-miterlimit:4;stroke-dasharray:none;stroke-opacity:1" />
      <path
         style="fill:#77c79f;fill-opacity:1;stroke:none;stroke-width:0.114;stroke-linecap:butt;stroke-linejoin:miter;stroke-miterlimit:4;stroke-dasharray:none;stroke-opacity:1"
         d="M 58.093776,51.342742 44.461795,39.800021 c -4.06867,-3.600109 1.797433,-10.284612 5.762783,-6.888703 l 15.195652,13.90722 c -1.85391,0.869755 -5.856491,3.288176 -7.326454,4.524204 z"
         id="path2044"
         inkscape:connector-curvature="0"
         sodipodi:nodetypes="ccccc" />
    </g>
    <g
       style="display:inline"
       inkscape:label="eye &amp; brow"
       id="layer2">
      <path
         sodipodi:nodetypes="cccccccccc"
         inkscape:connector-curvature="0"
         id="path2213"
         d="m 81.47596,82.945154 c 1.045872,13.684224 19.03344,18.034166 26.17231,5.112708 5.50008,11.980628 25.5048,10.051654 26.29614,-4.942853 l 13.16761,-1.258017 -9.33918,16.744471 -55.829213,5.144777 -6.559526,-11.403483 -3.128389,-0.201829 -0.0976,-8.286943 z"
         style="fill:#a3e0c0;fill-opacity:1;stroke:#a3e0c0;stroke-width:0.065;stroke-linecap:butt;stroke-linejoin:miter;stroke-miterlimit:4;stroke-dasharray:none;stroke-opacity:1" />
    </g>
    <g
       inkscape:label="eyebrow cover"
       id="layer5" />
    <g
       style="display:inline"
       inkscape:label="mouth"
       id="layer3">
      <path
         inkscape:connector-curvature="0"
         id="path895"
         d="m 91.369316,108.83786 c 34.845494,-3.27864 34.845494,-3.27864 34.845494,-3.27864"
         style="fill:none;stroke:#64a2d6;stroke-width:8.25;stroke-linecap:round;stroke-linejoin:miter;stroke-miterlimit:4;stroke-dasharray:none;stroke-opacity:1" />
      <path
         sodipodi:nodetypes="cc"
         inkscape:connector-curvature="0"
         id="path897"
         d="m 91.369316,108.83786 34.845494,-3.27864"
         style="fill:none;stroke:#000000;stroke-width:2.06500006;stroke-linecap:round;stroke-linejoin:miter;stroke-miterlimit:4;stroke-dasharray:none;stroke-opacity:1" />
    </g>
  </g>
  <g
     id="g1724"
     transform="matrix(0.02995178,0,0,0.02664178,32.451861,46.489451)">
    <path
       id="path1572"
       d="m 204.377,400.021 c -17.079,11.393 -37.37,16.993 -57.899,16.993 H 108.37 c -10.612,0 -21.072,-2.452 -30.577,-7.183 C 65.51,403.711 55.636,394.25 49.039,382.9 c -6.011,-10.308 -9.331,-22.156 -9.331,-34.483 0,-1.801 0.065,-3.624 0.216,-5.447 l 5.013,-63.889 c 4.622,-58.615 21.615,-115.667 50.716,-166.752 16.927,-29.774 34.44,-51.54 65.321,-76.171 5.252,-4.188 11.414,-7.227 18.055,-8.312 20.942,-3.407 37.478,11.546 38.346,32.573 l 15.516,245.701 2.474,39.127 c 1.021,24.479 -12.217,42.295 -30.988,54.774 z"
       style="fill:#d9593f;stroke:#000000;stroke-width:3.54003096;stroke-miterlimit:4;stroke-dasharray:none;stroke-opacity:1"
       inkscape:connector-curvature="0" />
    <path
       id="path1574"
       d="M 232.899,306.12 C 193.425,368.771 90.41,380.664 49.047,382.898 43.036,372.59 39.716,360.742 39.716,348.415 c 0,-1.801 0.065,-3.624 0.216,-5.447 l 5.013,-63.889 c 4.622,-58.615 21.615,-115.667 50.716,-166.752 16.927,-29.774 34.44,-51.54 65.321,-76.171 5.252,-4.188 11.414,-7.227 18.055,-8.312 3.472,-0.564 6.836,-0.629 10.026,-0.216 15.972,1.952 27.603,15.256 28.32,32.79 l 6.619,104.643 z"
       style="fill:#ff876e"
       inkscape:connector-curvature="0" />
    <path
       id="path1576"
       d="m 331.683,181.578 -7.249,38.628 c -74.432,-51.781 -70.436,-50.061 -73.808,-47.257 -52.727,43.849 -57.462,47.778 -57.462,47.778 l -10.851,-47.461 c 21.37,1.428 52.728,-25.588 52.279,-39.692 0.008,0.243 -4.649,-126.65 -4.638,-126.349 -0.146,-3.945 3.012,-7.222 6.959,-7.222 h 22.891 c 3.772,0 6.858,3.002 6.961,6.772 3.705,133.81 3.07,126.689 5.259,133.569 3.579,11.139 11.99,19.254 20.225,22.917 z"
       style="fill:#c8beb9;stroke:#000000;stroke-opacity:1"
       inkscape:connector-curvature="0" />
    <path
       id="path1578"
       d="m 249.403,144.789 c 0.174,4.514 -1.549,8.885 -4.761,12.066 l -8.064,8.003 -8.475,8.393 -37.326,37.018 -8.464,-36.997 c 10.424,0.698 23.229,-5.376 33.55,-13.42 0.41,-0.308 0.811,-0.626 1.2,-0.954 0.79,-0.636 1.57,-1.293 2.329,-1.949 0.38,-0.328 0.749,-0.657 1.118,-0.995 1.488,-1.334 2.883,-2.709 4.186,-4.083 6.115,-6.484 10.055,-13.225 9.891,-18.294 0,0.236 -4.637,-126.649 -4.637,-126.341 C 229.817,3.283 232.966,0 236.916,0 h 7.008 z"
       style="fill:#b4aaaa;stroke:#000000;stroke-opacity:1"
       inkscape:connector-curvature="0" />
    <g
       id="g1590">
      <polygon
         id="polygon1580"
         points="230.208,14.11 266.97,14.11 267.317,26.045 230.642,26.045 "
         style="fill:#ff6e55;stroke:#000000;stroke-opacity:1" />
      <polygon
         id="polygon1582"
         points="231.25,42.69 267.795,42.69 268.12,54.625 231.684,54.625 "
         style="fill:#ff6e55;stroke:#000000;stroke-opacity:1" />
      <polygon
         id="polygon1584"
         points="232.313,71.27 268.597,71.27 268.923,83.206 232.747,83.206 "
         style="fill:#ff6e55;stroke:#000000;stroke-opacity:1" />
      <polygon
         id="polygon1586"
         points="233.355,99.828 269.401,99.828 269.726,111.765 233.789,111.765 "
         style="fill:#ff6e55;stroke:#000000;stroke-opacity:1" />
      <path
         id="path1588"
         d="m 232.943,140.345 c 1.129,-2.431 1.714,-4.731 1.65,-6.771 l -0.195,-5.165 h 35.807 l 0.043,1.432 c 0.109,3.624 0.716,7.161 1.779,10.503 z"
         style="fill:#ff6e55;stroke:#000000;stroke-opacity:1"
         inkscape:connector-curvature="0" />
    </g>
    <path
       id="path1592"
       d="m 246.853,176.087 -9.18,7.639 -21.81,-23.871 c 3.234,-2.518 6.228,-5.231 8.833,-7.986 z"
       style="fill:#c8462d"
       inkscape:connector-curvature="0" />
    <path
       id="path1594"
       d="m 236.578,164.857 -8.475,8.393 -12.24,-13.4 c 0.4,-0.318 0.8,-0.636 1.2,-0.954 0.79,-0.636 1.57,-1.293 2.329,-1.949 0.38,-0.328 0.749,-0.657 1.118,-0.995 1.488,-1.334 2.883,-2.709 4.186,-4.083 z"
       style="fill:#aa321e"
       inkscape:connector-curvature="0" />
    <path
       id="path1596"
       d="m 232.891,306.12 c -39.474,62.651 -142.489,74.544 -183.852,76.778 -6.011,-10.308 -9.331,-22.156 -9.331,-34.483 0,-1.801 0.065,-3.624 0.216,-5.447 l 5.013,-63.889 c 4.622,-58.615 21.615,-115.667 50.716,-166.752 16.927,-29.774 34.44,-51.54 65.321,-76.171 5.252,-4.188 11.414,-7.227 18.055,-8.312 20.942,-3.407 37.478,11.546 38.346,32.573 z"
       style="fill:#ff876e;stroke:#000000;stroke-width:4.53123951;stroke-miterlimit:4;stroke-dasharray:none;stroke-opacity:1"
       inkscape:connector-curvature="0" />
    <path
       id="path1598"
       d="m 203.841,33.467 c -1.28,0.825 -2.539,1.736 -3.733,2.691 -30.88,24.631 -48.393,46.398 -65.32,76.171 -29.101,51.084 -46.093,108.137 -50.716,166.752 L 79.06,342.97 c -0.152,1.823 -0.218,3.646 -0.218,5.447 0,10.894 2.604,21.441 7.356,30.859 -14.67,2.084 -27.56,3.104 -37.152,3.624 -6.011,-10.308 -9.331,-22.156 -9.331,-34.483 0,-1.801 0.065,-3.624 0.216,-5.447 l 5.013,-63.889 c 4.622,-58.615 21.615,-115.667 50.716,-166.752 16.927,-29.774 34.44,-51.54 65.321,-76.171 5.252,-4.188 11.414,-7.227 18.055,-8.312 9.549,-1.562 18.165,0.717 24.805,5.621 z"
       style="fill:#ff6e55;stroke:#000000;stroke-opacity:1"
       inkscape:connector-curvature="0" />
    <g
       id="g1604">
      <path
         id="path1600"
         d="m 136.35,368.75 c -11.285,3.277 -22.526,5.815 -33.202,7.769 C 95.422,363.52 87.371,350.673 79.406,338.456 66.862,319.12 54.602,301.304 44.337,286.786 c 0.545,-4.824 0.852,-19.121 5.729,-47.634 7.183,9.657 19.293,26.258 33.463,46.853 16.407,23.826 35.526,52.992 52.821,82.745 z"
         style="fill:#ffb69e"
         inkscape:connector-curvature="0" />
      <path
         id="path1602"
         d="m 228.624,238.499 c -29.752,16.037 -57.204,21.767 -81.227,21.767 -34.774,0 -67.432,-12 -95.182,-32.27 2.512,-12.25 5.358,-23.197 8.724,-34.505 7.183,6.358 18.468,14.973 33.202,21.983 30.88,14.67 76.93,22.179 132.182,-13.389 z"
         style="fill:#ffb69e;stroke:#000000;stroke-opacity:1"
         inkscape:connector-curvature="0" />
    </g>
    <path
       id="path1606"
       d="m 197.904,70.044 c 3.245,-18.627 -2.331,-32.811 -8.841,-42.414 15.972,1.952 27.603,15.256 28.32,32.79 l 6.619,104.643 c -14.477,-18.257 -21.774,-38.285 -25.449,-54.127 -3.117,-13.43 -3.015,-27.311 -0.649,-40.892 z"
       style="fill:#d9593f;stroke:#000000;stroke-opacity:1"
       inkscape:connector-curvature="0" />
    <path
       id="path1608"
       d="m 327.799,202.306 -3.365,17.904 c -22.233,-15.462 -37.469,-26.163 -47.996,-33.478 -3.878,-2.698 -7.12,-4.935 -9.829,-6.782 -14.579,-9.942 -13.995,-8.659 -15.975,-7.008 l 1.806,-2.021 c 3.591,-4.001 9.47,-4.997 14.169,-2.391 l 5.407,2.986 10.465,5.776 z"
       style="fill:#b4aaaa"
       inkscape:connector-curvature="0" />
    <path
       id="path1610"
       d="m 291.666,162.958 -15.256,23.828 -9.809,-6.814 15.277,-23.849 c 2.844,2.777 6.142,5.076 9.788,6.835 z"
       style="fill:#c8462d"
       inkscape:connector-curvature="0" />
    <path
       id="path1612"
       d="m 367.844,413.056 c 16.591,-0.373 35.528,-2.462 48.267,-4.112 18.846,-2.441 35.687,-13.736 44.053,-30.798 5.076,-10.351 7.227,-22.294 6.213,-35.182 l 0.244,-62.284 C 462.01,222.076 439.733,163.405 410.646,112.32 393.703,82.564 376.199,60.794 345.325,36.168 340.071,31.977 333.9,28.934 327.266,27.853 306.324,24.441 289.787,39.391 288.909,60.413 l -4.255,282.477 c -1.022,24.466 9.447,44.659 28.212,57.146 17.095,11.375 34.446,13.02 54.978,13.02 z"
       style="fill:#d9593f;stroke:#000000;stroke-opacity:1"
       inkscape:connector-curvature="0" />
    <path
       id="path1614"
       d="m 460.175,378.146 c -8.377,17.057 -25.217,28.364 -44.053,30.794 -12.76,1.65 -31.684,3.733 -48.285,4.123 -20.529,0 -37.868,-1.65 -54.969,-13.021 -18.772,-12.5 -29.232,-32.682 -28.212,-57.16 l 0.521,-34.548 c 27.3,-11.567 80.143,-15.603 181.27,20.138 l -0.065,14.496 c 1.019,12.892 -1.151,24.827 -6.207,35.178 z"
       style="fill:#c8462d;stroke:#000000;stroke-width:4.53123951;stroke-miterlimit:4;stroke-dasharray:none;stroke-opacity:1"
       inkscape:connector-curvature="0" />
    <path
       id="path1616"
       d="m 466.374,342.969 c 1.02,12.891 -1.129,24.826 -6.206,35.177 -0.607,1.237 -1.259,2.431 -1.953,3.602 -13.086,-2.505 -24.706,-26.246 -39.011,-30.902 -33.024,-10.748 -66.76,-7.663 -68.713,-34.722 -3.863,-53.406 -52.994,-99.63 -63.802,-109.178 l 0.695,-45.616 c 29.578,-62.759 19.64,-103.428 10.048,-123.219 6.988,-8.029 17.665,-12.239 29.839,-10.265 6.64,1.086 12.803,4.123 18.055,8.312 30.88,24.631 48.372,46.398 65.32,76.171 29.08,51.084 51.367,109.743 55.967,168.358 z"
       style="fill:#ff876e;stroke:#000000;stroke-width:4.53123951;stroke-miterlimit:4;stroke-dasharray:none;stroke-opacity:1"
       inkscape:connector-curvature="0" />
    <path
       id="path1618"
       d="m 461.868,245.835 c -8.16,37.348 -24.783,67.859 -39.214,88.91 -3.645,5.295 -7.118,10.004 -10.308,14.062 -14.046,-3.797 -25.405,-5.398 -35.72,-8.224 4.167,-4.579 12.695,-14.866 22.07,-29.535 21.506,-33.767 47.352,-90.798 34.179,-155.012 12.412,27.691 22.308,56.77 28.298,86.262 0.24,1.171 0.478,2.343 0.695,3.537 z"
       style="fill:#ffb69e;stroke:#000000;stroke-opacity:1"
       inkscape:connector-curvature="0" />
    <g
       id="g1624">
      <path
         id="path1620"
         d="m 83.53,286.004 -4.123,52.452 C 66.863,319.12 54.602,301.304 44.338,286.786 c 0.601,-5.076 0.772,-18.651 5.729,-47.634 7.183,9.655 19.292,26.257 33.463,46.852 z"
         style="fill:#ff876e"
         inkscape:connector-curvature="0" />
      <path
         id="path1622"
         d="m 94.142,215.475 c -2.604,10.785 -4.752,21.658 -6.445,32.638 -14.105,-5.946 -26.063,-13.237 -35.481,-20.117 2.915,-14.219 5.892,-24.992 8.724,-34.505 7.182,6.359 18.466,14.974 33.202,21.984 z"
         style="fill:#ff876e"
         inkscape:connector-curvature="0" />
    </g>
    <path
       id="path1626"
       d="m 460.175,378.146 c -0.607,1.237 -1.259,2.431 -1.953,3.602 -13.086,-2.495 -24.717,-26.237 -39.019,-30.902 -33.029,-10.742 -66.752,-7.66 -68.706,-34.722 -3.863,-53.406 -52.994,-99.63 -63.802,-109.178 l 0.695,-45.616 c 29.578,-62.759 19.64,-103.428 10.048,-123.219 6.988,-8.029 17.665,-12.239 29.839,-10.265 6.64,1.086 12.803,4.123 18.055,8.312 1.563,1.237 3.082,2.474 4.579,3.711 1.841,21.643 -1.232,49.86 -15.659,84.821 -3.856,9.345 -5.793,19.37 -5.945,29.478 v 0 c -0.306,20.327 7.095,39.984 20.659,55.127 20.216,22.568 46.588,59.305 49.512,99.756 2.018,27.756 34.223,26.888 68.033,36.089 0.631,12.065 -1.54,23.241 -6.336,33.006 z"
       style="fill:#ff6e55;stroke:#000000;stroke-opacity:1"
       inkscape:connector-curvature="0" />
    <path
       id="path1628"
       d="m 422.654,334.744 c -3.645,5.295 -7.118,10.004 -10.308,14.062 -10.596,-3.008 -26.172,-5.608 -35.72,-8.224 4.167,-4.579 12.695,-14.866 22.07,-29.535 1.736,13.259 10.938,19.53 23.958,23.697 z"
       style="fill:#ff876e"
       inkscape:connector-curvature="0" />
    <polygon
       id="polygon1630"
       points="266.609,179.95 272.016,171.516 282.481,177.292 276.438,186.731 276.407,186.783 266.599,179.97 "
       style="fill:#aa321e;stroke:#000000;stroke-opacity:1" />
    <g
       id="g1638" />
    <g
       id="g1640" />
    <g
       id="g1642" />
    <g
       id="g1644" />
    <g
       id="g1646" />
    <g
       id="g1648" />
    <g
       id="g1650" />
    <g
       id="g1652" />
    <g
       id="g1654" />
    <g
       id="g1656" />
    <g
       id="g1658" />
    <g
       id="g1660" />
    <g
       id="g1662" />
    <g
       id="g1664" />
    <g
       id="g1666" />
  </g>
  <text
     xml:space="preserve"
     style="font-style:normal;font-variant:normal;font-weight:bold;font-stretch:normal;font-size:6.3499999px;line-height:1.25;font-family:Arial;-inkscape-font-specification:'Arial, Bold';font-variant-ligatures:normal;font-variant-caps:normal;font-variant-numeric:normal;font-feature-settings:normal;text-align:start;letter-spacing:0px;word-spacing:0px;writing-mode:lr-tb;text-anchor:start;fill:#484129;fill-opacity:1;stroke:none;stroke-width:0.26458332"
     x="18.280022"
     y="89.01548"
     id="text3290"><tspan
       sodipodi:role="line"
       x="18.280022"
       y="89.01548"
       id="tspan3280"
       style="stroke-width:0.26458332"><tspan
         x="18.280022"
         y="89.01548"
         id="tspan3278"
         style="stroke-width:0.26458332">Every day you </tspan></tspan><tspan
       sodipodi:role="line"
       x="18.280022"
       y="96.95298"
       id="tspan3284"
       style="stroke-width:0.26458332"><tspan
         x="18.280022"
         y="96.95298"
         id="tspan3282"
         style="stroke-width:0.26458332">breathe up to </tspan></tspan><tspan
       sodipodi:role="line"
       x="18.280022"
       y="104.89048"
       id="tspan3288"
       style="stroke-width:0.26458332"><tspan
         x="18.280022"
         y="104.89048"
         id="tspan3286"
         style="stroke-width:0.26458332">30,000 times</tspan></tspan></text>
  <g
     id="g1798"
     transform="matrix(0.14962157,0,0,0.2225398,32.255147,9.5988993)">
    <ellipse
       id="ellipse1761"
       ry="17.4"
       rx="29.700001"
       cy="76.400002"
       cx="64"
       style="fill:#983729" />
    <path
       id="path1763"
       d="m 114,81.2 c -4.3,4.7 -9.6,5 -15.6,3.4 C 87.374,81.66 79.049,76.059 70.4,73.2 69.228,72.812 66.905,72.098 63.875,72.125 61.007,72.15 58.817,72.828 57.7,73.2 45.468,77.276 29.779,88.608 18.9,84.6 17,83.9 15.4,82.7 14,81.2 6.2,72.6 10,57.1 13.9,46.9 c 2.2,-6 8,-9.9 14.3,-9.9 h 71.6 c 6.4,0 12.1,3.9 14.3,9.9 3.8,10.2 7.7,25.7 -0.1,34.3 z"
       inkscape:connector-curvature="0"
       style="fill:#b55607" />
    <path
       id="path1765"
       d="m 109,76.7 c -1.2,1.4 -2.9,2.2 -4.8,2.1 -4.5,0 -10.8,-3 -17,-5.8 -0.9,-0.4 -6.9,-3.2 -7.8,-3.5 -2.2,-0.9 -6.9,-2.6 -7.3,-2.7 -5.4,-1.6 -11.1,-1.6 -16.5,0 -5.2,1.7 -10.2,3.7 -15.1,6.1 -3.392,1.661 -6.959,2.942 -10.4,4.5 -1.416,0.641 -3.284,1.499 -5.788,1.408 C 23.367,78.774 20.796,78.645 18.9,76.8 17.987,75.912 17.551,74.886 17.2,74 15.1,68.7 16.1,60.1 20.1,49.4 21.4,46 24.6,43.8 28.2,43.8 h 71.6 c 1.5,0 3,0.4 4.3,1.2 0.8,0.4 1.5,1 2,1.7 0.6,0.6 1.1,1.4 1.5,2.2 0.1,0.2 0.2,0.4 0.3,0.6 4.8,12.7 5.2,22.7 1.1,27.2 z"
       inkscape:connector-curvature="0"
       style="fill:#b5e3e9" />
    <path
       id="path1767"
       d="m 111.8,14.9 v 89.8 c 0,7.7 -6.2,13.9 -13.9,13.9 H 73 c -8,0 -14.4,-6.5 -14.4,-14.4 V 93.5 c 1.8,0.2 9,0.2 10.8,0 v 10 c 0,2.4 1.9,4.3 4.3,4.3 h 21.5 c 3.2,0 5.8,-2.6 5.8,-5.8 V 14.9 c 0.008,-2.956 2.433,-5.383 5.375,-5.397 2.961,-0.014 5.417,2.422 5.425,5.397 z"
       inkscape:connector-curvature="0"
       style="fill:#5dbd52" />
    <g
       id="g1779"
       style="fill:#4b9641">
      <path
         id="path1769"
         d="m 101,64.2 h 10.8 v 3.5 H 101 Z"
         inkscape:connector-curvature="0" />
      <path
         id="path1771"
         d="m 101,72.6 h 10.8 v 3.5 H 101 Z"
         inkscape:connector-curvature="0" />
      <path
         id="path1773"
         d="m 101,80.9 h 10.8 v 3.5 H 101 Z"
         inkscape:connector-curvature="0" />
      <path
         id="path1775"
         d="m 101,89.3 h 10.8 v 3.5 H 101 Z"
         inkscape:connector-curvature="0" />
      <path
         id="path1777"
         d="m 101,97.6 h 10.8 v 3.5 H 101 Z"
         inkscape:connector-curvature="0" />
    </g>
  </g>
  <path
     style="display:inline;fill:#ffffff;fill-opacity:1;fill-rule:evenodd;stroke-width:0.05493589"
     id="path847-2"
     sodipodi:type="arc"
     sodipodi:cx="37.861599"
     sodipodi:cy="22.089952"
     sodipodi:rx="2.8344581"
     sodipodi:ry="2.6596694"
     sodipodi:start="0"
     sodipodi:end="6.2829235"
     d="m 40.696057,22.089952 a 2.8344581,2.6596694 0 0 1 -2.834273,2.65967 2.8344581,2.6596694 0 0 1 -2.834643,-2.659321 2.8344581,2.6596694 0 0 1 2.833901,-2.660018 2.8344581,2.6596694 0 0 1 2.835015,2.658973 l -2.834458,6.96e-4 z" />
  <path
     d="m 39.192238,23.283617 a 1.2027478,1.0714504 0 0 1 -1.202669,1.07145 1.2027478,1.0714504 0 0 1 -1.202826,-1.07131 1.2027478,1.0714504 0 0 1 1.202511,-1.07159 1.2027478,1.0714504 0 0 1 1.202984,1.07117 l -1.202747,2.8e-4 z"
     sodipodi:end="6.2829235"
     sodipodi:start="0"
     sodipodi:ry="1.0714504"
     sodipodi:rx="1.2027478"
     sodipodi:cy="23.283617"
     sodipodi:cx="37.989491"
     sodipodi:type="arc"
     id="path2179-8"
     style="display:inline;fill:#000000;fill-opacity:1;fill-rule:evenodd;stroke:none;stroke-width:0.05052198;stroke-opacity:1" />
  <path
     d="m 47.448445,22.089952 a 2.8344581,2.6596694 0 0 1 -2.834273,2.65967 2.8344581,2.6596694 0 0 1 -2.834643,-2.659321 2.8344581,2.6596694 0 0 1 2.833901,-2.660018 2.8344581,2.6596694 0 0 1 2.835015,2.658973 l -2.834458,6.96e-4 z"
     sodipodi:end="6.2829235"
     sodipodi:start="0"
     sodipodi:ry="2.6596694"
     sodipodi:rx="2.8344581"
     sodipodi:cy="22.089952"
     sodipodi:cx="44.613987"
     sodipodi:type="arc"
     id="path1841"
     style="display:inline;fill:#ffffff;fill-opacity:1;fill-rule:evenodd;stroke-width:0.05493589" />
  <path
     style="display:inline;fill:#000000;fill-opacity:1;fill-rule:evenodd;stroke:none;stroke-width:0.05052198;stroke-opacity:1"
     id="path1843"
     sodipodi:type="arc"
     sodipodi:cx="44.554646"
     sodipodi:cy="23.420036"
     sodipodi:rx="1.2027478"
     sodipodi:ry="1.0714504"
     sodipodi:start="0"
     sodipodi:end="6.2829235"
     d="m 45.757393,23.420036 a 1.2027478,1.0714504 0 0 1 -1.202669,1.071451 1.2027478,1.0714504 0 0 1 -1.202826,-1.07131 1.2027478,1.0714504 0 0 1 1.202511,-1.071591 1.2027478,1.0714504 0 0 1 1.202984,1.07117 l -1.202747,2.8e-4 z" />
</svg>
