<?xml version="1.0" encoding="UTF-8" standalone="no"?>
<svg
   xmlns:dc="http://purl.org/dc/elements/1.1/"
   xmlns:cc="http://creativecommons.org/ns#"
   xmlns:rdf="http://www.w3.org/1999/02/22-rdf-syntax-ns#"
   xmlns:svg="http://www.w3.org/2000/svg"
   xmlns="http://www.w3.org/2000/svg"
   xmlns:sodipodi="http://sodipodi.sourceforge.net/DTD/sodipodi-0.dtd"
   xmlns:inkscape="http://www.inkscape.org/namespaces/inkscape"
   id="svg885"
   version="1.1"
   viewBox="0 0 79.374998 111.125"
   height="420"
   width="300"
   sodipodi:docname="015.svg"
   inkscape:version="0.92.4 (5da689c313, 2019-01-14)">
  <sodipodi:namedview
     pagecolor="#ffffff"
     bordercolor="#666666"
     borderopacity="1"
     objecttolerance="10"
     gridtolerance="10"
     guidetolerance="10"
     inkscape:pageopacity="0"
     inkscape:pageshadow="2"
     inkscape:window-width="1366"
     inkscape:window-height="745"
     id="namedview1053"
     showgrid="false"
     inkscape:zoom="1.9394929"
     inkscape:cx="85.376521"
     inkscape:cy="227.78015"
     inkscape:window-x="-8"
     inkscape:window-y="-8"
     inkscape:window-maximized="1"
     inkscape:current-layer="svg885" />
  <defs
     id="defs879" />
  <metadata
     id="metadata882">
    <rdf:RDF>
      <cc:Work
         rdf:about="">
        <dc:format>image/svg+xml</dc:format>
        <dc:type
           rdf:resource="http://purl.org/dc/dcmitype/StillImage" />
        <dc:title></dc:title>
      </cc:Work>
    </rdf:RDF>
  </metadata>
  <g
     transform="translate(0,-185.87498)"
     id="layer1"
     style="opacity:0.99;fill:#d1cc00;fill-opacity:1">
    <rect
       y="185.87776"
       x="0.0034530037"
       height="111.11626"
       width="79.368423"
       id="rect1430"
       style="opacity:1;fill:#d1cc00;fill-opacity:1;fill-rule:nonzero;stroke:none;stroke-width:0.26598862;stroke-linecap:round;stroke-linejoin:round;stroke-miterlimit:4;stroke-dasharray:none;stroke-opacity:1;paint-order:normal" />
    <flowRoot
       style="fill:#d1cc00;fill-opacity:1;stroke:none;font-family:Arial;font-style:normal;font-weight:bold;font-size:20.20399984px;line-height:1.25;letter-spacing:0px;word-spacing:0px;-inkscape-font-specification:'Arial, Bold';font-stretch:normal;font-variant:normal;text-anchor:start;text-align:start;writing-mode:lr;font-variant-ligatures:normal;font-variant-caps:normal;font-variant-numeric:normal;font-feature-settings:normal"
       id="flowRoot2560"
       xml:space="preserve"><flowRegion
         id="flowRegion2562"
         style="fill:#d1cc00;fill-opacity:1"><rect
           y="-33.558495"
           x="-159.6041"
           height="422.24377"
           width="438.40622"
           id="rect2564"
           style="fill:#d1cc00;fill-opacity:1" /></flowRegion><flowPara
         id="flowPara2566" /></flowRoot>  </g>
  <text
     xml:space="preserve"
     style="font-style:normal;font-variant:normal;font-weight:bold;font-stretch:normal;font-size:6.3499999px;line-height:1.25;font-family:Arial;-inkscape-font-specification:'Arial, Bold';font-variant-ligatures:normal;font-variant-caps:normal;font-variant-numeric:normal;font-feature-settings:normal;text-align:start;letter-spacing:0px;word-spacing:0px;writing-mode:lr-tb;text-anchor:start;fill:#292626;fill-opacity:1;stroke:none;stroke-width:0.26458332"
     x="2.7011271"
     y="8.8064241"
     id="text2322"><tspan
       sodipodi:role="line"
       x="2.7011271"
       y="8.8064241"
       id="tspan2320"
       style="fill:#292626;fill-opacity:1;stroke-width:0.26458332"><tspan
         x="2.7011271"
         y="8.8064241"
         id="tspan2318"
         style="fill:#292626;fill-opacity:1;stroke-width:0.26458332">15.</tspan></tspan></text>
  <g
     id="g1777"
     transform="matrix(0.04352461,0,0,0.04132106,26.782123,31.656108)">
    <path
       id="path1746"
       d="M 121.47,202.971 77.557,160.667 C 60.282,144.025 55.125,119.867 64.097,97.621 73.07,75.375 93.544,61.555 117.532,61.555 H 347.448 V 91.79 H 117.532 c -11.572,0 -21.066,6.407 -25.394,17.14 -4.329,10.732 -1.937,21.933 6.396,29.962 l 43.913,42.304 z"
       inkscape:connector-curvature="0"
       style="fill:#fa605a;fill-opacity:1" />
    <path
       id="path1748"
       d="m 452.243,330.74 c 0,48.417 -18.857,93.941 -53.093,128.167 C 364.914,493.143 319.399,512 270.983,512 222.567,512 177.042,493.143 142.816,458.907 91.124,407.215 75.774,329.48 103.067,262.408 l -31.404,-31.404 99.585,-99.585 31.394,31.404 c 67.082,-27.292 144.817,-11.943 196.509,39.749 34.235,34.237 53.092,79.751 53.092,128.168 z"
       inkscape:connector-curvature="0"
       style="fill:#5b5555" />
    <path
       id="path1750"
       d="m 452.243,330.74 c 0,48.417 -18.857,93.941 -53.093,128.167 l -277.983,-277.408 50.08,-50.08 31.394,31.404 c 67.082,-27.292 144.817,-11.943 196.509,39.749 34.236,34.237 53.093,79.751 53.093,128.168 z"
       inkscape:connector-curvature="0"
       style="fill:#463f3f" />
    <path
       id="path1752"
       d="m 270.781,443.545 c -29.191,0 -56.636,-11.368 -77.278,-32.01 l 21.379,-21.379 c 14.931,14.931 34.783,23.154 55.899,23.154 21.116,0 40.968,-8.223 55.899,-23.154 l 21.379,21.379 c -20.641,20.643 -48.086,32.01 -77.278,32.01 z"
       inkscape:connector-curvature="0"
       style="fill:#eef5ff" />
    <path
       id="path1754"
       d="m 381.289,61.555 h 45.689 V 91.79 h -45.689 z"
       inkscape:connector-curvature="0"
       style="fill:#f4758d;fill-opacity:1" />
    <path
       id="path1756"
       d="m 381.289,76.673 h 45.689 v 15.118 h -45.689 z"
       inkscape:connector-curvature="0"
       style="fill:#ff5e5b;fill-opacity:1" />
    <path
       id="path1758"
       transform="matrix(0.906,-0.423,0.423,0.906,26.865,167.81)"
       d="m 368.77,8.242 h 45.689 V 38.478 H 368.77 Z"
       inkscape:connector-curvature="0"
       style="fill:#fb5e5a;fill-opacity:1" />
    <path
       id="path1760"
       transform="matrix(0.423,-0.906,0.906,0.423,108.215,429.89)"
       d="m 376.497,107.141 h 30.236 v 45.689 h -30.236 z"
       inkscape:connector-curvature="0"
       style="fill:#ff5e5c;fill-opacity:1" />
  </g>
  <g
     id="g2447"
     transform="matrix(0.00876774,0.01416519,-0.01725174,0.01197289,24.319465,36.472155)">
    <path
       id="path2410"
       d="m 335.58,331.4 a 198.085,198.085 0 0 1 -9.61,-23.08 c 0,0 -7.28,-18.05 -13.16,-45.6 a 323.435,323.435 0 0 1 -7.27,-62.3 c -0.35,-24.16 2.42,-50.11 10.87,-75.31 0.31,-0.92 0.63,-1.84 0.95,-2.76 0,0 175.64,92.98 165.31,180.8 0,0 -5.17,58.55 -92.99,72.32 0,0 -21.19,3.85 -42.68,-25.18 A 127.888,127.888 0 0 1 335.58,331.4 Z"
       inkscape:connector-curvature="0"
       style="fill:#fedb41" />
    <path
       id="path2412"
       d="m 325.97,308.32 a 198.085,198.085 0 0 0 9.61,23.08 c -51.48,4.18 -109.01,4.55 -159.17,0 a 196.3,196.3 0 0 0 9.62,-23.08 c 0,0 7.28,-18.05 13.16,-45.6 h 0.02 c 35.15,3.42 77.5,3.13 113.58,0 h 0.02 c 5.88,27.55 13.16,45.6 13.16,45.6 z"
       inkscape:connector-curvature="0"
       style="fill:#00acea" />
    <path
       id="path2414"
       d="m 312.81,262.72 h -0.02 c -36.08,3.13 -78.43,3.42 -113.58,0 h -0.02 a 323.435,323.435 0 0 0 7.27,-62.3 c 29.68,2.87 68.62,2.64 99.08,0 a 323.435,323.435 0 0 0 7.27,62.3 z"
       inkscape:connector-curvature="0"
       style="fill:#00efd1" />
    <path
       id="path2416"
       d="m 308.56,116.83 c 2.72,2.64 5.34,5.41 7.85,8.28 -8.45,25.2 -11.22,51.15 -10.87,75.31 -30.46,2.64 -69.4,2.87 -99.08,0 0.35,-24.67 -2.53,-51.21 -11.42,-76.91 a 107.906,107.906 0 0 1 7.7,-8.12 c 15.69,-14.93 34.96,-24.14 53.79,-24.14 18.38,0 36.74,10.71 52.03,25.58 z"
       inkscape:connector-curvature="0"
       style="fill:#00acea" />
    <path
       id="path2418"
       d="m 206.46,200.42 a 323.435,323.435 0 0 1 -7.27,62.3 c -5.88,27.55 -13.16,45.6 -13.16,45.6 a 196.3,196.3 0 0 1 -9.62,23.08 132.717,132.717 0 0 1 -9.18,15.76 C 145,379.6 122.32,375.47 122.32,375.47 34.5,361.7 29.33,303.15 29.33,303.15 19,215.33 194.64,122.35 194.64,122.35 c 0.14,0.39 0.27,0.77 0.4,1.16 8.89,25.7 11.77,52.24 11.42,76.91 z"
       inkscape:connector-curvature="0"
       style="fill:#fedb41" />
    <path
       id="path2420"
       d="m 305.845,46.271 a 6,6 0 0 1 -4.83,-9.554 l 18.23,-24.81 a 6.0000862,6.0000862 0 1 1 9.67,7.106 l -18.23,24.81 a 5.993,5.993 0 0 1 -4.84,2.448 z"
       inkscape:connector-curvature="0"
       style="fill:#f4b844" />
    <path
       id="path2422"
       d="m 206.155,46.271 a 5.992,5.992 0 0 1 -4.84,-2.448 l -18.23,-24.81 a 6.0000862,6.0000862 0 0 1 9.67,-7.106 l 18.23,24.81 a 6,6 0 0 1 -4.83,9.554 z"
       inkscape:connector-curvature="0"
       style="fill:#f4b844" />
    <path
       id="path2424"
       d="m 256,498.54 h -0.077 a 6,6 0 0 1 -5.774,-4.666 l -7.69,-33.72 a 69.94,69.94 0 0 0 -5.083,-14.585 l -2.589,-5.408 a 6,6 0 0 1 5.412,-8.591 h 32.72 a 6,6 0 0 1 5.409,8.6 l -3.01,6.27 a 69.231,69.231 0 0 0 -4.663,12.875 l -8.842,34.709 A 6,6 0 0 1 256,498.54 Z"
       inkscape:connector-curvature="0"
       style="fill:#fedb41" />
    <path
       id="path2426"
       d="m 347,350.29 c -0.66,1.8 -2.84,7.74 -3.54,9.49 -18.54,46.34 -50.16,76.85 -86.04,76.85 -39.26,0 -72.68,-35.64 -90.19,-89.47 a 132.717,132.717 0 0 0 9.18,-15.76 c 50.16,4.55 107.69,4.18 159.17,0 A 127.888,127.888 0 0 0 347,350.29 Z"
       inkscape:connector-curvature="0"
       style="fill:#00efd1" />
    <path
       id="path2428"
       d="m 318.5,83.03 a 62.111,62.111 0 0 1 -9.94,33.8 c -15.29,-14.87 -33.65,-25.58 -52.03,-25.58 -18.83,0 -38.1,9.21 -53.79,24.14 l -0.58,-0.6 A 62.5,62.5 0 1 1 318.5,83.03 Z"
       inkscape:connector-curvature="0"
       style="fill:#00acea" />
  </g>
  <g
     transform="matrix(-0.00496497,0.0100065,-0.01020055,-0.00731294,27.793368,21.376354)"
     id="g2469">
    <path
       style="fill:#fedb41"
       inkscape:connector-curvature="0"
       d="m 335.58,331.4 a 198.085,198.085 0 0 1 -9.61,-23.08 c 0,0 -7.28,-18.05 -13.16,-45.6 a 323.435,323.435 0 0 1 -7.27,-62.3 c -0.35,-24.16 2.42,-50.11 10.87,-75.31 0.31,-0.92 0.63,-1.84 0.95,-2.76 0,0 175.64,92.98 165.31,180.8 0,0 -5.17,58.55 -92.99,72.32 0,0 -21.19,3.85 -42.68,-25.18 A 127.888,127.888 0 0 1 335.58,331.4 Z"
       id="path2449" />
    <path
       style="fill:#00acea"
       inkscape:connector-curvature="0"
       d="m 325.97,308.32 a 198.085,198.085 0 0 0 9.61,23.08 c -51.48,4.18 -109.01,4.55 -159.17,0 a 196.3,196.3 0 0 0 9.62,-23.08 c 0,0 7.28,-18.05 13.16,-45.6 h 0.02 c 35.15,3.42 77.5,3.13 113.58,0 h 0.02 c 5.88,27.55 13.16,45.6 13.16,45.6 z"
       id="path2451" />
    <path
       style="fill:#00efd1"
       inkscape:connector-curvature="0"
       d="m 312.81,262.72 h -0.02 c -36.08,3.13 -78.43,3.42 -113.58,0 h -0.02 a 323.435,323.435 0 0 0 7.27,-62.3 c 29.68,2.87 68.62,2.64 99.08,0 a 323.435,323.435 0 0 0 7.27,62.3 z"
       id="path2453" />
    <path
       style="fill:#00acea"
       inkscape:connector-curvature="0"
       d="m 308.56,116.83 c 2.72,2.64 5.34,5.41 7.85,8.28 -8.45,25.2 -11.22,51.15 -10.87,75.31 -30.46,2.64 -69.4,2.87 -99.08,0 0.35,-24.67 -2.53,-51.21 -11.42,-76.91 a 107.906,107.906 0 0 1 7.7,-8.12 c 15.69,-14.93 34.96,-24.14 53.79,-24.14 18.38,0 36.74,10.71 52.03,25.58 z"
       id="path2455" />
    <path
       style="fill:#fedb41"
       inkscape:connector-curvature="0"
       d="m 206.46,200.42 a 323.435,323.435 0 0 1 -7.27,62.3 c -5.88,27.55 -13.16,45.6 -13.16,45.6 a 196.3,196.3 0 0 1 -9.62,23.08 132.717,132.717 0 0 1 -9.18,15.76 C 145,379.6 122.32,375.47 122.32,375.47 34.5,361.7 29.33,303.15 29.33,303.15 19,215.33 194.64,122.35 194.64,122.35 c 0.14,0.39 0.27,0.77 0.4,1.16 8.89,25.7 11.77,52.24 11.42,76.91 z"
       id="path2457" />
    <path
       style="fill:#f4b844"
       inkscape:connector-curvature="0"
       d="m 305.845,46.271 a 6,6 0 0 1 -4.83,-9.554 l 18.23,-24.81 a 6.0000862,6.0000862 0 1 1 9.67,7.106 l -18.23,24.81 a 5.993,5.993 0 0 1 -4.84,2.448 z"
       id="path2459" />
    <path
       style="fill:#f4b844"
       inkscape:connector-curvature="0"
       d="m 206.155,46.271 a 5.992,5.992 0 0 1 -4.84,-2.448 l -18.23,-24.81 a 6.0000862,6.0000862 0 0 1 9.67,-7.106 l 18.23,24.81 a 6,6 0 0 1 -4.83,9.554 z"
       id="path2461" />
    <path
       style="fill:#fedb41"
       inkscape:connector-curvature="0"
       d="m 256,498.54 h -0.077 a 6,6 0 0 1 -5.774,-4.666 l -7.69,-33.72 a 69.94,69.94 0 0 0 -5.083,-14.585 l -2.589,-5.408 a 6,6 0 0 1 5.412,-8.591 h 32.72 a 6,6 0 0 1 5.409,8.6 l -3.01,6.27 a 69.231,69.231 0 0 0 -4.663,12.875 l -8.842,34.709 A 6,6 0 0 1 256,498.54 Z"
       id="path2463" />
    <path
       style="fill:#00efd1"
       inkscape:connector-curvature="0"
       d="m 347,350.29 c -0.66,1.8 -2.84,7.74 -3.54,9.49 -18.54,46.34 -50.16,76.85 -86.04,76.85 -39.26,0 -72.68,-35.64 -90.19,-89.47 a 132.717,132.717 0 0 0 9.18,-15.76 c 50.16,4.55 107.69,4.18 159.17,0 A 127.888,127.888 0 0 0 347,350.29 Z"
       id="path2465" />
    <path
       style="fill:#00acea"
       inkscape:connector-curvature="0"
       d="m 318.5,83.03 a 62.111,62.111 0 0 1 -9.94,33.8 c -15.29,-14.87 -33.65,-25.58 -52.03,-25.58 -18.83,0 -38.1,9.21 -53.79,24.14 l -0.58,-0.6 A 62.5,62.5 0 1 1 318.5,83.03 Z"
       id="path2467" />
  </g>
  <g
     id="g2659"
     transform="matrix(-0.00108669,0.01018961,-0.01063237,-0.00160653,21.098891,28.622333)">
    <path
       id="path2625"
       d="m 335.58,331.4 a 198.085,198.085 0 0 1 -9.61,-23.08 c 0,0 -7.28,-18.05 -13.16,-45.6 a 323.435,323.435 0 0 1 -7.27,-62.3 c -0.35,-24.16 2.42,-50.11 10.87,-75.31 0.31,-0.92 0.63,-1.84 0.95,-2.76 0,0 175.64,92.98 165.31,180.8 0,0 -5.17,58.55 -92.99,72.32 0,0 -21.19,3.85 -42.68,-25.18 A 127.888,127.888 0 0 1 335.58,331.4 Z"
       inkscape:connector-curvature="0"
       style="fill:#fedb41" />
    <path
       id="path2627"
       d="m 347,350.29 c -0.66,1.8 -2.84,7.74 -3.54,9.49 -18.54,46.34 -50.16,76.85 -86.04,76.85 -39.26,0 -72.68,-35.64 -90.19,-89.47 a 132.717,132.717 0 0 0 9.18,-15.76 c 50.16,4.55 107.69,4.18 159.17,0 A 127.888,127.888 0 0 0 347,350.29 Z"
       inkscape:connector-curvature="0"
       style="fill:#00efd1" />
    <path
       id="path2629"
       d="m 325.97,308.32 a 198.085,198.085 0 0 0 9.61,23.08 c -51.48,4.18 -109.01,4.55 -159.17,0 a 196.3,196.3 0 0 0 9.62,-23.08 c 0,0 7.28,-18.05 13.16,-45.6 h 0.02 c 35.15,3.42 77.5,3.13 113.58,0 h 0.02 c 5.88,27.55 13.16,45.6 13.16,45.6 z"
       inkscape:connector-curvature="0"
       style="fill:#00acea" />
    <path
       id="path2631"
       d="m 318.5,83.03 a 62.111,62.111 0 0 1 -9.94,33.8 c -15.29,-14.87 -33.65,-25.58 -52.03,-25.58 -18.83,0 -38.1,9.21 -53.79,24.14 l -0.58,-0.6 A 62.5,62.5 0 1 1 318.5,83.03 Z"
       inkscape:connector-curvature="0"
       style="fill:#00acea" />
    <path
       id="path2633"
       d="m 312.81,262.72 h -0.02 c -36.08,3.13 -78.43,3.42 -113.58,0 h -0.02 a 323.435,323.435 0 0 0 7.27,-62.3 c 29.68,2.87 68.62,2.64 99.08,0 a 323.435,323.435 0 0 0 7.27,62.3 z"
       inkscape:connector-curvature="0"
       style="fill:#00efd1" />
    <path
       id="path2635"
       d="m 308.56,116.83 c 2.72,2.64 5.34,5.41 7.85,8.28 -8.45,25.2 -11.22,51.15 -10.87,75.31 -30.46,2.64 -69.4,2.87 -99.08,0 0.35,-24.67 -2.53,-51.21 -11.42,-76.91 a 107.906,107.906 0 0 1 7.7,-8.12 c 15.69,-14.93 34.96,-24.14 53.79,-24.14 18.38,0 36.74,10.71 52.03,25.58 z"
       inkscape:connector-curvature="0"
       style="fill:#00acea" />
    <path
       id="path2637"
       d="m 272.92,441.57 -3.01,6.27 a 75.076,75.076 0 0 0 -5.07,14 l -8.84,34.7 -7.69,-33.72 a 75.886,75.886 0 0 0 -5.52,-15.84 l -2.59,-5.41 z"
       inkscape:connector-curvature="0"
       style="fill:#00acea" />
    <path
       id="path2639"
       d="m 206.46,200.42 a 323.435,323.435 0 0 1 -7.27,62.3 c -5.88,27.55 -13.16,45.6 -13.16,45.6 a 196.3,196.3 0 0 1 -9.62,23.08 132.717,132.717 0 0 1 -9.18,15.76 C 145,379.6 122.32,375.47 122.32,375.47 34.5,361.7 29.33,303.15 29.33,303.15 19,215.33 194.64,122.35 194.64,122.35 c 0.14,0.39 0.27,0.77 0.4,1.16 8.89,25.7 11.77,52.24 11.42,76.91 z"
       inkscape:connector-curvature="0"
       style="fill:#fedb41" />
    <path
       id="path2641"
       d="m 407.646,175.139 c -42.572,-34.184 -87.035,-57.857 -87.479,-58.092 a 6,6 0 0 0 -3.586,-0.639 c -0.162,-0.17 -0.325,-0.336 -0.488,-0.5 a 68.371,68.371 0 0 0 -4.679,-73.073 l 17.5,-23.818 a 6.0000862,6.0000862 0 1 0 -9.67,-7.106 l -15.921,21.665 a 68.314,68.314 0 0 0 -94.646,0 L 192.755,11.907 a 6.0000862,6.0000862 0 0 0 -9.67,7.106 l 17.5,23.818 a 68.387,68.387 0 0 0 -5.439,71.655 q -0.967,1 -1.919,2.04 a 5.936,5.936 0 0 0 -1.4,0.521 c -0.444,0.235 -44.907,23.908 -87.479,58.092 -58.24,46.771 -85.488,90.061 -80.984,128.652 0.16,1.588 2.011,17 14.729,33.956 C 59.584,366.4 95.252,377.3 121.39,381.4 a 22.816,22.816 0 0 0 3.462,0.229 c 7.085,0 23.514,-2.432 40.4,-22.043 8.79,23.089 20.652,42.549 34.648,56.714 10.69,10.82 22.514,18.432 34.936,22.6 a 6,6 0 0 0 -0.049,5.263 l 2.589,5.408 a 69.94,69.94 0 0 1 5.083,14.585 l 7.69,33.95 a 6.178,6.178 0 0 0 5.774,4.9 H 256 a 6.212,6.212 0 0 0 5.813,-4.749 l 8.842,-34.824 a 69.807,69.807 0 0 1 4.663,-12.933 l 3.01,-6.3 a 6.024,6.024 0 0 0 0.148,-4.842 c 28.75,-9.07 54.205,-36.532 70.516,-77.247 16.093,17.318 31.412,19.524 38.171,19.523 a 22.65,22.65 0 0 0 3.445,-0.229 c 47.356,-7.426 71.436,-27.838 83.3,-43.653 12.721,-16.959 14.57,-32.375 14.729,-33.957 C 493.14,265.2 465.892,221.91 407.646,175.139 Z m -203.737,94.027 c 15.608,1.329 32.875,2 50.567,2 17.887,0 36.183,-0.687 53.6,-2.045 5.462,23.9 11.571,39.549 12.27,41.3 1.911,5.476 3.963,10.709 6.129,15.652 -47.451,3.408 -97.882,3.432 -140.99,0.067 2.175,-4.952 4.238,-10.208 6.162,-15.72 a 301.345,301.345 0 0 0 12.262,-41.254 z m 2.485,-11.829 a 328.008,328.008 0 0 0 5.888,-50.387 c 12.934,1.019 27.558,1.531 42.49,1.531 15.158,0 30.627,-0.526 44.945,-1.577 a 328,328 0 0 0 5.877,50.378 c -33.071,2.494 -69.194,2.512 -99.2,0.055 z m 93.125,-62.452 c -28.277,2.118 -61.229,2.134 -87.037,0.045 -0.143,-25.221 -3.726,-48.732 -10.657,-70.027 1.654,-1.814 3.343,-3.547 5.051,-5.166 15.018,-14.291 33.116,-22.487 49.654,-22.487 15.019,0 32.012,8.481 47.851,23.885 1.775,1.724 3.535,3.541 5.261,5.42 -6.583,20.876 -9.985,43.818 -10.123,68.33 z M 256,26.53 a 56.483,56.483 0 0 1 51.024,80.744 C 286.255,89.239 268.309,85.25 256.53,85.25 c -17.738,0 -36.025,7.315 -52.174,20.7 A 56.506,56.506 0 0 1 256,26.53 Z m -132.6,343.037 -0.145,-0.025 c -33.984,-5.328 -59.958,-18.61 -75.113,-38.41 -11.379,-14.864 -12.82,-28.4 -12.83,-28.51 -0.005,-0.058 -0.011,-0.115 -0.018,-0.173 -5.011,-42.6 38.806,-87.6 76.447,-117.847 32.389,-26.027 65.923,-45.848 79.477,-53.5 6.387,20.613 9.491,43.454 9.254,68 a 5.942,5.942 0 0 0 -0.04,2.436 316.264,316.264 0 0 1 -7.1,59.931 c -5.687,26.645 -12.786,44.433 -12.857,44.608 -0.036,0.089 -0.069,0.179 -0.1,0.27 a 193.833,193.833 0 0 1 -8.695,21.089 5.956,5.956 0 0 0 -1.33,2.641 126.05,126.05 0 0 1 -8.058,13.693 c -19.47,28.394 -38.192,25.9 -38.892,25.797 z m 135.63,91.007 -2.7,10.5 -2.164,-9.325 A 68.349,68.349 0 0 0 249.64,448 h 13.792 a 74.282,74.282 0 0 0 -4.407,12.574 z m -1.6,-29.944 c -17.33,0 -34.268,-7.872 -48.983,-22.766 -14.255,-14.428 -26.172,-35.082 -34.581,-59.837 2.082,-3.213 4.1,-6.662 6.045,-10.312 23.29,1.98 48.295,2.983 73.965,2.983 25.8,0 52.251,-1.013 78.212,-3.015 a 134.646,134.646 0 0 0 8.2,13.512 c -1.5,4.076 -2.131,5.718 -2.386,6.356 -18.32,45.76 -48.402,73.079 -80.482,73.079 z M 476.711,302.449 c -0.007,0.058 -0.013,0.115 -0.018,0.173 -0.047,0.539 -5.708,54.026 -88,66.931 -0.732,0.11 -18.161,2.437 -36.865,-22.83 a 120.708,120.708 0 0 1 -10.149,-16.581 5.962,5.962 0 0 0 -1.359,-2.72 195.469,195.469 0 0 1 -8.681,-21.076 c -0.031,-0.09 -0.065,-0.18 -0.1,-0.268 -0.072,-0.177 -7.171,-17.965 -12.858,-44.61 a 316.316,316.316 0 0 1 -7.105,-59.93 5.93,5.93 0 0 0 -0.041,-2.438 c -0.243,-24.5 2.861,-47.351 9.25,-68 30.78,17.434 164.587,97.722 155.926,171.349 z"
       inkscape:connector-curvature="0"
       style="fill:#083863" />
  </g>
  <g
     transform="matrix(-0.00626217,0.00116328,-0.00101865,-0.00618428,41.934166,28.40589)"
     id="g2679">
    <path
       style="fill:#fedb41"
       inkscape:connector-curvature="0"
       d="m 335.58,331.4 a 198.085,198.085 0 0 1 -9.61,-23.08 c 0,0 -7.28,-18.05 -13.16,-45.6 a 323.435,323.435 0 0 1 -7.27,-62.3 c -0.35,-24.16 2.42,-50.11 10.87,-75.31 0.31,-0.92 0.63,-1.84 0.95,-2.76 0,0 175.64,92.98 165.31,180.8 0,0 -5.17,58.55 -92.99,72.32 0,0 -21.19,3.85 -42.68,-25.18 A 127.888,127.888 0 0 1 335.58,331.4 Z"
       id="path2661" />
    <path
       style="fill:#00efd1"
       inkscape:connector-curvature="0"
       d="m 347,350.29 c -0.66,1.8 -2.84,7.74 -3.54,9.49 -18.54,46.34 -50.16,76.85 -86.04,76.85 -39.26,0 -72.68,-35.64 -90.19,-89.47 a 132.717,132.717 0 0 0 9.18,-15.76 c 50.16,4.55 107.69,4.18 159.17,0 A 127.888,127.888 0 0 0 347,350.29 Z"
       id="path2663" />
    <path
       style="fill:#00acea"
       inkscape:connector-curvature="0"
       d="m 325.97,308.32 a 198.085,198.085 0 0 0 9.61,23.08 c -51.48,4.18 -109.01,4.55 -159.17,0 a 196.3,196.3 0 0 0 9.62,-23.08 c 0,0 7.28,-18.05 13.16,-45.6 h 0.02 c 35.15,3.42 77.5,3.13 113.58,0 h 0.02 c 5.88,27.55 13.16,45.6 13.16,45.6 z"
       id="path2665" />
    <path
       style="fill:#00acea"
       inkscape:connector-curvature="0"
       d="m 318.5,83.03 a 62.111,62.111 0 0 1 -9.94,33.8 c -15.29,-14.87 -33.65,-25.58 -52.03,-25.58 -18.83,0 -38.1,9.21 -53.79,24.14 l -0.58,-0.6 A 62.5,62.5 0 1 1 318.5,83.03 Z"
       id="path2667" />
    <path
       style="fill:#00efd1"
       inkscape:connector-curvature="0"
       d="m 312.81,262.72 h -0.02 c -36.08,3.13 -78.43,3.42 -113.58,0 h -0.02 a 323.435,323.435 0 0 0 7.27,-62.3 c 29.68,2.87 68.62,2.64 99.08,0 a 323.435,323.435 0 0 0 7.27,62.3 z"
       id="path2669" />
    <path
       style="fill:#00acea"
       inkscape:connector-curvature="0"
       d="m 308.56,116.83 c 2.72,2.64 5.34,5.41 7.85,8.28 -8.45,25.2 -11.22,51.15 -10.87,75.31 -30.46,2.64 -69.4,2.87 -99.08,0 0.35,-24.67 -2.53,-51.21 -11.42,-76.91 a 107.906,107.906 0 0 1 7.7,-8.12 c 15.69,-14.93 34.96,-24.14 53.79,-24.14 18.38,0 36.74,10.71 52.03,25.58 z"
       id="path2671" />
    <path
       style="fill:#00acea"
       inkscape:connector-curvature="0"
       d="m 272.92,441.57 -3.01,6.27 a 75.076,75.076 0 0 0 -5.07,14 l -8.84,34.7 -7.69,-33.72 a 75.886,75.886 0 0 0 -5.52,-15.84 l -2.59,-5.41 z"
       id="path2673" />
    <path
       style="fill:#fedb41"
       inkscape:connector-curvature="0"
       d="m 206.46,200.42 a 323.435,323.435 0 0 1 -7.27,62.3 c -5.88,27.55 -13.16,45.6 -13.16,45.6 a 196.3,196.3 0 0 1 -9.62,23.08 132.717,132.717 0 0 1 -9.18,15.76 C 145,379.6 122.32,375.47 122.32,375.47 34.5,361.7 29.33,303.15 29.33,303.15 19,215.33 194.64,122.35 194.64,122.35 c 0.14,0.39 0.27,0.77 0.4,1.16 8.89,25.7 11.77,52.24 11.42,76.91 z"
       id="path2675" />
    <path
       style="fill:#083863"
       inkscape:connector-curvature="0"
       d="m 407.646,175.139 c -42.572,-34.184 -87.035,-57.857 -87.479,-58.092 a 6,6 0 0 0 -3.586,-0.639 c -0.162,-0.17 -0.325,-0.336 -0.488,-0.5 a 68.371,68.371 0 0 0 -4.679,-73.073 l 17.5,-23.818 a 6.0000862,6.0000862 0 1 0 -9.67,-7.106 l -15.921,21.665 a 68.314,68.314 0 0 0 -94.646,0 L 192.755,11.907 a 6.0000862,6.0000862 0 0 0 -9.67,7.106 l 17.5,23.818 a 68.387,68.387 0 0 0 -5.439,71.655 q -0.967,1 -1.919,2.04 a 5.936,5.936 0 0 0 -1.4,0.521 c -0.444,0.235 -44.907,23.908 -87.479,58.092 -58.24,46.771 -85.488,90.061 -80.984,128.652 0.16,1.588 2.011,17 14.729,33.956 C 59.584,366.4 95.252,377.3 121.39,381.4 a 22.816,22.816 0 0 0 3.462,0.229 c 7.085,0 23.514,-2.432 40.4,-22.043 8.79,23.089 20.652,42.549 34.648,56.714 10.69,10.82 22.514,18.432 34.936,22.6 a 6,6 0 0 0 -0.049,5.263 l 2.589,5.408 a 69.94,69.94 0 0 1 5.083,14.585 l 7.69,33.95 a 6.178,6.178 0 0 0 5.774,4.9 H 256 a 6.212,6.212 0 0 0 5.813,-4.749 l 8.842,-34.824 a 69.807,69.807 0 0 1 4.663,-12.933 l 3.01,-6.3 a 6.024,6.024 0 0 0 0.148,-4.842 c 28.75,-9.07 54.205,-36.532 70.516,-77.247 16.093,17.318 31.412,19.524 38.171,19.523 a 22.65,22.65 0 0 0 3.445,-0.229 c 47.356,-7.426 71.436,-27.838 83.3,-43.653 12.721,-16.959 14.57,-32.375 14.729,-33.957 C 493.14,265.2 465.892,221.91 407.646,175.139 Z m -203.737,94.027 c 15.608,1.329 32.875,2 50.567,2 17.887,0 36.183,-0.687 53.6,-2.045 5.462,23.9 11.571,39.549 12.27,41.3 1.911,5.476 3.963,10.709 6.129,15.652 -47.451,3.408 -97.882,3.432 -140.99,0.067 2.175,-4.952 4.238,-10.208 6.162,-15.72 a 301.345,301.345 0 0 0 12.262,-41.254 z m 2.485,-11.829 a 328.008,328.008 0 0 0 5.888,-50.387 c 12.934,1.019 27.558,1.531 42.49,1.531 15.158,0 30.627,-0.526 44.945,-1.577 a 328,328 0 0 0 5.877,50.378 c -33.071,2.494 -69.194,2.512 -99.2,0.055 z m 93.125,-62.452 c -28.277,2.118 -61.229,2.134 -87.037,0.045 -0.143,-25.221 -3.726,-48.732 -10.657,-70.027 1.654,-1.814 3.343,-3.547 5.051,-5.166 15.018,-14.291 33.116,-22.487 49.654,-22.487 15.019,0 32.012,8.481 47.851,23.885 1.775,1.724 3.535,3.541 5.261,5.42 -6.583,20.876 -9.985,43.818 -10.123,68.33 z M 256,26.53 a 56.483,56.483 0 0 1 51.024,80.744 C 286.255,89.239 268.309,85.25 256.53,85.25 c -17.738,0 -36.025,7.315 -52.174,20.7 A 56.506,56.506 0 0 1 256,26.53 Z m -132.6,343.037 -0.145,-0.025 c -33.984,-5.328 -59.958,-18.61 -75.113,-38.41 -11.379,-14.864 -12.82,-28.4 -12.83,-28.51 -0.005,-0.058 -0.011,-0.115 -0.018,-0.173 -5.011,-42.6 38.806,-87.6 76.447,-117.847 32.389,-26.027 65.923,-45.848 79.477,-53.5 6.387,20.613 9.491,43.454 9.254,68 a 5.942,5.942 0 0 0 -0.04,2.436 316.264,316.264 0 0 1 -7.1,59.931 c -5.687,26.645 -12.786,44.433 -12.857,44.608 -0.036,0.089 -0.069,0.179 -0.1,0.27 a 193.833,193.833 0 0 1 -8.695,21.089 5.956,5.956 0 0 0 -1.33,2.641 126.05,126.05 0 0 1 -8.058,13.693 c -19.47,28.394 -38.192,25.9 -38.892,25.797 z m 135.63,91.007 -2.7,10.5 -2.164,-9.325 A 68.349,68.349 0 0 0 249.64,448 h 13.792 a 74.282,74.282 0 0 0 -4.407,12.574 z m -1.6,-29.944 c -17.33,0 -34.268,-7.872 -48.983,-22.766 -14.255,-14.428 -26.172,-35.082 -34.581,-59.837 2.082,-3.213 4.1,-6.662 6.045,-10.312 23.29,1.98 48.295,2.983 73.965,2.983 25.8,0 52.251,-1.013 78.212,-3.015 a 134.646,134.646 0 0 0 8.2,13.512 c -1.5,4.076 -2.131,5.718 -2.386,6.356 -18.32,45.76 -48.402,73.079 -80.482,73.079 z M 476.711,302.449 c -0.007,0.058 -0.013,0.115 -0.018,0.173 -0.047,0.539 -5.708,54.026 -88,66.931 -0.732,0.11 -18.161,2.437 -36.865,-22.83 a 120.708,120.708 0 0 1 -10.149,-16.581 5.962,5.962 0 0 0 -1.359,-2.72 195.469,195.469 0 0 1 -8.681,-21.076 c -0.031,-0.09 -0.065,-0.18 -0.1,-0.268 -0.072,-0.177 -7.171,-17.965 -12.858,-44.61 a 316.316,316.316 0 0 1 -7.105,-59.93 5.93,5.93 0 0 0 -0.041,-2.438 c -0.243,-24.5 2.861,-47.351 9.25,-68 30.78,17.434 164.587,97.722 155.926,171.349 z"
       id="path2677" />
  </g>
  <g
     id="g2701"
     transform="matrix(-0.01116119,-4.5694519e-4,0.0025221,-0.01229509,60.389498,25.783451)">
    <path
       id="path2681"
       d="m 335.58,331.4 a 198.085,198.085 0 0 1 -9.61,-23.08 c 0,0 -7.28,-18.05 -13.16,-45.6 a 323.435,323.435 0 0 1 -7.27,-62.3 c -0.35,-24.16 2.42,-50.11 10.87,-75.31 0.31,-0.92 0.63,-1.84 0.95,-2.76 0,0 175.64,92.98 165.31,180.8 0,0 -5.17,58.55 -92.99,72.32 0,0 -21.19,3.85 -42.68,-25.18 A 127.888,127.888 0 0 1 335.58,331.4 Z"
       inkscape:connector-curvature="0"
       style="fill:#fedb41" />
    <path
       id="path2683"
       d="m 325.97,308.32 a 198.085,198.085 0 0 0 9.61,23.08 c -51.48,4.18 -109.01,4.55 -159.17,0 a 196.3,196.3 0 0 0 9.62,-23.08 c 0,0 7.28,-18.05 13.16,-45.6 h 0.02 c 35.15,3.42 77.5,3.13 113.58,0 h 0.02 c 5.88,27.55 13.16,45.6 13.16,45.6 z"
       inkscape:connector-curvature="0"
       style="fill:#00acea" />
    <path
       id="path2685"
       d="m 312.81,262.72 h -0.02 c -36.08,3.13 -78.43,3.42 -113.58,0 h -0.02 a 323.435,323.435 0 0 0 7.27,-62.3 c 29.68,2.87 68.62,2.64 99.08,0 a 323.435,323.435 0 0 0 7.27,62.3 z"
       inkscape:connector-curvature="0"
       style="fill:#00efd1" />
    <path
       id="path2687"
       d="m 308.56,116.83 c 2.72,2.64 5.34,5.41 7.85,8.28 -8.45,25.2 -11.22,51.15 -10.87,75.31 -30.46,2.64 -69.4,2.87 -99.08,0 0.35,-24.67 -2.53,-51.21 -11.42,-76.91 a 107.906,107.906 0 0 1 7.7,-8.12 c 15.69,-14.93 34.96,-24.14 53.79,-24.14 18.38,0 36.74,10.71 52.03,25.58 z"
       inkscape:connector-curvature="0"
       style="fill:#00acea" />
    <path
       id="path2689"
       d="m 206.46,200.42 a 323.435,323.435 0 0 1 -7.27,62.3 c -5.88,27.55 -13.16,45.6 -13.16,45.6 a 196.3,196.3 0 0 1 -9.62,23.08 132.717,132.717 0 0 1 -9.18,15.76 C 145,379.6 122.32,375.47 122.32,375.47 34.5,361.7 29.33,303.15 29.33,303.15 19,215.33 194.64,122.35 194.64,122.35 c 0.14,0.39 0.27,0.77 0.4,1.16 8.89,25.7 11.77,52.24 11.42,76.91 z"
       inkscape:connector-curvature="0"
       style="fill:#fedb41" />
    <path
       id="path2691"
       d="m 305.845,46.271 a 6,6 0 0 1 -4.83,-9.554 l 18.23,-24.81 a 6.0000862,6.0000862 0 1 1 9.67,7.106 l -18.23,24.81 a 5.993,5.993 0 0 1 -4.84,2.448 z"
       inkscape:connector-curvature="0"
       style="fill:#f4b844" />
    <path
       id="path2693"
       d="m 206.155,46.271 a 5.992,5.992 0 0 1 -4.84,-2.448 l -18.23,-24.81 a 6.0000862,6.0000862 0 0 1 9.67,-7.106 l 18.23,24.81 a 6,6 0 0 1 -4.83,9.554 z"
       inkscape:connector-curvature="0"
       style="fill:#f4b844" />
    <path
       id="path2695"
       d="m 256,498.54 h -0.077 a 6,6 0 0 1 -5.774,-4.666 l -7.69,-33.72 a 69.94,69.94 0 0 0 -5.083,-14.585 l -2.589,-5.408 a 6,6 0 0 1 5.412,-8.591 h 32.72 a 6,6 0 0 1 5.409,8.6 l -3.01,6.27 a 69.231,69.231 0 0 0 -4.663,12.875 l -8.842,34.709 A 6,6 0 0 1 256,498.54 Z"
       inkscape:connector-curvature="0"
       style="fill:#fedb41" />
    <path
       id="path2697"
       d="m 347,350.29 c -0.66,1.8 -2.84,7.74 -3.54,9.49 -18.54,46.34 -50.16,76.85 -86.04,76.85 -39.26,0 -72.68,-35.64 -90.19,-89.47 a 132.717,132.717 0 0 0 9.18,-15.76 c 50.16,4.55 107.69,4.18 159.17,0 A 127.888,127.888 0 0 0 347,350.29 Z"
       inkscape:connector-curvature="0"
       style="fill:#00efd1" />
    <path
       id="path2699"
       d="m 318.5,83.03 a 62.111,62.111 0 0 1 -9.94,33.8 c -15.29,-14.87 -33.65,-25.58 -52.03,-25.58 -18.83,0 -38.1,9.21 -53.79,24.14 l -0.58,-0.6 A 62.5,62.5 0 1 1 318.5,83.03 Z"
       inkscape:connector-curvature="0"
       style="fill:#00acea" />
  </g>
  <g
     id="g2723"
     transform="matrix(-0.01115295,6.2669818e-4,0.00131887,-0.01248162,45.540674,17.521568)">
    <path
       id="path2703"
       d="m 335.58,331.4 a 198.085,198.085 0 0 1 -9.61,-23.08 c 0,0 -7.28,-18.05 -13.16,-45.6 a 323.435,323.435 0 0 1 -7.27,-62.3 c -0.35,-24.16 2.42,-50.11 10.87,-75.31 0.31,-0.92 0.63,-1.84 0.95,-2.76 0,0 175.64,92.98 165.31,180.8 0,0 -5.17,58.55 -92.99,72.32 0,0 -21.19,3.85 -42.68,-25.18 A 127.888,127.888 0 0 1 335.58,331.4 Z"
       inkscape:connector-curvature="0"
       style="fill:#fedb41" />
    <path
       id="path2705"
       d="m 325.97,308.32 a 198.085,198.085 0 0 0 9.61,23.08 c -51.48,4.18 -109.01,4.55 -159.17,0 a 196.3,196.3 0 0 0 9.62,-23.08 c 0,0 7.28,-18.05 13.16,-45.6 h 0.02 c 35.15,3.42 77.5,3.13 113.58,0 h 0.02 c 5.88,27.55 13.16,45.6 13.16,45.6 z"
       inkscape:connector-curvature="0"
       style="fill:#00acea" />
    <path
       id="path2707"
       d="m 312.81,262.72 h -0.02 c -36.08,3.13 -78.43,3.42 -113.58,0 h -0.02 a 323.435,323.435 0 0 0 7.27,-62.3 c 29.68,2.87 68.62,2.64 99.08,0 a 323.435,323.435 0 0 0 7.27,62.3 z"
       inkscape:connector-curvature="0"
       style="fill:#00efd1" />
    <path
       id="path2709"
       d="m 308.56,116.83 c 2.72,2.64 5.34,5.41 7.85,8.28 -8.45,25.2 -11.22,51.15 -10.87,75.31 -30.46,2.64 -69.4,2.87 -99.08,0 0.35,-24.67 -2.53,-51.21 -11.42,-76.91 a 107.906,107.906 0 0 1 7.7,-8.12 c 15.69,-14.93 34.96,-24.14 53.79,-24.14 18.38,0 36.74,10.71 52.03,25.58 z"
       inkscape:connector-curvature="0"
       style="fill:#00acea" />
    <path
       id="path2711"
       d="m 206.46,200.42 a 323.435,323.435 0 0 1 -7.27,62.3 c -5.88,27.55 -13.16,45.6 -13.16,45.6 a 196.3,196.3 0 0 1 -9.62,23.08 132.717,132.717 0 0 1 -9.18,15.76 C 145,379.6 122.32,375.47 122.32,375.47 34.5,361.7 29.33,303.15 29.33,303.15 19,215.33 194.64,122.35 194.64,122.35 c 0.14,0.39 0.27,0.77 0.4,1.16 8.89,25.7 11.77,52.24 11.42,76.91 z"
       inkscape:connector-curvature="0"
       style="fill:#fedb41" />
    <path
       id="path2713"
       d="m 305.845,46.271 a 6,6 0 0 1 -4.83,-9.554 l 18.23,-24.81 a 6.0000862,6.0000862 0 1 1 9.67,7.106 l -18.23,24.81 a 5.993,5.993 0 0 1 -4.84,2.448 z"
       inkscape:connector-curvature="0"
       style="fill:#f4b844" />
    <path
       id="path2715"
       d="m 206.155,46.271 a 5.992,5.992 0 0 1 -4.84,-2.448 l -18.23,-24.81 a 6.0000862,6.0000862 0 0 1 9.67,-7.106 l 18.23,24.81 a 6,6 0 0 1 -4.83,9.554 z"
       inkscape:connector-curvature="0"
       style="fill:#f4b844" />
    <path
       id="path2717"
       d="m 256,498.54 h -0.077 a 6,6 0 0 1 -5.774,-4.666 l -7.69,-33.72 a 69.94,69.94 0 0 0 -5.083,-14.585 l -2.589,-5.408 a 6,6 0 0 1 5.412,-8.591 h 32.72 a 6,6 0 0 1 5.409,8.6 l -3.01,6.27 a 69.231,69.231 0 0 0 -4.663,12.875 l -8.842,34.709 A 6,6 0 0 1 256,498.54 Z"
       inkscape:connector-curvature="0"
       style="fill:#fedb41" />
    <path
       id="path2719"
       d="m 347,350.29 c -0.66,1.8 -2.84,7.74 -3.54,9.49 -18.54,46.34 -50.16,76.85 -86.04,76.85 -39.26,0 -72.68,-35.64 -90.19,-89.47 a 132.717,132.717 0 0 0 9.18,-15.76 c 50.16,4.55 107.69,4.18 159.17,0 A 127.888,127.888 0 0 0 347,350.29 Z"
       inkscape:connector-curvature="0"
       style="fill:#00efd1" />
    <path
       id="path2721"
       d="m 318.5,83.03 a 62.111,62.111 0 0 1 -9.94,33.8 c -15.29,-14.87 -33.65,-25.58 -52.03,-25.58 -18.83,0 -38.1,9.21 -53.79,24.14 l -0.58,-0.6 A 62.5,62.5 0 1 1 318.5,83.03 Z"
       inkscape:connector-curvature="0"
       style="fill:#00acea" />
  </g>
  <g
     transform="matrix(-0.00516037,-0.00885323,0.00951788,-0.00500382,67.074086,36.688049)"
     id="g2743">
    <path
       style="fill:#fedb41"
       inkscape:connector-curvature="0"
       d="m 335.58,331.4 a 198.085,198.085 0 0 1 -9.61,-23.08 c 0,0 -7.28,-18.05 -13.16,-45.6 a 323.435,323.435 0 0 1 -7.27,-62.3 c -0.35,-24.16 2.42,-50.11 10.87,-75.31 0.31,-0.92 0.63,-1.84 0.95,-2.76 0,0 175.64,92.98 165.31,180.8 0,0 -5.17,58.55 -92.99,72.32 0,0 -21.19,3.85 -42.68,-25.18 A 127.888,127.888 0 0 1 335.58,331.4 Z"
       id="path2725" />
    <path
       style="fill:#00efd1"
       inkscape:connector-curvature="0"
       d="m 347,350.29 c -0.66,1.8 -2.84,7.74 -3.54,9.49 -18.54,46.34 -50.16,76.85 -86.04,76.85 -39.26,0 -72.68,-35.64 -90.19,-89.47 a 132.717,132.717 0 0 0 9.18,-15.76 c 50.16,4.55 107.69,4.18 159.17,0 A 127.888,127.888 0 0 0 347,350.29 Z"
       id="path2727" />
    <path
       style="fill:#00acea"
       inkscape:connector-curvature="0"
       d="m 325.97,308.32 a 198.085,198.085 0 0 0 9.61,23.08 c -51.48,4.18 -109.01,4.55 -159.17,0 a 196.3,196.3 0 0 0 9.62,-23.08 c 0,0 7.28,-18.05 13.16,-45.6 h 0.02 c 35.15,3.42 77.5,3.13 113.58,0 h 0.02 c 5.88,27.55 13.16,45.6 13.16,45.6 z"
       id="path2729" />
    <path
       style="fill:#00acea"
       inkscape:connector-curvature="0"
       d="m 318.5,83.03 a 62.111,62.111 0 0 1 -9.94,33.8 c -15.29,-14.87 -33.65,-25.58 -52.03,-25.58 -18.83,0 -38.1,9.21 -53.79,24.14 l -0.58,-0.6 A 62.5,62.5 0 1 1 318.5,83.03 Z"
       id="path2731" />
    <path
       style="fill:#00efd1"
       inkscape:connector-curvature="0"
       d="m 312.81,262.72 h -0.02 c -36.08,3.13 -78.43,3.42 -113.58,0 h -0.02 a 323.435,323.435 0 0 0 7.27,-62.3 c 29.68,2.87 68.62,2.64 99.08,0 a 323.435,323.435 0 0 0 7.27,62.3 z"
       id="path2733" />
    <path
       style="fill:#00acea"
       inkscape:connector-curvature="0"
       d="m 308.56,116.83 c 2.72,2.64 5.34,5.41 7.85,8.28 -8.45,25.2 -11.22,51.15 -10.87,75.31 -30.46,2.64 -69.4,2.87 -99.08,0 0.35,-24.67 -2.53,-51.21 -11.42,-76.91 a 107.906,107.906 0 0 1 7.7,-8.12 c 15.69,-14.93 34.96,-24.14 53.79,-24.14 18.38,0 36.74,10.71 52.03,25.58 z"
       id="path2735" />
    <path
       style="fill:#00acea"
       inkscape:connector-curvature="0"
       d="m 272.92,441.57 -3.01,6.27 a 75.076,75.076 0 0 0 -5.07,14 l -8.84,34.7 -7.69,-33.72 a 75.886,75.886 0 0 0 -5.52,-15.84 l -2.59,-5.41 z"
       id="path2737" />
    <path
       style="fill:#fedb41"
       inkscape:connector-curvature="0"
       d="m 206.46,200.42 a 323.435,323.435 0 0 1 -7.27,62.3 c -5.88,27.55 -13.16,45.6 -13.16,45.6 a 196.3,196.3 0 0 1 -9.62,23.08 132.717,132.717 0 0 1 -9.18,15.76 C 145,379.6 122.32,375.47 122.32,375.47 34.5,361.7 29.33,303.15 29.33,303.15 19,215.33 194.64,122.35 194.64,122.35 c 0.14,0.39 0.27,0.77 0.4,1.16 8.89,25.7 11.77,52.24 11.42,76.91 z"
       id="path2739" />
    <path
       style="fill:#083863"
       inkscape:connector-curvature="0"
       d="m 407.646,175.139 c -42.572,-34.184 -87.035,-57.857 -87.479,-58.092 a 6,6 0 0 0 -3.586,-0.639 c -0.162,-0.17 -0.325,-0.336 -0.488,-0.5 a 68.371,68.371 0 0 0 -4.679,-73.073 l 17.5,-23.818 a 6.0000862,6.0000862 0 1 0 -9.67,-7.106 l -15.921,21.665 a 68.314,68.314 0 0 0 -94.646,0 L 192.755,11.907 a 6.0000862,6.0000862 0 0 0 -9.67,7.106 l 17.5,23.818 a 68.387,68.387 0 0 0 -5.439,71.655 q -0.967,1 -1.919,2.04 a 5.936,5.936 0 0 0 -1.4,0.521 c -0.444,0.235 -44.907,23.908 -87.479,58.092 -58.24,46.771 -85.488,90.061 -80.984,128.652 0.16,1.588 2.011,17 14.729,33.956 C 59.584,366.4 95.252,377.3 121.39,381.4 a 22.816,22.816 0 0 0 3.462,0.229 c 7.085,0 23.514,-2.432 40.4,-22.043 8.79,23.089 20.652,42.549 34.648,56.714 10.69,10.82 22.514,18.432 34.936,22.6 a 6,6 0 0 0 -0.049,5.263 l 2.589,5.408 a 69.94,69.94 0 0 1 5.083,14.585 l 7.69,33.95 a 6.178,6.178 0 0 0 5.774,4.9 H 256 a 6.212,6.212 0 0 0 5.813,-4.749 l 8.842,-34.824 a 69.807,69.807 0 0 1 4.663,-12.933 l 3.01,-6.3 a 6.024,6.024 0 0 0 0.148,-4.842 c 28.75,-9.07 54.205,-36.532 70.516,-77.247 16.093,17.318 31.412,19.524 38.171,19.523 a 22.65,22.65 0 0 0 3.445,-0.229 c 47.356,-7.426 71.436,-27.838 83.3,-43.653 12.721,-16.959 14.57,-32.375 14.729,-33.957 C 493.14,265.2 465.892,221.91 407.646,175.139 Z m -203.737,94.027 c 15.608,1.329 32.875,2 50.567,2 17.887,0 36.183,-0.687 53.6,-2.045 5.462,23.9 11.571,39.549 12.27,41.3 1.911,5.476 3.963,10.709 6.129,15.652 -47.451,3.408 -97.882,3.432 -140.99,0.067 2.175,-4.952 4.238,-10.208 6.162,-15.72 a 301.345,301.345 0 0 0 12.262,-41.254 z m 2.485,-11.829 a 328.008,328.008 0 0 0 5.888,-50.387 c 12.934,1.019 27.558,1.531 42.49,1.531 15.158,0 30.627,-0.526 44.945,-1.577 a 328,328 0 0 0 5.877,50.378 c -33.071,2.494 -69.194,2.512 -99.2,0.055 z m 93.125,-62.452 c -28.277,2.118 -61.229,2.134 -87.037,0.045 -0.143,-25.221 -3.726,-48.732 -10.657,-70.027 1.654,-1.814 3.343,-3.547 5.051,-5.166 15.018,-14.291 33.116,-22.487 49.654,-22.487 15.019,0 32.012,8.481 47.851,23.885 1.775,1.724 3.535,3.541 5.261,5.42 -6.583,20.876 -9.985,43.818 -10.123,68.33 z M 256,26.53 a 56.483,56.483 0 0 1 51.024,80.744 C 286.255,89.239 268.309,85.25 256.53,85.25 c -17.738,0 -36.025,7.315 -52.174,20.7 A 56.506,56.506 0 0 1 256,26.53 Z m -132.6,343.037 -0.145,-0.025 c -33.984,-5.328 -59.958,-18.61 -75.113,-38.41 -11.379,-14.864 -12.82,-28.4 -12.83,-28.51 -0.005,-0.058 -0.011,-0.115 -0.018,-0.173 -5.011,-42.6 38.806,-87.6 76.447,-117.847 32.389,-26.027 65.923,-45.848 79.477,-53.5 6.387,20.613 9.491,43.454 9.254,68 a 5.942,5.942 0 0 0 -0.04,2.436 316.264,316.264 0 0 1 -7.1,59.931 c -5.687,26.645 -12.786,44.433 -12.857,44.608 -0.036,0.089 -0.069,0.179 -0.1,0.27 a 193.833,193.833 0 0 1 -8.695,21.089 5.956,5.956 0 0 0 -1.33,2.641 126.05,126.05 0 0 1 -8.058,13.693 c -19.47,28.394 -38.192,25.9 -38.892,25.797 z m 135.63,91.007 -2.7,10.5 -2.164,-9.325 A 68.349,68.349 0 0 0 249.64,448 h 13.792 a 74.282,74.282 0 0 0 -4.407,12.574 z m -1.6,-29.944 c -17.33,0 -34.268,-7.872 -48.983,-22.766 -14.255,-14.428 -26.172,-35.082 -34.581,-59.837 2.082,-3.213 4.1,-6.662 6.045,-10.312 23.29,1.98 48.295,2.983 73.965,2.983 25.8,0 52.251,-1.013 78.212,-3.015 a 134.646,134.646 0 0 0 8.2,13.512 c -1.5,4.076 -2.131,5.718 -2.386,6.356 -18.32,45.76 -48.402,73.079 -80.482,73.079 z M 476.711,302.449 c -0.007,0.058 -0.013,0.115 -0.018,0.173 -0.047,0.539 -5.708,54.026 -88,66.931 -0.732,0.11 -18.161,2.437 -36.865,-22.83 a 120.708,120.708 0 0 1 -10.149,-16.581 5.962,5.962 0 0 0 -1.359,-2.72 195.469,195.469 0 0 1 -8.681,-21.076 c -0.031,-0.09 -0.065,-0.18 -0.1,-0.268 -0.072,-0.177 -7.171,-17.965 -12.858,-44.61 a 316.316,316.316 0 0 1 -7.105,-59.93 5.93,5.93 0 0 0 -0.041,-2.438 c -0.243,-24.5 2.861,-47.351 9.25,-68 30.78,17.434 164.587,97.722 155.926,171.349 z"
       id="path2741" />
  </g>
  <g
     id="g2763"
     transform="matrix(-0.00230319,-0.00593829,0.00588854,-0.00214663,52.253603,44.130371)">
    <path
       id="path2745"
       d="m 335.58,331.4 a 198.085,198.085 0 0 1 -9.61,-23.08 c 0,0 -7.28,-18.05 -13.16,-45.6 a 323.435,323.435 0 0 1 -7.27,-62.3 c -0.35,-24.16 2.42,-50.11 10.87,-75.31 0.31,-0.92 0.63,-1.84 0.95,-2.76 0,0 175.64,92.98 165.31,180.8 0,0 -5.17,58.55 -92.99,72.32 0,0 -21.19,3.85 -42.68,-25.18 A 127.888,127.888 0 0 1 335.58,331.4 Z"
       inkscape:connector-curvature="0"
       style="fill:#fedb41" />
    <path
       id="path2747"
       d="m 347,350.29 c -0.66,1.8 -2.84,7.74 -3.54,9.49 -18.54,46.34 -50.16,76.85 -86.04,76.85 -39.26,0 -72.68,-35.64 -90.19,-89.47 a 132.717,132.717 0 0 0 9.18,-15.76 c 50.16,4.55 107.69,4.18 159.17,0 A 127.888,127.888 0 0 0 347,350.29 Z"
       inkscape:connector-curvature="0"
       style="fill:#00efd1" />
    <path
       id="path2749"
       d="m 325.97,308.32 a 198.085,198.085 0 0 0 9.61,23.08 c -51.48,4.18 -109.01,4.55 -159.17,0 a 196.3,196.3 0 0 0 9.62,-23.08 c 0,0 7.28,-18.05 13.16,-45.6 h 0.02 c 35.15,3.42 77.5,3.13 113.58,0 h 0.02 c 5.88,27.55 13.16,45.6 13.16,45.6 z"
       inkscape:connector-curvature="0"
       style="fill:#00acea" />
    <path
       id="path2751"
       d="m 318.5,83.03 a 62.111,62.111 0 0 1 -9.94,33.8 c -15.29,-14.87 -33.65,-25.58 -52.03,-25.58 -18.83,0 -38.1,9.21 -53.79,24.14 l -0.58,-0.6 A 62.5,62.5 0 1 1 318.5,83.03 Z"
       inkscape:connector-curvature="0"
       style="fill:#00acea" />
    <path
       id="path2753"
       d="m 312.81,262.72 h -0.02 c -36.08,3.13 -78.43,3.42 -113.58,0 h -0.02 a 323.435,323.435 0 0 0 7.27,-62.3 c 29.68,2.87 68.62,2.64 99.08,0 a 323.435,323.435 0 0 0 7.27,62.3 z"
       inkscape:connector-curvature="0"
       style="fill:#00efd1" />
    <path
       id="path2755"
       d="m 308.56,116.83 c 2.72,2.64 5.34,5.41 7.85,8.28 -8.45,25.2 -11.22,51.15 -10.87,75.31 -30.46,2.64 -69.4,2.87 -99.08,0 0.35,-24.67 -2.53,-51.21 -11.42,-76.91 a 107.906,107.906 0 0 1 7.7,-8.12 c 15.69,-14.93 34.96,-24.14 53.79,-24.14 18.38,0 36.74,10.71 52.03,25.58 z"
       inkscape:connector-curvature="0"
       style="fill:#00acea" />
    <path
       id="path2757"
       d="m 272.92,441.57 -3.01,6.27 a 75.076,75.076 0 0 0 -5.07,14 l -8.84,34.7 -7.69,-33.72 a 75.886,75.886 0 0 0 -5.52,-15.84 l -2.59,-5.41 z"
       inkscape:connector-curvature="0"
       style="fill:#00acea" />
    <path
       id="path2759"
       d="m 206.46,200.42 a 323.435,323.435 0 0 1 -7.27,62.3 c -5.88,27.55 -13.16,45.6 -13.16,45.6 a 196.3,196.3 0 0 1 -9.62,23.08 132.717,132.717 0 0 1 -9.18,15.76 C 145,379.6 122.32,375.47 122.32,375.47 34.5,361.7 29.33,303.15 29.33,303.15 19,215.33 194.64,122.35 194.64,122.35 c 0.14,0.39 0.27,0.77 0.4,1.16 8.89,25.7 11.77,52.24 11.42,76.91 z"
       inkscape:connector-curvature="0"
       style="fill:#fedb41" />
    <path
       id="path2761"
       d="m 407.646,175.139 c -42.572,-34.184 -87.035,-57.857 -87.479,-58.092 a 6,6 0 0 0 -3.586,-0.639 c -0.162,-0.17 -0.325,-0.336 -0.488,-0.5 a 68.371,68.371 0 0 0 -4.679,-73.073 l 17.5,-23.818 a 6.0000862,6.0000862 0 1 0 -9.67,-7.106 l -15.921,21.665 a 68.314,68.314 0 0 0 -94.646,0 L 192.755,11.907 a 6.0000862,6.0000862 0 0 0 -9.67,7.106 l 17.5,23.818 a 68.387,68.387 0 0 0 -5.439,71.655 q -0.967,1 -1.919,2.04 a 5.936,5.936 0 0 0 -1.4,0.521 c -0.444,0.235 -44.907,23.908 -87.479,58.092 -58.24,46.771 -85.488,90.061 -80.984,128.652 0.16,1.588 2.011,17 14.729,33.956 C 59.584,366.4 95.252,377.3 121.39,381.4 a 22.816,22.816 0 0 0 3.462,0.229 c 7.085,0 23.514,-2.432 40.4,-22.043 8.79,23.089 20.652,42.549 34.648,56.714 10.69,10.82 22.514,18.432 34.936,22.6 a 6,6 0 0 0 -0.049,5.263 l 2.589,5.408 a 69.94,69.94 0 0 1 5.083,14.585 l 7.69,33.95 a 6.178,6.178 0 0 0 5.774,4.9 H 256 a 6.212,6.212 0 0 0 5.813,-4.749 l 8.842,-34.824 a 69.807,69.807 0 0 1 4.663,-12.933 l 3.01,-6.3 a 6.024,6.024 0 0 0 0.148,-4.842 c 28.75,-9.07 54.205,-36.532 70.516,-77.247 16.093,17.318 31.412,19.524 38.171,19.523 a 22.65,22.65 0 0 0 3.445,-0.229 c 47.356,-7.426 71.436,-27.838 83.3,-43.653 12.721,-16.959 14.57,-32.375 14.729,-33.957 C 493.14,265.2 465.892,221.91 407.646,175.139 Z m -203.737,94.027 c 15.608,1.329 32.875,2 50.567,2 17.887,0 36.183,-0.687 53.6,-2.045 5.462,23.9 11.571,39.549 12.27,41.3 1.911,5.476 3.963,10.709 6.129,15.652 -47.451,3.408 -97.882,3.432 -140.99,0.067 2.175,-4.952 4.238,-10.208 6.162,-15.72 a 301.345,301.345 0 0 0 12.262,-41.254 z m 2.485,-11.829 a 328.008,328.008 0 0 0 5.888,-50.387 c 12.934,1.019 27.558,1.531 42.49,1.531 15.158,0 30.627,-0.526 44.945,-1.577 a 328,328 0 0 0 5.877,50.378 c -33.071,2.494 -69.194,2.512 -99.2,0.055 z m 93.125,-62.452 c -28.277,2.118 -61.229,2.134 -87.037,0.045 -0.143,-25.221 -3.726,-48.732 -10.657,-70.027 1.654,-1.814 3.343,-3.547 5.051,-5.166 15.018,-14.291 33.116,-22.487 49.654,-22.487 15.019,0 32.012,8.481 47.851,23.885 1.775,1.724 3.535,3.541 5.261,5.42 -6.583,20.876 -9.985,43.818 -10.123,68.33 z M 256,26.53 a 56.483,56.483 0 0 1 51.024,80.744 C 286.255,89.239 268.309,85.25 256.53,85.25 c -17.738,0 -36.025,7.315 -52.174,20.7 A 56.506,56.506 0 0 1 256,26.53 Z m -132.6,343.037 -0.145,-0.025 c -33.984,-5.328 -59.958,-18.61 -75.113,-38.41 -11.379,-14.864 -12.82,-28.4 -12.83,-28.51 -0.005,-0.058 -0.011,-0.115 -0.018,-0.173 -5.011,-42.6 38.806,-87.6 76.447,-117.847 32.389,-26.027 65.923,-45.848 79.477,-53.5 6.387,20.613 9.491,43.454 9.254,68 a 5.942,5.942 0 0 0 -0.04,2.436 316.264,316.264 0 0 1 -7.1,59.931 c -5.687,26.645 -12.786,44.433 -12.857,44.608 -0.036,0.089 -0.069,0.179 -0.1,0.27 a 193.833,193.833 0 0 1 -8.695,21.089 5.956,5.956 0 0 0 -1.33,2.641 126.05,126.05 0 0 1 -8.058,13.693 c -19.47,28.394 -38.192,25.9 -38.892,25.797 z m 135.63,91.007 -2.7,10.5 -2.164,-9.325 A 68.349,68.349 0 0 0 249.64,448 h 13.792 a 74.282,74.282 0 0 0 -4.407,12.574 z m -1.6,-29.944 c -17.33,0 -34.268,-7.872 -48.983,-22.766 -14.255,-14.428 -26.172,-35.082 -34.581,-59.837 2.082,-3.213 4.1,-6.662 6.045,-10.312 23.29,1.98 48.295,2.983 73.965,2.983 25.8,0 52.251,-1.013 78.212,-3.015 a 134.646,134.646 0 0 0 8.2,13.512 c -1.5,4.076 -2.131,5.718 -2.386,6.356 -18.32,45.76 -48.402,73.079 -80.482,73.079 z M 476.711,302.449 c -0.007,0.058 -0.013,0.115 -0.018,0.173 -0.047,0.539 -5.708,54.026 -88,66.931 -0.732,0.11 -18.161,2.437 -36.865,-22.83 a 120.708,120.708 0 0 1 -10.149,-16.581 5.962,5.962 0 0 0 -1.359,-2.72 195.469,195.469 0 0 1 -8.681,-21.076 c -0.031,-0.09 -0.065,-0.18 -0.1,-0.268 -0.072,-0.177 -7.171,-17.965 -12.858,-44.61 a 316.316,316.316 0 0 1 -7.105,-59.93 5.93,5.93 0 0 0 -0.041,-2.438 c -0.243,-24.5 2.861,-47.351 9.25,-68 30.78,17.434 164.587,97.722 155.926,171.349 z"
       inkscape:connector-curvature="0"
       style="fill:#083863" />
  </g>
  <text
     xml:space="preserve"
     style="font-style:normal;font-variant:normal;font-weight:bold;font-stretch:normal;font-size:7.05555534px;line-height:1.25;font-family:Arial;-inkscape-font-specification:'Arial, Bold';font-variant-ligatures:normal;font-variant-caps:normal;font-variant-numeric:normal;font-feature-settings:normal;text-align:start;letter-spacing:0px;word-spacing:0px;writing-mode:lr-tb;text-anchor:start;fill:#808000;fill-opacity:1;stroke:none;stroke-width:0.26458332"
     x="14.662154"
     y="86.99794"
     id="text2781"><tspan
       sodipodi:role="line"
       x="14.662154"
       y="86.99794"
       id="tspan2775"
       style="stroke-width:0.26458332"><tspan
         x="14.662154"
         y="86.99794"
         id="tspan2773"
         style="stroke-width:0.26458332">Bees can </tspan></tspan><tspan
       sodipodi:role="line"
       x="14.662154"
       y="95.81739"
       id="tspan2779"
       style="stroke-width:0.26458332"><tspan
         x="14.662154"
         y="95.81739"
         id="tspan2777"
         style="stroke-width:0.26458332">detect bomb</tspan></tspan></text>
</svg>
