<?xml version="1.0" encoding="UTF-8" standalone="no"?>
<svg
   xmlns:dc="http://purl.org/dc/elements/1.1/"
   xmlns:cc="http://creativecommons.org/ns#"
   xmlns:rdf="http://www.w3.org/1999/02/22-rdf-syntax-ns#"
   xmlns:svg="http://www.w3.org/2000/svg"
   xmlns="http://www.w3.org/2000/svg"
   id="svg885"
   version="1.1"
   viewBox="0 0 79.374998 111.125"
   height="420"
   width="300">
  <defs
     id="defs879" />
  <metadata
     id="metadata882">
    <rdf:RDF>
      <cc:Work
         rdf:about="">
        <dc:format>image/svg+xml</dc:format>
        <dc:type
           rdf:resource="http://purl.org/dc/dcmitype/StillImage" />
        <dc:title></dc:title>
      </cc:Work>
    </rdf:RDF>
  </metadata>
  <g
     transform="translate(0,-185.87498)"
     id="layer1"
     style="opacity:0.99;fill:#5e8e68;fill-opacity:1">
    <rect
       y="185.87776"
       x="0.0034530037"
       height="111.11626"
       width="79.368423"
       id="rect1430"
       style="opacity:1;fill:#5e8e68;fill-opacity:1;fill-rule:nonzero;stroke:none;stroke-width:0.26598862;stroke-linecap:round;stroke-linejoin:round;stroke-miterlimit:4;stroke-dasharray:none;stroke-opacity:1;paint-order:normal" />
    <flowRoot
       style="fill:#5e8e68;fill-opacity:1;stroke:none;font-family:Arial;font-style:normal;font-weight:bold;font-size:20.20399984px;line-height:1.25;letter-spacing:0px;word-spacing:0px;-inkscape-font-specification:'Arial, Bold';font-stretch:normal;font-variant:normal;text-anchor:start;text-align:start;writing-mode:lr;font-variant-ligatures:normal;font-variant-caps:normal;font-variant-numeric:normal;font-feature-settings:normal"
       id="flowRoot2560"
       xml:space="preserve"><flowRegion
         id="flowRegion2562"
         style="fill:#5e8e68;fill-opacity:1"><rect
           y="-33.558495"
           x="-159.6041"
           height="422.24377"
           width="438.40622"
           id="rect2564"
           style="fill:#5e8e68;fill-opacity:1" /></flowRegion><flowPara
         id="flowPara2566" /></flowRoot>  </g>
  <text
     xml:space="preserve"
     style="font-style:normal;font-variant:normal;font-weight:bold;font-stretch:normal;font-size:6.3499999px;line-height:1.25;font-family:Arial;-inkscape-font-specification:'Arial, Bold';font-variant-ligatures:normal;font-variant-caps:normal;font-variant-numeric:normal;font-feature-settings:normal;text-align:start;letter-spacing:0px;word-spacing:0px;writing-mode:lr-tb;text-anchor:start;fill:#c9ccc7;fill-opacity:1;stroke:none;stroke-width:0.26458332"
     x="2.7011271"
     y="8.8064241"
     id="text2322"><tspan
       x="2.7011271"
       y="8.8064241"
       id="tspan2320"
       style="fill:#c9ccc7;fill-opacity:1;stroke-width:0.26458332"><tspan
         x="2.7011271"
         y="8.8064241"
         id="tspan2318"
         style="fill:#c9ccc7;fill-opacity:1;stroke-width:0.26458332">26.</tspan></tspan></text>
  <style
     id="style1209"
     type="text/css">
	.st0{fill:#6D6C6B;}
	.st1{fill:#60BAE2;}
	.st2{fill:#F9D0B4;}
	.st3{fill:#F45D64;}
	.st4{fill:#E9E9EA;}
	.st5{fill:#6DCC6D;}
	.st6{fill:#F9D97D;}
	.st7{fill:#231F20;}
</style>
  <flowRoot
     style="fill:black;fill-opacity:1;stroke:none;font-family:Arial;font-style:normal;font-weight:bold;font-size:20.20399984px;line-height:1.25;letter-spacing:0px;word-spacing:0px;-inkscape-font-specification:'Arial, Bold';font-stretch:normal;font-variant:normal;text-anchor:start;text-align:start;writing-mode:lr;font-variant-ligatures:normal;font-variant-caps:normal;font-variant-numeric:normal;font-feature-settings:normal"
     id="flowRoot1045"
     xml:space="preserve"><flowRegion
       id="flowRegion1047"><rect
         y="289.03793"
         x="186.64673"
         height="88.682976"
         width="56.715855"
         id="rect1049" /></flowRegion><flowPara
       id="flowPara1051"></flowPara></flowRoot>  <g
     transform="matrix(0.0563668,0,0,0.05382873,30.229029,18.085511)"
     id="g3527">
    <path
       style="fill:#4a7aff"
       d="m 262.37891,118.69922 c -1.4375,11.85156 -4.53907,23.38281 -7.78125,33.01172 -2.03125,6.05469 -4.125,11.36719 -5.89454,15.54297 -17.32421,-1.05078 -38.95703,0.67578 -65.48437,6.61328 0,0 -54.41406,8.65234 -81.44531,8.65234 C 86.875,182.51953 74.96875,68.105469 68.257812,26.5625 65.328125,8.398438 51.554688,0.046875 37.621094,0.00390625 L 214.22266,0.0898438 241.28516,48.945312 c 4.35937,7.855469 9.08203,15.5 13.7539,23.164063 8.1875,13.453125 9.32813,30.328125 7.33985,46.589845 z m 0,0"
       id="path3489" />
    <path
       style="fill:#4a7aff"
       d="m 286.78516,207.07422 c 23.54297,24.78906 52.49609,69.41016 48.8789,141.91016 -2.66406,53.4414 -26.05469,100.91406 -66.16797,130.25781 0,0 -26.41015,14.25 -27.83593,32.75781 H 13.539062 c 0,0 -40.207031,-74.81641 17.957032,-190.47266 18.917968,-37.60546 30.976562,-60.36718 35.625,-80.55468 z m 0,0"
       id="path3491" />
    <path
       style="fill:#71b8ff"
       d="M 195.69141,221.13281 67.121094,240.97266 c -4.648438,20.1875 -16.707032,42.94922 -35.625,80.55468 C -26.667969,437.18359 13.539062,512 13.539062,512 H 195.69141 Z m 0,0"
       id="path3493" />
    <path
       style="fill:#fad2b4"
       d="m 284.44531,221.07813 c -9.1289,-0.37891 -29.61718,2.62109 -45.75781,5.21093 -12.97266,2.08203 -25.75,5.22266 -38.19141,9.42969 -10.4414,3.53125 -20.12109,6.47266 -29.12109,8.88281 -51.78906,13.85938 -81.136719,10.07813 -102.917969,1.0586 L 31.605469,0.5 C 33.527344,0.171875 35.476562,0.0117188 37.425781,0 h 0.191407 c 13.9375,0.0507812 27.710937,8.398438 30.640624,26.558594 6.707032,41.550781 18.617188,155.960936 33.519528,155.960936 27.02735,0 81.4375,-8.64844 81.4375,-8.64844 26.53125,-5.9414 48.16016,-7.67187 65.49219,-6.62109 70.98828,4.32813 69.71094,55.26172 35.73828,53.82813 z m 0,0"
       id="path3495" />
    <path
       style="fill:#fcdeca"
       d="m 68.457031,245.66016 c -3.980469,-1.64844 -7.710937,-3.48047 -11.28125,-5.39844 C 41.617188,231.87891 31.085938,216.46875 28.828125,198.92969 L 5.375,35.210938 C 3.226562,15.25 16.585938,3.050781 31.605469,0.5 Z m 0,0"
       id="path3497" />
    <path
       style="fill:#ffbdd8"
       d="m 250.72656,305.30469 -0.87109,-0.875 c -14.95703,-14.95703 -39.20703,-14.95703 -54.16406,0 -14.95703,-14.95703 -39.20703,-14.95703 -54.16407,0 l -0.87109,0.875 c -14.95313,14.95312 -14.95703,39.19531 -0.008,54.15625 l 55.01953,55.05078 0.0234,-0.0234 0.0234,0.0234 55.01954,-55.05078 c 14.94921,-14.95703 14.94531,-39.20313 -0.008,-54.15625 z m 0,0"
       id="path3499" />
    <path
       style="fill:#71b8ff"
       d="M 141.18359,0.0546875 37.621094,0.00390625 C 51.554688,0.046875 65.328125,8.398438 68.257812,26.5625 c 6.710938,41.542969 18.613282,155.95703 33.515628,155.95703 27.03125,0 81.44531,-8.65234 81.44531,-8.65234 3.17188,-0.71094 6.27344,-1.35547 9.30469,-1.94922 z m 0,0"
       id="path3501" />
    <path
       style="fill:#4a7aff"
       d="m 157.78906,140.82422 c -13.34375,12.20703 -28.14843,18.37891 -44.05859,18.37891 -1.16797,0 -2.34766,-0.0312 -3.54297,-0.0977 -7.80078,-0.44141 -15.058594,-2.32813 -21.566406,-4.94922 -2.960938,-12.38672 -5.722656,-27.72656 -8.253906,-43.70313 5.441406,5.47657 18.347656,15.80469 31.785152,16.5 8.34375,0.42969 16.14454,-2.80078 23.89844,-9.89843 z m 0,0"
       id="path3503" />
    <path
       style="fill:#2864f0"
       d="m 262.37891,118.69922 c -1.4375,11.85156 -4.53907,23.38281 -7.78125,33.01172 -10.25391,-0.32422 -21.98438,-3.53125 -32.57032,-12.625 l 20.9961,-24.42188 c 7.78125,6.6875 16.59765,4.85156 19.35547,4.03516 z m 0,0"
       id="path3505" />
    <path
       style="fill:#ff8fb8"
       d="m 250.72656,305.30469 -0.87109,-0.875 c -14.95703,-14.95703 -39.20703,-14.95703 -54.16406,0 v 110.05859 l 0.0234,0.0234 55.01954,-55.05078 c 14.94921,-14.95703 14.94531,-39.20313 -0.008,-54.15625 z m 0,0"
       id="path3507" />
  </g>
  <text
     id="text3561"
     y="66.829498"
     x="67.99968"
     style="font-style:normal;font-variant:normal;font-weight:bold;font-stretch:normal;font-size:5.34564161px;line-height:1.25;font-family:Arial;-inkscape-font-specification:'Arial, Bold';font-variant-ligatures:normal;font-variant-caps:normal;font-variant-numeric:normal;font-feature-settings:normal;text-align:center;letter-spacing:0px;word-spacing:0px;writing-mode:lr-tb;text-anchor:middle;fill:#c0d5ff;fill-opacity:1;stroke:none;stroke-width:0.26458332"
     xml:space="preserve"><tspan
       style="text-align:center;text-anchor:middle;stroke-width:0.26458332"
       id="tspan3539"
       y="66.829498"
       x="41.121384"><tspan
         style="text-align:center;text-anchor:middle;stroke-width:0.26458332"
         id="tspan3537"
         y="66.829498"
         x="40.380096">If you are pregnant </tspan></tspan><tspan
       style="text-align:center;text-anchor:middle;stroke-width:0.26458332"
       id="tspan3543"
       y="73.511551"
       x="41.121384"><tspan
         style="text-align:center;text-anchor:middle;stroke-width:0.26458332"
         id="tspan3541"
         y="73.511551"
         x="40.380096">and have organ </tspan></tspan><tspan
       style="text-align:center;text-anchor:middle;stroke-width:0.26458332"
       id="tspan3547"
       y="80.193604"
       x="41.121384"><tspan
         style="text-align:center;text-anchor:middle;stroke-width:0.26458332"
         id="tspan3545"
         y="80.193604"
         x="40.380096">damage, your fetus </tspan></tspan><tspan
       style="text-align:center;text-anchor:middle;stroke-width:0.26458332"
       id="tspan3551"
       y="86.875664"
       x="41.121384"><tspan
         style="text-align:center;text-anchor:middle;stroke-width:0.26458332"
         id="tspan3549"
         y="86.875664"
         x="40.380096">(baby in your wombs) </tspan></tspan><tspan
       style="text-align:center;text-anchor:middle;stroke-width:0.26458332"
       id="tspan3555"
       y="93.557716"
       x="41.121387"><tspan
         style="text-align:center;text-anchor:middle;stroke-width:0.26458332"
         id="tspan3553"
         y="93.557716"
         x="40.380096">will send out stem </tspan></tspan><tspan
       style="text-align:center;text-anchor:middle;stroke-width:0.26458332"
       id="tspan3559"
       y="100.23977"
       x="40.380093"><tspan
         style="text-align:center;text-anchor:middle;stroke-width:0.26458332"
         id="tspan3557"
         y="100.23977"
         x="40.380096">cells to try and help</tspan></tspan></text>
</svg>
