<?xml version="1.0" encoding="UTF-8" standalone="no"?>
<svg
   xmlns:dc="http://purl.org/dc/elements/1.1/"
   xmlns:cc="http://creativecommons.org/ns#"
   xmlns:rdf="http://www.w3.org/1999/02/22-rdf-syntax-ns#"
   xmlns:svg="http://www.w3.org/2000/svg"
   xmlns="http://www.w3.org/2000/svg"
   xmlns:sodipodi="http://sodipodi.sourceforge.net/DTD/sodipodi-0.dtd"
   xmlns:inkscape="http://www.inkscape.org/namespaces/inkscape"
   id="svg885"
   version="1.1"
   viewBox="0 0 79.374998 111.125"
   height="420"
   width="300"
   sodipodi:docname="013.svg"
   inkscape:version="0.92.4 (5da689c313, 2019-01-14)">
  <sodipodi:namedview
     pagecolor="#ffffff"
     bordercolor="#666666"
     borderopacity="1"
     objecttolerance="10"
     gridtolerance="10"
     guidetolerance="10"
     inkscape:pageopacity="0"
     inkscape:pageshadow="2"
     inkscape:window-width="1366"
     inkscape:window-height="745"
     id="namedview1053"
     showgrid="false"
     inkscape:zoom="0.96974646"
     inkscape:cx="-89.574911"
     inkscape:cy="163.25114"
     inkscape:window-x="-8"
     inkscape:window-y="-8"
     inkscape:window-maximized="1"
     inkscape:current-layer="svg885" />
  <defs
     id="defs879" />
  <metadata
     id="metadata882">
    <rdf:RDF>
      <cc:Work
         rdf:about="">
        <dc:format>image/svg+xml</dc:format>
        <dc:type
           rdf:resource="http://purl.org/dc/dcmitype/StillImage" />
        <dc:title />
      </cc:Work>
    </rdf:RDF>
  </metadata>
  <g
     transform="translate(0,-185.87498)"
     id="layer1"
     style="opacity:0.99;fill:#5553c9;fill-opacity:1">
    <rect
       y="185.87776"
       x="0.0034530037"
       height="111.11626"
       width="79.368423"
       id="rect1430"
       style="opacity:1;fill:#5553c9;fill-opacity:1;fill-rule:nonzero;stroke:none;stroke-width:0.26598862;stroke-linecap:round;stroke-linejoin:round;stroke-miterlimit:4;stroke-dasharray:none;stroke-opacity:1;paint-order:normal" />
    <flowRoot
       style="fill:#5553c9;fill-opacity:1;stroke:none;font-family:Arial;font-style:normal;font-weight:bold;font-size:20.20399984px;line-height:1.25;letter-spacing:0px;word-spacing:0px;-inkscape-font-specification:'Arial, Bold';font-stretch:normal;font-variant:normal;text-anchor:start;text-align:start;writing-mode:lr;font-variant-ligatures:normal;font-variant-caps:normal;font-variant-numeric:normal;font-feature-settings:normal"
       id="flowRoot2560"
       xml:space="preserve"><flowRegion
         id="flowRegion2562"
         style="fill:#5553c9;fill-opacity:1"><rect
           y="-33.558495"
           x="-159.6041"
           height="422.24377"
           width="438.40622"
           id="rect2564"
           style="fill:#5553c9;fill-opacity:1" /></flowRegion><flowPara
         id="flowPara2566" /></flowRoot>  </g>
  <text
     xml:space="preserve"
     style="font-style:normal;font-variant:normal;font-weight:bold;font-stretch:normal;font-size:6.3499999px;line-height:1.25;font-family:Arial;-inkscape-font-specification:'Arial, Bold';font-variant-ligatures:normal;font-variant-caps:normal;font-variant-numeric:normal;font-feature-settings:normal;text-align:start;letter-spacing:0px;word-spacing:0px;writing-mode:lr-tb;text-anchor:start;fill:#292626;fill-opacity:1;stroke:none;stroke-width:0.26458332;"
     x="2.7011271"
     y="8.8064241"
     id="text2322"><tspan
       sodipodi:role="line"
       x="2.7011271"
       y="8.8064241"
       id="tspan2320"
       style="fill:#292626;fill-opacity:1;stroke-width:0.26458332;"><tspan
         x="2.7011271"
         y="8.8064241"
         id="tspan2318"
         style="fill:#292626;fill-opacity:1;stroke-width:0.26458332;">13.</tspan></tspan></text>
  <g
     id="g1106"
     transform="matrix(0.07539095,0,0,0.06417702,6.3383221,24.371895)">
    <path
       id="path1078"
       d="M 391.232,447.983 V 310.682 c 0,-3.036 -1.831,-5.773 -4.638,-6.933 -2.808,-1.159 -6.035,-0.51 -8.177,1.641 -10.697,10.744 -24.936,16.661 -40.091,16.661 -4.143,0 -7.5,3.357 -7.5,7.5 v 139.437 c 0,4.143 3.357,7.5 7.5,7.5 14.013,0 23.595,5.609 28.481,16.671 1.2,2.717 3.891,4.47 6.86,4.47 h 48.922 c 2.035,0 3.983,-0.827 5.396,-2.292 1.414,-1.465 2.171,-3.441 2.099,-5.476 -0.012,-0.398 -1.788,-37.451 -38.852,-41.878 z"
       style="fill:#6e563d"
       inkscape:connector-curvature="0" />
    <path
       id="path1080"
       d="m 391.232,336.901 v -26.22 c 0,-3.036 -1.831,-5.773 -4.638,-6.933 -2.808,-1.159 -6.035,-0.51 -8.177,1.641 -10.697,10.744 -24.936,16.661 -40.091,16.661 -4.143,0 -7.5,3.357 -7.5,7.5 v 28.825 c 26.896,-1.636 47.276,-11.207 60.406,-21.474 z"
       style="fill:#604b35"
       inkscape:connector-curvature="0" />
    <path
       id="path1082"
       d="m 260.469,323.994 c -1.231,-2.643 -3.883,-4.333 -6.799,-4.333 h -93.035 c -2.646,0 -5.098,1.396 -6.449,3.671 -9.22,15.53 -24.179,29.879 -44.461,42.649 -2.181,1.373 -3.504,3.77 -3.504,6.347 v 86.537 c 0,21.374 17.389,38.763 38.762,38.763 h 62.065 c 2.035,0 3.983,-0.827 5.398,-2.292 1.413,-1.465 2.17,-3.441 2.098,-5.476 -0.014,-0.398 -1.791,-37.45 -38.854,-41.877 v -61.08 c 14.734,-5.398 56.782,-22.868 83.722,-54.916 1.876,-2.232 2.289,-5.349 1.057,-7.993 z"
       style="fill:#6e563d"
       inkscape:connector-curvature="0" />
    <path
       id="path1084"
       d="m 253.671,319.661 h -93.035 c -2.646,0 -5.098,1.396 -6.449,3.671 -6.256,10.538 -15.163,20.53 -26.574,29.856 h 109.601 c 7.897,-6.196 15.514,-13.249 22.199,-21.201 1.876,-2.232 2.289,-5.35 1.058,-7.993 -1.233,-2.642 -3.884,-4.333 -6.8,-4.333 z"
       style="fill:#604b35"
       inkscape:connector-curvature="0" />
    <path
       id="path1086"
       d="M 503.757,81.411 444.639,56.779 426.77,33.135 C 411.089,12.387 386.2,0 360.191,0 333.7,0 309.962,15.786 299.716,40.217 L 249.71,159.463 H 145.501 c -17.66,0 -34.792,4.724 -49.846,13.702 C 77.592,161.77 64.726,147.06 57.382,129.387 38.269,83.383 60.633,29.312 60.845,28.809 65.34,18.366 60.505,6.203 50.067,1.695 39.617,-2.819 27.442,2.014 22.935,12.45 L 22.76,12.836 C 18.894,21.318 11.732,38.878 7.2,61.177 c -6.824,33.576 -4.932,63.547 5.625,89.08 10.294,24.9 26.012,46.489 45.669,62.812 -7.534,15.022 -10.944,31.69 -9.892,48.595 0.059,0.964 0.129,1.936 0.209,2.911 2.11,25.823 -14.807,59.517 -29.935,80.524 -10.238,14.217 -15.65,30.893 -15.65,48.229 v 79.474 c 0,21.373 17.389,38.762 38.762,38.762 h 62.064 c 2.035,0 3.983,-0.827 5.396,-2.292 1.414,-1.465 2.171,-3.441 2.099,-5.476 -0.014,-0.398 -1.79,-37.45 -38.854,-41.877 v -61.076 c 16.409,-6.001 66.548,-26.905 92.106,-66.181 h 111.558 v 138.14 c 0,21.373 17.389,38.762 38.762,38.762 h 62.065 c 2.035,0 3.983,-0.827 5.396,-2.292 1.414,-1.465 2.171,-3.441 2.099,-5.476 -0.014,-0.398 -1.79,-37.45 -38.853,-41.877 V 336.661 c 35.957,-3.761 64.076,-34.251 64.076,-71.186 V 157.562 h 28.351 c 20.713,0 40.171,-8.663 53.385,-23.769 11.103,-12.695 16.734,-27.99 16.734,-45.459 10e-4,-3.027 -1.82,-5.759 -4.615,-6.923 z"
       style="fill:#a58260"
       inkscape:connector-curvature="0" />
    <g
       id="g1092">
      <path
         id="path1088"
         d="m 38.69,400.842 v 67.671 c 37.063,4.427 38.84,34.885 38.854,35.282 0.072,2.034 -0.685,4.011 -2.099,5.476 -1.413,1.465 -3.361,2.292 -5.396,2.292 h 33.916 c 0.96,0 1.923,-0.146 2.813,-0.503 3.09,-1.242 4.879,-4.187 4.769,-7.264 -0.014,-0.398 -1.79,-37.45 -38.854,-41.877 v -61.076 c 16.409,-6.001 66.548,-26.905 92.106,-66.181 h -23.68 c -6.162,0 -12.012,2.805 -15.792,7.672 -26.676,34.345 -71.33,52.91 -86.637,58.508 z"
         style="fill:#85684a"
         inkscape:connector-curvature="0" />
      <path
         id="path1090"
         d="m 404.25,157.562 h -11.342 c -9.393,0 -17.008,7.615 -17.008,17.008 v 90.905 c 0,33.088 -22.566,61.004 -53.118,69.164 -6.415,1.714 -10.958,7.402 -10.958,14.042 v 119.832 c 37.063,4.427 38.839,34.885 38.853,35.282 0.072,2.034 -0.685,4.011 -2.099,5.476 -1.413,1.465 -3.361,2.292 -5.396,2.292 h 33.916 c 0.96,0 1.923,-0.146 2.813,-0.503 3.09,-1.241 4.879,-4.187 4.769,-7.264 -0.014,-0.398 -1.79,-37.45 -38.853,-41.877 V 336.661 c 35.957,-3.761 64.076,-34.251 64.076,-71.186 V 157.562 l -0.155,-0.229 c -1.822,0.136 -3.653,0.229 -5.498,0.229 z"
         style="fill:#85684a"
         inkscape:connector-curvature="0" />
    </g>
    <path
       id="path1094"
       d="m 364.683,147.381 c -0.662,0 -1.329,-0.088 -1.986,-0.268 -1.661,-0.456 -40.79,-11.684 -48.848,-56.006 -0.741,-4.075 1.962,-7.979 6.037,-8.721 4.08,-0.746 7.98,1.962 8.721,6.037 4.933,27.133 24.749,38.679 33.672,42.573 16.455,-22.831 5.748,-58.009 5.632,-58.382 -1.236,-3.953 0.967,-8.16 4.921,-9.396 3.951,-1.237 8.159,0.967 9.396,4.921 0.151,0.484 3.72,12.054 4.148,27.052 0.587,20.497 -5.012,37.712 -16.189,49.784 -1.44,1.556 -3.444,2.406 -5.504,2.406 z"
       style="fill:#604b35"
       inkscape:connector-curvature="0" />
    <path
       id="path1098"
       d="M 405.042,178.847 270.597,128.322 c -3.776,-1.419 -7.996,0.402 -9.555,4.12 l -13.261,31.621 c -0.792,1.888 -0.777,4.018 0.039,5.895 0.817,1.877 2.366,3.338 4.288,4.045 l 147.706,54.326 c 0.841,0.309 1.717,0.461 2.588,0.461 1.515,0 3.017,-0.459 4.292,-1.349 2.011,-1.403 3.209,-3.7 3.209,-6.151 v -35.422 c 0,-3.125 -1.937,-5.923 -4.861,-7.021 z"
       style="fill:#ffdf65"
       inkscape:connector-curvature="0" />
    <path
       id="path1100"
       d="m 405.042,178.847 -29.639,-11.138 v 51.641 l 24.411,8.979 c 0.841,0.309 1.717,0.461 2.588,0.461 1.515,0 3.017,-0.459 4.292,-1.349 2.011,-1.403 3.209,-3.7 3.209,-6.151 v -35.422 c 0,-3.125 -1.937,-5.923 -4.861,-7.021 z"
       style="fill:#ffcd2c"
       inkscape:connector-curvature="0" />
    <path
       id="path1102"
       d="m 407.252,83.459 c -5.931,0 -10.755,-4.824 -10.755,-10.755 0,-5.93 4.824,-10.754 10.755,-10.754 5.93,0 10.754,4.824 10.754,10.754 0,5.931 -4.825,10.755 -10.754,10.755 z"
       style="fill:#604b35"
       inkscape:connector-curvature="0" />
    <path
       id="path1104"
       d="M 503.757,81.411 476.803,70.18 c -3.51,16.501 9.138,32.409 18.988,38.067 0.545,0.313 1.127,0.556 1.733,0.724 1.845,0.512 3.655,0.766 5.413,0.766 0.791,0 1.568,-0.065 2.335,-0.167 2.058,-6.657 3.101,-13.745 3.101,-21.235 0,-3.028 -1.821,-5.76 -4.616,-6.924 z"
       style="fill:#604b35"
       inkscape:connector-curvature="0" />
  </g>
  <g
     id="g1306"
     transform="matrix(0.0152915,0,0,0.01348289,47.29349,35.581625)">
    <g
       id="g1208"
       style="fill:#e54a4a">
      <path
         id="path1202"
         d="m 308.625,121.00781 c -3.90234,-1.72656 -5.66797,-6.28906 -3.9375,-10.1914 l 30.03516,-67.863285 c 1.73047,-3.902344 6.29297,-5.660156 10.19531,-3.9375 3.90234,1.726563 5.66406,6.289063 3.9375,10.191406 l -30.03906,67.863279 c -1.72266,3.89453 -6.28125,5.66797 -10.19141,3.9375 z m 0,0"
         inkscape:connector-curvature="0" />
      <path
         id="path1204"
         d="m 372.21094,412.38281 -42.23438,-57.87109 c -2.51953,-3.44922 -1.76172,-8.28125 1.6836,-10.79688 3.44531,-2.51562 8.28125,-1.76172 10.79687,1.6836 l 42.23828,57.87109 c 2.51563,3.44922 1.76172,8.28125 -1.6875,10.79688 -3.44531,2.51953 -8.27734,1.76172 -10.79687,-1.6836 z m 0,0"
         inkscape:connector-curvature="0" />
      <path
         id="path1206"
         d="m 393.97266,231.83984 c -3.89844,0 -7.2461,-2.9375 -7.67188,-6.90234 -0.45703,-4.24219 2.61328,-8.05078 6.85938,-8.50781 l 72.23437,-7.75 c 4.25,-0.44922 8.05469,2.61328 8.50781,6.85547 0.45703,4.24609 -2.61328,8.05468 -6.85937,8.50781 l -72.23438,7.75391 c -0.28125,0.0273 -0.55859,0.043 -0.83593,0.043 z m 0,0"
         inkscape:connector-curvature="0" />
    </g>
    <path
       id="path1210"
       d="m 413.16406,239.08203 c 0,86.1836 -69.86718,156.04688 -156.05078,156.04688 -86.18359,0 -156.05078,-69.86328 -156.05078,-156.04688 0,-86.1875 69.86719,-156.05078 156.05078,-156.05078 86.1836,0 156.05078,69.86328 156.05078,156.05078 z m 0,0"
       inkscape:connector-curvature="0"
       style="fill:#f77c7c" />
    <path
       id="path1212"
       d="m 131.96875,239.08203 c 0,-80.97265 61.66797,-147.531249 140.59766,-155.289061 -5.08203,-0.5 -10.23828,-0.761719 -15.45313,-0.761719 -86.18359,0 -156.05078,69.86328 -156.05078,156.05078 0,86.1836 69.86719,156.04688 156.05078,156.04688 5.21485,0 10.3711,-0.26172 15.45313,-0.76172 -78.92578,-7.75781 -140.59766,-74.31641 -140.59766,-155.28516 z m 0,0"
       inkscape:connector-curvature="0"
       style="fill:#f25c5c" />
    <path
       id="path1214"
       d="m 166.09375,436.32422 c -3.90234,-1.72656 -5.66406,-6.28906 -3.9375,-10.19141 l 29.35156,-66.3164 c 1.73047,-3.90235 6.29297,-5.66407 10.19532,-3.9375 3.90234,1.72656 5.66406,6.28906 3.9375,10.1914 l -29.35157,66.31641 c -1.72656,3.89453 -6.28125,5.66797 -10.19531,3.9375 z m 0,0"
       inkscape:connector-curvature="0"
       style="fill:#e54a4a" />
    <path
       id="path1216"
       d="M 170.18359,130.98438 127.27344,72.191406 c -2.51563,-3.445312 -1.76172,-8.28125 1.6875,-10.792968 3.44531,-2.519532 8.27734,-1.761719 10.79297,1.683593 l 42.91015,58.789059 c 2.51563,3.44922 1.76172,8.28125 -1.68359,10.79688 -3.44922,2.51953 -8.28125,1.76172 -10.79688,-1.68359 z m 0,0"
       inkscape:connector-curvature="0"
       style="fill:#e54a4a" />
    <path
       id="path1218"
       d="m 48.214844,266.21875 c -3.898438,0 -7.25,-2.94141 -7.671875,-6.90625 -0.457031,-4.24219 2.613281,-8.05078 6.855469,-8.50781 l 71.843752,-7.70703 c 4.24609,-0.46094 8.05078,2.61718 8.50781,6.85937 0.45313,4.24219 -2.61719,8.05078 -6.85938,8.50781 l -71.843745,7.70704 c -0.277344,0.0273 -0.558594,0.0469 -0.832031,0.0469 z m 0,0"
       inkscape:connector-curvature="0"
       style="fill:#e54a4a" />
    <path
       id="path1220"
       d="m 134.80078,27.058594 c -12.76953,-7.375 -29.09375,-3 -36.464842,9.769531 -7.375,12.769531 -3,29.09375 9.769532,36.464844 12.76953,7.375 29.09375,3 36.46484,-9.769531 7.375,-12.765626 3,-29.09375 -9.76953,-36.464844 z m 0,0"
       inkscape:connector-curvature="0"
       style="fill:#f77c7c" />
    <path
       id="path1222"
       d="m 129.36719,36.824219 c 1.97265,-3.414063 4.58984,-6.222657 7.60156,-8.375 -0.69141,-0.492188 -1.41406,-0.960938 -2.16797,-1.394531 -12.76562,-7.371094 -29.09375,-2.996094 -36.464842,9.769531 -7.371094,12.769531 -2.996094,29.097656 9.769532,36.46875 9.35547,5.398437 20.61328,4.488281 28.86328,-1.398438 -11.07031,-7.890625 -14.53906,-23.054687 -7.60156,-35.070312 z m 0,0"
       inkscape:connector-curvature="0"
       style="fill:#f25c5c" />
    <path
       id="path1224"
       d="m 264.78125,313.04297 c 0,14.41406 -11.6875,26.10156 -26.10547,26.10156 -14.41406,0 -26.10156,-11.6875 -26.10156,-26.10156 0,-14.41406 11.6875,-26.10156 26.10156,-26.10156 14.41797,0 26.10547,11.6875 26.10547,26.10156 z m 0,0"
       inkscape:connector-curvature="0"
       style="fill:#f25c5c" />
    <path
       id="path1226"
       d="m 240.39063,313.04297 c 0,-9.30078 4.87109,-17.46094 12.19531,-22.08203 -4.02735,-2.54297 -8.79297,-4.01953 -13.91016,-4.01953 -14.41406,0 -26.10156,11.6875 -26.10156,26.10156 0,14.41797 11.6875,26.10156 26.10156,26.10156 5.11719,0 9.88281,-1.47656 13.91016,-4.01562 -7.32422,-4.625 -12.19531,-12.78516 -12.19531,-22.08594 z m 0,0"
       inkscape:connector-curvature="0"
       style="fill:#e54a4a" />
    <path
       id="path1228"
       d="m 326.27344,256.37109 c 0,8.16016 -6.61328,14.77344 -14.77344,14.77344 -8.16016,0 -14.77734,-6.61328 -14.77734,-14.77344 0,-8.16015 6.61718,-14.77343 14.77734,-14.77343 8.16016,0 14.77344,6.61328 14.77344,14.77343 z m 0,0"
       inkscape:connector-curvature="0"
       style="fill:#f25c5c" />
    <path
       id="path1230"
       d="m 319.96875,256.37109 c 0,-3.4375 1.18359,-6.59375 3.15234,-9.10156 -2.70703,-3.44922 -6.90234,-5.67187 -11.625,-5.67187 -8.16015,0 -14.77343,6.61328 -14.77343,14.77343 0,8.16016 6.61328,14.77344 14.77343,14.77344 4.72266,0 8.91797,-2.22265 11.625,-5.67187 -1.96875,-2.50782 -3.15234,-5.66407 -3.15234,-9.10157 z m 0,0"
       inkscape:connector-curvature="0"
       style="fill:#e54a4a" />
    <path
       id="path1232"
       d="m 255.375,189.87109 c 0,16.44922 -13.33203,29.78125 -29.78125,29.78125 -16.44922,0 -29.78125,-13.33203 -29.78125,-29.78125 0,-16.44921 13.33203,-29.78125 29.78125,-29.78125 16.44922,0 29.78125,13.33204 29.78125,29.78125 z m 0,0"
       inkscape:connector-curvature="0"
       style="fill:#f25c5c" />
    <path
       id="path1234"
       d="m 223.62891,189.87109 c 0,-11.42187 6.43359,-21.33984 15.87109,-26.33593 -4.14844,-2.19532 -8.88281,-3.44532 -13.90625,-3.44532 -16.44922,0 -29.78125,13.33204 -29.78125,29.78125 0,16.44922 13.33203,29.78125 29.78125,29.78125 5.02344,0 9.75781,-1.25 13.90625,-3.44531 -9.4375,-4.99609 -15.87109,-14.91406 -15.87109,-26.33594 z m 0,0"
       inkscape:connector-curvature="0"
       style="fill:#e54a4a" />
    <path
       id="path1236"
       d="m 186.36719,247.01563 c 0,6.93359 -5.6211,12.55859 -12.5586,12.55859 -6.93359,0 -12.55859,-5.625 -12.55859,-12.5586 0,-6.9375 5.625,-12.55859 12.55859,-12.55859 6.9375,0 12.5586,5.62109 12.5586,12.5586 z m 0,0"
       inkscape:connector-curvature="0"
       style="fill:#f25c5c" />
    <path
       id="path1238"
       d="m 330.66797,177.08203 c 0,9.38281 -7.60547,16.98828 -16.99219,16.98828 -9.38281,0 -16.98828,-7.60547 -16.98828,-16.98828 0,-9.38672 7.60547,-16.99219 16.98828,-16.99219 9.38672,0 16.99219,7.60547 16.99219,16.99219 z m 0,0"
       inkscape:connector-curvature="0"
       style="fill:#f25c5c" />
    <path
       id="path1240"
       d="m 324.50391,177.08203 c 0,-3.6289 1.14453,-6.98437 3.08203,-9.74219 -3.07422,-4.3789 -8.15235,-7.25 -13.91016,-7.25 -9.38281,0 -16.98828,7.60547 -16.98828,16.99219 0,9.38281 7.60547,16.98828 16.98828,16.98828 5.75781,0 10.83594,-2.87109 13.91016,-7.25 -1.9375,-2.75781 -3.08203,-6.11328 -3.08203,-9.73828 z m 0,0"
       inkscape:connector-curvature="0"
       style="fill:#e54a4a" />
    <path
       id="path1242"
       d="m 315.01172,316.39063 c -1.97656,0 -3.95313,-0.75782 -5.46484,-2.26563 -3.01563,-3.01562 -3.01563,-7.91016 0,-10.92578 l 5.04687,-5.05078 c 3.01953,-3.01563 7.91016,-3.01563 10.92969,0 3.01562,3.01953 3.01562,7.91015 0,10.92578 l -5.04688,5.05078 c -1.51172,1.50781 -3.48828,2.26562 -5.46484,2.26563 z m 0,0"
       inkscape:connector-curvature="0"
       style="fill:#f25c5c" />
    <path
       id="path1244"
       d="m 265.6875,251.73438 c -1.85547,0 -3.71875,-0.66407 -5.19531,-2.01172 l -5.28516,-4.80078 c -3.15625,-2.8711 -3.38672,-7.76172 -0.51562,-10.91797 2.87109,-3.15625 7.75781,-3.39063 10.91406,-0.51563 l 5.28125,4.80078 c 3.15625,2.8711 3.39062,7.75782 0.51953,10.91797 -1.52734,1.67578 -3.61719,2.52735 -5.71875,2.52735 z m 0,0"
       inkscape:connector-curvature="0"
       style="fill:#f25c5c" />
    <path
       id="path1246"
       d="m 364.10156,4.085938 c -12.76953,-7.371094 -29.09375,-2.996094 -36.46875,9.769531 -7.37109,12.769531 -2.99609,29.097656 9.77344,36.46875 12.76563,7.371093 29.09375,2.996093 36.46484,-9.769531 7.3711,-12.769532 3,-29.097657 -9.76953,-36.46875 z m 0,0"
       inkscape:connector-curvature="0"
       style="fill:#f77c7c" />
    <path
       id="path1248"
       d="m 358.66797,13.847656 c 1.97266,-3.414062 4.58984,-6.222656 7.60156,-8.375 -0.6914,-0.492187 -1.41406,-0.960937 -2.16797,-1.394531 -12.76562,-7.371094 -29.09375,-2.996094 -36.46484,9.769531 -7.3711,12.769532 -2.9961,29.09375 9.76953,36.46875 9.35156,5.398438 20.61328,4.488282 28.86328,-1.398437 -11.07031,-7.890625 -14.53906,-23.054688 -7.60156,-35.070313 z m 0,0"
       inkscape:connector-curvature="0"
       style="fill:#f25c5c" />
    <path
       id="path1250"
       d="m 498.64453,191.01953 c -12.76953,-7.37109 -29.09375,-2.99609 -36.46484,9.77344 -7.375,12.76562 -3,29.09375 9.76953,36.46484 12.76562,7.3711 29.09375,3 36.46484,-9.76953 7.375,-12.76953 3,-29.09375 -9.76953,-36.46875 z m 0,0"
       inkscape:connector-curvature="0"
       style="fill:#f77c7c" />
    <path
       id="path1252"
       d="m 493.21484,200.78125 c 1.97266,-3.41797 4.58985,-6.22656 7.60547,-8.375 -0.69531,-0.49609 -1.41797,-0.96484 -2.16797,-1.39844 -12.76953,-7.37109 -29.09765,-2.99609 -36.46875,9.77344 -7.37109,12.76563 -2.99609,29.09375 9.76954,36.46484 9.35546,5.40235 20.61328,4.49219 28.86718,-1.39453 -11.07422,-7.89062 -14.54297,-23.05468 -7.60547,-35.07031 z m 0,0"
       inkscape:connector-curvature="0"
       style="fill:#f25c5c" />
    <path
       id="path1254"
       d="m 403.88672,401.24609 c -12.76563,-7.37109 -29.09375,-2.99609 -36.46484,9.76954 -7.375,12.76953 -3,29.09765 9.76953,36.46875 12.76953,7.37109 29.09375,2.99609 36.46484,-9.76954 7.375,-12.76953 3,-29.09765 -9.76953,-36.46875 z m 0,0"
       inkscape:connector-curvature="0"
       style="fill:#f77c7c" />
    <path
       id="path1256"
       d="m 398.46484,411.00781 c 1.97266,-3.41406 4.58985,-6.22656 7.60157,-8.375 -0.69141,-0.49609 -1.41407,-0.96093 -2.16797,-1.39843 -12.76563,-7.3711 -29.09375,-2.9961 -36.46485,9.77343 -7.37109,12.76563 -2.99609,29.09375 9.76954,36.46485 9.35546,5.40234 20.61328,4.49218 28.86718,-1.39453 -11.07422,-7.89063 -14.54297,-23.05469 -7.60547,-35.07032 z m 0,0"
       inkscape:connector-curvature="0"
       style="fill:#f25c5c" />
    <path
       id="path1258"
       d="m 174.58594,424.21875 c -12.76563,-7.375 -29.09375,-3 -36.46485,9.76953 -7.37109,12.76953 -2.99609,29.09375 9.76954,36.46485 12.76953,7.375 29.09375,3 36.46875,-9.76954 7.37109,-12.76562 2.99609,-29.09375 -9.77344,-36.46484 z m 0,0"
       inkscape:connector-curvature="0"
       style="fill:#f77c7c" />
    <path
       id="path1260"
       d="m 169.16406,433.98438 c 1.97266,-3.41407 4.58985,-6.22266 7.60547,-8.375 -0.69531,-0.4961 -1.41797,-0.96094 -2.16797,-1.39454 -12.76953,-7.375 -29.09765,-3 -36.46875,9.76954 -7.37109,12.76953 -2.99609,29.09375 9.76953,36.46484 9.35547,5.40234 20.61329,4.49219 28.86719,-1.39453 C 165.69531,461.16406 162.22656,446 169.16406,433.98438 Z m 0,0"
       inkscape:connector-curvature="0"
       style="fill:#f25c5c" />
    <path
       id="path1262"
       d="M 40.042969,237.12109 C 27.273438,229.75 10.949219,234.125 3.578125,246.89453 c -7.375,12.76563 -3,29.09375 9.769531,36.46485 12.769532,7.37109 29.09375,2.99609 36.464844,-9.76954 7.375,-12.76953 3,-29.09375 -9.769531,-36.46875 z m 0,0"
       inkscape:connector-curvature="0"
       style="fill:#f77c7c" />
    <path
       id="path1264"
       d="m 34.617188,246.89063 c 1.972656,-3.41407 4.589843,-6.22266 7.601562,-8.3711 -0.691406,-0.49609 -1.414062,-0.96484 -2.167969,-1.39844 -12.765625,-7.37109 -29.09375,-2.99609 -36.464843,9.76954 -7.375,12.76953 -3,29.09765 9.769531,36.46875 9.351562,5.39843 20.609375,4.48828 28.863281,-1.39844 -11.070312,-7.89063 -14.539062,-23.05469 -7.601562,-35.07031 z m 0,0"
       inkscape:connector-curvature="0"
       style="fill:#f25c5c" />
  </g>
  <g
     transform="matrix(0.00809757,0,0,0.00743313,59.161891,35.857473)"
     id="g1372">
    <g
       style="fill:#e54a4a"
       id="g1314">
      <path
         inkscape:connector-curvature="0"
         d="m 308.625,121.00781 c -3.90234,-1.72656 -5.66797,-6.28906 -3.9375,-10.1914 l 30.03516,-67.863285 c 1.73047,-3.902344 6.29297,-5.660156 10.19531,-3.9375 3.90234,1.726563 5.66406,6.289063 3.9375,10.191406 l -30.03906,67.863279 c -1.72266,3.89453 -6.28125,5.66797 -10.19141,3.9375 z m 0,0"
         id="path1308" />
      <path
         inkscape:connector-curvature="0"
         d="m 372.21094,412.38281 -42.23438,-57.87109 c -2.51953,-3.44922 -1.76172,-8.28125 1.6836,-10.79688 3.44531,-2.51562 8.28125,-1.76172 10.79687,1.6836 l 42.23828,57.87109 c 2.51563,3.44922 1.76172,8.28125 -1.6875,10.79688 -3.44531,2.51953 -8.27734,1.76172 -10.79687,-1.6836 z m 0,0"
         id="path1310" />
      <path
         inkscape:connector-curvature="0"
         d="m 393.97266,231.83984 c -3.89844,0 -7.2461,-2.9375 -7.67188,-6.90234 -0.45703,-4.24219 2.61328,-8.05078 6.85938,-8.50781 l 72.23437,-7.75 c 4.25,-0.44922 8.05469,2.61328 8.50781,6.85547 0.45703,4.24609 -2.61328,8.05468 -6.85937,8.50781 l -72.23438,7.75391 c -0.28125,0.0273 -0.55859,0.043 -0.83593,0.043 z m 0,0"
         id="path1312" />
    </g>
    <path
       style="fill:#f77c7c"
       inkscape:connector-curvature="0"
       d="m 413.16406,239.08203 c 0,86.1836 -69.86718,156.04688 -156.05078,156.04688 -86.18359,0 -156.05078,-69.86328 -156.05078,-156.04688 0,-86.1875 69.86719,-156.05078 156.05078,-156.05078 86.1836,0 156.05078,69.86328 156.05078,156.05078 z m 0,0"
       id="path1316" />
    <path
       style="fill:#f25c5c"
       inkscape:connector-curvature="0"
       d="m 131.96875,239.08203 c 0,-80.97265 61.66797,-147.531249 140.59766,-155.289061 -5.08203,-0.5 -10.23828,-0.761719 -15.45313,-0.761719 -86.18359,0 -156.05078,69.86328 -156.05078,156.05078 0,86.1836 69.86719,156.04688 156.05078,156.04688 5.21485,0 10.3711,-0.26172 15.45313,-0.76172 -78.92578,-7.75781 -140.59766,-74.31641 -140.59766,-155.28516 z m 0,0"
       id="path1318" />
    <path
       style="fill:#e54a4a"
       inkscape:connector-curvature="0"
       d="m 166.09375,436.32422 c -3.90234,-1.72656 -5.66406,-6.28906 -3.9375,-10.19141 l 29.35156,-66.3164 c 1.73047,-3.90235 6.29297,-5.66407 10.19532,-3.9375 3.90234,1.72656 5.66406,6.28906 3.9375,10.1914 l -29.35157,66.31641 c -1.72656,3.89453 -6.28125,5.66797 -10.19531,3.9375 z m 0,0"
       id="path1320" />
    <path
       style="fill:#e54a4a"
       inkscape:connector-curvature="0"
       d="M 170.18359,130.98438 127.27344,72.191406 c -2.51563,-3.445312 -1.76172,-8.28125 1.6875,-10.792968 3.44531,-2.519532 8.27734,-1.761719 10.79297,1.683593 l 42.91015,58.789059 c 2.51563,3.44922 1.76172,8.28125 -1.68359,10.79688 -3.44922,2.51953 -8.28125,1.76172 -10.79688,-1.68359 z m 0,0"
       id="path1322" />
    <path
       style="fill:#e54a4a"
       inkscape:connector-curvature="0"
       d="m 48.214844,266.21875 c -3.898438,0 -7.25,-2.94141 -7.671875,-6.90625 -0.457031,-4.24219 2.613281,-8.05078 6.855469,-8.50781 l 71.843752,-7.70703 c 4.24609,-0.46094 8.05078,2.61718 8.50781,6.85937 0.45313,4.24219 -2.61719,8.05078 -6.85938,8.50781 l -71.843745,7.70704 c -0.277344,0.0273 -0.558594,0.0469 -0.832031,0.0469 z m 0,0"
       id="path1324" />
    <path
       style="fill:#f77c7c"
       inkscape:connector-curvature="0"
       d="m 134.80078,27.058594 c -12.76953,-7.375 -29.09375,-3 -36.464842,9.769531 -7.375,12.769531 -3,29.09375 9.769532,36.464844 12.76953,7.375 29.09375,3 36.46484,-9.769531 7.375,-12.765626 3,-29.09375 -9.76953,-36.464844 z m 0,0"
       id="path1326" />
    <path
       style="fill:#f25c5c"
       inkscape:connector-curvature="0"
       d="m 129.36719,36.824219 c 1.97265,-3.414063 4.58984,-6.222657 7.60156,-8.375 -0.69141,-0.492188 -1.41406,-0.960938 -2.16797,-1.394531 -12.76562,-7.371094 -29.09375,-2.996094 -36.464842,9.769531 -7.371094,12.769531 -2.996094,29.097656 9.769532,36.46875 9.35547,5.398437 20.61328,4.488281 28.86328,-1.398438 -11.07031,-7.890625 -14.53906,-23.054687 -7.60156,-35.070312 z m 0,0"
       id="path1328" />
    <path
       style="fill:#f25c5c"
       inkscape:connector-curvature="0"
       d="m 264.78125,313.04297 c 0,14.41406 -11.6875,26.10156 -26.10547,26.10156 -14.41406,0 -26.10156,-11.6875 -26.10156,-26.10156 0,-14.41406 11.6875,-26.10156 26.10156,-26.10156 14.41797,0 26.10547,11.6875 26.10547,26.10156 z m 0,0"
       id="path1330" />
    <path
       style="fill:#e54a4a"
       inkscape:connector-curvature="0"
       d="m 240.39063,313.04297 c 0,-9.30078 4.87109,-17.46094 12.19531,-22.08203 -4.02735,-2.54297 -8.79297,-4.01953 -13.91016,-4.01953 -14.41406,0 -26.10156,11.6875 -26.10156,26.10156 0,14.41797 11.6875,26.10156 26.10156,26.10156 5.11719,0 9.88281,-1.47656 13.91016,-4.01562 -7.32422,-4.625 -12.19531,-12.78516 -12.19531,-22.08594 z m 0,0"
       id="path1332" />
    <path
       style="fill:#f25c5c"
       inkscape:connector-curvature="0"
       d="m 326.27344,256.37109 c 0,8.16016 -6.61328,14.77344 -14.77344,14.77344 -8.16016,0 -14.77734,-6.61328 -14.77734,-14.77344 0,-8.16015 6.61718,-14.77343 14.77734,-14.77343 8.16016,0 14.77344,6.61328 14.77344,14.77343 z m 0,0"
       id="path1334" />
    <path
       style="fill:#e54a4a"
       inkscape:connector-curvature="0"
       d="m 319.96875,256.37109 c 0,-3.4375 1.18359,-6.59375 3.15234,-9.10156 -2.70703,-3.44922 -6.90234,-5.67187 -11.625,-5.67187 -8.16015,0 -14.77343,6.61328 -14.77343,14.77343 0,8.16016 6.61328,14.77344 14.77343,14.77344 4.72266,0 8.91797,-2.22265 11.625,-5.67187 -1.96875,-2.50782 -3.15234,-5.66407 -3.15234,-9.10157 z m 0,0"
       id="path1336" />
    <path
       style="fill:#f25c5c"
       inkscape:connector-curvature="0"
       d="m 255.375,189.87109 c 0,16.44922 -13.33203,29.78125 -29.78125,29.78125 -16.44922,0 -29.78125,-13.33203 -29.78125,-29.78125 0,-16.44921 13.33203,-29.78125 29.78125,-29.78125 16.44922,0 29.78125,13.33204 29.78125,29.78125 z m 0,0"
       id="path1338" />
    <path
       style="fill:#e54a4a"
       inkscape:connector-curvature="0"
       d="m 223.62891,189.87109 c 0,-11.42187 6.43359,-21.33984 15.87109,-26.33593 -4.14844,-2.19532 -8.88281,-3.44532 -13.90625,-3.44532 -16.44922,0 -29.78125,13.33204 -29.78125,29.78125 0,16.44922 13.33203,29.78125 29.78125,29.78125 5.02344,0 9.75781,-1.25 13.90625,-3.44531 -9.4375,-4.99609 -15.87109,-14.91406 -15.87109,-26.33594 z m 0,0"
       id="path1340" />
    <path
       style="fill:#f25c5c"
       inkscape:connector-curvature="0"
       d="m 186.36719,247.01563 c 0,6.93359 -5.6211,12.55859 -12.5586,12.55859 -6.93359,0 -12.55859,-5.625 -12.55859,-12.5586 0,-6.9375 5.625,-12.55859 12.55859,-12.55859 6.9375,0 12.5586,5.62109 12.5586,12.5586 z m 0,0"
       id="path1342" />
    <path
       style="fill:#f25c5c"
       inkscape:connector-curvature="0"
       d="m 330.66797,177.08203 c 0,9.38281 -7.60547,16.98828 -16.99219,16.98828 -9.38281,0 -16.98828,-7.60547 -16.98828,-16.98828 0,-9.38672 7.60547,-16.99219 16.98828,-16.99219 9.38672,0 16.99219,7.60547 16.99219,16.99219 z m 0,0"
       id="path1344" />
    <path
       style="fill:#e54a4a"
       inkscape:connector-curvature="0"
       d="m 324.50391,177.08203 c 0,-3.6289 1.14453,-6.98437 3.08203,-9.74219 -3.07422,-4.3789 -8.15235,-7.25 -13.91016,-7.25 -9.38281,0 -16.98828,7.60547 -16.98828,16.99219 0,9.38281 7.60547,16.98828 16.98828,16.98828 5.75781,0 10.83594,-2.87109 13.91016,-7.25 -1.9375,-2.75781 -3.08203,-6.11328 -3.08203,-9.73828 z m 0,0"
       id="path1346" />
    <path
       style="fill:#f25c5c"
       inkscape:connector-curvature="0"
       d="m 315.01172,316.39063 c -1.97656,0 -3.95313,-0.75782 -5.46484,-2.26563 -3.01563,-3.01562 -3.01563,-7.91016 0,-10.92578 l 5.04687,-5.05078 c 3.01953,-3.01563 7.91016,-3.01563 10.92969,0 3.01562,3.01953 3.01562,7.91015 0,10.92578 l -5.04688,5.05078 c -1.51172,1.50781 -3.48828,2.26562 -5.46484,2.26563 z m 0,0"
       id="path1348" />
    <path
       style="fill:#f25c5c"
       inkscape:connector-curvature="0"
       d="m 265.6875,251.73438 c -1.85547,0 -3.71875,-0.66407 -5.19531,-2.01172 l -5.28516,-4.80078 c -3.15625,-2.8711 -3.38672,-7.76172 -0.51562,-10.91797 2.87109,-3.15625 7.75781,-3.39063 10.91406,-0.51563 l 5.28125,4.80078 c 3.15625,2.8711 3.39062,7.75782 0.51953,10.91797 -1.52734,1.67578 -3.61719,2.52735 -5.71875,2.52735 z m 0,0"
       id="path1350" />
    <path
       style="fill:#f77c7c"
       inkscape:connector-curvature="0"
       d="m 364.10156,4.085938 c -12.76953,-7.371094 -29.09375,-2.996094 -36.46875,9.769531 -7.37109,12.769531 -2.99609,29.097656 9.77344,36.46875 12.76563,7.371093 29.09375,2.996093 36.46484,-9.769531 7.3711,-12.769532 3,-29.097657 -9.76953,-36.46875 z m 0,0"
       id="path1352" />
    <path
       style="fill:#f25c5c"
       inkscape:connector-curvature="0"
       d="m 358.66797,13.847656 c 1.97266,-3.414062 4.58984,-6.222656 7.60156,-8.375 -0.6914,-0.492187 -1.41406,-0.960937 -2.16797,-1.394531 -12.76562,-7.371094 -29.09375,-2.996094 -36.46484,9.769531 -7.3711,12.769532 -2.9961,29.09375 9.76953,36.46875 9.35156,5.398438 20.61328,4.488282 28.86328,-1.398437 -11.07031,-7.890625 -14.53906,-23.054688 -7.60156,-35.070313 z m 0,0"
       id="path1354" />
    <path
       style="fill:#f77c7c"
       inkscape:connector-curvature="0"
       d="m 498.64453,191.01953 c -12.76953,-7.37109 -29.09375,-2.99609 -36.46484,9.77344 -7.375,12.76562 -3,29.09375 9.76953,36.46484 12.76562,7.3711 29.09375,3 36.46484,-9.76953 7.375,-12.76953 3,-29.09375 -9.76953,-36.46875 z m 0,0"
       id="path1356" />
    <path
       style="fill:#f25c5c"
       inkscape:connector-curvature="0"
       d="m 493.21484,200.78125 c 1.97266,-3.41797 4.58985,-6.22656 7.60547,-8.375 -0.69531,-0.49609 -1.41797,-0.96484 -2.16797,-1.39844 -12.76953,-7.37109 -29.09765,-2.99609 -36.46875,9.77344 -7.37109,12.76563 -2.99609,29.09375 9.76954,36.46484 9.35546,5.40235 20.61328,4.49219 28.86718,-1.39453 -11.07422,-7.89062 -14.54297,-23.05468 -7.60547,-35.07031 z m 0,0"
       id="path1358" />
    <path
       style="fill:#f77c7c"
       inkscape:connector-curvature="0"
       d="m 403.88672,401.24609 c -12.76563,-7.37109 -29.09375,-2.99609 -36.46484,9.76954 -7.375,12.76953 -3,29.09765 9.76953,36.46875 12.76953,7.37109 29.09375,2.99609 36.46484,-9.76954 7.375,-12.76953 3,-29.09765 -9.76953,-36.46875 z m 0,0"
       id="path1360" />
    <path
       style="fill:#f25c5c"
       inkscape:connector-curvature="0"
       d="m 398.46484,411.00781 c 1.97266,-3.41406 4.58985,-6.22656 7.60157,-8.375 -0.69141,-0.49609 -1.41407,-0.96093 -2.16797,-1.39843 -12.76563,-7.3711 -29.09375,-2.9961 -36.46485,9.77343 -7.37109,12.76563 -2.99609,29.09375 9.76954,36.46485 9.35546,5.40234 20.61328,4.49218 28.86718,-1.39453 -11.07422,-7.89063 -14.54297,-23.05469 -7.60547,-35.07032 z m 0,0"
       id="path1362" />
    <path
       style="fill:#f77c7c"
       inkscape:connector-curvature="0"
       d="m 174.58594,424.21875 c -12.76563,-7.375 -29.09375,-3 -36.46485,9.76953 -7.37109,12.76953 -2.99609,29.09375 9.76954,36.46485 12.76953,7.375 29.09375,3 36.46875,-9.76954 7.37109,-12.76562 2.99609,-29.09375 -9.77344,-36.46484 z m 0,0"
       id="path1364" />
    <path
       style="fill:#f25c5c"
       inkscape:connector-curvature="0"
       d="m 169.16406,433.98438 c 1.97266,-3.41407 4.58985,-6.22266 7.60547,-8.375 -0.69531,-0.4961 -1.41797,-0.96094 -2.16797,-1.39454 -12.76953,-7.375 -29.09765,-3 -36.46875,9.76954 -7.37109,12.76953 -2.99609,29.09375 9.76953,36.46484 9.35547,5.40234 20.61329,4.49219 28.86719,-1.39453 C 165.69531,461.16406 162.22656,446 169.16406,433.98438 Z m 0,0"
       id="path1366" />
    <path
       style="fill:#f77c7c"
       inkscape:connector-curvature="0"
       d="M 40.042969,237.12109 C 27.273438,229.75 10.949219,234.125 3.578125,246.89453 c -7.375,12.76563 -3,29.09375 9.769531,36.46485 12.769532,7.37109 29.09375,2.99609 36.464844,-9.76954 7.375,-12.76953 3,-29.09375 -9.769531,-36.46875 z m 0,0"
       id="path1368" />
    <path
       style="fill:#f25c5c"
       inkscape:connector-curvature="0"
       d="m 34.617188,246.89063 c 1.972656,-3.41407 4.589843,-6.22266 7.601562,-8.3711 -0.691406,-0.49609 -1.414062,-0.96484 -2.167969,-1.39844 -12.765625,-7.37109 -29.09375,-2.99609 -36.464843,9.76954 -7.375,12.76953 -3,29.09765 9.769531,36.46875 9.351562,5.39843 20.609375,4.48828 28.863281,-1.39844 -11.070312,-7.89063 -14.539062,-23.05469 -7.601562,-35.07031 z m 0,0"
       id="path1370" />
  </g>
  <g
     id="g1438"
     transform="matrix(0.00969622,0,0,0.00916163,55.751429,39.949178)">
    <g
       id="g1380"
       style="fill:#e54a4a">
      <path
         id="path1374"
         d="m 308.625,121.00781 c -3.90234,-1.72656 -5.66797,-6.28906 -3.9375,-10.1914 l 30.03516,-67.863285 c 1.73047,-3.902344 6.29297,-5.660156 10.19531,-3.9375 3.90234,1.726563 5.66406,6.289063 3.9375,10.191406 l -30.03906,67.863279 c -1.72266,3.89453 -6.28125,5.66797 -10.19141,3.9375 z m 0,0"
         inkscape:connector-curvature="0" />
      <path
         id="path1376"
         d="m 372.21094,412.38281 -42.23438,-57.87109 c -2.51953,-3.44922 -1.76172,-8.28125 1.6836,-10.79688 3.44531,-2.51562 8.28125,-1.76172 10.79687,1.6836 l 42.23828,57.87109 c 2.51563,3.44922 1.76172,8.28125 -1.6875,10.79688 -3.44531,2.51953 -8.27734,1.76172 -10.79687,-1.6836 z m 0,0"
         inkscape:connector-curvature="0" />
      <path
         id="path1378"
         d="m 393.97266,231.83984 c -3.89844,0 -7.2461,-2.9375 -7.67188,-6.90234 -0.45703,-4.24219 2.61328,-8.05078 6.85938,-8.50781 l 72.23437,-7.75 c 4.25,-0.44922 8.05469,2.61328 8.50781,6.85547 0.45703,4.24609 -2.61328,8.05468 -6.85937,8.50781 l -72.23438,7.75391 c -0.28125,0.0273 -0.55859,0.043 -0.83593,0.043 z m 0,0"
         inkscape:connector-curvature="0" />
    </g>
    <path
       id="path1382"
       d="m 413.16406,239.08203 c 0,86.1836 -69.86718,156.04688 -156.05078,156.04688 -86.18359,0 -156.05078,-69.86328 -156.05078,-156.04688 0,-86.1875 69.86719,-156.05078 156.05078,-156.05078 86.1836,0 156.05078,69.86328 156.05078,156.05078 z m 0,0"
       inkscape:connector-curvature="0"
       style="fill:#f77c7c" />
    <path
       id="path1384"
       d="m 131.96875,239.08203 c 0,-80.97265 61.66797,-147.531249 140.59766,-155.289061 -5.08203,-0.5 -10.23828,-0.761719 -15.45313,-0.761719 -86.18359,0 -156.05078,69.86328 -156.05078,156.05078 0,86.1836 69.86719,156.04688 156.05078,156.04688 5.21485,0 10.3711,-0.26172 15.45313,-0.76172 -78.92578,-7.75781 -140.59766,-74.31641 -140.59766,-155.28516 z m 0,0"
       inkscape:connector-curvature="0"
       style="fill:#f25c5c" />
    <path
       id="path1386"
       d="m 166.09375,436.32422 c -3.90234,-1.72656 -5.66406,-6.28906 -3.9375,-10.19141 l 29.35156,-66.3164 c 1.73047,-3.90235 6.29297,-5.66407 10.19532,-3.9375 3.90234,1.72656 5.66406,6.28906 3.9375,10.1914 l -29.35157,66.31641 c -1.72656,3.89453 -6.28125,5.66797 -10.19531,3.9375 z m 0,0"
       inkscape:connector-curvature="0"
       style="fill:#e54a4a" />
    <path
       id="path1388"
       d="M 170.18359,130.98438 127.27344,72.191406 c -2.51563,-3.445312 -1.76172,-8.28125 1.6875,-10.792968 3.44531,-2.519532 8.27734,-1.761719 10.79297,1.683593 l 42.91015,58.789059 c 2.51563,3.44922 1.76172,8.28125 -1.68359,10.79688 -3.44922,2.51953 -8.28125,1.76172 -10.79688,-1.68359 z m 0,0"
       inkscape:connector-curvature="0"
       style="fill:#e54a4a" />
    <path
       id="path1390"
       d="m 48.214844,266.21875 c -3.898438,0 -7.25,-2.94141 -7.671875,-6.90625 -0.457031,-4.24219 2.613281,-8.05078 6.855469,-8.50781 l 71.843752,-7.70703 c 4.24609,-0.46094 8.05078,2.61718 8.50781,6.85937 0.45313,4.24219 -2.61719,8.05078 -6.85938,8.50781 l -71.843745,7.70704 c -0.277344,0.0273 -0.558594,0.0469 -0.832031,0.0469 z m 0,0"
       inkscape:connector-curvature="0"
       style="fill:#e54a4a" />
    <path
       id="path1392"
       d="m 134.80078,27.058594 c -12.76953,-7.375 -29.09375,-3 -36.464842,9.769531 -7.375,12.769531 -3,29.09375 9.769532,36.464844 12.76953,7.375 29.09375,3 36.46484,-9.769531 7.375,-12.765626 3,-29.09375 -9.76953,-36.464844 z m 0,0"
       inkscape:connector-curvature="0"
       style="fill:#f77c7c" />
    <path
       id="path1394"
       d="m 129.36719,36.824219 c 1.97265,-3.414063 4.58984,-6.222657 7.60156,-8.375 -0.69141,-0.492188 -1.41406,-0.960938 -2.16797,-1.394531 -12.76562,-7.371094 -29.09375,-2.996094 -36.464842,9.769531 -7.371094,12.769531 -2.996094,29.097656 9.769532,36.46875 9.35547,5.398437 20.61328,4.488281 28.86328,-1.398438 -11.07031,-7.890625 -14.53906,-23.054687 -7.60156,-35.070312 z m 0,0"
       inkscape:connector-curvature="0"
       style="fill:#f25c5c" />
    <path
       id="path1396"
       d="m 264.78125,313.04297 c 0,14.41406 -11.6875,26.10156 -26.10547,26.10156 -14.41406,0 -26.10156,-11.6875 -26.10156,-26.10156 0,-14.41406 11.6875,-26.10156 26.10156,-26.10156 14.41797,0 26.10547,11.6875 26.10547,26.10156 z m 0,0"
       inkscape:connector-curvature="0"
       style="fill:#f25c5c" />
    <path
       id="path1398"
       d="m 240.39063,313.04297 c 0,-9.30078 4.87109,-17.46094 12.19531,-22.08203 -4.02735,-2.54297 -8.79297,-4.01953 -13.91016,-4.01953 -14.41406,0 -26.10156,11.6875 -26.10156,26.10156 0,14.41797 11.6875,26.10156 26.10156,26.10156 5.11719,0 9.88281,-1.47656 13.91016,-4.01562 -7.32422,-4.625 -12.19531,-12.78516 -12.19531,-22.08594 z m 0,0"
       inkscape:connector-curvature="0"
       style="fill:#e54a4a" />
    <path
       id="path1400"
       d="m 326.27344,256.37109 c 0,8.16016 -6.61328,14.77344 -14.77344,14.77344 -8.16016,0 -14.77734,-6.61328 -14.77734,-14.77344 0,-8.16015 6.61718,-14.77343 14.77734,-14.77343 8.16016,0 14.77344,6.61328 14.77344,14.77343 z m 0,0"
       inkscape:connector-curvature="0"
       style="fill:#f25c5c" />
    <path
       id="path1402"
       d="m 319.96875,256.37109 c 0,-3.4375 1.18359,-6.59375 3.15234,-9.10156 -2.70703,-3.44922 -6.90234,-5.67187 -11.625,-5.67187 -8.16015,0 -14.77343,6.61328 -14.77343,14.77343 0,8.16016 6.61328,14.77344 14.77343,14.77344 4.72266,0 8.91797,-2.22265 11.625,-5.67187 -1.96875,-2.50782 -3.15234,-5.66407 -3.15234,-9.10157 z m 0,0"
       inkscape:connector-curvature="0"
       style="fill:#e54a4a" />
    <path
       id="path1404"
       d="m 255.375,189.87109 c 0,16.44922 -13.33203,29.78125 -29.78125,29.78125 -16.44922,0 -29.78125,-13.33203 -29.78125,-29.78125 0,-16.44921 13.33203,-29.78125 29.78125,-29.78125 16.44922,0 29.78125,13.33204 29.78125,29.78125 z m 0,0"
       inkscape:connector-curvature="0"
       style="fill:#f25c5c" />
    <path
       id="path1406"
       d="m 223.62891,189.87109 c 0,-11.42187 6.43359,-21.33984 15.87109,-26.33593 -4.14844,-2.19532 -8.88281,-3.44532 -13.90625,-3.44532 -16.44922,0 -29.78125,13.33204 -29.78125,29.78125 0,16.44922 13.33203,29.78125 29.78125,29.78125 5.02344,0 9.75781,-1.25 13.90625,-3.44531 -9.4375,-4.99609 -15.87109,-14.91406 -15.87109,-26.33594 z m 0,0"
       inkscape:connector-curvature="0"
       style="fill:#e54a4a" />
    <path
       id="path1408"
       d="m 186.36719,247.01563 c 0,6.93359 -5.6211,12.55859 -12.5586,12.55859 -6.93359,0 -12.55859,-5.625 -12.55859,-12.5586 0,-6.9375 5.625,-12.55859 12.55859,-12.55859 6.9375,0 12.5586,5.62109 12.5586,12.5586 z m 0,0"
       inkscape:connector-curvature="0"
       style="fill:#f25c5c" />
    <path
       id="path1410"
       d="m 330.66797,177.08203 c 0,9.38281 -7.60547,16.98828 -16.99219,16.98828 -9.38281,0 -16.98828,-7.60547 -16.98828,-16.98828 0,-9.38672 7.60547,-16.99219 16.98828,-16.99219 9.38672,0 16.99219,7.60547 16.99219,16.99219 z m 0,0"
       inkscape:connector-curvature="0"
       style="fill:#f25c5c" />
    <path
       id="path1412"
       d="m 324.50391,177.08203 c 0,-3.6289 1.14453,-6.98437 3.08203,-9.74219 -3.07422,-4.3789 -8.15235,-7.25 -13.91016,-7.25 -9.38281,0 -16.98828,7.60547 -16.98828,16.99219 0,9.38281 7.60547,16.98828 16.98828,16.98828 5.75781,0 10.83594,-2.87109 13.91016,-7.25 -1.9375,-2.75781 -3.08203,-6.11328 -3.08203,-9.73828 z m 0,0"
       inkscape:connector-curvature="0"
       style="fill:#e54a4a" />
    <path
       id="path1414"
       d="m 315.01172,316.39063 c -1.97656,0 -3.95313,-0.75782 -5.46484,-2.26563 -3.01563,-3.01562 -3.01563,-7.91016 0,-10.92578 l 5.04687,-5.05078 c 3.01953,-3.01563 7.91016,-3.01563 10.92969,0 3.01562,3.01953 3.01562,7.91015 0,10.92578 l -5.04688,5.05078 c -1.51172,1.50781 -3.48828,2.26562 -5.46484,2.26563 z m 0,0"
       inkscape:connector-curvature="0"
       style="fill:#f25c5c" />
    <path
       id="path1416"
       d="m 265.6875,251.73438 c -1.85547,0 -3.71875,-0.66407 -5.19531,-2.01172 l -5.28516,-4.80078 c -3.15625,-2.8711 -3.38672,-7.76172 -0.51562,-10.91797 2.87109,-3.15625 7.75781,-3.39063 10.91406,-0.51563 l 5.28125,4.80078 c 3.15625,2.8711 3.39062,7.75782 0.51953,10.91797 -1.52734,1.67578 -3.61719,2.52735 -5.71875,2.52735 z m 0,0"
       inkscape:connector-curvature="0"
       style="fill:#f25c5c" />
    <path
       id="path1418"
       d="m 364.10156,4.085938 c -12.76953,-7.371094 -29.09375,-2.996094 -36.46875,9.769531 -7.37109,12.769531 -2.99609,29.097656 9.77344,36.46875 12.76563,7.371093 29.09375,2.996093 36.46484,-9.769531 7.3711,-12.769532 3,-29.097657 -9.76953,-36.46875 z m 0,0"
       inkscape:connector-curvature="0"
       style="fill:#f77c7c" />
    <path
       id="path1420"
       d="m 358.66797,13.847656 c 1.97266,-3.414062 4.58984,-6.222656 7.60156,-8.375 -0.6914,-0.492187 -1.41406,-0.960937 -2.16797,-1.394531 -12.76562,-7.371094 -29.09375,-2.996094 -36.46484,9.769531 -7.3711,12.769532 -2.9961,29.09375 9.76953,36.46875 9.35156,5.398438 20.61328,4.488282 28.86328,-1.398437 -11.07031,-7.890625 -14.53906,-23.054688 -7.60156,-35.070313 z m 0,0"
       inkscape:connector-curvature="0"
       style="fill:#f25c5c" />
    <path
       id="path1422"
       d="m 498.64453,191.01953 c -12.76953,-7.37109 -29.09375,-2.99609 -36.46484,9.77344 -7.375,12.76562 -3,29.09375 9.76953,36.46484 12.76562,7.3711 29.09375,3 36.46484,-9.76953 7.375,-12.76953 3,-29.09375 -9.76953,-36.46875 z m 0,0"
       inkscape:connector-curvature="0"
       style="fill:#f77c7c" />
    <path
       id="path1424"
       d="m 493.21484,200.78125 c 1.97266,-3.41797 4.58985,-6.22656 7.60547,-8.375 -0.69531,-0.49609 -1.41797,-0.96484 -2.16797,-1.39844 -12.76953,-7.37109 -29.09765,-2.99609 -36.46875,9.77344 -7.37109,12.76563 -2.99609,29.09375 9.76954,36.46484 9.35546,5.40235 20.61328,4.49219 28.86718,-1.39453 -11.07422,-7.89062 -14.54297,-23.05468 -7.60547,-35.07031 z m 0,0"
       inkscape:connector-curvature="0"
       style="fill:#f25c5c" />
    <path
       id="path1426"
       d="m 403.88672,401.24609 c -12.76563,-7.37109 -29.09375,-2.99609 -36.46484,9.76954 -7.375,12.76953 -3,29.09765 9.76953,36.46875 12.76953,7.37109 29.09375,2.99609 36.46484,-9.76954 7.375,-12.76953 3,-29.09765 -9.76953,-36.46875 z m 0,0"
       inkscape:connector-curvature="0"
       style="fill:#f77c7c" />
    <path
       id="path1428"
       d="m 398.46484,411.00781 c 1.97266,-3.41406 4.58985,-6.22656 7.60157,-8.375 -0.69141,-0.49609 -1.41407,-0.96093 -2.16797,-1.39843 -12.76563,-7.3711 -29.09375,-2.9961 -36.46485,9.77343 -7.37109,12.76563 -2.99609,29.09375 9.76954,36.46485 9.35546,5.40234 20.61328,4.49218 28.86718,-1.39453 -11.07422,-7.89063 -14.54297,-23.05469 -7.60547,-35.07032 z m 0,0"
       inkscape:connector-curvature="0"
       style="fill:#f25c5c" />
    <path
       id="path1430"
       d="m 174.58594,424.21875 c -12.76563,-7.375 -29.09375,-3 -36.46485,9.76953 -7.37109,12.76953 -2.99609,29.09375 9.76954,36.46485 12.76953,7.375 29.09375,3 36.46875,-9.76954 7.37109,-12.76562 2.99609,-29.09375 -9.77344,-36.46484 z m 0,0"
       inkscape:connector-curvature="0"
       style="fill:#f77c7c" />
    <path
       id="path1432"
       d="m 169.16406,433.98438 c 1.97266,-3.41407 4.58985,-6.22266 7.60547,-8.375 -0.69531,-0.4961 -1.41797,-0.96094 -2.16797,-1.39454 -12.76953,-7.375 -29.09765,-3 -36.46875,9.76954 -7.37109,12.76953 -2.99609,29.09375 9.76953,36.46484 9.35547,5.40234 20.61329,4.49219 28.86719,-1.39453 C 165.69531,461.16406 162.22656,446 169.16406,433.98438 Z m 0,0"
       inkscape:connector-curvature="0"
       style="fill:#f25c5c" />
    <path
       id="path1434"
       d="M 40.042969,237.12109 C 27.273438,229.75 10.949219,234.125 3.578125,246.89453 c -7.375,12.76563 -3,29.09375 9.769531,36.46485 12.769532,7.37109 29.09375,2.99609 36.464844,-9.76954 7.375,-12.76953 3,-29.09375 -9.769531,-36.46875 z m 0,0"
       inkscape:connector-curvature="0"
       style="fill:#f77c7c" />
    <path
       id="path1436"
       d="m 34.617188,246.89063 c 1.972656,-3.41407 4.589843,-6.22266 7.601562,-8.3711 -0.691406,-0.49609 -1.414062,-0.96484 -2.167969,-1.39844 -12.765625,-7.37109 -29.09375,-2.99609 -36.464843,9.76954 -7.375,12.76953 -3,29.09765 9.769531,36.46875 9.351562,5.39843 20.609375,4.48828 28.863281,-1.39844 -11.070312,-7.89063 -14.539062,-23.05469 -7.601562,-35.07031 z m 0,0"
       inkscape:connector-curvature="0"
       style="fill:#f25c5c" />
  </g>
  <text
     xml:space="preserve"
     style="font-style:normal;font-variant:normal;font-weight:bold;font-stretch:normal;font-size:7.05555534px;line-height:1.25;font-family:Arial;-inkscape-font-specification:'Arial, Bold';font-variant-ligatures:normal;font-variant-caps:normal;font-variant-numeric:normal;font-feature-settings:normal;text-align:start;letter-spacing:0px;word-spacing:0px;writing-mode:lr-tb;text-anchor:start;fill:#7a7bff;fill-opacity:1;stroke:none;stroke-width:0.26458332"
     x="8.7307329"
     y="81.19313"
     id="text4283"><tspan
       sodipodi:role="line"
       x="8.7307329"
       y="81.19313"
       id="tspan4277"
       style="stroke-width:0.26458332"><tspan
         x="8.7307329"
         y="81.19313"
         id="tspan4275"
         style="stroke-width:0.26458332">Dogs can </tspan></tspan><tspan
       sodipodi:role="line"
       x="8.7307329"
       y="90.012573"
       id="tspan4281"
       style="stroke-width:0.26458332"><tspan
         x="8.7307329"
         y="90.012573"
         id="tspan4279"
         style="stroke-width:0.26458332">smell cancer</tspan></tspan></text>
</svg>
